<svg xmlns="http://www.w3.org/2000/svg" xmlns:xlink="http://www.w3.org/1999/xlink" width="1165.75" height="1165.75" viewBox="0 0 1165.75 1165.75"><defs><style>.cls-1{fill:#1e1e1e;}.cls-2{fill:url(#linear-gradient);}.cls-3{fill:url(#linear-gradient-2);}.cls-4{fill:#8561a9;}.cls-5{fill:url(#New_Gradient_Swatch_1);}</style><linearGradient id="linear-gradient" x1="436.13" y1="101.04" x2="436.13" y2="1014.14" gradientUnits="userSpaceOnUse"><stop offset="0" stop-color="#4d2d78"/><stop offset="1" stop-color="#8561a9"/></linearGradient><linearGradient id="linear-gradient-2" x1="706.35" y1="65.56" x2="706.35" y2="1017.95" gradientUnits="userSpaceOnUse"><stop offset="0" stop-color="#8561a9"/><stop offset="1" stop-color="#4d2d78"/></linearGradient><linearGradient id="New_Gradient_Swatch_1" x1="995.03" y1="995.03" x2="170.72" y2="170.72" xlink:href="#linear-gradient-2"/></defs><g id="Layer_2" data-name="Layer 2"><g id="Layer_1-2" data-name="Layer 1"><path class="cls-1" d="M587.53,1126.84c-300.42,0-544-243.54-544-544s243.54-544,544-544,544,243.54,544,544S888,1126.84,587.53,1126.84Z"/><path class="cls-2" d="M538.59,204.65a46.09,46.09,0,0,1,.54-29.72l-.12.32L292.06,879.8a46.42,46.42,0,1,0,87.61,30.7L582.83,330.88,539,206C538.87,205.53,538.73,205.09,538.59,204.65Z"/><path class="cls-3" d="M873.68,879.74,626.61,175.24c-.15-.43-.31-.86-.47-1.29a46.41,46.41,0,0,0-87.55,30.7c.14.44.28.88.43,1.31l247.07,704.5a46.41,46.41,0,1,0,87.59-30.72Z"/><path class="cls-4" d="M606.89,580.35H568.18a38.7,38.7,0,0,0-38.7,38.7c0,21.38,17.4,38.14,38.7,38.71q19.82.59,38.71,0c21.82-.83,38.71-17.33,38.71-38.71A38.71,38.71,0,0,0,606.89,580.35Z"/><path class="cls-5" d="M582.87,0C261,0,0,261,0,582.88s261,582.87,582.87,582.87,582.88-261,582.88-582.87S904.79,0,582.87,0Zm0,1126.84c-300.42,0-544-243.54-544-544s243.54-544,544-544,544,243.54,544,544S883.3,1126.84,582.87,1126.84Z"/></g></g></svg>