<svg width="96" height="96" viewBox="0 0 96 96" fill="none" xmlns="http://www.w3.org/2000/svg">
<mask id="mask0" mask-type="alpha" maskUnits="userSpaceOnUse" x="0" y="0" width="96" height="96">
<path fill-rule="evenodd" clip-rule="evenodd" d="M96 48C96 21.4903 74.5097 0 48 0C21.4903 0 0 21.4903 0 48C0 74.5097 21.4903 96 48 96C74.5097 96 96 74.5097 96 48ZM69 88C79.4934 88 88 79.4934 88 69C88 58.5066 79.4934 50 69 50C58.5066 50 50 58.5066 50 69C50 79.4934 58.5066 88 69 88Z" fill="#C4C4C4"/>
</mask>
<g mask="url(#mask0)">
<path fill-rule="evenodd" clip-rule="evenodd" d="M48 0C39.4499 0 31.411 2.2389 24.45 6.16527C9.8638 14.3925 0 30.0416 0 48C0 74.5098 21.4903 96 48 96C74.5098 96 96 74.5098 96 48C96 21.4903 74.5098 0 48 0ZM30.3376 51.2957V11.9839C35.6629 9.36695 41.6549 7.89611 48 7.89611C70.1487 7.89611 88.104 25.8512 88.104 48C88.104 61.1462 81.7788 72.8168 72.0014 80.1321C73.3597 76.9906 74.1125 73.526 74.1125 69.8874C74.1125 55.6187 62.5457 44.0518 48.277 44.0518C41.3081 44.0518 34.9834 46.8124 30.3376 51.2957ZM22.4416 71.7575H22.5082C22.7363 74.9429 23.542 77.9691 24.821 80.7313C14.5775 73.464 7.8961 61.5114 7.8961 48C7.8961 35.5674 13.5514 24.4536 22.4416 17.0936V71.7575ZM30.3376 69.8874C30.3376 59.9798 38.3694 51.9481 48.277 51.9481C58.1848 51.9481 66.2165 59.9798 66.2165 69.8874C66.2165 79.795 58.1848 87.8267 48.277 87.8267C38.3694 87.8267 30.3376 79.795 30.3376 69.8874Z" fill="#651ED9"/>
</g>
<path d="M69 85C77.8366 85 85 77.8366 85 69C85 60.1634 77.8366 53 69 53C60.1634 53 53 60.1634 53 69C53 77.8366 60.1634 85 69 85Z" fill="#627EEA"/>
<path d="M69.498 57V65.87L76.995 69.22L69.498 57Z" fill="white" fill-opacity="0.602"/>
<path d="M69.498 57L62 69.22L69.498 65.87V57Z" fill="white"/>
<path d="M69.498 74.968V80.995L77 70.616L69.498 74.968Z" fill="white" fill-opacity="0.602"/>
<path d="M69.498 80.995V74.967L62 70.616L69.498 80.995Z" fill="white"/>
<path d="M69.498 73.573L76.995 69.22L69.498 65.872V73.573Z" fill="white" fill-opacity="0.2"/>
<path d="M62 69.22L69.498 73.573V65.872L62 69.22Z" fill="white" fill-opacity="0.602"/>
</svg>
