<svg width="96" height="96" viewBox="0 0 96 96" fill="none" xmlns="http://www.w3.org/2000/svg">
<mask id="mask0" mask-type="alpha" maskUnits="userSpaceOnUse" x="0" y="0" width="96" height="96">
<path fill-rule="evenodd" clip-rule="evenodd" d="M96 48C96 21.4903 74.5097 0 48 0C21.4903 0 0 21.4903 0 48C0 74.5097 21.4903 96 48 96C74.5097 96 96 74.5097 96 48ZM69 88C79.4934 88 88 79.4934 88 69C88 58.5066 79.4934 50 69 50C58.5066 50 50 58.5066 50 69C50 79.4934 58.5066 88 69 88Z" fill="#C4C4C4"/>
</mask>
<g mask="url(#mask0)">
<path d="M72.2305 46.6668C72.8972 46.3335 73.8972 47.0001 73.8972 47.6668L75.2305 52.6668C75.5638 53.3335 74.8972 54.3335 74.2305 54.3335C73.5638 54.6668 72.5638 54.0001 72.5638 53.3335L71.2305 48.3335C70.8972 47.6668 71.2305 46.6668 72.2305 46.6668ZM33.8972 9.33345C33.5638 8.66679 33.5638 7.66679 34.2305 7.33345L38.5638 4.33345C39.2305 4.00012 40.2305 4.00012 40.5638 4.66679C40.8972 5.66679 40.8972 6.33345 40.2305 7.00012L35.8972 10.0001C35.2305 10.0001 34.2305 10.0001 33.8972 9.33345Z" fill="white"/>
<path fill-rule="evenodd" clip-rule="evenodd" d="M56.23 27.0001C51.23 26.0001 45.8966 26.6668 41.23 29.6668C47.8966 27.3334 55.5633 29.0001 60.8967 34.3334C68.23 42.0001 68.23 54.3334 60.8967 61.6668C59.8967 62.6668 58.8966 63.3334 57.8966 64.0001C60.5633 63.0001 63.23 61.6668 65.23 59.3334C70.5633 54.0001 71.8966 46.3334 69.8966 39.6668C64.23 37.6668 59.23 33.0001 56.23 27.0001Z" fill="#FFAE54"/>
<path d="M87.897 70.3333C75.897 92.6667 47.897 101 25.897 88.6667C3.56367 76.6667 -4.43632 48.3333 7.56368 26C15.5637 11.3333 30.2303 2.66667 45.897 2C47.897 2 49.5637 3 50.5637 5C51.5637 7 52.2303 9.66667 51.897 12.3333C51.897 13.3333 51.897 14.3333 51.897 15.3333C51.897 20 53.2303 24.6667 55.2303 28.6667C45.5637 25 34.5637 29 29.5637 38.3333C23.897 48.6667 27.897 61.3333 37.897 67C47.897 72.6667 60.897 68.6667 66.2303 58.6667C69.2303 53 69.5637 46.3333 67.2303 40.6667C71.2303 42.6667 75.5637 43.6667 80.2303 43.6667C82.897 43.6667 85.2303 43.3333 87.897 42.6667C89.2303 42.3333 90.897 42.3333 91.897 43C92.897 43.6667 93.5637 44.3333 93.5637 45.3333C93.897 53.6667 91.897 62.3333 87.897 70.3333Z" fill="url(#paint0_radial)" stroke="#AC562A" stroke-width="3.572"/>
<path d="M75.8968 61.3333L77.5635 60.6667C78.8968 64 77.2301 67 76.2301 69.3333C76.2301 69.3333 76.2301 69.3333 76.2301 69.6667C75.5635 71 74.8968 72 74.8968 73C74.5635 74.6667 74.5635 76.3333 74.8968 77.3333C75.2301 78.3333 76.2301 79.3333 77.5635 79.6667C78.5635 80 80.2301 79.6667 82.2301 78.3333C90.2301 69 93.8968 57 93.2301 45.6667C93.2301 44.6667 92.5635 43.6667 91.5635 43C90.5635 42.3333 88.8968 42.3333 87.5635 42.6667C85.2301 43.3333 82.5635 43.6667 80.2301 43.6667C75.5635 43.6667 71.2301 42.6667 67.2301 40.3333C69.5635 46 69.2301 52.3333 66.5635 58C66.2301 59 65.5635 59.6667 64.8968 60.6667C66.2301 60.3333 67.5635 59.6667 69.5635 58.3333C71.8968 56.6667 74.8968 58.3333 75.8968 61.3333ZM75.8968 61.3333C76.8968 64 75.5635 66.3333 74.5635 68.6667C73.8968 70 73.2301 71.3333 72.8968 72.6667L75.8968 61.3333ZM43.8968 27.3333C39.2301 28.6667 35.5635 28 32.8968 26.6667C30.2301 25 27.8968 22.6667 26.8968 20C25.5635 17 25.2301 14 25.8968 11.3333C26.5635 8.66667 27.8968 6.66667 29.8968 5.66667C35.5635 3.33333 41.5635 2 47.2301 2C48.8968 2 50.2301 3 51.2301 4.66667C52.2301 6.33333 52.5635 8.66667 52.2301 10.6667C51.8968 12 51.8968 13.6667 51.8968 15.3333C51.8968 20 53.2301 24.6667 55.2301 28.6667C51.5635 27 47.5635 26.6667 43.8968 27.3333Z" fill="#AC562A" stroke="#AC562A" stroke-width="3.572"/>
<path d="M12.8968 40.0004C14.1855 40.0004 15.2301 38.9557 15.2301 37.6671C15.2301 36.3784 14.1855 35.3337 12.8968 35.3337C11.6081 35.3337 10.5635 36.3784 10.5635 37.6671C10.5635 38.9557 11.6081 40.0004 12.8968 40.0004Z" fill="#AC562A"/>
<path d="M47.5633 81.6667C48.852 81.6667 49.8966 80.622 49.8966 79.3333C49.8966 78.0447 48.852 77 47.5633 77C46.2746 77 45.23 78.0447 45.23 79.3333C45.23 80.622 46.2746 81.6667 47.5633 81.6667Z" fill="#AC562A"/>
<path d="M32.897 85.3334C35.1061 85.3334 36.897 83.5425 36.897 81.3334C36.897 79.1242 35.1061 77.3334 32.897 77.3334C30.6878 77.3334 28.897 79.1242 28.897 81.3334C28.897 83.5425 30.6878 85.3334 32.897 85.3334Z" fill="#AC562A"/>
</g>
<circle cx="69" cy="69" r="16" fill="#F3BA2F"/>
<g clip-path="url(#clip0)">
<path d="M65.4169 67.4436L68.8571 64.0034L72.299 67.4451L74.3007 65.4434L68.8571 60L63.4153 65.4418L65.4169 67.4435L65.4169 67.4436ZM60 68.8571L62.0018 66.855L64.0034 68.8567L62.0016 70.8584L60 68.8571ZM65.4169 70.2707L68.8571 73.7108L72.2989 70.2691L74.3017 72.2698L74.3007 72.2708L68.8571 77.7142L63.4153 72.2724L63.4125 72.2695L65.4171 70.2705L65.4169 70.2707ZM73.7108 68.8579L75.7126 66.8562L77.7142 68.8578L75.7125 70.8596L73.7108 68.8579Z" fill="white"/>
<path d="M70.8871 68.8558H70.888L68.857 66.8246L67.3557 68.3254L67.1832 68.4979L66.8275 68.8537L66.8247 68.8565L66.8275 68.8594L68.857 70.8891L70.8881 68.8579L70.8891 68.8568L70.8873 68.8558" fill="white"/>
</g>
<defs>
<radialGradient id="paint0_radial" cx="0" cy="0" r="1" gradientUnits="userSpaceOnUse" gradientTransform="translate(47.6843 48.2661) rotate(90) scale(47.9264 47.4435)">
<stop offset="0.3335" stop-color="#F7B450"/>
<stop offset="0.6477" stop-color="#FFC977"/>
<stop offset="1" stop-color="#FF9900"/>
</radialGradient>
<clipPath id="clip0">
<rect width="17.7143" height="17.7142" fill="white" transform="translate(60 60)"/>
</clipPath>
</defs>
</svg>
