<svg width="96" height="96" viewBox="0 0 96 96" fill="none" xmlns="http://www.w3.org/2000/svg">
<mask id="mask0" mask-type="alpha" maskUnits="userSpaceOnUse" x="0" y="0" width="96" height="96">
<path fill-rule="evenodd" clip-rule="evenodd" d="M96 48C96 21.4903 74.5097 0 48 0C21.4903 0 0 21.4903 0 48C0 74.5097 21.4903 96 48 96C74.5097 96 96 74.5097 96 48ZM69 88C79.4934 88 88 79.4934 88 69C88 58.5066 79.4934 50 69 50C58.5066 50 50 58.5066 50 69C50 79.4934 58.5066 88 69 88Z" fill="#C4C4C4"/>
</mask>
<g mask="url(#mask0)">
<path d="M48 96C74.5097 96 96 74.5097 96 48C96 21.4903 74.5097 1.14441e-05 48 1.14441e-05C21.4903 1.14441e-05 0 21.4903 0 48C0 74.5097 21.4903 96 48 96Z" fill="#FACFD8"/>
<path d="M36.7472 62.2384C38.4121 62.2384 39.8077 62.7889 40.934 63.8898C42.0603 64.9907 42.6235 66.3974 42.6235 68.1099C42.6235 69.8224 42.0603 71.2169 40.934 72.2934C39.8077 73.3698 38.4121 73.908 36.7472 73.908C35.1312 73.908 33.7478 73.3698 32.597 72.2934C31.4462 71.2169 30.8709 69.8224 30.8709 68.1099C30.8709 66.3974 31.4462 64.9907 32.597 63.8898C33.7478 62.7889 35.1312 62.2384 36.7472 62.2384ZM59.224 62.2384C60.889 62.2384 62.2846 62.7889 63.4109 63.8898C64.5372 64.9907 65.1003 66.3974 65.1003 68.1099C65.1003 69.8224 64.5372 71.2169 63.4109 72.2934C62.2846 73.3698 60.889 73.908 59.224 73.908C57.608 73.908 56.2247 73.3698 55.0739 72.2934C53.9231 71.2169 53.3477 69.8224 53.3477 68.1099C53.3477 66.3974 53.9231 64.9907 55.0739 63.8898C56.2247 62.7889 57.608 62.2384 59.224 62.2384ZM41.5217 22.092V35.7433L41.5214 36.0472C41.5191 37.2947 41.5029 38.5097 41.4726 39.692C43.5857 39.4325 45.7445 39.3029 47.9489 39.3029C50.2048 39.3029 52.4131 39.4387 54.5736 39.7103C54.5398 38.4231 54.523 37.1007 54.523 35.7433V22.092H63.9985V35.7433L63.9982 36.0472C63.9946 38.0552 63.9547 39.9787 63.8786 41.8179C64.4871 42.0211 65.0912 42.2368 65.691 42.4649C71.2347 44.5729 76.1837 47.4435 80.5379 51.0764L76.7672 56.795L76.5767 56.6546C72.6317 53.7617 68.2737 51.4986 63.5027 49.8654C63.4314 49.841 63.3599 49.8168 63.2885 49.7927C63.0486 52.2162 62.7711 54.6523 62.456 57.1008H56.139L56.0536 56.4966C55.6503 53.609 55.3166 50.73 55.0527 47.8598C52.7503 47.5374 50.3823 47.3762 47.9489 47.3762C45.5668 47.3762 43.2495 47.5306 40.9969 47.8395C40.7183 50.9066 40.379 53.9936 39.9791 57.1008H33.6621L33.5767 56.4966C33.262 54.2435 32.9897 51.9956 32.7599 49.7531L32.6418 49.7928L32.4287 49.8654C27.6032 51.525 23.1705 53.8348 19.1305 56.795L15.3599 51.0764L15.5416 50.9255C19.8516 47.3639 24.74 44.5437 30.2067 42.4649C30.8547 42.2185 31.5078 41.9865 32.1659 41.7689C32.086 39.8436 32.0461 37.835 32.0461 35.7433V22.092H41.5217Z" fill="#EC6998"/>
</g>
<circle cx="69" cy="69" r="16" fill="#F3BA2F"/>
<g clip-path="url(#clip0)">
<path d="M65.4169 67.4436L68.8571 64.0034L72.299 67.4451L74.3007 65.4434L68.8571 60L63.4153 65.4418L65.4169 67.4435L65.4169 67.4436ZM60 68.8571L62.0018 66.855L64.0034 68.8567L62.0016 70.8584L60 68.8571ZM65.4169 70.2707L68.8571 73.7108L72.2989 70.2691L74.3017 72.2698L74.3007 72.2708L68.8571 77.7142L63.4153 72.2724L63.4125 72.2695L65.4171 70.2705L65.4169 70.2707ZM73.7108 68.8579L75.7126 66.8562L77.7142 68.8578L75.7125 70.8596L73.7108 68.8579Z" fill="white"/>
<path d="M70.8871 68.8558H70.888L68.857 66.8246L67.3557 68.3254L67.1832 68.4979L66.8275 68.8537L66.8247 68.8565L66.8275 68.8594L68.857 70.8891L70.8881 68.8579L70.8891 68.8568L70.8873 68.8558" fill="white"/>
</g>
<defs>
<clipPath id="clip0">
<rect width="17.7143" height="17.7142" fill="white" transform="translate(60 60)"/>
</clipPath>
</defs>
</svg>
