<svg width="96" height="96" viewBox="0 0 96 96" fill="none" xmlns="http://www.w3.org/2000/svg">
<mask id="mask0" mask-type="alpha" maskUnits="userSpaceOnUse" x="0" y="0" width="96" height="96">
<path fill-rule="evenodd" clip-rule="evenodd" d="M96 48C96 21.4903 74.5097 0 48 0C21.4903 0 0 21.4903 0 48C0 74.5097 21.4903 96 48 96C74.5097 96 96 74.5097 96 48ZM69 88C79.4934 88 88 79.4934 88 69C88 58.5066 79.4934 50 69 50C58.5066 50 50 58.5066 50 69C50 79.4934 58.5066 88 69 88Z" fill="#C4C4C4"/>
</mask>
<g mask="url(#mask0)">
<path d="M47.5005 1.30231L59.0214 13.1009L30.0107 42.1116L18.4897 30.5906L47.5005 1.30231Z" fill="#F0B90B" stroke="#F0B90B" stroke-width="0.277614"/>
<path d="M64.9902 18.792L76.5112 30.5906L30.0107 77.091L18.4897 65.57L64.9902 18.792Z" fill="#F0B90B" stroke="#F0B90B" stroke-width="0.277614"/>
<path d="M12.521 36.2817L24.042 48.0803L12.521 59.6013L1 48.0803L12.521 36.2817Z" fill="#F0B90B" stroke="#F0B90B" stroke-width="0.277614"/>
<path d="M82.4789 36.2817L93.9999 48.0803L47.4995 94.5807L35.9785 83.0597L82.4789 36.2817Z" fill="#F0B90B" stroke="#F0B90B" stroke-width="0.277614"/>
</g>
<circle cx="69" cy="69" r="16" fill="#F3BA2F"/>
<g clip-path="url(#clip0)">
<path d="M65.4169 67.4436L68.8571 64.0034L72.299 67.4451L74.3007 65.4434L68.8571 60L63.4153 65.4418L65.4169 67.4435L65.4169 67.4436ZM60 68.8571L62.0018 66.855L64.0034 68.8567L62.0016 70.8584L60 68.8571ZM65.4169 70.2707L68.8571 73.7108L72.2989 70.2691L74.3017 72.2698L74.3007 72.2708L68.8571 77.7142L63.4153 72.2724L63.4125 72.2695L65.4171 70.2705L65.4169 70.2707ZM73.7108 68.8579L75.7126 66.8562L77.7142 68.8578L75.7125 70.8596L73.7108 68.8579Z" fill="white"/>
<path d="M70.8871 68.8558H70.888L68.857 66.8246L67.3557 68.3254L67.1832 68.4979L66.8275 68.8537L66.8247 68.8565L66.8275 68.8594L68.857 70.8891L70.8881 68.8579L70.8891 68.8568L70.8873 68.8558" fill="white"/>
</g>
<defs>
<clipPath id="clip0">
<rect width="17.7143" height="17.7142" fill="white" transform="translate(60 60)"/>
</clipPath>
</defs>
</svg>
