<svg width="96" height="96" viewBox="0 0 96 96" fill="none" xmlns="http://www.w3.org/2000/svg">
<mask id="mask0" mask-type="alpha" maskUnits="userSpaceOnUse" x="0" y="0" width="96" height="96">
<path fill-rule="evenodd" clip-rule="evenodd" d="M96 48C96 21.4903 74.5097 0 48 0C21.4903 0 0 21.4903 0 48C0 74.5097 21.4903 96 48 96C74.5097 96 96 74.5097 96 48ZM69 88C79.4934 88 88 79.4934 88 69C88 58.5066 79.4934 50 69 50C58.5066 50 50 58.5066 50 69C50 79.4934 58.5066 88 69 88Z" fill="#C4C4C4"/>
</mask>
<g mask="url(#mask0)">
<path fill-rule="evenodd" clip-rule="evenodd" d="M20.4637 18.5647C19.1073 11.511 24.5331 5 31.5868 5C37.8265 5 42.9811 10.1546 42.9811 16.3943V30.5016C44.6088 30.5016 46.2366 30.2303 47.8644 30.2303C49.4921 30.2303 50.8486 30.2303 52.4763 30.5016V16.3943C52.4763 10.1546 57.6309 5 63.8707 5C70.9243 5 76.3502 11.511 75.265 18.5647L72.2808 35.1136C82.8612 39.7256 91 47.8644 91 57.9022V64.142C91 72.552 85.5741 79.6057 77.7066 84.2177C69.8391 89.101 59.53 91.8139 47.8644 91.8139C36.1987 91.8139 25.8896 89.101 18.0221 84.2177C10.4259 79.6057 5 72.552 5 64.142V57.9022C5 47.8644 12.8675 39.7256 23.448 35.1136L20.4637 18.5647ZM68.2114 37.2839L71.7382 17.7508C72.5521 12.8675 69.0252 8.25552 63.8707 8.25552C59.53 8.25552 56.0032 11.7823 56.0032 16.123V34.0284C54.918 33.7571 53.5615 33.7571 52.4763 33.7571C50.8486 33.7571 49.4921 33.4858 47.8644 33.4858C46.2366 33.4858 44.6088 33.4858 42.9811 33.7571C41.8959 33.7571 40.5394 34.0284 39.4543 34.0284V16.3943C39.4543 12.0536 35.9274 8.52681 31.5868 8.52681C26.7035 8.52681 22.9054 13.1388 23.9905 18.0221L27.5174 37.5552C16.123 41.8959 8.52681 49.4921 8.52681 58.1735V64.4132C8.52681 77.7066 26.1609 88.5584 47.8644 88.5584C69.5678 88.5584 87.2019 77.7066 87.2019 64.4132V58.1735C87.4732 49.2208 79.877 41.6246 68.2114 37.2839Z" fill="#633001"/>
<path d="M87.4739 64.1427C87.4739 77.4361 69.8398 88.2878 48.1364 88.2878C26.4329 88.2878 8.79883 77.4361 8.79883 64.1427V57.9029H87.4739V64.1427Z" fill="#FEDC90"/>
<path fill-rule="evenodd" clip-rule="evenodd" d="M23.9913 18.0223C22.9061 13.139 26.7042 8.52704 31.5875 8.52704C35.9282 8.52704 39.455 12.0539 39.455 16.3945V34.2999C42.1679 34.0286 44.8808 33.7573 47.8651 33.7573C50.578 33.7573 53.2909 34.0286 56.0039 34.2999V16.3945C56.0039 12.0539 59.5307 8.52704 63.8714 8.52704C68.7547 8.52704 72.5528 13.139 71.7389 18.0223L68.2121 37.5554C79.6064 41.8961 87.4739 49.4923 87.4739 58.1737C87.4739 71.4671 69.8398 82.3188 48.1364 82.3188C26.4329 82.3188 8.79883 71.4671 8.79883 58.1737C8.79883 49.4923 16.395 41.8961 27.7894 37.5554L23.9913 18.0223Z" fill="#D1884F"/>
<path d="M37.0139 56.2752C37.0139 59.802 35.1149 62.7862 32.6732 62.7862C30.2316 62.7862 28.3325 59.802 28.3325 56.2752C28.3325 52.7484 30.2316 49.7641 32.6732 49.7641C35.1149 49.7641 37.0139 52.7484 37.0139 56.2752Z" fill="#633001"/>
<path d="M67.1252 56.2752C67.1252 59.802 65.2262 62.7862 62.7845 62.7862C60.3429 62.7862 58.4438 59.802 58.4438 56.2752C58.4438 52.7484 60.3429 49.7641 62.7845 49.7641C65.2262 49.7641 67.1252 52.7484 67.1252 56.2752Z" fill="#633001"/>
</g>
<circle cx="69" cy="69" r="16" fill="#F3BA2F"/>
<g clip-path="url(#clip0)">
<path d="M65.4169 67.4436L68.8571 64.0034L72.299 67.4451L74.3007 65.4434L68.8571 60L63.4153 65.4418L65.4169 67.4435L65.4169 67.4436ZM60 68.8571L62.0018 66.855L64.0034 68.8567L62.0016 70.8584L60 68.8571ZM65.4169 70.2707L68.8571 73.7108L72.2989 70.2691L74.3017 72.2698L74.3007 72.2708L68.8571 77.7142L63.4153 72.2724L63.4125 72.2695L65.4171 70.2705L65.4169 70.2707ZM73.7108 68.8579L75.7126 66.8562L77.7142 68.8578L75.7125 70.8596L73.7108 68.8579Z" fill="white"/>
<path d="M70.8871 68.8558H70.888L68.857 66.8246L67.3557 68.3254L67.1832 68.4979L66.8275 68.8537L66.8247 68.8565L66.8275 68.8594L68.857 70.8891L70.8881 68.8579L70.8891 68.8568L70.8873 68.8558" fill="white"/>
</g>
<defs>
<clipPath id="clip0">
<rect width="17.7143" height="17.7142" fill="white" transform="translate(60 60)"/>
</clipPath>
</defs>
</svg>
