<svg width="96" height="96" viewBox="0 0 96 96" fill="none" xmlns="http://www.w3.org/2000/svg">
<mask id="mask0" mask-type="alpha" maskUnits="userSpaceOnUse" x="0" y="0" width="96" height="96">
<path fill-rule="evenodd" clip-rule="evenodd" d="M96 48C96 21.4903 74.5097 0 48 0C21.4903 0 0 21.4903 0 48C0 74.5097 21.4903 96 48 96C74.5097 96 96 74.5097 96 48ZM69 88C79.4934 88 88 79.4934 88 69C88 58.5066 79.4934 50 69 50C58.5066 50 50 58.5066 50 69C50 79.4934 58.5066 88 69 88Z" fill="#C4C4C4"/>
</mask>
<g mask="url(#mask0)">
<path d="M48 96C74.5104 96 96 74.5104 96 48C96 21.4896 74.5104 0 48 0C21.4896 0 0 21.4896 0 48C0 74.5104 21.4896 96 48 96Z" fill="#070A0E"/>
<path fill-rule="evenodd" clip-rule="evenodd" d="M27.7296 64.0943C26.2944 63.2159 25.416 61.6559 25.416 59.9759V50.5967C25.416 49.4831 26.3232 48.5807 27.4368 48.5855C27.792 48.5855 28.1424 48.6815 28.4496 48.8591L49.6128 61.1999C50.8512 61.9199 51.6144 63.2447 51.6144 64.6799V74.3951C51.6192 75.7295 50.5392 76.8143 49.2048 76.8143C48.7584 76.8143 48.3168 76.6895 47.9376 76.4591L27.7296 64.0943ZM59.2752 46.2911C60.5136 47.0111 61.272 48.3407 61.2768 49.7711V69.4895C61.2768 70.0703 60.9648 70.6079 60.456 70.8911L55.824 73.4975C55.7664 73.5311 55.704 73.5551 55.6368 73.5743V62.6255C55.6368 61.2095 54.8928 59.8943 53.6736 59.1647L35.088 48.0479V35.6879C35.088 34.5743 35.9952 33.6719 37.1088 33.6767C37.464 33.6767 37.8144 33.7727 38.1216 33.9503L59.2752 46.2911ZM68.5392 31.7279C69.7824 32.4479 70.5456 33.7775 70.5456 35.2127V64.0127C70.5408 64.6031 70.2144 65.1455 69.696 65.4287L65.304 67.7999V47.7503C65.304 46.3343 64.56 45.0239 63.3504 44.2943L44.352 32.8991V21.1775C44.352 20.8223 44.448 20.4719 44.6208 20.1647C45.1824 19.2047 46.416 18.8783 47.376 19.4351L68.5392 31.7279Z" fill="#00D395"/>
</g>
<path d="M69 85C77.8366 85 85 77.8366 85 69C85 60.1634 77.8366 53 69 53C60.1634 53 53 60.1634 53 69C53 77.8366 60.1634 85 69 85Z" fill="#627EEA"/>
<path d="M69.498 57V65.87L76.995 69.22L69.498 57Z" fill="white" fill-opacity="0.602"/>
<path d="M69.498 57L62 69.22L69.498 65.87V57Z" fill="white"/>
<path d="M69.498 74.968V80.995L77 70.616L69.498 74.968Z" fill="white" fill-opacity="0.602"/>
<path d="M69.498 80.995V74.967L62 70.616L69.498 80.995Z" fill="white"/>
<path d="M69.498 73.573L76.995 69.22L69.498 65.872V73.573Z" fill="white" fill-opacity="0.2"/>
<path d="M62 69.22L69.498 73.573V65.872L62 69.22Z" fill="white" fill-opacity="0.602"/>
</svg>
