<svg width="96" height="96" viewBox="0 0 96 96" fill="none" xmlns="http://www.w3.org/2000/svg">
<mask id="mask0" mask-type="alpha" maskUnits="userSpaceOnUse" x="0" y="0" width="96" height="96">
<path fill-rule="evenodd" clip-rule="evenodd" d="M96 48C96 21.4903 74.5097 0 48 0C21.4903 0 0 21.4903 0 48C0 74.5097 21.4903 96 48 96C74.5097 96 96 74.5097 96 48ZM69 88C79.4934 88 88 79.4934 88 69C88 58.5066 79.4934 50 69 50C58.5066 50 50 58.5066 50 69C50 79.4934 58.5066 88 69 88Z" fill="#C4C4C4"/>
</mask>
<g mask="url(#mask0)">
<path d="M48 0C74.5121 0 96 21.4922 96 48C96 74.5121 74.5121 96 48 96C21.4922 96 0 74.5099 0 48C0 21.4922 21.4922 0 48 0Z" fill="#F5AC37"/>
<path d="M49.7709 51.366H68.0101C68.3989 51.366 68.5825 51.366 68.6106 50.8563C68.7596 49.0008 68.7596 47.1346 68.6106 45.2769C68.6106 44.9162 68.4313 44.7672 68.0403 44.7672H31.7412C31.2919 44.7672 31.1709 44.9162 31.1709 45.3374V50.677C31.1709 51.366 31.1709 51.366 31.8902 51.366H49.7709ZM66.5737 38.5269C66.6255 38.3908 66.6255 38.2417 66.5737 38.1078C66.2691 37.4447 65.9084 36.8118 65.4893 36.2178C64.8586 35.2026 64.1156 34.2673 63.2688 33.4271C62.8692 32.9194 62.407 32.4637 61.8886 32.077C59.2922 29.8673 56.2056 28.3035 52.8878 27.5172C51.2138 27.1414 49.503 26.9621 47.788 26.9772H31.6785C31.2292 26.9772 31.1688 27.1565 31.1688 27.5475V38.1964C31.1688 38.6457 31.1688 38.7666 31.739 38.7666H66.3577C66.3577 38.7666 66.6579 38.7061 66.7184 38.5269H66.5715H66.5737ZM66.5737 57.6063C66.0639 57.5502 65.5498 57.5502 65.0401 57.6063H31.7714C31.3221 57.6063 31.1709 57.6063 31.1709 58.2068V68.6181C31.1709 69.0977 31.1709 69.2186 31.7714 69.2186H47.1313C47.8657 69.2748 48.6001 69.2229 49.3194 69.0696C51.5486 68.9097 53.741 68.4259 55.8319 67.6288C56.5922 67.3653 57.3266 67.0219 58.02 66.6093H58.2295C61.8303 64.7366 64.7549 61.7946 66.5996 58.1831C66.5996 58.1831 66.8091 57.7295 66.5737 57.6107V57.6063ZM25.1423 74.6165V74.4372V67.4474V65.0779V58.0275C25.1423 57.6366 25.1423 57.5783 24.6628 57.5783H18.1525C17.7917 57.5783 17.6427 57.5783 17.6427 57.0987V51.3984H24.6023C24.9911 51.3984 25.1423 51.3984 25.1423 50.8887V45.2489C25.1423 44.8881 25.1423 44.7996 24.6628 44.7996H18.1525C17.7917 44.7996 17.6427 44.7996 17.6427 44.32V39.041C17.6427 38.7105 17.6427 38.6219 18.1222 38.6219H24.5721C25.0213 38.6219 25.1423 38.6219 25.1423 38.0517V21.8817C25.1423 21.4022 25.1423 21.2812 25.7428 21.2812H48.2416C49.8745 21.3461 51.4967 21.5253 53.1016 21.8213C56.4086 22.4325 59.586 23.6141 62.4912 25.3011C64.418 26.4351 66.1913 27.8045 67.7703 29.3813C68.9583 30.6147 70.0297 31.9496 70.9801 33.3709C71.924 34.8116 72.7081 36.3517 73.3237 37.9609C73.3993 38.38 73.8011 38.6629 74.2201 38.5917H79.59C80.279 38.5917 80.279 38.5917 80.3092 39.2526V44.1732C80.3092 44.6527 80.13 44.7736 79.6483 44.7736H75.5075C75.0885 44.7736 74.9675 44.7736 74.9978 45.3137C75.1619 47.141 75.1619 48.9749 74.9978 50.8023C74.9978 51.312 74.9978 51.3725 75.5702 51.3725H80.3071C80.5166 51.6425 80.3071 51.9125 80.3071 52.1847C80.3373 52.5324 80.3373 52.8845 80.3071 53.2323V56.8633C80.3071 57.3731 80.1581 57.5243 79.7066 57.5243H74.0365C73.6413 57.4487 73.2568 57.7014 73.1661 58.0945C71.816 61.6045 69.656 64.7517 66.8653 67.2746C65.8457 68.1926 64.7744 69.0566 63.6555 69.8537C62.4545 70.5449 61.2859 71.2642 60.0547 71.8344C57.7889 72.8539 55.4128 73.6056 52.9742 74.083C50.6586 74.4977 48.3107 74.6856 45.9541 74.6532H25.1337V74.623L25.1423 74.6165Z" fill="#FEFEFD"/>
</g>
<path d="M69 85C77.8366 85 85 77.8366 85 69C85 60.1634 77.8366 53 69 53C60.1634 53 53 60.1634 53 69C53 77.8366 60.1634 85 69 85Z" fill="#627EEA"/>
<path d="M69.498 57V65.87L76.995 69.22L69.498 57Z" fill="white" fill-opacity="0.602"/>
<path d="M69.498 57L62 69.22L69.498 65.87V57Z" fill="white"/>
<path d="M69.498 74.968V80.995L77 70.616L69.498 74.968Z" fill="white" fill-opacity="0.602"/>
<path d="M69.498 80.995V74.967L62 70.616L69.498 80.995Z" fill="white"/>
<path d="M69.498 73.573L76.995 69.22L69.498 65.872V73.573Z" fill="white" fill-opacity="0.2"/>
<path d="M62 69.22L69.498 73.573V65.872L62 69.22Z" fill="white" fill-opacity="0.602"/>
</svg>
