<svg width="96" height="96" viewBox="0 0 96 96" fill="none" xmlns="http://www.w3.org/2000/svg">
<mask id="mask0" mask-type="alpha" maskUnits="userSpaceOnUse" x="0" y="0" width="96" height="96">
<path fill-rule="evenodd" clip-rule="evenodd" d="M96 48C96 21.4903 74.5097 0 48 0C21.4903 0 0 21.4903 0 48C0 74.5097 21.4903 96 48 96C74.5097 96 96 74.5097 96 48ZM69 88C79.4934 88 88 79.4934 88 69C88 58.5066 79.4934 50 69 50C58.5066 50 50 58.5066 50 69C50 79.4934 58.5066 88 69 88Z" fill="#C4C4C4"/>
</mask>
<g mask="url(#mask0)">
<path d="M48 95.5C74.5097 95.5 96 74.0097 96 47.5C96 20.9903 74.5097 -0.5 48 -0.5C21.4903 -0.5 0 20.9903 0 47.5C0 74.0097 21.4903 95.5 48 95.5Z" fill="#988430"/>
<path d="M48.0001 93.9625C73.6606 93.9625 94.4625 73.1606 94.4625 47.5001C94.4625 21.8396 73.6606 1.03763 48.0001 1.03763C22.3395 1.03763 1.5376 21.8396 1.5376 47.5001C1.5376 73.1606 22.3395 93.9625 48.0001 93.9625Z" fill="#7A6A2A"/>
<path d="M48.0001 92.9835C73.12 92.9835 93.4836 72.6199 93.4836 47.5C93.4836 22.3801 73.12 2.01648 48.0001 2.01648C22.8803 2.01648 2.5166 22.3801 2.5166 47.5C2.5166 72.6199 22.8803 92.9835 48.0001 92.9835Z" fill="#BA9F33"/>
<path fill-rule="evenodd" clip-rule="evenodd" d="M20.9868 42.3738C20.715 42.1255 20.4277 41.8766 20.1635 41.6283C19.8993 41.38 19.628 41.1312 19.3561 40.8829L18.5482 40.1149C18.4161 39.9828 18.2763 39.8665 18.1442 39.7339C18.0121 39.6177 17.857 39.4856 17.7249 39.3689C16.6527 38.3515 15.5745 37.3342 14.5172 36.3163C15.6124 37.3183 16.6845 38.3131 17.7797 39.33L18.1601 39.7109C18.2922 39.8425 18.4319 39.9592 18.564 40.0913L19.3715 40.8368C19.6433 41.0851 19.9075 41.3339 20.1794 41.6048C20.4513 41.8756 20.7155 42.125 20.9873 42.3728L20.9868 42.3738ZM6.75784 42.2202C6.75784 42.2202 10.6567 42.6237 12.5598 42.8955C14.3226 43.1444 19.8374 43.9907 19.8374 43.9907L6.75784 42.2202ZM6.75784 42.2202C7.853 42.3134 8.94817 42.4296 10.0433 42.5463C10.6024 42.6006 11.1385 42.6626 11.6746 42.7168L12.4974 42.8105C12.7692 42.8489 13.0334 42.8878 13.3053 42.9268L16.5678 43.447L18.1985 43.7188C18.7345 43.812 19.2706 43.9134 19.8297 44.0066C19.2936 43.9523 18.7345 43.8745 18.1985 43.7966L16.5678 43.5637L13.3053 43.0824C13.0334 43.0435 12.7692 42.9887 12.4974 42.9503L11.6741 42.8556C11.138 42.8013 10.5789 42.7235 10.0428 42.661C8.94766 42.5294 7.85249 42.3892 6.75732 42.2187L6.75784 42.2202ZM19.4493 45.0065C19.4493 45.0065 15.2862 46.0633 13.8803 46.4672C12.4979 46.8477 8.31124 48.1215 8.31124 48.1215L19.4488 45.007L19.4493 45.0065Z" fill="#CFB66C"/>
<path fill-rule="evenodd" clip-rule="evenodd" d="M19.4481 45.0066C18.5239 45.2785 17.6049 45.5427 16.6674 45.7915L13.8868 46.537C12.9626 46.8088 12.0436 47.073 11.122 47.3449L9.73956 47.7253C9.28132 47.8574 8.8154 47.9736 8.3418 48.1062C8.79952 47.9526 9.26596 47.7955 9.7242 47.6634L11.1066 47.221C12.0308 46.9332 12.9498 46.6614 13.8714 46.3741C14.8109 46.1412 15.7356 45.8924 16.6751 45.6671C17.568 45.4418 18.5081 45.217 19.4481 45.0071V45.0066ZM8.89322 50.6847C9.35095 50.5137 14.6327 48.052 15.86 47.477C16.4744 47.1892 18.2603 46.5554 18.2603 46.5554L8.89322 50.6847Z" fill="#CFB66C"/>
<path fill-rule="evenodd" clip-rule="evenodd" d="M8.89358 50.6847C9.29703 50.5311 9.67796 50.3432 10.0661 50.1645L11.2155 49.6284L13.5226 48.5179C14.2906 48.1528 15.0371 47.7499 15.8291 47.4068C16.2331 47.2363 16.6371 47.0966 17.0405 46.9645L17.6549 46.7704C17.8643 46.7161 18.0589 46.6537 18.2693 46.5994C17.5013 46.9645 16.6929 47.2753 15.9239 47.6321C15.1559 48.013 14.3704 48.3238 13.5779 48.6653L11.2324 49.698C10.4449 50.017 9.67694 50.3585 8.89307 50.6847H8.89358ZM9.40558 52.8351C9.40558 52.8351 14.1897 50.0313 15.8363 49.1302C16.6985 48.6489 19.4869 47.266 19.4869 47.266L9.40558 52.8351Z" fill="#CFB66C"/>
<path fill-rule="evenodd" clip-rule="evenodd" d="M9.40723 52.8361C10.2147 52.3389 11.0379 51.8341 11.8612 51.3216L13.09 50.5756C13.5094 50.3273 13.9133 50.0943 14.3409 49.846C14.7602 49.5971 15.1642 49.3488 15.5912 49.1159C15.7944 48.9904 16.0074 48.8813 16.2281 48.7897L16.8804 48.4636C17.7426 48.0443 18.6048 47.6167 19.5136 47.2517C18.6903 47.7724 17.8435 48.2153 16.9971 48.673C16.5778 48.9059 16.1503 49.1159 15.7309 49.3488C15.3116 49.5818 14.9076 49.8306 14.4801 50.0559C14.0608 50.3042 13.6568 50.5372 13.2298 50.7625L11.9636 51.4537L9.40825 52.8361H9.40723ZM19.4496 47.8804C19.4496 47.8804 16.4749 50.1639 15.5118 50.894C14.5487 51.6242 11.7138 53.6747 11.7138 53.6747L19.4496 47.8804Z" fill="#CFB66C"/>
<path fill-rule="evenodd" clip-rule="evenodd" d="M36.5212 66.2961L34.999 63.4145L35.8843 59.8105L42.1988 57.3719L39.5113 51.8577L40.8394 46.2886L43.3328 41.3017L51.0379 40.0904L56.6996 34.6923L68.9252 35.6165L71.3249 48.6884L66.7036 65.1466L64.0709 73.6673L53.3988 74.0713L48.4436 70.6383L42.6416 68.2145L36.5212 66.2961Z" fill="#E2CC85"/>
<path fill-rule="evenodd" clip-rule="evenodd" d="M55.239 66.2029C55.239 66.2029 53.7629 66.8787 51.2454 66.7231C50.5169 65.7446 45.4143 65.2864 45.4143 65.2864C45.4143 65.2864 44.7773 65.0923 43.6509 65.5583C42.5174 66.0191 41.4452 65.9622 40.4433 66.2105C39.4413 66.4589 38.4465 65.1543 37.6785 64.8824C36.9105 64.5952 35.8921 63.904 35.8921 63.904L33.7417 63.6941L29.4235 61.8688L22.5632 55.0341L20.699 57.9525L20.124 61.5641L22.1981 65.844L27.7825 70.9312L38.6717 73.696L45.126 71.7944L53.2115 68.3768L55.239 66.2024V66.2029Z" fill="#F1D789"/>
<path fill-rule="evenodd" clip-rule="evenodd" d="M16.5522 42.0477L17.9346 37.8615L19.5817 35.1582L24.886 34.7153L23.2937 39.3602L18.8592 47.2516L20.6999 54.2962L17.4379 55.927L16.4354 54.3894L15.628 50.8633L15.5737 46.9019L16.5522 42.0477Z" fill="#F4ECB4"/>
<path fill-rule="evenodd" clip-rule="evenodd" d="M22.5015 65.9156L21.4841 64.4943C21.4841 64.4943 21.2123 63.8184 21.3679 63.2281C21.5215 62.6301 21.4995 62.5912 21.4222 62.3659C21.3449 62.1406 20.6921 61.3639 20.731 60.6957C20.7694 60.0199 20.6767 59.7946 21.1734 59.2591C21.6935 58.7389 21.5384 57.8377 21.5384 57.8377L22.2143 58.2571L22.3679 58.0241C22.3679 58.0241 22.6162 58.2182 22.6162 58.5213C22.6704 58.1019 22.4452 56.1599 22.9577 55.7176C23.4702 55.2752 24.379 57.7912 24.379 57.7912L23.8199 54.1406L22.3827 50.3974L19.8273 46.9798L19.6737 43.2125V42.8863C19.6737 42.8863 18.5007 44.6886 18.1746 46.1119C17.9416 47.0904 18.5007 48.2787 18.3845 49.6847C18.2908 51.0829 18.1746 50.9739 18.5161 51.5279C18.8576 52.0818 19.6891 53.221 19.3629 54.0443C19.0757 54.7514 18.0968 54.2543 18.0968 54.2543C18.0968 54.2543 17.9027 54.8287 17.6385 55.0386C17.5453 54.6971 17.4445 54.4795 17.2581 54.2706C17.2422 54.4027 17.2038 54.5814 17.2038 54.5814C17.2038 54.5814 17.0328 54.0454 16.8618 53.3695C16.6294 52.4689 16.3805 51.2806 16.1552 50.6436C16.0621 51.0087 15.8291 52.1192 15.8291 52.1192L15.9612 53.8283L16.5981 56.1737L17.2125 57.7097L17.8105 59.5893L18.3302 60.8519L18.7495 61.815L19.1146 63.9823L20.8774 65.8459L21.8175 66.2658L22.5005 65.9161L22.5015 65.9156Z" fill="#F3E19D"/>
<path fill-rule="evenodd" clip-rule="evenodd" d="M17.476 38.6301C17.476 38.6301 16.2099 40.7805 15.8453 42.9483C15.4808 45.1162 15.1541 47.4068 15.3845 50.358C15.6175 53.3332 16.0603 55.158 16.4177 56.4631C17.0321 58.6304 18.6234 61.644 18.6234 61.644L18.6777 61.5273C18.4102 61.0203 18.1967 60.4866 18.0408 59.935C17.8308 59.1117 17.753 58.1332 17.559 57.6904C17.388 57.248 17.1007 56.8671 16.961 56.3233C16.8289 55.8031 16.8074 54.9798 16.4019 54.3665C16.2308 54.1176 16.0209 53.4653 15.959 52.8131C15.8811 51.8341 15.9979 50.7389 15.9047 49.8383C15.7337 48.3392 15.6175 47.3219 15.7726 46.537C15.9277 45.7521 16.7362 43.5238 17.2333 41.7528C17.5595 40.6187 17.3649 39.6634 17.9629 38.6767C18.561 37.6983 18.9265 36.8361 19.0581 36.2381C19.2117 35.6943 17.474 38.6301 17.474 38.6301H17.476Z" fill="#F2E8B0"/>
<path fill-rule="evenodd" clip-rule="evenodd" d="M23.4789 37.7679C23.4789 37.7679 22.8266 37.9625 22.5158 38.304C22.205 38.6301 22.0729 38.902 21.6536 39.4534C21.2343 40.0048 21.2107 40.4554 20.8687 41.1466C20.5272 41.8224 19.7735 42.8398 19.6803 43.2048C19.5872 43.5699 19.432 45.2784 19.238 46.0864C19.067 46.8943 19.432 47.8886 19.432 47.8886L19.8744 47.7949C19.8744 47.7949 19.8744 48.3699 20.3173 48.7585C20.7596 49.1389 20.8375 47.4688 20.8375 47.4688L22.4917 41.8844L24.9847 40.1912L25.2565 38.8242L23.4779 37.7679H23.4789Z" fill="#F5EEC0"/>
<path fill-rule="evenodd" clip-rule="evenodd" d="M24.6916 40.3002C24.6916 40.3002 23.5186 40.3775 22.9441 40.7973C22.7112 40.9678 22.618 41.1076 22.3697 41.3175C21.9114 41.6979 21.445 42.0476 21.2202 42.5463C20.9714 43.0429 20.6995 43.7966 20.5132 45.2179C20.4353 45.8159 20.4353 46.3674 20.3811 46.8492C20.3032 47.5014 20.187 48.0216 20.249 48.3852C20.3268 49.1306 21.0958 49.5192 21.1706 50.3656L22.7629 49.5582L24.262 43.6471L27.4467 41.6503L25.6444 39.631L24.6895 40.2966L24.6916 40.3002Z" fill="#E6DB9D"/>
<path fill-rule="evenodd" clip-rule="evenodd" d="M16.2906 80.1036C16.2972 80.0452 16.3039 79.9869 16.3105 79.927C16.543 77.9302 16.5824 76.4167 16.7529 75.469C17.0012 74.1255 17.1722 73.6258 17.1333 73.123C17.079 72.3156 17.0171 71.7252 17.0949 71.1037C17.2111 70.2804 18.0191 69.3019 17.996 68.6261C17.9801 68.09 17.7083 67.7408 17.4753 67.4147C17.2424 67.0886 17.056 66.8167 17.056 66.8167C17.056 66.8167 18.6483 65.7215 18.633 61.3096C18.6655 61.3188 18.6968 61.3318 18.7261 61.3485L19.5105 63.5773L20.0466 64.2296L22.1048 68.0665L24.7534 70.6377L28.6676 73.2704L31.1222 75.9416L31.3705 83.064L28.1628 87.2271L27.6375 88.1784C23.464 86.0832 19.637 83.3597 16.29 80.1031L16.2906 80.1036Z" fill="#E5CB7A"/>
<path fill-rule="evenodd" clip-rule="evenodd" d="M26.0889 86.9174C26.0889 86.9174 26.1431 86.0321 26.8733 85.4571C26.99 85.6512 27.0673 85.8381 27.0443 85.9773C27.1764 85.7449 28.1005 84.2534 30.19 83.8648C32.2795 83.4844 32.7843 81.9622 32.7843 81.9622L37.2187 77.9313L42.2906 73.2634L48.4576 71.0961L51.3397 70.389C51.3397 70.389 51.394 70.5989 51.2854 71.0648C51.821 71.0264 53.0093 70.7546 54.2443 70.3194C54.7414 70.1253 55.2078 70.0475 55.4562 70.304C55.8212 70.6455 55.8755 71.4534 55.8985 71.9347C56.4965 71.8026 57.1877 71.2282 57.7417 71.2824C58.6275 71.3756 59.4119 72.4165 60.313 72.4165C61.5014 72.4165 62.0369 71.6864 62.8684 71.1114C63.3655 70.7699 64.0798 70.3434 64.4837 70.0552C65.4468 69.3481 75.6372 66.2336 75.6372 66.2336L79.2099 66.4666L79.7849 70.3035L79.4777 80.3336C79.4398 80.3699 79.4019 80.4078 79.3635 80.4442L63.1188 88.9285L40.601 92.3804C35.5569 91.5563 30.6893 89.882 26.2056 87.4289L26.0904 86.9169L26.0889 86.9174Z" fill="#D8C173"/>
<path fill-rule="evenodd" clip-rule="evenodd" d="M17.6572 81.3795C17.9772 80.7103 18.265 80.1507 18.3157 79.9505C18.3556 80.354 18.4288 81.2392 18.5763 82.1803C18.2667 81.9171 17.9603 81.65 17.6572 81.379V81.3795Z" fill="#F1D789"/>
<path fill-rule="evenodd" clip-rule="evenodd" d="M34.1061 90.8188L37.0184 90.0088L37.2667 90.0866C37.2667 90.0866 37.3988 90.1645 37.3988 90.4281C37.7639 90.2187 38.0746 90.2571 38.2999 90.1179C38.4161 90.3662 38.5324 91.1895 39.0454 91.2903C39.5809 91.4071 40.1559 91.0574 40.7386 90.615C41.313 90.1568 41.9674 89.5818 42.4625 89.3488C42.6441 89.6829 42.805 90.0277 42.9443 90.3815C43.5966 89.8614 44.7306 87.7488 46.346 87.7872C46.8129 86.6839 47.5929 85.7416 48.5896 85.0767C50.0887 84.0594 51.0282 83.9815 52.2012 84.0747C52.6671 83.4695 53.2412 82.956 53.8944 82.5602C54.0885 82.6381 54.6245 82.9642 55.2927 82.6534C55.9685 82.3431 56.7294 81.1389 57.7313 80.9838C58.2713 80.9095 58.8203 81.0247 59.2847 81.3099C59.2847 81.3099 62.2031 78.4125 64.2168 77.4494C64.139 77.2165 63.9839 76.3389 66.3447 74.3969C66.4768 74.5136 66.3836 74.8398 66.4768 74.8577C66.5152 74.8577 67.0912 74.6094 67.8203 74.0498C68.7214 73.3744 69.8007 72.6674 70.453 72.4733C71.6818 72.1083 72.9854 72.8537 72.9854 72.8537C73.0962 72.776 73.2197 72.7181 73.3504 72.6827C73.6607 72.6285 73.886 72.5895 74.057 72.5291C74.0416 72.9331 74.2669 73.6243 74.057 74.2223C74.3001 74.3591 74.5577 74.4685 74.825 74.5485C74.6934 74.8357 74.4056 75.5658 73.9244 75.9155C74.3278 76.1095 74.3821 76.3348 74.9571 76.5299C74.7241 76.856 74.3427 77.4157 74.1727 77.7587C74.0017 78.1238 73.3878 79.6383 73.1159 80.2127C72.8287 80.7877 72.4406 81.844 72.2537 82.0559C72.0668 82.2679 71.3915 83.1664 70.8713 83.6088C71.3321 83.4378 73.2173 82.8633 74.017 82.6457C73.779 82.9949 72.5722 84.7854 71.412 86.5072C65.857 89.8367 59.6563 91.9441 53.2229 92.6889C46.7895 93.4336 40.2713 92.7987 34.1025 90.8265L34.1061 90.8188Z" fill="#E0CD81"/>
<path fill-rule="evenodd" clip-rule="evenodd" d="M24.8834 40.0903C24.8834 40.0903 24.2081 40.0903 24.076 40.1834C23.9439 40.2766 24.7519 40.4712 25.0002 40.5644C25.2485 40.6576 25.7846 41.0846 25.9243 41.4266C26.0564 41.7527 30.7786 43.6553 30.7786 43.6553L34.1184 43.4843L35.2699 41.8935L33.0795 39.9751L34.6155 35.4469L32.5808 35.7731L27.6877 38.6915L25.2331 39.6315L24.8834 40.0903Z" fill="#DFC57C"/>
<path fill-rule="evenodd" clip-rule="evenodd" d="M32.2173 41.5895C32.2656 41.6677 32.3335 41.7318 32.4144 41.7754C32.4953 41.819 32.5862 41.8405 32.6781 41.8379C33.3693 41.8379 34.0057 42.0089 34.2699 42.3581C34.7128 42.9177 35.94 44.704 35.94 44.704L38.8758 45.7603L39.0653 42.3033L35.8576 40.0745L32.207 41.418V41.589H32.2152L32.2173 41.5895Z" fill="#E5CC7C"/>
<path fill-rule="evenodd" clip-rule="evenodd" d="M31.6414 42.8709C31.6414 42.8709 32.177 42.9099 32.8528 42.661C33.5287 42.4122 34.6392 41.8766 35.121 42.0866C35.7963 42.3738 35.6566 43.2749 36.3872 44.0834C36.8295 44.5805 37.6375 44.5652 38.0957 45.1012C38.554 45.6373 40.1304 45.3884 40.1304 45.3884L40.7284 48.614L38.3287 51.6901L37.5438 55.5112H34.2987L31.3342 54.3351L29.874 50.8023L30.6041 47.2296L31.6414 42.8709Z" fill="#D2C281"/>
<path fill-rule="evenodd" clip-rule="evenodd" d="M37.9185 43.026C37.999 43.0508 38.0826 43.0639 38.1668 43.0649C38.0736 43.1428 37.8791 43.3132 37.9569 43.7561C38.0347 44.199 38.283 44.7581 38.0736 45.0996C38.2408 45.2824 38.3655 45.4999 38.4387 45.7365C38.5708 46.1175 38.6097 46.4667 39.4714 46.5214C39.347 46.598 39.2324 46.6893 39.1299 46.7933C39.1299 46.7933 39.7279 47.3135 40.031 47.7948C40.3413 47.7815 41.1646 47.5255 41.1646 47.5255L41.3356 47.6422L41.7006 47.4886C41.7006 47.4886 41.3591 47.3565 41.6074 46.5255C41.8404 45.7954 42.0503 45.8343 42.0682 45.7801C42.0862 45.7258 42.2393 44.9568 42.2393 44.646C42.3555 44.2425 42.4487 43.0153 42.4487 43.0153L42.2003 40.3047L40.8026 39.4579L39.6659 38.3607L38.5938 40.38L37.8878 41.084L37.8335 42.8315L37.9185 43.026Z" fill="#E2C270"/>
<path fill-rule="evenodd" clip-rule="evenodd" d="M41.2822 40.7586C41.2822 40.7586 41.5305 41.4651 41.6242 42.0089C41.6573 41.9032 41.6755 41.7934 41.6785 41.6827C41.6785 41.6827 41.8726 42.7549 41.911 43.1977C41.9888 43.1819 42.0646 43.1588 42.082 43.2361C42.0994 43.3134 42.2765 44.1762 42.2356 44.6574C42.559 44.1239 43.0066 43.6763 43.5401 43.3529C43.8509 43.1583 44.216 42.9489 44.5969 42.933C45.1949 42.9177 45.6296 43.314 46.3444 43.314C48.0683 43.314 49.6299 42.0478 50.7793 41.6597C51.6257 41.3719 52.3558 41.1625 52.8683 40.6961C53.1171 40.4867 53.56 40.0208 53.9634 39.3291C54.4995 38.4075 55.0586 37.6052 55.6182 37.5043C55.365 37.5508 55.1074 37.569 54.8502 37.5586C54.8502 37.5586 55.0212 37.3876 55.311 37.1546C55.6008 36.9216 55.948 36.6344 56.4446 36.6344C57.3304 36.6344 57.7727 36.766 58.2699 36.766C58.767 36.7506 59.0543 36.6344 59.0543 36.6344C59.0543 36.6344 59.575 36.9995 60.7474 36.9995C61.9204 37.0148 62.7048 37.1157 63.3187 37.1705C63.9326 37.2253 65.9903 36.9995 66.5807 37.0169C66.9655 37.0317 67.3435 37.1242 67.6917 37.2887L65.7886 31.7591L58.9524 25.7841L54.8825 28.6656L48.6217 34.9259L42.5638 37.1705L41.2976 38.5918V40.7586H41.2822Z" fill="#CCB360"/>
<path fill-rule="evenodd" clip-rule="evenodd" d="M54.8735 37.5891C54.8735 37.5891 55.0446 37.4186 55.3313 37.1857C55.618 36.9527 55.9687 36.665 56.4654 36.665C57.3506 36.665 57.7935 36.7971 58.2906 36.7971C58.7878 36.7817 59.075 36.665 59.075 36.665C59.075 36.665 59.5962 37.0295 60.7682 37.0295C61.9412 37.0449 62.7256 37.1457 63.3395 37.2C63.9534 37.2543 66.0111 37.0295 66.6014 37.0464C66.9862 37.0609 67.364 37.1534 67.7119 37.3183L66.8497 34.8249L65.8483 32.9223L62.9898 29.7919C62.9898 29.7919 59.5594 27.7726 59.5333 27.7572C59.5179 27.7418 58.3449 27.4311 58.3449 27.4311L55.2381 29.3106L52.419 36.6041L52.3647 38.1401L54.1895 39.0023C54.6478 38.2343 55.1531 37.6199 55.6267 37.542C55.1992 37.5886 54.873 37.5886 54.873 37.5886L54.8735 37.5891Z" fill="#D5B457"/>
<path fill-rule="evenodd" clip-rule="evenodd" d="M54.8349 38.1099C54.563 38.1253 54.3382 38.071 54.2758 37.877C54.0428 37.2247 53.8564 37.1315 53.6614 37.1315C53.4663 37.1315 53.2031 37.5508 53.047 37.5892C52.8908 37.6276 52.7055 37.1079 52.7055 37.1079L52.5344 37.0301C52.5344 37.0301 51.5325 37.6824 50.8259 38.4514C50.1193 39.2205 48.9617 40.5255 48.4415 40.758C47.9213 40.9904 46.1345 41.0688 45.5231 41.2009C44.9118 41.333 44.2339 41.7758 44.1407 41.8767C44.0475 41.9776 44.4131 42.0861 44.4674 42.187C44.5217 42.2802 43.8689 42.2413 43.8146 42.3406C43.7762 42.4184 43.9682 42.8608 44.0634 43.0861C44.2301 43.0032 44.4129 42.9581 44.599 42.954C45.197 42.9386 45.6322 43.3349 46.3464 43.3349C48.0708 43.3349 49.6319 42.0687 50.7814 41.6801C51.6282 41.3929 52.3583 41.183 52.8708 40.717C53.1192 40.5076 53.562 40.0412 53.966 39.35C54.2609 38.8764 54.5487 38.4335 54.8364 38.1074L54.8349 38.1099Z" fill="#D2B257"/>
<path fill-rule="evenodd" clip-rule="evenodd" d="M30.1051 76.5487C30.1051 76.5487 29.9515 75.9737 28.5282 74.4905C28.1242 74.0711 27.8759 73.7225 27.604 73.4731C26.9282 72.8357 26.5319 72.6652 26.0506 72.3001C24.9943 71.5158 23.8449 71.5158 22.9597 70.5527C22.0744 69.5896 21.0427 67.7495 20.3259 65.8689C19.6194 63.9894 19.4248 63.3913 19.4248 63.3371C19.4248 63.2828 19.6194 62.9177 19.8677 62.972C20.116 63.0263 20.116 63.5076 20.1785 63.6243C20.3022 63.8148 20.4425 63.994 20.5978 64.1599C20.9629 64.5797 21.483 65.0815 21.7472 65.83C21.693 65.1931 21.4754 64.4865 21.4754 64.4865C21.4754 64.4865 22.8424 65.3487 24.0072 66.2493C25.1802 67.1504 25.6615 67.4612 26.004 68.0357C26.3465 68.6102 27.1534 70.1252 27.54 70.568C27.9266 71.0109 33.2232 72.6806 33.2232 72.6806L35.7428 74.5591L36.9936 77.3008L36.0146 78.8368L34.1351 79.2408L31.0825 77.8738L30.1051 76.5482V76.5487Z" fill="#D2B159"/>
<path fill-rule="evenodd" clip-rule="evenodd" d="M23.3252 67.1039C23.3252 67.1039 23.9621 68.1213 25.5155 69.0843C26.9138 69.9312 29.1272 70.7002 31.1004 71.1585C32.234 71.4303 33.3681 71.6397 34.3854 71.6556C37.1272 71.694 39.0144 70.9101 41.3527 70.6536C42.6189 70.5215 44.1723 70.4207 45.7877 70.0392C47.8613 69.5421 49.0885 68.9825 50.7587 68.196C51.9701 67.6369 53.0811 67.2176 53.9817 66.6815C55.2479 65.9361 56.172 65.1051 57.2442 64.8568C57.1121 65.2218 56.9723 65.8741 55.916 66.5499C56.4751 66.5341 57.2442 66.4957 57.2442 66.4957C57.2442 66.4957 56.4987 66.938 55.1859 67.9323C54.378 68.5467 53.3064 69.5866 52.2112 70.2778C51.5041 70.7207 50.7351 71.0458 50.2303 71.311C49.0015 71.9869 48.5059 72.3284 47.6984 73.1542C47.9857 73.1389 48.0092 73.1542 48.0092 73.1542C48.0092 73.1542 46.9914 73.2863 46.2618 73.6744C46.1082 73.6744 45.8419 73.6202 45.376 73.7523C45.011 73.8685 44.5292 74.1332 44.0325 74.2724C43.3254 74.4824 43.093 74.3892 43.093 74.3892L43.2092 74.6221C43.2092 74.6221 42.2876 74.6063 41.9804 74.6375C42.0347 74.6529 42.0193 74.6764 42.0193 74.6764C41.9654 74.6855 41.9134 74.7038 41.8657 74.7307C41.7179 74.8265 41.5553 74.8972 41.3845 74.9401C41.2913 74.9555 41.2135 74.9555 41.0967 74.979C41.1356 75.0722 41.4387 75.5934 41.5785 75.9006C41.4623 75.9784 39.7143 77.2989 39.7143 77.2989C39.7685 77.3842 39.8128 77.4754 39.8464 77.5707C39.9007 77.7412 39.9242 77.9901 39.9785 78.1063C40.1101 78.3393 40.1879 78.3782 40.1879 78.3782C40.1879 78.3782 39.9785 78.4171 39.6129 78.5103C39.3027 78.5881 38.9217 78.7197 38.3841 78.7975C38.2192 78.819 38.0533 78.8319 37.887 78.8364C37.9648 79.0074 38.3063 79.6597 37.6771 80.4129C37.0478 81.166 36.8538 81.2756 36.6597 81.7569C36.562 81.683 36.458 81.6179 36.3489 81.5623C36.1395 81.4691 35.8518 81.3299 35.7509 81.143C35.6921 81.392 35.6142 81.6361 35.518 81.8731C35.3239 82.3933 35.0367 82.9063 34.9824 83.2944C34.7725 83.0614 34.3844 82.6032 33.8483 82.6964C33.3123 82.7896 32.8853 83.5197 32.7921 83.7296C32.7921 83.5975 32.6989 83.4966 32.6759 83.6518C32.66 83.8228 32.3651 85.6086 30.7185 87.0535C30.7031 86.6884 30.7031 85.8805 30.6642 85.6168C30.5106 85.7704 30.3227 85.9972 29.204 86.479C28.1088 86.9603 28.2824 87.4421 28.2824 87.4421C28.2824 87.4421 28.1892 86.6741 28.7795 85.8651C29.3775 85.0577 29.7426 84.6768 29.7426 84.6148C29.733 84.5518 29.706 84.4926 29.6648 84.4438C29.587 84.366 29.4318 84.2728 29.4318 84.2109C29.525 84.1725 30.4492 83.7296 30.3949 82.8126C30.3406 81.9898 29.9914 81.5623 29.7426 81.2597C29.7042 81.2208 30.1082 80.9336 30.0534 80.8404C30.0145 80.7861 29.5178 80.4205 29.4554 80.226C29.4701 80.1099 29.4961 79.9955 29.5332 79.8845C29.5875 79.7135 29.6264 79.5967 29.611 79.4805C29.5721 79.2865 29.3622 78.7504 29.3002 78.6961C29.3545 78.7115 29.7426 78.6961 29.7426 78.6961C29.7426 78.6961 29.4323 78.199 29.3775 77.966C29.3228 77.7331 29.2065 77.1192 29.1446 77.0029C29.2767 77.0183 29.6028 77.0413 29.6028 77.0029C29.6187 76.8862 29.3156 76.6922 29.4492 76.5421C29.5424 76.5575 29.7211 76.6353 29.8916 76.8529C29.7984 76.6041 29.6433 76.1228 29.3166 75.9288C29.4702 75.8745 29.9925 75.7342 30.4507 76.0061C30.9089 76.278 31.0651 76.6584 31.0651 76.6584C31.0651 76.6584 31.337 76.8683 31.7568 77.1791C32.2381 77.5595 32.8515 78.1007 33.8304 78.4836C34.0403 78.6004 34.5759 78.6004 34.9645 78.5226C35.1337 78.4822 35.2959 78.4168 35.4458 78.3285C35.4999 78.2966 35.5572 78.2705 35.6168 78.2507C35.5333 78.0831 35.4373 77.922 35.3295 77.7689C35.4616 77.7689 35.6168 77.7848 35.6168 77.7848C35.6168 77.7848 35.71 77.5748 35.2906 77.1704C35.3838 77.0772 35.5006 77.0168 35.5006 76.8596C35.3685 76.8442 35.1355 76.6502 35.0812 76.5723C35.1585 76.5181 35.2753 76.3394 35.4074 76.2851C35.2906 76.1919 35.0034 75.8033 34.8713 75.7649C34.9975 75.7181 35.1196 75.6609 35.2364 75.5939C35.2364 75.5939 34.5841 75.4229 34.3742 75.2831C34.1642 75.1295 33.854 74.8638 33.6676 74.786C33.473 74.7082 33.1315 74.6698 32.9918 74.5141C33.1233 74.553 33.3333 74.5141 33.4889 74.5141C33.6051 74.5141 33.6599 74.5295 33.6983 74.5295C33.683 74.4752 33.683 74.3585 33.9861 74.3201C34.1319 74.2981 34.2733 74.2535 34.4054 74.188C34.4054 74.188 34.1176 74.1726 33.791 73.8618C33.4643 73.551 33.193 73.3027 33.0066 73.2638C32.8126 73.2249 32.4475 73.3959 32.2222 73.38C31.9114 73.3416 31.7793 73.186 31.7793 73.186C31.7793 73.186 30.7466 73.2792 28.4554 71.8814C26.4745 70.6695 25.6123 69.5979 25.6123 69.5979C25.4269 69.5306 25.2477 69.4473 25.0767 69.3491C24.3313 68.961 23.2981 68.153 23.3293 67.0963L23.3252 67.1039Z" fill="#C2A44D"/>
<path fill-rule="evenodd" clip-rule="evenodd" d="M51.8999 20.4862C52.0796 20.5446 52.2393 20.6523 52.3607 20.797C52.7258 21.2163 52.9587 22.0084 52.1278 22.8553C52.4539 22.9715 52.5886 23.0089 52.8732 22.9715C52.586 23.3135 51.9337 24.0436 51.8948 24.6805C51.8559 25.2007 52.182 25.3564 52.182 25.3564C52.182 25.3564 51.6849 25.9308 51.6619 26.8924C51.8966 26.6276 52.1536 26.3834 52.4299 26.1623C53.0048 25.704 53.7969 25.1838 54.333 24.8577C54.3257 24.9944 54.3441 25.1312 54.3872 25.2611C54.3872 25.2611 55.3887 24.4378 56.2304 24.8034C56.6108 24.9744 56.4398 25.51 56.4398 25.51C56.4398 25.51 56.9605 25.3159 57.3256 25.681C57.6907 26.046 58.2067 26.9876 58.4715 27.3527C58.5877 27.5237 58.8908 27.8498 59.2011 28.3546C59.6249 29.0614 59.9789 29.8079 60.2578 30.5834C60.2732 30.1794 60.374 29.5507 61.524 29.9465C62.6734 30.3504 63.978 31.1973 65.0732 32.8649C66.1683 34.5324 66.4397 36.4151 66.9911 37.1319C67.5502 37.8231 68.1252 38.9725 68.1641 39.4543C68.203 39.9361 67.9931 41.489 69.1426 45.691C69.4687 44.3864 69.9659 41.489 69.9659 41.489L70.2377 38.9336L70.5485 31.0268L62.292 24.1675L55.8377 19.4837L51.6357 19.8877L51.8994 20.4857L51.8999 20.4862Z" fill="#CAA13E"/>
<path fill-rule="evenodd" clip-rule="evenodd" d="M67.2397 32.2531C67.2397 32.2531 67.1229 31.4851 65.1814 30.1795C63.2394 28.8903 61.7249 28.8903 60.3271 27.7951C59.255 26.9329 58.1368 24.952 57.4087 24.2997C56.7017 23.6551 56.5854 21.7909 56.5854 21.7909L58.9698 19.7941L62.5159 14.6684L65.5137 11.3676L66.9504 13.3644L68.9472 15.7099L70.0577 20.4167L70.4617 27.3061L67.2361 32.2536L67.2397 32.2531Z" fill="#B59544"/>
<path fill-rule="evenodd" clip-rule="evenodd" d="M69.6391 40.5112C69.6979 39.4664 69.5689 38.4196 69.2582 37.4203C68.7462 35.828 67.6275 33.0007 67.1078 31.9419C66.8979 30.7689 67.0535 30.6757 67.2788 30.5436C67.5041 30.4115 68.351 29.9292 68.8148 28.2371C69.2787 26.5449 70.7179 26.4896 70.7179 26.4896L71.6032 25.8373L72.9472 29.2001L74.1197 32.2373L74.4847 34.5597L74.7566 36.5402L74.1197 40.7268L70.9744 43.5694L69.6386 40.5112H69.6391Z" fill="#C89D3A"/>
<path fill-rule="evenodd" clip-rule="evenodd" d="M25.7476 87.1743V87.0883C25.8129 87.0474 25.8706 86.9954 25.9181 86.9347C25.9723 86.8569 26.0117 86.7637 26.0501 86.7406C26.128 86.7017 26.493 86.587 26.6871 86.6239C26.8811 86.6608 27.3941 86.8722 27.666 86.8569C28.2251 86.8415 28.8774 86.414 29.9106 86.6085C31.464 86.8958 31.8291 87.952 32.7302 88.5501C33.3446 88.9699 33.9805 88.783 34.0737 88.783H34.2831C34.322 88.783 34.6093 88.4569 34.7649 88.4727C35.0757 88.4881 35.1064 88.7446 35.3005 88.76C35.7587 88.8142 36.6445 88.527 37.0873 88.6437C37.2187 88.6849 37.3381 88.7572 37.4354 88.8544C37.5328 88.9517 37.6052 89.0711 37.6464 89.2023C37.7396 89.4896 37.6618 89.8546 37.4365 90.0645C36.9552 90.5069 36.497 90.9268 36.4038 91.2933C36.5223 91.3837 36.6361 91.4801 36.7448 91.5821C32.9018 90.603 29.2044 89.1226 25.7476 87.1789V87.1743Z" fill="#CEB052"/>
<path fill-rule="evenodd" clip-rule="evenodd" d="M67.1064 71.6557C67.1064 71.6557 68.3178 70.0403 68.7377 69.24C69.157 68.4152 67.4095 57.9704 67.4095 57.9704L70.9203 46.4678L70.8266 42.7241C70.8266 42.7241 70.9976 39.2676 71.4016 37.7684C71.8834 38.6306 73.3825 39.6715 73.7087 40.223C73.8623 39.1662 74.384 36.9374 74.3067 34.5607C74.5939 35.0031 75.2851 39.4539 75.2851 39.4539L75.9763 42.4517L76.8775 45.6363L77.8794 48.9997L78.4775 51.3221L78.819 51.8812L79.1067 52.8596L79.3786 53.9164L80.163 56.394L80.6238 58.4286L80.9888 62.1181C81.0682 62.4006 81.1254 62.6889 81.1598 62.9803C81.1752 63.3843 81.1055 63.6173 81.1055 63.6874C81.1055 63.7575 81.2376 64.5726 81.1834 65.1865C81.1055 65.8009 81.1055 66.2817 80.6238 66.7225C80.142 67.1634 79.8394 69.7981 79.8394 69.7981L78.9772 69.2237C78.9772 69.2237 79.1482 68.4388 78.7442 67.7245C78.3402 67.0103 77.5559 66.8623 77.113 66.979C76.6706 67.0722 75.7854 67.2115 75.4976 67.4603C75.2257 67.7086 74.5581 68.4777 73.9442 68.8274C73.1762 69.2882 71.9249 69.3245 71.2572 69.4797C70.5814 69.6333 69.8359 70.0941 69.051 70.6291C68.4356 71.0275 67.7859 71.3702 67.1095 71.6531L67.1064 71.6557Z" fill="#CCA847"/>
<path fill-rule="evenodd" clip-rule="evenodd" d="M67.1064 88.6263C67.1064 88.6263 67.1576 88.6596 67.2565 88.7139C72.7746 86.1285 77.7188 82.4639 81.7973 77.9363C81.7527 76.3644 81.6949 74.7531 81.6314 74.1562C81.4998 72.89 81.593 71.6008 81.5541 70.8553C81.5151 70.1098 81.0958 67.0726 80.9018 66.2883C80.6919 65.5039 80.2874 65.1153 80.2259 65.1153C80.1717 65.1311 79.845 66.5914 79.845 66.9585C79.845 67.3256 79.7672 68.2093 79.7672 68.4346C79.7129 68.4187 79.6899 68.281 79.6899 68.2246C79.612 68.4187 79.5189 68.7607 79.4799 68.7996C79.441 68.8385 79.5342 68.4735 79.4799 68.3956C79.4257 68.3178 79.3263 68.3567 79.3479 68.1627C79.357 68.0476 79.3752 67.9334 79.4021 67.8212C79.4021 67.8212 79.1692 68.1627 78.9987 69.0326C78.8277 69.8948 78.8277 69.9183 78.7657 69.9956C78.7114 70.0893 78.4006 70.3996 78.3848 70.5164C78.3694 70.7258 78.6725 70.9357 78.6956 71.0519C78.7109 71.2465 78.4237 72.1471 78.3305 72.5879C78.2373 73.0287 78.2762 73.8925 78.1769 74.3354C78.0991 74.7393 78.0233 74.9723 77.7576 75.1428C77.9516 75.1817 78.138 75.236 78.138 75.236C78.138 75.236 78.4099 76.3854 77.7187 77.3644C77.4703 77.7059 77.4084 77.8615 77.1442 78.1723C76.6235 78.7467 76.2195 79.4011 76.1806 79.8266C76.1538 79.701 76.1356 79.5737 76.1263 79.4456C76.1263 79.4456 75.3189 80.3857 74.9769 80.9217C74.5345 81.6129 73.9207 81.574 73.7481 81.745C73.5756 81.916 73.5382 82.2263 73.5945 82.4751C73.4409 82.5135 73.1521 82.5683 72.9576 83.1663C72.8644 83.4766 72.6314 83.7807 72.2664 83.9896C71.9013 84.1985 71.4584 84.2615 71.2332 84.3158C71.4272 84.37 71.505 84.37 71.5982 84.432C71.482 84.626 70.9459 84.9291 70.3479 85.3178C69.7499 85.6828 69.4622 86.2184 69.3147 86.5681C69.1611 86.8942 68.9343 87.1041 68.5692 87.143C68.7228 87.2362 68.9502 87.4533 69.0664 87.5235C68.8954 87.5624 68.6056 87.5624 68.0879 88.0052C67.5442 88.4558 67.3578 88.5879 67.109 88.6268L67.1064 88.6263Z" fill="#C39D3C"/>
<path fill-rule="evenodd" clip-rule="evenodd" d="M56.2994 92.2259C56.5968 92.0174 56.919 91.8466 57.2584 91.7175C58.4698 91.2362 59.7513 91.143 60.2562 90.9879C60.738 90.8343 61.1184 90.6223 61.7164 90.5061C61.7005 90.6422 61.6872 90.7703 61.6729 90.8911C59.9098 91.4453 58.1144 91.8911 56.2969 92.2259H56.2994Z" fill="#D2BA6B"/>
<path fill-rule="evenodd" clip-rule="evenodd" d="M78.6427 60.3624C78.6427 60.3624 78.3943 61.7059 77.9515 62.5528C77.5086 63.3996 77.0299 64.5721 77.0299 64.5721C77.0328 64.3079 77.064 64.0447 77.123 63.7872C76.5639 64.1133 75.2046 64.8982 74.819 65.2474C74.454 65.5736 73.8401 66.1485 73.685 66.4204C74.05 65.3488 74.4304 64.3857 74.4929 63.9429C73.9338 64.3468 71.3236 66.4982 69.9648 67.9195L65.7315 71.3448C65.243 71.6084 64.74 71.8439 64.2247 72.0504C63.4951 72.3606 62.6329 72.6248 61.996 72.8737C62.167 72.4154 62.4384 72.0109 62.8193 71.6228C63.2233 71.2424 64.4347 69.9297 64.621 69.3188C64.792 68.6819 64.8309 68.3015 64.6057 67.7654C64.3957 67.8197 63.9145 67.8433 63.5883 67.9364C63.2622 68.0296 62.9125 68.3788 62.9125 68.3788C62.9125 68.3788 63.1608 66.9575 63.6969 65.614C63.2929 65.6294 62.6017 65.7456 62.6017 65.7456C62.6017 65.7456 63.5648 64.1302 65.2129 63.0043C64.7081 63.1118 64.2142 63.265 63.7373 63.4621C62.7742 63.866 61.718 64.4641 60.9336 64.7902C61.376 64.1758 64.4828 59.7419 66.3316 55.6095C68.1748 51.4854 68.8635 50.4291 69.2674 48.2157C69.4768 47.1206 69.421 45.5021 69.4768 44.0527C69.5311 42.6155 69.7098 41.3263 69.5936 40.4641C70.0748 41.0621 71.8771 42.7476 71.939 46.5149C71.9933 50.2817 70.2151 55.3694 68.3274 58.1107C68.7882 58.2428 69.9822 58.3984 71.2089 56.2675C72.4357 54.1365 72.4208 53.5416 72.8637 52.6558C72.918 53.0987 72.9021 53.2538 72.9021 53.2538C72.9021 53.2538 74.689 51.087 75.5353 48.3606C75.7063 49.5336 76.2112 50.5669 75.4186 52.7183C74.712 54.6598 73.7879 55.1339 73.7879 55.1339C73.7879 55.1339 74.2461 55.0561 74.9214 54.6521C75.0382 54.9393 75.0151 55.2665 75.2092 55.3822C75.4032 55.4979 75.6674 55.693 75.7063 55.8794C75.9157 55.5686 76.2419 55.1723 76.3433 54.8774C76.2654 55.4918 76.2112 58.1782 76.4969 59.5453C77.0954 59.491 77.7088 59.4521 78.1281 58.3723C77.8409 59.4291 77.8409 60.0655 78.0349 60.9666C78.3534 60.7495 78.6406 60.3609 78.6406 60.3609L78.6427 60.3624Z" fill="#C0993A"/>
<path fill-rule="evenodd" clip-rule="evenodd" d="M58.4621 17.5505C58.4621 17.5505 57.8641 17.7989 56.8468 17.7989C55.9615 17.7989 56.2099 17.4574 54.8275 17.4574C52.6996 17.4574 45.2664 18.6862 43.9613 18.6687C43.1144 18.6534 46.8193 19.0338 46.8193 19.0338L56.2877 19.1659L58.1903 19.0123L58.8973 17.5736L58.4621 17.5505Z" fill="#A88F33"/>
<path fill-rule="evenodd" clip-rule="evenodd" d="M33.9108 36.0594C33.9108 36.0594 32.6989 36.9836 32.1864 37.6906C31.6739 38.3977 31.402 38.8631 30.8193 39.4381C30.9561 39.4433 31.0928 39.425 31.2233 39.3838C31.2233 39.3838 31.2233 39.5374 31.1301 39.5779C31.2106 39.5689 31.2922 39.578 31.3687 39.6046C31.4452 39.6311 31.5149 39.6745 31.5725 39.7315C31.4015 39.8247 30.9356 40.2911 31.3006 40.8425C31.5725 41.2618 32.1475 41.3002 32.1475 41.3002C32.1475 41.3002 32.0154 41.6812 32.5668 41.6423C33.7551 41.588 35.0833 41.0673 35.6966 41.1994C36.311 41.353 36.6602 41.4093 37.0949 42.163C37.5557 42.9084 37.9571 43.0252 37.9571 43.0252C37.9571 43.0252 38.229 42.3335 38.167 41.3008C38.39 40.7441 38.5135 40.1526 38.5321 39.5533L38.1281 36.5786L36.3653 34.3493L34.0818 35.6155L33.9108 36.0579V36.0594Z" fill="#E3C571"/>
<path fill-rule="evenodd" clip-rule="evenodd" d="M36.0771 35.6163C36.0771 35.6163 36.2482 36.0203 36.9629 36.0587C36.8851 36.2297 36.8851 36.2532 36.9086 36.3848C36.924 36.5169 36.947 36.711 36.947 36.711C37.0257 36.6729 37.0969 36.6208 37.157 36.5574C37.1959 36.7284 37.118 36.9997 37.157 37.1943C37.181 37.3126 37.22 37.4274 37.2732 37.5358C37.2845 37.5092 37.2975 37.4834 37.3121 37.4585C37.3275 37.4196 37.4657 37.8778 37.8482 38.2265C37.8478 38.1729 37.861 38.12 37.8866 38.0729C37.8924 38.1703 37.9246 38.2642 37.9797 38.3448C37.9511 38.3311 37.925 38.3128 37.9024 38.2905C37.9024 38.2905 37.9408 39.5193 38.1507 40.1547C38.1858 40.1136 38.217 40.0694 38.2439 40.0226C38.2439 39.9842 38.2286 40.3646 38.1897 40.637C38.1354 40.9089 38.1743 41.2893 38.1743 41.2893C38.3143 41.179 38.4682 41.0876 38.632 41.0174C38.865 40.9237 39.2464 40.6365 39.4789 39.9995C39.6137 39.6388 39.7177 39.2673 39.7897 38.889C39.8648 39.0336 39.9166 39.1891 39.9433 39.3498C39.9591 39.5439 40.3242 39.443 40.3242 39.443L40.402 38.5962L40.8628 36.6777L41.2821 35.4893L43.3015 32.3441L46.95 29.5343L50.1346 30.2644L52.8216 26.6138L48.1926 23.8331L43.8119 24.2914L39.8363 29.7979L36.6521 34.7925L36.0771 35.6158V35.6163Z" fill="#D8B65B"/>
<path fill-rule="evenodd" clip-rule="evenodd" d="M59.0212 27.6477C59.0212 27.6477 58.7494 27.702 57.965 28.1085C57.1806 28.515 56.6368 28.644 56.3337 29.2421C56.0306 29.8401 56.0076 30.3142 56.0076 30.3142C56.0076 30.3142 56.5437 30.0812 56.8544 30.0034C57.1806 29.9261 57.5457 29.9491 57.5067 30.0812C57.4694 30.1718 57.4175 30.2557 57.3531 30.3295C57.3531 30.3295 57.9675 30.3142 57.9512 30.6173C57.9348 30.9204 57.8349 31.2542 57.7187 31.4017C57.602 31.5553 57.1207 31.7826 57.0664 31.9613C56.9343 32.3263 57.1207 32.3417 57.0505 32.6366C56.9963 32.9244 56.7403 33.4835 55.9011 34.4619C55.0389 35.4408 54.6723 36.132 54.6723 36.132C54.6723 36.132 54.253 35.3477 54.0354 34.6718C53.8818 34.7491 53.0569 35.2074 53.0569 35.2074L51.1462 28.5514L51.1846 28.1085C51.1846 28.1085 51.3556 27.8991 51.3945 27.5105C51.1072 27.4173 51.0683 27.3395 50.6874 26.9749C50.3065 26.6104 49.9962 26.167 49.3598 25.8639C49.2666 25.6929 49.1499 25.4604 48.684 25.3667C48.218 25.273 47.9385 25.1962 47.9385 25.1962C47.9385 25.1962 48.1868 25.1025 48.3035 24.9085C48.0158 24.9474 47.7833 25.0406 47.1541 25.0252C46.5172 25.0094 46.447 24.9863 46.0978 25.0406C45.7487 25.0949 45.3298 25.2505 45.1737 24.7144C45.0027 24.5823 44.6376 24.6991 44.3268 25.1568C44.016 25.6145 43.9075 25.9801 43.3095 26.1588C43.2674 26.4224 43.1751 26.6755 43.0376 26.9043C42.8666 27.192 42.5947 27.4792 42.2297 27.9062C41.6547 28.5821 41.7479 29.6926 40.8314 30.5395C39.9072 31.3858 40.985 28.1935 40.985 28.1935L42.4606 24.6607L46.6626 20.5519L53.187 20.1095L53.8239 23.4887L57.0086 24.5839L59.0202 27.6518L59.0212 27.6477Z" fill="#D3AE4D"/>
<path fill-rule="evenodd" clip-rule="evenodd" d="M60.0554 28.3933L57.3137 24.4402L55.3952 22.9641C55.3952 22.9641 54.0282 20.4481 53.935 20.3703C53.8572 20.316 52.5679 20.1762 51.7446 20.1219L51.8982 20.5024C52.0779 20.5607 52.2376 20.6684 52.359 20.8131C52.7241 21.2325 52.9571 22.0245 52.1261 22.8714C52.4522 22.9876 52.5869 23.025 52.8715 22.9876C52.5843 23.3296 51.932 24.0597 51.8931 24.6967C51.8542 25.2169 52.1804 25.372 52.1804 25.372C52.1804 25.372 51.6832 25.947 51.6602 26.908C51.8949 26.6432 52.1519 26.399 52.4282 26.1779C53.0031 25.7171 53.7952 25.1989 54.3313 24.8728C54.324 25.0097 54.3424 25.1467 54.3855 25.2768C54.3855 25.2768 55.387 24.4535 56.2287 24.8185C56.6091 24.9895 56.4381 25.5256 56.4381 25.5256C56.4381 25.5256 56.9588 25.3315 57.3239 25.6966C57.689 26.0617 58.2092 27.0012 58.4733 27.3667C58.5896 27.5378 58.8927 27.8639 59.2029 28.3682C59.6269 29.0751 59.9809 29.8218 60.2597 30.5975C60.2751 30.2867 60.3375 29.852 60.8741 29.852L60.0585 28.3918L60.0554 28.3933Z" fill="#CAA13E"/>
<path fill-rule="evenodd" clip-rule="evenodd" d="M18.9525 39.6244C18.9525 39.6244 18.7584 39.1426 18.9525 38.2031C19.1465 37.2636 19.4496 36.8207 19.5505 35.4383C19.6513 34.0559 20.5525 32.3315 20.5525 32.3315L23.0454 31.1979L24.8087 31.6792L25.3289 34.0405L23.0997 35.2693C23.0997 35.2693 22.9834 35.7895 22.3542 36.2089C21.7249 36.6282 20.855 36.9543 20.6456 37.3819C20.5205 37.6436 20.4291 37.9203 20.3738 38.2052C20.3738 38.2052 19.7368 38.0731 19.3564 38.4924C18.9525 38.9199 18.9678 39.3003 18.9525 39.6265V39.6244Z" fill="#F4EFC8"/>
<path fill-rule="evenodd" clip-rule="evenodd" d="M23.984 38.9951C23.984 38.9951 23.7741 39.1272 23.6189 39.4559C23.4653 39.2075 23.0982 37.7314 23.0829 36.4033C23.0675 35.0752 22.9881 34.746 23.2953 34.2882C23.6025 33.8305 24.8073 33.3482 24.6363 32.5239C24.4653 31.7395 23.7505 31.4134 22.8729 31.6386C22.2585 31.7922 21.8013 33.0989 21.1644 33.7512C20.6826 34.2483 20.1081 34.1705 19.953 34.4424C19.7431 34.8074 19.9371 35.1725 19.8752 35.4054C19.8593 35.4833 19.6653 35.9026 19.3156 36.4074C18.609 37.4248 17.413 38.8619 17.2573 40.1512C17.3116 39.421 17.2732 39.4057 17.4672 38.5977L17.3505 38.4037L18.1185 35.8872L18.6157 33.8136L19.7267 30.3412L21.6836 26.792L23.5867 24.6637L25.5671 24.7958L25.8 27.7705L26.9341 33.3554L29.3185 36.2912L25.4969 38.863L23.9824 38.9951H23.984Z" fill="#EBCC73"/>
<path fill-rule="evenodd" clip-rule="evenodd" d="M25.173 40.0504C25.173 40.0504 24.8469 40.1282 24.7302 40.0663C24.6134 40.0043 24.4977 39.9342 24.5361 39.8564C24.5745 39.7786 24.7844 39.647 24.7844 39.5845C24.7887 39.5281 24.7709 39.4722 24.7347 39.4287C24.6984 39.3852 24.6467 39.3575 24.5904 39.3515C24.4117 39.3285 24.3574 39.4447 24.3574 39.4447C24.3574 39.4447 24.1864 39.3131 24.0471 39.2911C24.1295 39.281 24.2125 39.2757 24.2955 39.2753C24.0808 39.178 23.8532 39.1127 23.6196 39.0812C23.8137 38.965 24.1946 38.623 24.4429 38.623C24.6912 38.623 24.8469 38.5846 24.808 38.4525C24.7691 38.3204 24.575 38.1263 24.3656 38.0485C24.4429 37.9553 24.4977 37.8155 24.3113 37.4341C24.1168 37.0537 24.1946 36.7972 24.2571 36.7045C24.3113 36.5878 24.5054 36.3784 24.5986 36.2463C24.6918 36.1142 24.7696 35.9355 24.9247 35.8423C25.0025 35.788 25.2509 35.6887 25.4997 35.594C25.7716 35.5008 25.9968 35.3841 26.152 35.5008C26.323 35.617 26.2452 35.7727 26.2452 35.7727C26.2452 35.7727 26.7812 35.5781 27.2625 35.8269C27.7443 36.0594 28.9173 36.2074 28.9173 36.2074L29.3376 37.0542L26.557 39.4386L25.4075 40.0136L25.1746 40.052L25.173 40.0504Z" fill="#E5C66B"/>
<path fill-rule="evenodd" clip-rule="evenodd" d="M29.0332 36.1526C29.0332 36.1526 28.171 36.7275 27.977 36.9369C28.0932 36.9528 28.2872 37.0306 28.2094 37.1469C28.1162 37.2631 27.5571 37.6671 27.2463 38.048C26.9202 38.4284 26.6094 38.9102 26.5009 39.1432C26.3846 39.3526 25.4989 39.9665 25.1963 40.0438C25.8332 40.0438 27.1148 39.2594 27.596 39.2594C27.5807 39.4923 27.7281 39.7565 28 39.7796C28.2719 39.8026 29.0563 39.9506 30.1125 39.2983C31.1688 38.6614 30.8196 38.1873 31.262 37.877C32.1088 37.3174 32.4503 36.8202 32.9162 36.5099C33.3821 36.1997 33.6233 36.129 33.6233 36.129C33.6233 36.129 33.6387 35.8961 33.7769 35.9196C33.8147 35.9239 33.8507 35.9385 33.8808 35.9618C33.9109 35.9851 33.9341 36.0162 33.9479 36.0517C33.9479 36.0517 34.7558 35.4767 35.7911 35.3216C35.767 35.3108 35.7476 35.2915 35.7368 35.2673C35.7368 35.2673 35.8141 35.2284 35.83 35.1895C35.83 35.1895 35.8843 35.1117 35.9232 35.1506C35.9621 35.1895 36.0164 35.4767 36.0942 35.5935C36.2652 35.5156 36.5914 34.7855 36.5914 34.7855L37.3763 32.5409V30.4904L36.7619 30.6071L32.1539 32.564L29.3573 35.4614L29.0312 36.1526H29.0332Z" fill="#E6BD62"/>
<path fill-rule="evenodd" clip-rule="evenodd" d="M42.2986 26.0942C42.5479 26.0337 42.7868 25.9368 43.0077 25.8065C42.9145 26.0553 42.9145 26.3272 42.5106 26.9175C42.1066 27.5078 42.0913 27.5933 41.7651 28.2067C41.439 28.8436 41.4001 29.7601 41.0893 30.1636C41.2286 30.0959 41.378 30.0514 41.5316 30.032C41.5316 30.032 41.2214 30.3039 41.0893 30.5911C40.9572 30.8783 40.7242 31.4763 40.1497 31.8419C39.5753 32.2075 38.8447 32.4399 38.0603 33.3021C37.2754 34.1485 36.468 35.2206 36.0635 35.6061C36.2734 35.2411 36.5606 34.511 36.6385 34.0297C36.7163 33.5484 36.6226 32.9729 36.7547 32.3365C36.8868 31.7001 36.8868 31.2413 37.5227 30.1303C38.1586 29.0193 39.2471 25.1593 39.2471 25.1593L41.5926 24.4138L42.2996 26.0916L42.2986 26.0942Z" fill="#B6933F"/>
<path fill-rule="evenodd" clip-rule="evenodd" d="M40.6058 24.6731C40.6058 24.6731 39.8993 25.6904 39.7052 26.5915C39.5112 27.4926 39.6894 27.4148 39.5731 27.8577C39.5036 28.1277 39.5036 28.411 39.5731 28.681C39.8178 28.2868 40.1529 27.9565 40.5505 27.7174C41.2187 27.314 41.7624 27.0262 42.0865 26.6847C42.4127 26.3197 42.6846 25.7216 43.3911 25.2634C43.1039 25.2245 42.6999 25.0924 42.6231 25.1098C42.9109 24.7837 43.7726 24.2865 44.6424 23.6885C45.5047 23.0741 45.4504 22.8263 46.8487 22.2129C46.3904 22.2907 46.1728 22.174 45.7919 22.2129C45.9455 21.8868 46.4831 21.7311 47.0207 21.1956C47.5583 20.66 46.6792 19.8674 46.6792 19.8674L42.5832 22.345L40.6028 24.6751L40.6058 24.6731Z" fill="#C49937"/>
<path fill-rule="evenodd" clip-rule="evenodd" d="M29.4917 22.824L29.5849 22.0785L30.7579 20.199L31.9851 16.8981V12.3853L31.892 9.77568L32.086 8.06663L32.2335 7.5234L32.3891 7.31348L33.3906 7.83367L34.7735 9.71322L34.9056 13.3407L33.5616 19.0649L29.7247 23.2515L29.4917 22.824Z" fill="#DFC068"/>
<path fill-rule="evenodd" clip-rule="evenodd" d="M32.5439 7.10375C32.5439 7.10375 31.9295 7.11963 31.7984 9.67502C31.6673 12.2304 31.6038 13.5739 31.5107 14.8401C31.4175 16.1062 31.2004 16.8748 31.0913 17.6207C30.9823 18.3667 30.9203 19.3836 30.5711 20.0051C30.4175 20.2924 30.0893 21.1935 29.3203 21.8693C28.4581 22.6148 27.1699 23.1355 26.9748 23.1744C26.6328 23.2517 24.9007 23.4227 24.1942 23.8113C23.9459 23.9434 23.5183 24.0986 23.0447 24.5415C22.1047 25.3878 20.8544 26.9023 19.9533 28.7276C18.5709 31.454 17.1885 39.1509 17.1885 39.1509L17.4993 38.6307C17.4993 38.6307 17.5382 37.9395 18.2294 36.7276C18.9052 35.5162 18.7112 34.1568 19.6507 31.8344C20.0157 30.9491 20.474 29.7997 21.0331 28.8207C21.9188 27.2284 22.9905 25.8614 24.0703 25.1159C25.8331 23.9045 27.7751 23.6403 27.7751 23.6403L29.8646 22.2579C29.8646 22.2579 30.2296 21.5514 30.7114 20.7434C31.3867 19.6099 32.2474 18.3437 32.4353 16.503C32.7231 13.7766 32.0314 11.9903 32.0703 10.3749C32.1092 8.75956 32.1245 7.57121 32.4512 7.28347C32.7779 6.99572 32.5444 7.10478 32.5444 7.10478L32.5439 7.10375Z" fill="#A88F33"/>
<path fill-rule="evenodd" clip-rule="evenodd" d="M32.5445 19.298C32.5445 19.298 33.4661 17.0298 33.888 15.0181C33.9658 14.6142 34.1209 14.2107 34.1598 13.8846C34.3539 11.9815 34.4082 11.1971 34.1598 10.1562C33.9658 9.3882 33.2203 8.69597 32.8317 8.1594C32.4513 7.59978 32.2726 7.3914 32.3504 7.27364C32.4282 7.15588 32.7308 6.96337 33.0258 6.98641C33.3392 6.99553 33.6476 7.06832 33.9321 7.20035C34.2165 7.33237 34.4712 7.52088 34.6805 7.75441C35.2786 8.44561 35.7522 10.7916 35.7522 10.7916L36.2503 13.8871L37.5165 17.786L32.5455 19.301L32.5445 19.298Z" fill="#C99E3D"/>
<path fill-rule="evenodd" clip-rule="evenodd" d="M41.2041 16.9373C41.2041 16.9373 41.0331 17.0146 40.7228 16.9373C40.736 17.0641 40.714 17.1921 40.6592 17.3072C40.6043 17.4223 40.5188 17.52 40.412 17.5896C40.0859 17.4575 37.0328 17.7217 37.0328 17.7217C37.0328 17.7217 35.6115 17.4729 35.1686 15.5933C34.8583 14.3425 35.4016 12.6186 35.2229 11.4845C34.951 9.81436 34.5706 9.4877 34.5317 8.96802C34.4928 8.44834 34.4539 8.31574 34.4539 7.98959C34.2828 7.95068 34.182 7.89641 34.0115 7.89641C33.9726 7.74281 34.0499 7.60866 33.8794 7.33679C33.9726 7.3757 34.6095 7.45353 35.355 8.16009C35.9694 8.73506 35.9694 8.94447 36.0621 9.06121C36.1783 9.17743 37.1183 9.98281 37.5223 10.7856C37.9262 11.5884 38.7106 14.1484 38.8893 14.5678C38.9436 14.7388 39.0603 14.9098 39.3501 15.2979C39.8007 15.8575 40.4606 16.7827 41.2061 16.9363L41.2041 16.9373Z" fill="#B58634"/>
<path fill-rule="evenodd" clip-rule="evenodd" d="M36.1709 9.10013C36.6414 9.8602 37.0641 10.6488 37.4366 11.4615C37.8948 12.4942 38.1667 13.341 38.7417 14.0322C38.4309 13.1316 37.8794 11.3606 37.5533 10.7314C37.1882 10.0658 36.4428 9.34896 36.1709 9.10064V9.10013Z" fill="#A88F33"/>
<path fill-rule="evenodd" clip-rule="evenodd" d="M30.8893 21.8694C30.8893 21.8694 30.1049 22.0634 28.6446 22.8324C28.1629 23.0808 27.7051 23.2902 27.2622 23.4847C26.1118 24.0049 24.8779 24.4857 23.8989 24.7509C23.9767 24.8441 24.0151 24.8825 24.0151 24.8825C24.0151 24.8825 24.0151 25.2634 24.2251 25.4805C24.1088 25.5972 22.5549 26.6535 23.0137 30.1873C23.3239 30.0711 23.689 29.9155 23.7433 29.9155C23.837 29.9313 23.86 30.1873 23.9762 30.1873C24.0925 30.1873 24.4734 30.0337 24.8774 29.5115C24.862 29.7214 24.629 31.8339 25.8793 33.2552C26.1123 32.9834 26.7026 32.0822 26.7026 32.0822L26.718 31.795C26.718 31.795 26.7723 30.793 27.0989 29.8765C27.4256 28.9601 28.062 28.2842 28.062 28.2842L31.3854 23.5385L30.8882 21.8689L30.8893 21.8694Z" fill="#E6C367"/>
<path fill-rule="evenodd" clip-rule="evenodd" d="M27.7825 28.8376C27.6303 28.9451 27.4627 29.0288 27.2853 29.0859C27.231 28.8918 27.1532 28.2237 27.6115 27.5714C28.1475 26.7865 29.32 25.7691 29.6462 24.9602C29.8561 24.4395 29.7629 23.1349 31.6271 21.4648C33.4913 19.7946 34.2209 19.2202 34.2209 19.2202L37.2345 17.7057L40.9393 19.1659L39.0987 26.38L37.6697 29.7592L31.9865 28.6875L27.782 28.8376H27.7825Z" fill="#DCBA5A"/>
<path fill-rule="evenodd" clip-rule="evenodd" d="M29.9512 26.8787L30.6582 25.9934V25.3642C30.6582 25.3642 31.4426 25.1543 32.289 24.292C33.1353 23.4298 34.3083 21.7756 35.3415 21.8764C36.3747 21.9932 36.4756 24.121 36.5145 24.7196C36.5534 25.3181 36.6855 26.6764 36.8949 27.4071C37.1279 28.1372 34.3784 30.902 34.3784 30.902L32.5112 32.3233L29.9512 26.8787Z" fill="#E9CE77"/>
<path fill-rule="evenodd" clip-rule="evenodd" d="M32.1396 34.2495C32.1396 34.2495 32.7146 33.3484 32.2932 33.1543C32.5416 32.5952 32.9998 32.0049 32.9998 32.0049C32.9998 32.0049 33.326 31.1975 34.3822 30.2032C35.4385 29.2089 36.0913 28.5484 36.2623 27.8807C36.3677 27.4456 36.425 27.0002 36.4333 26.5526C36.5475 26.6459 36.6696 26.729 36.7983 26.8009C36.9693 26.8788 37.7768 27.5464 37.6605 28.8904C37.5443 30.2344 37.0461 30.7935 37.0461 30.7935C37.0461 30.7935 36.5649 31.2748 36.2234 31.5236C35.8578 31.7719 35.7262 32.0592 35.1123 32.0827C35.1754 32.0326 35.2463 31.9931 35.3222 31.966C35.3222 31.966 34.6853 31.8887 34.3433 32.199C34.0013 32.5092 33.2742 33.4651 32.9092 33.7529C32.5441 33.9858 32.1412 34.25 32.1412 34.25L32.1396 34.2495Z" fill="#CDAE50"/>
<path fill-rule="evenodd" clip-rule="evenodd" d="M57.9647 19.1424C57.047 18.808 56.0827 18.6193 55.1067 18.5833C53.4755 18.5291 51.0911 18.6222 48.7533 18.6376C46.2368 18.653 43.9533 17.7754 40.7845 17.6203C40.2643 17.3095 38.9413 15.9501 34.8115 18.8316C35.0598 18.8163 37.8098 18.1947 38.7647 19.3913C39.7277 20.5796 39.4559 22.5989 39.3243 23.0802C39.0755 24.1524 38.2675 25.7134 37.9419 26.8086C37.6163 27.9038 37.6931 28.4793 37.4601 29.2473C37.2271 30.0153 36.7146 30.3967 37.0172 31.282C37.4212 31.0336 37.6316 31.0336 38.3064 29.5191C38.9813 28.0046 38.8425 26.9248 39.9612 25.6433C41.0564 24.3541 42.8796 22.5908 43.5729 22.1479C44.2661 21.705 49.7706 18.847 55.5342 21.5734C56.9243 21.426 57.9652 19.1419 57.9652 19.1419L57.9647 19.1424Z" fill="#D2A83E"/>
<path fill-rule="evenodd" clip-rule="evenodd" d="M37.1348 18.0857C37.1291 18.0273 37.1162 17.9699 37.0964 17.9147C37.0425 17.8011 36.9717 17.6963 36.8865 17.6039C36.8865 17.6039 35.5194 17.3556 34.8282 17.4329C33.6163 17.565 32.5212 19.0641 32.0086 19.8331C31.4961 20.6022 30.8592 21.79 30.168 22.4039C30.1756 22.3441 30.1618 22.2835 30.1291 22.2329C30.1291 22.2329 30.168 22.2872 30.0907 22.365C30.0134 22.4428 30.0129 22.4812 30.0518 22.5186L30.1685 22.6348C30.2069 22.6348 31.279 22.153 32.7393 20.7916C34.2927 19.3703 35.481 18.6412 36.1026 18.3914C36.4341 18.2505 36.7805 18.1479 37.1353 18.0857H37.1348Z" fill="#C29637"/>
<path fill-rule="evenodd" clip-rule="evenodd" d="M63.6507 12.2458C63.6507 12.2458 63.4019 12.556 63.0911 12.8981C62.3999 13.6282 61.4988 14.451 60.7297 15.2978C60.0001 16.1057 59.1768 16.735 58.2522 17.7912C57.3275 18.8475 56.2554 20.02 55.984 20.362C55.7357 20.704 55.5416 21.2631 55.5416 21.5503C55.4095 21.4572 55.2544 21.3563 55.2544 21.3563C55.3197 21.4782 55.3978 21.5929 55.4874 21.6983C55.6814 21.9702 55.984 22.3127 56.1396 22.5216C56.3306 22.7875 56.4677 23.0883 56.5431 23.4069C56.6363 23.4222 57.2343 23.539 57.9803 22.3117C58.7263 21.0844 59.7042 19.7409 59.7042 19.7409L61.2576 17.4339L62.2365 15.477L63.4653 13.2867L63.6522 12.2458H63.6507Z" fill="#AC8132"/>
<path fill-rule="evenodd" clip-rule="evenodd" d="M65.2434 10.677C65.2434 10.677 64.3033 11.445 63.9383 11.9058C63.5732 12.3666 62.7095 13.5759 62.7095 13.5759L63.0203 13.537L64.5972 12.1393L65.2116 11.0441L65.2428 10.679L65.2434 10.677Z" fill="#A88F33"/>
<path fill-rule="evenodd" clip-rule="evenodd" d="M64.9562 72.4011C64.9562 72.4011 64.9409 71.7642 65.2983 71.3838C65.6633 71.0029 66.5875 70.4438 67.4886 68.3466C68.3897 66.2495 68.4901 65.7759 68.4901 65.7759C68.4901 65.7759 66.8747 67.1583 65.8789 67.4844C66.1118 67.0026 66.2439 66.6611 66.3607 66.4123C66.2286 66.2961 65.6695 66.164 65.6152 66.102C65.9255 65.7912 66.0965 65.0299 66.7257 64.5251C67.5337 63.9107 69.0092 62.8549 70.1561 61.9139C71.303 60.9728 73.5578 58.784 73.8456 58.1471C74.0166 58.3954 74.055 58.5505 74.055 58.5505C74.055 58.5505 72.9214 60.0266 72.3311 60.9661C71.8104 61.7741 71.8493 62.2323 71.8493 62.2323L72.9214 61.7715C72.9214 61.7715 73.2317 62.921 71.8263 64.6689C72.4407 64.436 72.6885 64.5757 73.0377 64.3812C72.4627 64.7467 71.6706 65.2439 70.9251 66.6104C70.195 67.9775 69.2007 69.5698 67.5234 70.5636C65.8922 71.6122 64.9521 72.3965 64.9521 72.3965L64.9562 72.4011Z" fill="#A67A2E"/>
<path fill-rule="evenodd" clip-rule="evenodd" d="M60.7462 19.9508C60.7462 19.9508 60.1093 21.2784 60.0161 22.3116C60.0007 22.5604 59.9383 22.7545 59.9383 23.0417C59.9229 23.9659 59.9925 24.9991 59.7847 25.4804C59.7069 25.2863 59.6679 25.1542 59.5901 25.0769C59.4739 25.403 59.264 26.4204 59.093 26.8008C59.0157 26.5525 58.8446 25.6903 58.8605 24.6729C58.8764 23.6556 58.8989 23.461 58.8989 23.2516C58.8605 23.5619 58.6506 23.9817 58.5728 24.2301C58.4565 24.0206 58.3244 23.7488 58.1688 23.5235C58.0756 23.6771 57.9594 23.9039 57.8585 24.0206C57.8427 23.9275 57.8043 23.6786 57.7807 23.3294C57.7653 22.9255 57.7418 22.4053 57.7653 22.2962C57.8037 22.0868 58.1304 21.2635 58.8216 20.5099C59.6449 19.6087 60.4917 17.8772 60.7401 17.3411C60.9884 16.805 62.0446 14.5763 62.0446 14.5763H62.8526L61.6796 17.2479C61.6796 17.2479 60.973 18.7081 60.608 19.2447C60.2429 19.7813 59.4739 21.3188 59.1319 21.9168C59.3802 21.5907 59.5901 21.4197 59.8389 21.1089C60.0796 20.8913 60.7472 19.9518 60.7472 19.9518L60.7462 19.9508Z" fill="#8C6228"/>
<path fill-rule="evenodd" clip-rule="evenodd" d="M65.2579 10.5755C65.1259 10.9817 64.9174 11.3588 64.6435 11.6866C64.1617 12.2615 63.1285 13.03 62.6242 13.6434C62.1634 14.2414 61.2418 15.8727 61.6606 17.8065C61.8142 17.3872 62.1035 16.5562 62.8725 15.6162C63.6415 14.6761 64.4648 13.5968 64.8693 12.7582C65.2728 11.9113 65.327 11.2437 65.327 11.2437L65.4806 11.0496L65.3874 10.6067L65.2554 10.5755H65.2579Z" fill="#CBA94C"/>
<path fill-rule="evenodd" clip-rule="evenodd" d="M80.9875 62.094C80.9875 62.094 80.6767 61.2476 80.5835 60.4786C80.4903 59.7096 80.7371 59.557 80.4514 58.6769C80.2804 58.1408 79.9701 58.2161 79.8923 58.1408C79.8145 58.0655 79.7602 57.2556 79.7756 56.8127C79.7909 56.3698 79.7602 55.7953 79.6824 55.5465C79.5662 55.4533 79.4883 55.3755 79.3173 54.801C79.1233 54.2261 79.0301 53.9388 78.9369 53.7683C78.8437 53.5978 78.5713 53.4422 78.5713 53.2712C78.5713 52.9292 78.8821 52.751 78.8821 52.6568C78.8668 52.4627 78.6338 52.6184 78.5713 52.5636C78.494 52.4704 78.7659 51.9113 78.665 51.8335C78.6261 51.7951 78.3542 52.1212 78.2841 52.028C78.2063 51.9343 78.1131 51.0102 77.9733 50.3968C77.8417 49.7988 77.7015 49.3641 77.6861 49.1854C77.6707 49.0144 76.614 46.0008 76.358 45.2707C76.1517 44.6537 75.978 44.0263 75.8378 43.3911C75.7599 43.0261 75.7057 42.2801 75.6668 42.3579C75.6278 42.4357 75.6514 42.8161 75.5889 42.8008C75.5347 42.7849 75.3406 41.4573 75.2787 41.2474C75.2244 41.0375 74.8977 40.3258 74.8179 39.8107C74.74 39.29 74.5695 37.9306 74.4528 37.0065C74.3361 36.0823 74.2818 35.7019 74.2818 35.4705C74.3009 34.9044 74.2697 34.3378 74.1886 33.7773C74.035 32.7983 73.7278 31.61 73.4585 30.9193C72.9383 29.6142 71.5554 26.2744 71.3081 25.4435C71.3081 25.2335 71.58 25.3503 71.58 25.3503C71.58 25.3503 72.2553 27.0435 72.7525 28.348C73.2343 29.6531 73.6925 30.8026 73.8092 30.9193C73.9024 31.0355 74.6325 32.3171 74.9587 34.4142C75.2848 36.5114 75.401 38.4452 75.5956 39.7344C75.6888 40.3488 75.7666 41.0006 75.9606 41.6529C76.1701 42.3599 76.4962 43.0901 76.9237 44.2083C77.2888 45.1483 77.5606 45.9327 77.7081 46.6085C77.8791 47.4707 77.8791 48.123 77.98 48.5505C78.0737 48.9156 78.2129 49.6452 78.5396 50.7009C78.8662 51.7567 79.347 53.1166 79.6732 53.9629C80.3106 55.6561 80.5948 57.0697 80.691 57.8234C80.776 58.6001 81.0638 61.2876 80.9859 62.095L80.9875 62.094Z" fill="#A88F33"/>
<path fill-rule="evenodd" clip-rule="evenodd" d="M65.2969 10.4823L65.258 10.5755C65.258 10.5755 65.3742 10.6144 65.3512 10.77C65.3528 10.983 65.3398 11.1958 65.3122 11.4069C65.2738 11.6788 65.196 11.8882 65.1807 12.0592C65.1807 12.4243 65.2349 12.8436 64.7199 13.8845C64.5663 14.1717 64.4715 14.4201 64.3937 14.5911C64.1997 15.0104 64.1608 15.0729 63.9897 15.2669C64.2616 15.1133 65.2406 14.4989 65.7372 14.5911C65.3957 14.7851 64.875 15.166 64.5488 15.6632C64.6267 15.6786 64.9528 15.741 65.4704 15.6632C66.3327 15.5311 67.2957 15.2203 68.1421 15.2823C69.0667 15.3365 68.7017 14.1717 68.7017 14.1717L67.6347 11.8263L65.6153 10.4055L65.2969 10.4828V10.4823Z" fill="#BE9C44"/>
<path fill-rule="evenodd" clip-rule="evenodd" d="M70.5624 28.0518C70.5624 28.0518 69.6613 27.1507 69.2963 24.0582C68.9312 20.9514 69.009 16.3782 69.009 16.3782L68.2789 14.5918C68.2789 14.5918 68.1253 13.4035 67.7429 12.9611C67.3604 12.5188 66.6093 11.7728 66.2673 11.4077C65.9253 11.0427 65.5372 10.5455 65.3042 10.4677C65.4204 10.2736 65.9411 9.17847 67.9369 9.16311C69.9327 9.14775 70.5481 10.2583 70.7565 10.6622C70.9649 11.0662 71.9059 12.8126 72.2551 16.1406C72.5813 19.4645 72.5971 19.7134 72.5429 20.8628C72.5039 21.4997 72.294 22.9753 71.9285 24.5518C71.5946 25.8881 71.2296 27.3796 70.5614 28.0549L70.5624 28.0518Z" fill="#A17C34"/>
<path fill-rule="evenodd" clip-rule="evenodd" d="M67.7377 30.7002C68.038 30.7218 68.338 30.6542 68.5999 30.5056C68.8871 30.4903 69.928 30.6224 70.7278 29.605C70.782 29.8375 70.9223 30.4672 70.5568 31.0263C70.7513 30.8318 71.0385 30.7545 71.0775 30.7002C71.0928 30.9874 71.3647 31.8727 70.2152 34.0241C70.5255 33.6826 70.8906 33.6979 71.2167 33.659C71.2326 34.063 71.4497 35.4218 70.8752 36.1525C70.4948 36.6496 69.8732 36.494 69.8732 36.494C69.8823 36.3854 69.8823 36.2764 69.8732 36.1678C69.8579 35.9579 69.78 35.7485 69.8348 35.6087C69.5345 35.4715 69.2609 35.282 69.0269 35.0491C68.3511 34.4122 67.4735 33.3252 67.4115 32.5173C67.3337 31.6161 68.1416 31.4221 68.1416 31.4221C68.074 31.3616 68.0163 31.2907 67.9706 31.2122C67.9317 31.0806 67.8928 30.8707 67.7377 30.7002Z" fill="#8C6228"/>
<path fill-rule="evenodd" clip-rule="evenodd" d="M61.7464 20.9293C61.7464 20.9293 61.7075 20.875 61.498 21.1233C61.537 20.875 61.5759 20.6416 61.5912 20.4163C61.6903 20.2077 61.8186 20.0143 61.9722 19.8418C61.8554 20.0743 61.7776 20.2842 61.7776 20.2842C61.7776 20.2842 62.0653 19.7481 62.4847 19.422C62.7719 19.189 63.137 19.0805 63.2921 18.8629C63.4631 18.6299 63.4242 18.591 63.4631 18.5521C63.4631 18.5521 63.844 18.3038 64.4267 17.5731C64.504 17.48 64.6207 17.3791 64.6986 17.2859C64.8301 17.2316 65.1409 17.0919 65.506 16.905C65.8869 16.6956 66.3139 16.4083 66.5781 16.2906C67.0983 16.0576 67.6502 16.0812 67.9062 15.7156C68.1003 15.6613 68.3097 15.0787 68.2713 14.582C68.5585 14.6983 70.0341 15.6147 70.5395 17.6187C70.9045 19.04 70.2517 21.2304 69.9798 22.2871C69.708 23.3439 69.6696 24.1278 69.2886 24.609C68.8068 25.2465 67.2539 26.145 66.873 26.59C66.5469 26.955 65.5684 27.8792 65.6068 28.5468C65.6458 29.044 66.2591 29.3148 66.3917 29.409C66.5243 29.5032 66.5233 29.619 66.7722 29.5626C67.021 29.5063 67.1137 29.3916 67.215 29.3916C67.3313 29.407 67.3313 29.4305 67.3855 29.4305C67.4249 29.4294 67.464 29.4241 67.5023 29.4147C67.5023 29.4147 67.4634 30.1217 65.8091 30.3363C65.6923 30.3521 65.5761 30.3905 65.4282 30.4141C65.6227 30.3209 65.7389 30.3209 65.9489 30.0337C65.7159 29.9948 65.0477 29.9559 64.8767 29.9016C64.931 29.8084 65.1097 29.5596 65.2571 29.4433C65.3892 29.3271 65.2418 29.2897 65.1256 29.3502C64.9255 29.4863 64.7335 29.634 64.5506 29.7925C64.3565 29.9635 64.1855 30.1965 63.8747 30.4069C63.7816 30.0961 63.7969 29.5058 64.1625 29.0788C64.0688 29.0942 63.8901 29.366 63.7196 29.3118C63.6888 29.0285 63.7071 28.742 63.7739 28.4649C63.8671 28.1152 64.3719 27.5018 64.3719 27.5018L66.8106 23.1442L67.3307 19.8433L61.7464 20.9283V20.9293Z" fill="#92723A"/>
<path fill-rule="evenodd" clip-rule="evenodd" d="M61.6158 21.1157C61.6158 21.1157 61.4837 21.2089 61.7479 21.3875C61.709 21.4418 61.6158 21.6359 61.499 21.768C61.3675 21.9216 61.2272 22.0168 61.1729 22.1489C61.0567 22.4208 60.9635 22.6071 60.9635 22.7239C60.9635 22.8406 60.9246 23.5861 60.5984 24.0674C60.4817 24.2384 60.3496 24.5256 60.2564 24.7196C60.0624 25.0611 59.8914 25.334 59.8525 25.4876C59.7751 25.7595 59.7209 26.505 59.7209 26.505C59.7209 26.505 59.8919 26.2951 59.9538 26.2178C59.8601 26.4118 59.7593 26.6212 59.6118 26.7769C59.705 26.699 59.9769 26.505 60.4351 26.101C61.072 25.5655 62.0663 24.6643 63.2782 23.9506C62.9127 24.0827 62.6024 24.0827 62.3541 24.1216C62.5481 23.9276 64.2956 21.877 65.2121 21.683C65.2677 21.6124 65.2954 21.5238 65.2899 21.4341L64.505 21.3568L62.9127 21.6983L62.6802 20.4695L61.6158 21.1141V21.1157Z" fill="#B18E3E"/>
<path fill-rule="evenodd" clip-rule="evenodd" d="M64.1483 28.1059C64.1483 28.1059 63.9383 28.3153 63.7443 28.836C63.5949 28.68 63.4668 28.5049 63.3634 28.3153C63.0761 27.834 62.6338 27.2201 61.6006 27.5698C61.5852 27.2437 61.5616 27.0727 61.6006 26.8397C61.7716 26.8013 62.2918 26.382 62.8119 25.7681C63.1775 25.3488 63.519 24.867 63.752 24.2536C63.9056 24.1369 64.1713 23.9428 64.52 23.7176C65.0171 23.376 65.6151 22.9096 65.7083 22.3894C65.4754 22.4826 64.9782 22.7156 64.2322 22.6772C64.52 22.5451 64.9623 22.4053 64.9081 21.8303C65.0248 21.7525 65.118 21.6982 65.118 21.6982C65.0304 21.669 64.9383 21.6558 64.8461 21.6593C64.8303 21.605 64.8072 21.5277 64.6751 21.5661C64.543 21.6045 64.5215 21.605 64.5041 21.6593C64.4498 21.6752 64.2711 21.6593 64.139 21.753C64.007 21.8467 63.6419 22.1565 63.5021 22.2107C63.5564 22.1176 63.6337 21.9783 63.6337 21.9783C63.6337 21.9783 63.2533 22.0167 62.9814 22.1319C62.4843 22.3029 61.9098 22.6137 61.3271 22.9163C61.3814 22.8231 61.405 22.7627 61.4434 22.7453C61.4818 22.7279 61.5755 22.7069 61.5755 22.691C61.5755 22.6751 61.5371 22.5374 61.5601 22.4816C61.7343 22.1126 61.9398 21.7592 62.1745 21.4253C62.4464 21.0598 62.5006 20.5396 62.5006 20.5396L63.689 19.9416L67.0288 19.1736L69.1961 19.3056L68.9242 20.8048L67.6442 23.4221L66.549 25.8065L65.2982 27.2673L64.1488 28.1059H64.1483Z" fill="#543E26"/>
<path fill-rule="evenodd" clip-rule="evenodd" d="M69.5618 21.6184C69.5618 21.6184 68.2567 23.2337 67.8916 23.4826C68.1246 22.9854 69.5618 20.026 70.082 19.2027C69.9657 19.1096 69.8101 19.1096 70.1751 17.6667C69.8649 18.3963 69.7558 18.7773 69.4998 18.9713C69.2438 19.1654 69.2121 19.1034 69.039 19.1034C69.0717 19.0443 69.0851 18.9765 69.0774 18.9094C69.0774 18.9094 67.9823 18.7773 67.2342 18.7773C66.4862 18.7773 65.0055 19.1812 64.1817 19.5074C63.5294 19.7793 63.1643 19.7793 62.9314 19.9498C62.6984 20.1438 62.5663 20.3537 62.4496 20.408C62.3564 20.4623 61.914 20.602 61.8127 20.7495C61.7195 20.9031 61.5643 21.0756 61.5643 21.1146C61.5643 21.1535 61.5254 21.2083 61.6422 21.1688C61.6806 21.1535 61.9683 20.9978 62.2944 20.8038C62.7368 20.5555 63.2729 20.2682 63.6615 20.0972C64.772 19.6543 65.1217 19.7322 65.6183 19.639C66.1385 19.5458 66.8845 19.3282 67.3812 19.3282C67.8783 19.3128 68.8183 19.3282 69.0359 19.3671C68.9428 19.4449 68.8649 19.5381 68.9039 19.8643C68.9039 19.9574 68.826 20.0583 68.7503 20.2836C68.5178 20.9205 68.0749 21.9768 67.8287 22.5128C67.4871 23.2424 67.0991 23.8563 66.9071 24.2367C66.7151 24.6171 66.2927 25.6191 65.8743 26.1552C65.456 26.6913 65.2374 27.0174 65.1063 27.1341C64.9753 27.2509 64.0342 27.9416 64.1044 28.1904C64.2754 28.1361 65.3552 27.7296 66.1391 26.8469C66.9229 25.9642 67.0791 25.4256 67.6925 24.9438C68.3058 24.462 68.7876 23.6546 69.0749 22.9869C69.3155 22.3654 69.2612 22.1713 69.5638 21.6199L69.5618 21.6184Z" fill="#806031"/>
<path fill-rule="evenodd" clip-rule="evenodd" d="M41.4378 33.675C41.4378 33.675 41.2668 34.3816 40.8782 34.7313C40.4978 35.0733 39.822 35.3682 39.7446 35.9432C39.6515 36.5177 40.4205 36.8054 40.4205 36.8054C40.4205 36.8054 40.0006 37.4966 40.0006 38.0168C40.0006 38.5529 39.9853 38.6537 40.0396 39.1662C39.978 39.2059 39.9256 39.2583 39.886 39.3198C39.886 39.3198 39.9244 39.817 40.3053 40.1273C40.6862 40.4375 41.0118 40.6244 41.2059 40.5466C41.2355 40.6099 41.2615 40.6749 41.2837 40.7412C41.2837 40.7412 41.5715 40.011 41.7655 39.3741C41.9596 38.7218 42.1306 38.8145 42.2079 37.9369C42.2852 37.0594 43.1295 35.5526 43.1295 35.5526L43.7055 34.2649L42.766 33.5348L41.4378 33.6745V33.675Z" fill="#B6903C"/>
<path fill-rule="evenodd" clip-rule="evenodd" d="M43.1837 34.9406C42.9899 35.1394 42.8111 35.3523 42.6486 35.5775C42.4003 35.9195 42.2062 36.2298 41.8412 36.3624C41.4761 36.495 41.2432 36.494 41.2662 36.8595C41.2893 37.2251 41.6313 37.3797 41.8253 37.5661C42.0352 37.7601 42.2062 38.0863 42.1131 38.4518C42.2293 38.3976 42.4392 38.3351 42.6333 37.9158C42.8273 37.4965 44.1846 34.9411 44.1846 34.9411H43.1837V34.9406Z" fill="#685026"/>
<path fill-rule="evenodd" clip-rule="evenodd" d="M48.5375 29.0455C48.5375 29.0455 48.6537 28.7352 48.5375 28.5099C48.4208 28.277 47.7142 28.1992 47.3645 27.935C46.9995 27.6631 46.5566 27.4742 46.1915 27.5935C46.2458 27.4614 46.4634 27.1736 46.2847 27.1117C46.1137 27.0574 45.4773 27.3446 45.3063 27.4767C45.1353 27.6088 44.7467 27.764 44.6693 27.8577C44.592 27.9514 44.4594 28.1295 44.3816 28.0517C44.3038 27.9974 44.2654 27.8577 44.1333 27.935C44.0012 28.0123 43.3653 28.533 43.248 28.8361C43.1308 29.1392 42.8671 29.815 42.075 30.5835C41.283 31.3521 40.941 31.8497 41.1739 32.137C41.4069 32.4242 41.5159 32.2148 41.5548 32.4631C41.5848 32.7069 41.5716 32.954 41.5159 33.1932C41.4227 33.5972 41.2676 33.9776 41.477 34.0554C42.0131 34.2264 42.5338 33.9018 42.65 34.0011C42.883 34.2106 42.5179 34.9642 43.0693 35.1117C43.629 35.2653 44.1804 34.9796 44.1804 34.9796L46.2151 33.8844L48.1724 32.8517L49.1739 30.8708L48.6368 29.2165L48.5344 29.0455H48.5375Z" fill="#D4B968"/>
<path fill-rule="evenodd" clip-rule="evenodd" d="M46.6181 33.7758C46.6181 33.7758 46.2761 33.2557 46.696 32.7969C47.1158 32.3381 47.7133 32.1446 47.9463 31.8574C47.9019 31.8027 47.8424 31.7623 47.7753 31.7412C47.9299 31.4644 48.1658 31.2419 48.4511 31.1037C48.3349 30.9875 48.1792 30.8943 48.0087 30.8943C47.6278 30.8943 47.3943 31.1273 47.0452 31.1273C46.7037 31.1273 46.6647 30.9563 46.6647 30.9563C46.6647 30.9563 47.2397 30.902 47.1849 30.6455C47.1307 30.3736 47.0313 30.3736 47.0313 30.3736C47.0313 30.3736 48.1419 29.9128 48.3359 29.667C48.53 29.4213 48.5069 29.131 48.5458 29.0148C48.6774 29.0148 49.4464 28.6108 49.7572 28.7818C50.068 28.9528 49.8504 29.4187 49.8504 29.4187C49.8504 29.4187 50.7909 28.7116 51.2702 28.0184C51.6895 28.0573 51.8846 27.7312 52.1918 27.7312C52.5727 27.7312 53.1707 28.2514 53.2869 29.3619C53.3648 29.9988 53.481 30.3639 53.3648 31.4903C53.3105 32.1272 53.3259 33.4871 53.5184 34.1619C53.65 34.698 53.9607 34.6437 53.9607 34.6437C53.9131 34.807 53.8185 34.9528 53.6889 35.063C53.4789 35.2571 53.4559 35.7701 53.4789 35.9641C53.5099 36.106 53.5489 36.246 53.5957 36.3835C53.5957 36.3835 53.3474 36.6707 53.2849 36.8652C53.2306 37.0593 52.9746 37.1914 52.7877 37.1914C52.6009 37.1914 52.6946 37.1755 52.4462 37.1914C52.1979 37.2073 52.1201 37.2457 51.9644 37.1914C51.8088 37.1371 51.6926 37.0747 51.755 36.577C51.8093 36.0798 49.8366 34.9227 49.8366 34.9227L46.611 33.7733L46.6181 33.7758Z" fill="#CCA849"/>
<path fill-rule="evenodd" clip-rule="evenodd" d="M42.9117 38.6843C42.9117 38.6843 43.6183 39.6243 46.5234 39.6243C47.9058 39.6243 48.3876 39.4922 48.6738 39.4144C48.9846 39.3366 50.1494 38.8788 51.3224 37.4959C52.3786 36.2456 52.1457 35.7331 52.1457 35.7331L51.5313 35.6399L49.5345 35.9118L43.626 38.4283L42.9092 38.6843H42.9117Z" fill="#585136"/>
<path fill-rule="evenodd" clip-rule="evenodd" d="M45.079 38.9173C45.079 38.9173 42.5625 39.4769 42.5625 37.8846C42.5625 36.3312 44.1159 34.6999 44.5045 34.4127C44.9085 34.125 45.8716 33.7983 45.8716 33.7983H48.194L48.6364 34.9713L48.4423 37.5031L45.079 38.9168V38.9173Z" fill="#252211"/>
<path fill-rule="evenodd" clip-rule="evenodd" d="M47.4026 34.2729C47.4026 34.2729 46.9213 33.83 45.8262 34.4265C44.731 35.0229 43.8452 36.2697 43.791 37.4017C43.7367 38.4032 44.6143 39.1492 45.9813 39.1881C46.9986 39.2265 47.6125 39.1102 47.9233 39.0345C47.8455 38.9413 47.4415 38.4365 47.4415 38.4365L47.4031 34.2734L47.4026 34.2729Z" fill="#C3B378"/>
<path fill-rule="evenodd" clip-rule="evenodd" d="M46.9286 34.5208C46.9286 34.5208 46.8123 34.4276 46.4678 34.6139C46.1805 34.7675 45.7612 35.1736 45.4351 35.4608C45.2251 35.6318 45.093 35.7091 44.9743 35.8412C44.4925 36.4162 44.0885 37.3562 44.322 37.8221C44.5554 38.2881 45.324 38.8241 47.2813 38.4591L46.9229 34.5213L46.9286 34.5208Z" fill="#E6D89C"/>
<path fill-rule="evenodd" clip-rule="evenodd" d="M46.2904 35.4845C46.2904 35.4845 45.9796 35.9663 45.9796 36.7353C45.9796 37.5197 46.4225 38.77 48.0537 38.8632C49.304 38.941 50.1427 37.0615 51.0515 36.3313C51.7427 35.7722 52.162 35.7564 52.162 35.7564C52.162 35.7564 51.4554 34.9884 49.5682 33.9936C47.704 32.9916 45.6145 32.8595 44.4805 34.3975C45.0165 34.3586 46.7486 33.9157 46.7486 33.9157L47.5955 34.1876L46.2904 35.485V35.4845Z" fill="#252211"/>
<path fill-rule="evenodd" clip-rule="evenodd" d="M48.7298 36.5018C48.6755 36.3856 48.6366 36.23 48.8619 36.1916C49.0872 36.1532 49.188 36.1757 49.2659 36.3452C49.3437 36.5146 49.4195 36.6559 49.3043 36.7261C49.188 36.788 48.8849 36.7261 48.7293 36.5008L48.7298 36.5018ZM48.3647 35.4067C48.3647 35.4067 48.2869 35.4609 48.3258 35.3524C48.3412 35.2208 48.4426 34.9873 48.6909 35.0421C48.9392 35.0969 48.8855 35.3683 48.8445 35.4461C48.8035 35.5239 48.5962 35.6555 48.4405 35.5997C48.4208 35.5946 48.4025 35.585 48.3872 35.5716C48.3719 35.5582 48.36 35.5413 48.3524 35.5224C48.3448 35.5035 48.3418 35.4831 48.3436 35.4628C48.3454 35.4425 48.3519 35.4229 48.3627 35.4056L48.3647 35.4067Z" fill="#6F674D"/>
<path fill-rule="evenodd" clip-rule="evenodd" d="M27.3413 35.9032C27.3413 35.9032 27.9557 36.364 28.6694 36.3461C29.376 36.3302 30.2848 35.6006 30.7041 35.1342C30.9524 34.8623 31.1649 34.575 31.3953 34.3498C31.5899 34.1557 31.7215 34.0625 31.8147 33.9304C31.9467 33.7768 32.0865 33.4881 32.1567 33.3944C31.9857 33.5265 31.7373 33.7599 31.4808 33.9151C31.2325 34.0687 30.6964 34.3575 30.4788 34.4353C30.2694 34.5131 28.0945 35.6641 28.0945 35.6641L27.3413 35.9032Z" fill="#AC924C"/>
<path fill-rule="evenodd" clip-rule="evenodd" d="M28.2803 30.1643C28.2803 30.1643 28.6218 29.9313 29.2823 29.7833C29.9192 29.6297 31.2007 29.5115 31.2007 29.5115L32.257 29.9723L32.6763 31.5646L31.9083 33.2194L30.9299 33.8338L29.8188 32.0474L28.2828 30.1673L28.2803 30.1643Z" fill="#9F8E57"/>
<path fill-rule="evenodd" clip-rule="evenodd" d="M26.8968 31.5856L26.5312 31.8585C26.5312 31.8585 26.6249 31.6875 26.7023 31.1673C26.7796 30.6471 27.184 29.3809 27.7744 28.6508C28.3647 27.9207 28.3494 27.9596 28.3494 27.9596C28.295 27.9497 28.2392 27.9514 28.1856 27.9648C28.132 27.9781 28.0819 28.0027 28.0386 28.0369C28.1164 27.8649 28.6136 27.2505 29.1107 26.9433C29.6079 26.6361 29.8019 26.5393 30.3221 26.7897C30.8423 27.0401 30.9744 27.1701 31.3553 27.1548C31.7362 27.1394 32.0619 26.7354 32.0619 26.7354C32.0619 26.7354 32.1397 26.9838 31.8525 27.5587C31.5652 28.1337 30.4312 29.3062 30.4312 29.3062L28.0698 30.9215L26.8968 31.5871V31.5856Z" fill="#EAC970"/>
<path fill-rule="evenodd" clip-rule="evenodd" d="M28.6446 29.9701C28.6446 29.9701 30.3537 30.203 30.8739 29.7218C30.8892 29.776 30.9517 29.776 30.9517 29.815C30.9475 29.8443 30.9339 29.8714 30.9128 29.8923C30.9694 29.8832 31.0265 29.8781 31.0838 29.8769C31.1522 29.8973 31.2226 29.9103 31.2937 29.9158C31.351 29.9146 31.4082 29.9093 31.4647 29.8999C31.4593 29.9385 31.4462 29.9757 31.4262 30.0091C31.4061 30.0425 31.3795 30.0716 31.348 30.0945C31.4258 30.0945 31.5016 30.1099 31.5016 30.1718C31.5016 30.2338 31.5169 30.4206 31.4238 30.4596C31.3466 30.4809 31.2644 30.4753 31.1908 30.4437C31.197 30.5907 31.2369 30.7344 31.3075 30.8635C31.4611 31.1508 31.7888 31.4779 32.2291 31.3837C32.2291 31.3837 32.4616 31.9428 31.4832 33.1854C31.3516 33.3565 31.2113 33.5894 31.0408 33.7835C30.9734 33.9303 30.9219 34.0839 30.8872 34.2417C30.8872 34.2417 32.542 33.6048 33.0156 32.1522C33.4974 30.692 33.5905 29.2553 33.4974 27.9118C33.4815 27.5309 33.4195 27.2596 33.3264 27.065C33.0934 26.5832 32.4406 26.661 32.1769 26.9329C31.796 27.3138 31.1591 28.261 30.2738 28.9133C29.3727 29.5656 29.3343 29.6813 28.6426 29.9701H28.6446Z" fill="#D7BC6B"/>
<path fill-rule="evenodd" clip-rule="evenodd" d="M26.5947 32.0674C26.5947 32.0674 26.2685 32.2614 26.0975 32.989C25.9265 33.7344 26.2511 34.6432 26.439 34.9305C26.6269 35.2177 27.0534 36.0026 27.9382 36.0415C28.1571 36.0403 28.3737 35.9954 28.5751 35.9094C28.8839 35.7678 29.1736 35.5877 29.4373 35.3733C29.8182 35.0861 30.1285 34.8378 30.0896 34.8142C29.9964 34.7753 27.7441 32.9111 27.7441 32.9111L26.8973 31.966L26.5942 32.0684L26.5947 32.0674Z" fill="#585136"/>
<path fill-rule="evenodd" clip-rule="evenodd" d="M28.7226 35.1581C28.7226 35.1581 29.1808 35.1197 29.4527 34.9487C29.7245 34.7777 27.8604 32.9294 27.8604 32.9294L27.9924 34.9262L28.7226 35.1581Z" fill="#453A25"/>
<path fill-rule="evenodd" clip-rule="evenodd" d="M26.7416 31.9272C26.7416 31.9272 26.5087 32.37 26.5087 32.4868C26.4698 32.8672 26.5865 34.0632 26.6797 34.4436C26.7729 34.8476 27.2777 35.461 27.9305 35.461C28.3339 35.461 28.8936 35.2127 28.8936 35.1507C28.8936 35.0729 28.3186 34.9971 28.1635 34.7078C28.0703 34.5542 28.0314 34.1723 28.0099 33.7862C27.9945 33.5379 27.9945 33.266 28.0877 33.1718C28.2976 32.9389 28.336 32.2707 28.336 32.2707L29.0815 30.8857H28.101L26.928 31.6159L26.7416 31.9272Z" fill="#84754B"/>
<path fill-rule="evenodd" clip-rule="evenodd" d="M26.4541 32.3545C26.4541 32.3545 27.2221 31.3372 27.9143 31.1037C28.6066 30.8702 28.9163 31.0105 28.9163 31.0105L28.5123 32.0437L27.9374 32.6806L27.9763 33.0068C27.9763 33.0068 27.8826 33.869 28.4576 34.467C29.0325 35.065 29.4595 35.042 29.7084 35.042C29.9572 35.042 30.6714 34.8321 31.0365 33.9699C31.3626 33.1624 31.6345 32.1267 30.9822 31.0883C30.3448 30.0551 29.2189 30.0152 29.0013 30.0152C28.7837 30.0152 27.0752 30.1007 26.4541 32.353V32.3545Z" fill="#252211"/>
<path fill-rule="evenodd" clip-rule="evenodd" d="M46.174 35.8104C45.8868 35.6783 46.1586 34.8709 46.4459 34.622C46.7331 34.3732 47.0982 34.0865 47.7356 34.047C47.968 34.0317 48.1933 34.1791 48.1549 34.3348C48.1006 34.622 47.6967 35.026 47.3316 35.3132C46.8268 35.7095 46.5001 35.9578 46.174 35.8104Z" fill="#F7F7E7"/>
<path fill-rule="evenodd" clip-rule="evenodd" d="M30.6417 31.4069C30.8516 31.3915 31.1235 31.5605 31.1777 31.7878C31.232 32.0361 31.0457 32.5333 30.6417 32.5333C30.3155 32.5333 30.1445 32.1293 30.1445 32.0131C30.1482 31.9175 30.1749 31.8243 30.2224 31.7412C30.2377 31.7177 30.2766 31.4458 30.6417 31.4069Z" fill="#F8F6DE"/>
<path fill-rule="evenodd" clip-rule="evenodd" d="M27.6122 31.5855C27.6122 31.5855 27.0761 31.8338 26.8278 32.3535C26.6504 32.7372 26.5967 33.1667 26.6742 33.5823C26.7131 33.7763 26.9072 34.2576 27.0392 34.4286C27.1713 34.5996 27.35 34.7164 27.4821 34.7005C27.6142 34.6846 27.8856 34.3354 27.8856 34.126C27.8856 33.9166 27.9015 33.0309 28.1575 32.5491C28.3827 32.0678 27.6137 31.586 27.6137 31.586L27.6122 31.5855Z" fill="#D4C38B"/>
<path fill-rule="evenodd" clip-rule="evenodd" d="M27.69 31.5467C27.5968 31.601 27.4417 31.6788 27.4801 31.7796C27.519 31.8728 27.8452 31.9332 27.9619 32.1606C28.094 32.3935 28.094 32.6419 28.0551 32.7586C28.1565 32.7104 28.2486 32.6445 28.327 32.564C28.498 32.37 28.7074 32.1063 28.8861 32.1063C29.0028 32.1063 29.119 32.1606 29.2281 32.1606C29.3991 32.1606 29.5696 32.1063 29.5931 31.9276C29.6315 31.6946 29.267 31.4847 29.0571 31.5236C29.096 31.37 29.1503 31.1432 28.9792 30.9876C28.8082 30.8319 28.2727 31.1043 28.156 31.1821C28.0392 31.26 27.69 31.5472 27.69 31.5472V31.5467Z" fill="#E2D59D"/>
<path fill-rule="evenodd" clip-rule="evenodd" d="M40.0317 47.8651L41.1811 47.5257L41.5073 47.7586C41.5073 47.7586 41.7397 48.2558 42.1053 48.3177C41.9886 48.566 41.6855 48.7785 41.7013 48.9547C41.7172 49.1308 41.8723 49.2654 41.8723 49.2654C41.8723 49.2654 40.8391 50.974 42.8743 52.6958C42.3925 52.8899 41.7792 53.1566 41.453 53.3102C41.6855 53.3645 42.1826 53.4638 42.3925 53.6523C42.6024 53.8407 42.6025 53.9006 42.7965 54.0173C42.9905 54.1341 43.1068 54.2892 43.0684 54.3588C42.9363 54.281 42.4934 54.0485 42.4161 54.2656C42.3388 54.4827 40.4976 54.3977 40.4976 54.3977L37.3908 54.9957C37.3908 54.9957 37.507 54.685 37.1809 54.3977C36.8005 54.0562 36.3345 54.4131 35.8374 54.0327C35.1851 53.5355 35.1616 52.9605 34.9521 52.7435C35.1616 52.6114 35.5891 52.4173 36.6064 52.2827C36.5675 52.2048 36.4354 51.9719 36.5132 51.7625C36.6064 51.4906 36.9945 51.3196 36.8783 50.9945C37.0493 50.9556 37.1266 50.9556 37.5541 50.4195C37.9581 49.8834 38.2064 49.7672 38.5172 49.7283C38.828 49.6894 39.0144 49.7283 39.5893 49.1922C39.9928 48.8118 39.8612 48.4857 39.8612 48.4857C39.8612 48.4857 40.1249 48.4002 40.0322 47.8641L40.0317 47.8651Z" fill="#CBAC5A"/>
<path fill-rule="evenodd" clip-rule="evenodd" d="M36.6366 48.0376C36.6519 47.9598 36.7144 47.9209 37.1337 47.9598C37.553 47.9987 40.2093 47.7115 40.9317 47.6725C41.6618 47.6183 44.2326 47.6567 45.4834 47.9209C46.7342 48.1851 47.9999 48.4958 48.6133 48.651C49.2277 48.822 49.4212 48.8834 49.3977 48.9612C49.3823 49.0391 49.2441 49.1148 49.1647 49.0933C49.0874 49.078 47.0522 48.4564 46.4234 48.3253C45.7947 48.1943 43.6192 47.8435 42.4298 47.8645C41.3193 47.8804 40.8764 47.8492 39.9369 47.9577C38.9969 48.0745 37.4435 48.2296 36.9776 48.1676C36.5168 48.1134 36.612 48.1134 36.6355 48.0355L36.6366 48.0376Z" fill="#D6BC6F"/>
<path fill-rule="evenodd" clip-rule="evenodd" d="M42.8893 54.1253C42.8893 54.1253 44.4816 54.9875 45.0566 56.0437C45.4759 56.8281 44.8083 57.2167 44.8083 57.2167C44.8083 57.2167 45.7094 57.2167 45.5927 57.7139C45.5384 58.0242 44.0392 58.8628 43.0373 59.3057C42.0199 59.7486 42.0588 59.7255 41.5617 59.8029C41.0799 59.8807 39.7594 59.6493 39.4876 60.0358C39.2157 60.4224 39.334 60.8207 39.4097 60.8827C39.4876 60.9369 40.1168 61.0148 40.1168 61.0148C40.1168 61.0148 39.9847 61.3798 38.6801 61.4187C37.3756 61.4576 37.0489 61.5503 36.9711 61.6906C36.8933 61.8222 37.2194 61.7449 37.8179 61.8442C38.416 61.9374 39.2546 61.9978 39.2546 61.9978C39.2546 61.9978 38.9827 62.2308 38.2762 62.4171C37.4682 62.6265 36.2021 62.8211 35.8216 63.0541C36.0157 63.1862 36.3034 63.3802 36.436 63.3956C36.1099 63.4734 35.6512 63.6444 35.5738 63.7063C35.6901 63.7842 35.8457 63.8773 35.8457 63.8773C35.8457 63.8773 35.1929 64.6617 34.8125 64.8563C34.4321 65.0509 32.2417 66.0677 31.4881 65.8736C29.6085 65.3765 29.3756 63.3182 28.9173 63.1631C28.2261 62.9302 27.9 63.3956 27.2861 63.0694C27.558 62.8754 27.7059 62.7591 27.9932 62.627C27.6824 62.4734 26.0747 61.4541 26.0747 61.4541C25.9066 61.0876 25.72 60.73 25.5156 60.3824C25.2048 59.8464 24.7476 59.1316 24.4046 58.5024C23.6591 57.12 23.6202 56.483 22.9443 55.6987C23.0611 55.5451 23.4645 55.5666 23.4645 55.5666L29.1272 57.4308L39.1681 57.7216L41.7793 53.9937L42.8898 54.1258L42.8893 54.1253Z" fill="#DFC677"/>
<path fill-rule="evenodd" clip-rule="evenodd" d="M28.0166 59.8107C28.0772 59.8781 28.1478 59.9358 28.226 59.9817C28.4206 60.1138 28.7078 60.2694 28.9018 60.5019C28.9797 60.3856 29.1737 60.1757 29.5162 60.5019C29.8588 60.828 30.2843 60.5956 30.549 60.6729C30.8208 60.7666 30.8362 60.805 30.8362 60.805C30.8362 60.805 30.9898 60.6729 31.3333 60.5331C31.5433 60.4553 31.7916 60.401 32.0634 60.3237C32.3118 60.2694 32.5836 60.1916 32.7705 60.1916C32.9415 60.3078 33.5549 60.9596 36.0171 59.9975C38.3395 59.0964 38.8751 58.9955 39.2637 59.1348C39.3026 59.0416 39.3415 58.8629 39.9395 58.8865C39.9395 58.6382 39.4424 57.7913 39.4424 57.7913L36.7006 56.8518H35.201L30.7041 57.6751L28.2122 59.0969L28.0181 59.8137L28.0166 59.8107Z" fill="#C4A859"/>
<path fill-rule="evenodd" clip-rule="evenodd" d="M26.5166 58.234C26.5166 58.234 26.5709 58.6533 27.1924 59.0962C27.8068 59.5386 27.9999 59.8028 27.9999 59.8028C27.9999 59.8028 28.1166 59.6491 28.2098 59.4925C28.303 59.3215 28.3808 59.1274 28.5359 59.0732C28.8467 58.9411 29.5533 59.1894 29.7089 59.1505C29.841 59.1121 29.8021 58.8402 29.9419 58.8402C30.268 58.8243 30.4774 59.0496 30.5942 59.0496C30.7109 59.0496 30.9976 59.0342 31.0365 58.9723C31.0754 58.9103 31.0908 58.2652 31.5337 57.9544C32.0155 57.6129 32.6058 57.7604 32.7625 57.8382C32.7625 57.9544 32.7778 58.2422 33.0886 58.2575C33.3994 58.2729 33.4301 58.2186 33.703 58.3118C33.9759 58.405 34.301 58.2964 34.4485 58.7542C34.5806 58.7158 34.8914 58.6769 34.8136 58.234C34.9672 58.1178 35.1013 58.0399 35.428 57.5817C35.5058 57.4655 35.6374 57.3334 35.7387 57.1624C36.0106 57.1624 36.3368 57.1081 36.7714 57.4885C36.6394 57.5817 36.5615 57.6421 36.5231 57.7368C36.6368 57.8494 36.7406 57.9715 36.8334 58.1019C36.9501 58.2555 37.028 58.4439 37.1754 58.4828C37.5016 58.576 38.0376 58.4439 38.6356 58.4828C39.2106 58.5217 39.6919 58.7311 39.9018 58.8632C39.9796 58.8248 39.9796 58.809 40.1737 58.8479C40.3677 58.8868 40.5152 58.9021 40.3058 58.6538C40.422 58.7081 40.5541 58.8248 40.6708 58.7081C40.7876 58.5914 40.8802 58.4209 41.2064 58.382C41.5325 58.343 41.6493 58.3973 41.7814 58.0558C41.9524 57.6365 41.362 57.6365 41.362 57.6365C41.362 57.6365 41.6339 57.3876 41.937 57.0615C42.3021 56.72 42.7214 56.2771 42.8223 55.7334C42.9933 54.7314 42.0148 54.5998 42.0148 54.5998L37.2691 56.06L31.4671 55.7723L26.5197 58.2345L26.5166 58.234Z" fill="#927D49"/>
<path fill-rule="evenodd" clip-rule="evenodd" d="M22.2521 44.5253C22.2521 44.5253 22.0985 44.7194 22.0037 45.1776C21.909 45.6358 21.9495 45.5816 21.8716 45.9077C21.7938 46.2339 20.8379 49.4805 21.1963 50.5756C21.5547 51.6708 22.1753 52.0748 22.5634 52.96C22.6412 53.1541 22.717 53.2708 22.7574 53.4418C22.8895 54.0163 22.7733 54.4591 22.9284 55.0341C22.9827 55.2282 23.123 55.4534 23.3324 55.6864C23.7932 56.1677 24.5443 56.6259 24.8684 56.9521C25.3261 57.4339 25.9789 58.4128 26.8099 58.5055C27.2528 58.5598 27.882 58.3734 28.4022 58.0631C28.863 57.7754 29.1477 57.3719 29.631 57.1415C29.9725 56.9705 30.3376 56.9086 30.6637 56.8307C31.3395 56.6986 31.9534 56.6771 32.3185 56.7529C32.8776 56.8696 34.198 57.2736 34.9297 57.2736C35.5014 57.2644 36.0699 57.1862 36.6229 57.0406C37.7334 56.7145 39.0769 56.1549 39.9627 55.9066C40.4828 55.753 40.9022 55.7125 41.3297 55.6193C42.0598 55.4483 42.6732 55.2154 43.0229 54.7725C42.7899 54.5006 42.5027 54.0813 40.9488 54.0966C39.1859 54.1356 37.1507 55.114 36.1488 55.2696C35.1468 55.4253 34.7121 55.5569 33.5934 55.1529C32.4967 54.7448 32.4603 54.475 32.4603 54.475C32.4603 54.475 31.3088 53.6696 30.827 51.6165C30.3452 49.5634 30.827 48.0673 32.0779 46.6455C32.404 46.2805 32.3262 45.9543 32.3262 45.9543C32.3262 45.9543 33.1495 44.8438 32.9242 43.8039C32.6759 42.7707 31.0835 42.9806 31.0835 42.9806L22.2526 44.5253H22.2521Z" fill="#6E6342"/>
<path fill-rule="evenodd" clip-rule="evenodd" d="M23.5806 47.9818C23.5121 48.1105 23.4799 48.2555 23.4874 48.4011C23.5028 48.6105 23.5652 48.8824 24.194 49.4963C24.73 50.0318 24.6133 50.6298 24.6133 50.6298C24.6133 50.6298 24.8831 50.6841 25.6153 50.3416C26.1902 50.0697 26.3833 50.5515 26.3833 50.5515C26.5506 50.4637 26.7321 50.4059 26.9193 50.3805C27.089 50.3649 27.2532 50.3124 27.4006 50.2269C27.4006 50.2269 28.0765 50.9181 28.6668 51.2442C29.2029 51.532 29.5136 51.726 29.7778 51.532C30.0261 51.361 30.0261 51.0113 30.0103 50.8561C29.9487 50.7129 29.8707 50.5774 29.7778 50.4522C29.6068 50.2038 29.3349 49.9161 29.317 49.6842C29.2781 49.1486 29.721 48.5112 29.6273 48.356C29.5336 48.2009 29.1849 48.162 28.3227 48.4728C27.4298 48.7677 23.577 47.9833 23.577 47.9833L23.5806 47.9818Z" fill="#39331F"/>
<path fill-rule="evenodd" clip-rule="evenodd" d="M25.6161 51.4537C25.6161 51.4537 25.1738 51.0344 25.3289 48.9992C25.5167 48.9965 25.7042 49.0147 25.888 49.0535C25.888 49.0535 26.1291 50.6304 25.6161 51.4537Z" fill="#292311"/>
<path fill-rule="evenodd" clip-rule="evenodd" d="M22.4631 42.9719C22.5248 42.9262 22.5821 42.8748 22.6341 42.8183C22.4805 43.1056 21.7714 44.255 22.3463 46.0649C22.9213 47.8666 24.3657 49.2101 26.1444 49.2726C27.923 49.3351 28.858 48.4647 29.927 47.1601C30.3463 46.6399 30.8281 45.9871 31.2551 45.5447C31.8921 44.853 32.3892 44.659 32.3892 43.9913C32.3892 42.6243 30.991 42.0104 28.9327 41.397C26.8745 40.7836 25.018 40.8594 24.0549 41.2793C23.1154 41.737 22.7114 42.2188 22.4626 42.9724L22.4631 42.9719Z" fill="#252211"/>
<path fill-rule="evenodd" clip-rule="evenodd" d="M29.0714 52.067L29.225 51.9892C29.225 51.9892 29.2634 51.3748 29.5122 51.3912C29.7605 51.4301 29.8772 51.7568 29.8537 51.873C29.8383 51.9892 29.7764 52.1838 29.5275 52.1602C29.2014 52.1679 29.0698 52.067 29.0698 52.067H29.0714Z" fill="#3F3824"/>
<path fill-rule="evenodd" clip-rule="evenodd" d="M28.3799 49.4573C28.3799 49.4573 28.5335 49.4031 28.7214 49.5894C28.875 49.5894 29.5447 49.5116 29.7546 49.6437C29.9645 49.7758 30.0265 49.892 30.0265 49.892C30.0265 49.892 29.2421 50.063 28.8146 49.892C28.3799 49.7446 28.3799 49.4573 28.3799 49.4573Z" fill="#2D2815"/>
<path fill-rule="evenodd" clip-rule="evenodd" d="M31.8376 49.5736C31.8376 49.5347 31.4183 49.2475 30.9754 49.1538C30.8976 49.1384 30.8817 49.1927 30.8218 49.1927C30.7829 49.1773 30.7675 49.0606 30.7675 49.0606L30.5156 49.1932C30.5156 49.1932 30.4767 49.2475 30.6088 49.3468C30.725 49.44 30.9196 49.5178 30.9738 49.6729C31.0281 49.8281 31.0281 49.8824 31.0517 49.9059C31.067 49.9213 31.3389 49.9059 31.471 49.8281C31.6031 49.7503 31.8519 49.6233 31.836 49.5721L31.8376 49.5736Z" fill="#82764F"/>
<path fill-rule="evenodd" clip-rule="evenodd" d="M27.915 51.1505C27.915 51.1505 27.9924 50.6149 28.5131 50.5914C29.0486 50.5525 29.15 51.0727 29.15 51.0727L28.8392 51.3835C28.8392 51.3758 28.6062 51.0496 27.9176 51.1505H27.915Z" fill="#2D2816"/>
<path fill-rule="evenodd" clip-rule="evenodd" d="M31.293 48.8434C31.293 48.8434 31.0053 49.1542 30.3689 49.2474C30.3146 49.1696 30.1978 49.0144 30.3689 48.7661C30.5399 48.5178 30.7339 48.44 30.928 48.5173C31.0136 48.5311 31.0934 48.5692 31.1581 48.627C31.2228 48.6848 31.2696 48.7599 31.293 48.8434Z" fill="#574F35"/>
<path fill-rule="evenodd" clip-rule="evenodd" d="M32.4661 49.2244C32.4819 49.1466 32.4277 49.1312 32.4661 49.0923C32.5045 49.0534 32.7149 48.9761 32.7538 49.0145C32.7692 49.0303 32.7538 49.0923 32.7538 49.1681C32.7538 49.2438 32.7538 49.3217 32.7149 49.3775C32.6606 49.4553 32.5055 49.4942 32.4277 49.4712C32.3498 49.4481 32.3345 49.3391 32.3345 49.3176C32.3729 49.3022 32.4661 49.2633 32.4661 49.2244ZM33.7921 48.3857C33.7921 48.3468 33.9242 48.269 34.0021 48.269C34.1183 48.269 34.1183 48.3622 34.1342 48.3857C34.1726 48.4011 34.1726 48.3699 34.2115 48.44C34.2504 48.5101 34.3052 48.6341 34.2657 48.7119C34.2263 48.7897 34.0717 48.8435 34.0333 48.8281C33.979 48.7892 33.808 48.44 33.7921 48.3857Z" fill="#82764F"/>
<path fill-rule="evenodd" clip-rule="evenodd" d="M31.123 49.4032C31.123 49.4032 31.2941 49.4416 31.527 49.6361C31.4492 49.6904 31.3325 49.7524 31.3325 49.7524C31.3325 49.7524 31.3171 49.5737 31.123 49.4027V49.4032Z" fill="#6E6342"/>
<path fill-rule="evenodd" clip-rule="evenodd" d="M30.7415 47.694C30.7026 47.6556 30.8577 47.5624 30.9509 47.5778C31.0441 47.5931 31.083 47.6556 31.1839 47.671C31.2847 47.6863 31.3006 47.6321 31.3375 47.5931C31.3743 47.5542 31.5085 47.5778 31.5315 47.5931C31.5459 47.6102 31.5589 47.6283 31.5704 47.6474C31.572 47.6179 31.5798 47.589 31.5931 47.5625C31.6064 47.5361 31.625 47.5127 31.6477 47.4938C31.6775 47.4719 31.7119 47.4571 31.7482 47.4503C31.7846 47.4436 31.822 47.4451 31.8577 47.4549C31.873 47.5092 31.9508 47.7032 31.9355 47.7421C31.9201 47.781 31.6872 47.8358 31.6477 47.7964C31.6866 47.8901 31.8577 48.0841 31.8807 48.1225C31.9037 48.1609 31.7097 48.2546 31.6324 48.2393C31.5238 48.2316 30.8557 47.843 30.7394 47.6955L30.7415 47.694ZM31.7588 46.4048C31.7445 46.3657 31.717 46.3327 31.681 46.3116C31.6267 46.2962 31.4481 46.3116 31.4481 46.4048C31.4481 46.498 31.6017 47.0192 31.7742 47.2905C31.9688 47.5624 32.1003 47.7872 32.2324 47.8497C32.2739 47.8685 32.321 47.871 32.3642 47.8566C32.4075 47.8421 32.4436 47.8118 32.4654 47.7718C32.4808 47.7329 32.5197 47.4457 32.5043 46.7698C32.4889 46.094 32.4654 45.4417 32.4265 45.4028C32.3876 45.3639 32.2324 45.3644 32.1782 45.4417C32.1239 45.519 31.7742 46.2886 31.7583 46.4048H31.7588Z" fill="#585136"/>
<path fill-rule="evenodd" clip-rule="evenodd" d="M31.0671 50.3814C31.0671 50.3814 30.7952 50.2104 30.531 50.3272C30.2827 50.4439 30.298 50.9021 30.298 50.9021C30.3539 50.924 30.4143 50.9319 30.4739 50.9251C30.5335 50.9183 30.5905 50.8971 30.6401 50.8632C30.8111 50.747 31.0281 50.5529 31.0671 50.3819V50.3814Z" fill="#574F35"/>
<path fill-rule="evenodd" clip-rule="evenodd" d="M31.5804 50.9955C31.565 50.8419 31.4268 50.8419 31.4268 50.7625C31.4363 50.7246 31.4583 50.6909 31.4892 50.667C31.5201 50.643 31.5581 50.6301 31.5973 50.6304C31.6751 50.6304 31.7509 50.7236 31.8461 50.784C31.9393 50.8383 32.079 50.9376 32.0944 51.0559C32.1098 51.1741 31.9408 51.4982 31.7529 51.4982C31.565 51.4982 31.6208 51.1485 31.5819 50.9934L31.5804 50.9955ZM33.0795 50.7855C33.0795 50.7855 32.7687 50.8787 32.7917 50.7855C32.8148 50.6924 32.8854 50.6693 32.9863 50.6693C33.0376 50.6157 33.1065 50.5824 33.1804 50.5756C33.2226 50.5735 33.2641 50.5874 33.2966 50.6145C33.2966 50.6145 33.5065 50.5213 33.5685 50.5756C33.6304 50.6299 33.5843 50.6299 33.6227 50.6924C33.6716 50.7617 33.7037 50.8414 33.7164 50.9253C33.7164 50.9873 33.4835 51.1194 33.2966 51.0963C33.0795 51.0497 33.1179 50.8244 33.0795 50.7855ZM34.8889 50.4358C34.8889 50.4358 34.9821 50.4901 34.9048 50.5526C34.8505 50.6068 34.5786 50.7062 34.3452 50.7236C34.1122 50.7236 33.9028 50.762 33.9028 50.6847C33.9028 50.6074 34.0968 50.4517 34.2131 50.4128C34.2364 50.3836 34.266 50.3601 34.2997 50.3439C34.3334 50.3278 34.3703 50.3195 34.4076 50.3196C34.5008 50.3196 34.8654 50.2807 34.9667 50.2653C35.0599 50.2495 35.1377 50.3037 35.0829 50.3816C35.0599 50.4358 34.8889 50.4358 34.8889 50.4358ZM35.425 48.0376C35.425 48.0376 35.3082 48.286 35.1766 48.286C35.0445 48.2706 35.0445 48.2317 35.0445 48.1928C35.0445 48.1385 35.1766 47.9987 35.1608 47.9598C35.1224 47.9598 35.0287 47.9598 35.0445 47.8666C35.0445 47.7888 35.1766 47.6956 35.2929 47.713C35.3807 47.6409 35.49 47.6 35.6037 47.5968C35.7358 47.5968 35.852 47.6352 35.852 47.713C35.852 47.7908 35.6984 47.9613 35.6421 48.0008C35.5801 48.0627 35.5023 48.1032 35.425 48.0392V48.0376ZM33.654 52.6277C33.654 52.6277 33.5004 52.6436 33.5004 52.7209C33.5004 52.7598 33.5388 52.7598 33.5935 52.7368C33.6251 52.735 33.6564 52.7297 33.6867 52.7209C33.7021 52.7368 33.7021 52.8141 33.8188 52.8141C33.9147 52.8011 34.0071 52.7695 34.0907 52.7209C34.1839 52.6825 34.2617 52.6431 34.2617 52.5673C34.2228 52.4352 34.145 52.3727 34.0287 52.3727C33.9692 52.369 33.9098 52.3825 33.8577 52.4117C33.8577 52.4117 33.8188 52.3338 33.6867 52.4117C33.5546 52.4895 33.57 52.4895 33.6089 52.5284C33.6785 52.5903 33.6555 52.6308 33.6555 52.6308L33.654 52.6277ZM32.7764 53.4357C32.7764 53.3967 32.9704 53.3189 33.0247 53.3425C33.079 53.3578 33.2341 53.6527 33.2341 53.684C33.2341 53.7229 33.0401 53.8161 32.9622 53.8161C32.8844 53.8161 32.7528 53.684 32.7528 53.6625C32.7528 53.6471 32.846 53.6241 32.846 53.6082C32.8691 53.5698 32.7764 53.4761 32.7764 53.4372V53.4357ZM32.162 52.3016C32.2009 52.2862 32.2009 52.2473 32.2552 52.2084C32.2722 52.1971 32.2915 52.1898 32.3118 52.1872C32.332 52.1845 32.3526 52.1865 32.3719 52.193C32.3856 52.1686 32.4046 52.1475 32.4274 52.1313C32.4503 52.1151 32.4764 52.1042 32.504 52.0993C32.5972 52.084 32.675 52.0993 32.6576 52.1382C32.6576 52.255 32.7354 52.3323 32.7354 52.4255C32.7354 52.5187 32.6812 52.6354 32.4871 52.7132C32.2931 52.7675 32.0289 52.7675 31.99 52.7521C31.951 52.7368 31.9121 52.5811 31.951 52.5033C31.99 52.4255 32.0985 52.3405 32.161 52.3016H32.162Z" fill="#82764F"/>
<path fill-rule="evenodd" clip-rule="evenodd" d="M32.409 52.3542C32.409 52.3542 32.2769 52.4321 32.2769 52.471C32.2651 52.5086 32.26 52.5479 32.2615 52.5872C32.2615 52.6102 32.4325 52.5718 32.4555 52.5483C32.4632 52.5329 32.409 52.3947 32.409 52.3542Z" fill="#6E6342"/>
<path fill-rule="evenodd" clip-rule="evenodd" d="M31.254 51.9893C31.3313 52.0052 31.4634 51.9893 31.5642 52.0282C31.6421 52.0671 31.6963 52.1449 31.6185 52.2381C31.5407 52.3313 31.4649 52.4711 31.2924 52.4475C31.0983 52.4322 30.9119 52.3313 30.9119 52.2535C30.9087 52.2043 30.9152 52.1549 30.9312 52.1082C30.9472 52.0615 30.9724 52.0185 31.0051 51.9816C31.083 51.9197 31.1214 51.9586 31.2535 51.9893H31.254Z" fill="#585136"/>
<path fill-rule="evenodd" clip-rule="evenodd" d="M31.1606 52.067C31.1606 52.067 30.9123 52.2611 30.8498 52.3548C30.772 52.448 30.3916 52.9293 30.2753 53.0301C30.3139 52.962 30.3579 52.8971 30.4069 52.8361C30.2533 52.9343 30.1382 53.0824 30.0808 53.2554C29.9876 53.5431 30.6015 53.6983 31.0049 53.815C31.4084 53.9318 31.5646 53.9686 31.5646 53.9686C31.416 53.7454 31.2885 53.5088 31.1836 53.2621C31.03 52.897 30.9507 52.8581 31.0515 52.6871C31.1294 52.5161 31.2461 52.3998 31.2461 52.2678C31.1995 52.1449 31.1606 52.067 31.1606 52.067Z" fill="#574F35"/>
<path fill-rule="evenodd" clip-rule="evenodd" d="M22.3062 52.6808C22.3627 52.6912 22.4207 52.6912 22.4772 52.6808C22.5934 52.6649 23.8053 52.22 25.0715 52.2999C26.0194 52.3571 26.9589 52.5116 27.8752 52.7607C29.4675 53.18 31.448 54.011 32.7295 54.4851C33.071 54.6167 33.4053 54.8501 33.6511 54.9428C34.63 55.3237 34.6684 55.3237 35.2434 55.4246C35.9193 55.5178 36.6105 55.2925 37.3329 55.1374C38.2181 54.9428 39.7326 54.8496 41.0608 54.6556C41.4902 54.5961 41.9138 54.5 42.3269 54.3684C42.3269 54.3684 41.2707 55.4246 38.7383 55.805C37.7147 55.9605 36.6746 55.9735 35.6474 55.8439C34.8394 55.7661 34.3039 55.6494 33.8999 55.5332C33.4417 55.4011 32.5017 55.0514 31.3445 54.7652C30.5366 54.5552 29.6355 54.4001 28.6028 54.206C26.0551 53.7396 23.2903 53.2041 22.3052 52.6839L22.3062 52.6808Z" fill="#252211"/>
<path fill-rule="evenodd" clip-rule="evenodd" d="M19.4483 47.881C18.8339 48.4012 18.1822 48.8983 17.5458 49.3796L15.6273 50.8537C14.975 51.3349 14.3381 51.8321 13.6853 52.3139C13.0325 52.7957 12.3807 53.2534 11.6885 53.6963C12.3029 53.1761 12.9547 52.6943 13.6069 52.2207C14.2592 51.7471 14.9356 51.2827 15.5648 50.8025L17.4833 49.3264C18.1433 48.8451 18.7802 48.3479 19.4483 47.882V47.881ZM16.0543 53.3179C16.0543 53.3179 16.7455 52.7429 17.6077 51.9355C18.6793 50.934 19.9921 49.652 20.4114 49.4195L16.0538 53.3184L16.0543 53.3179Z" fill="#CFB66C"/>
<path fill-rule="evenodd" clip-rule="evenodd" d="M16.0537 53.3174C16.3957 52.9759 16.7608 52.6421 17.1258 52.3154L17.6849 51.8342C17.856 51.6806 18.0505 51.508 18.221 51.337C18.5625 50.9955 18.8968 50.6299 19.2384 50.2807C19.4076 50.1051 19.5866 49.9392 19.7744 49.7836C19.8683 49.7005 19.9726 49.6299 20.0847 49.5737C20.1784 49.5194 20.2792 49.4201 20.4108 49.4027C20.3335 49.5194 20.2403 49.5737 20.1625 49.6745C20.0693 49.7524 19.9915 49.8455 19.9142 49.9229C19.7432 50.0939 19.5491 50.249 19.3781 50.4046C19.0131 50.7154 18.6327 51.0191 18.2676 51.3442C17.9025 51.6693 17.561 52.02 17.1955 52.3462C16.7997 52.6805 16.4346 53.0066 16.0537 53.319V53.3174ZM20.6986 50.2106C20.6986 50.2106 18.1667 52.6887 17.646 53.0921L20.6986 50.2106Z" fill="#CFB66C"/>
<path fill-rule="evenodd" clip-rule="evenodd" d="M20.7 50.2105C20.4722 50.4742 20.228 50.7232 19.9689 50.956L19.2009 51.6861C18.9525 51.9344 18.7191 52.1833 18.4554 52.4316C18.1835 52.6646 17.9352 52.8924 17.6475 53.1074L18.3929 52.3773C18.6418 52.129 18.9136 51.9196 19.1778 51.6708L19.9233 50.9407C20.1793 50.6847 20.4281 50.4358 20.7 50.2105ZM20.8162 51.554C20.5829 52.2054 20.3079 52.8411 19.9929 53.4571C19.3406 54.7622 18.3622 56.3929 17.9347 57.2244L20.8162 51.554Z" fill="#CFB66C"/>
<path fill-rule="evenodd" clip-rule="evenodd" d="M20.8157 51.5544C20.8157 51.8417 20.7379 52.0905 20.6447 52.3388C20.5539 52.5874 20.4503 52.8311 20.3345 53.0689C20.2177 53.3019 20.0856 53.5507 19.9535 53.776C19.8214 54.0013 19.6663 54.2337 19.5496 54.4672L18.7652 55.8496C18.4933 56.3104 18.2291 56.7738 17.9419 57.2167C18.1359 56.7195 18.4001 56.2536 18.649 55.7953C18.9208 55.3345 19.1692 54.8737 19.417 54.3971C19.538 54.1595 19.6468 53.916 19.7431 53.6675C19.8593 53.4186 19.9756 53.1857 20.0693 52.9604C20.1855 52.7121 20.2787 52.4786 20.3954 52.2538C20.527 52.0127 20.636 51.7797 20.8147 51.5544H20.8157Z" fill="#CFB66C"/>
<path fill-rule="evenodd" clip-rule="evenodd" d="M23.5809 57.9232C23.5809 57.9232 22.8129 58.9406 22.8897 60.2298C23.0991 59.5545 23.3633 58.5213 23.5809 57.9232ZM24.311 58.9432C24.311 58.9432 24.0391 61.708 23.8138 63.0673C24.1323 61.496 24.1943 61.6281 24.311 58.9432ZM29.3982 63.2306C29.3982 63.2306 28.2488 66.6098 28.2252 67.5488C28.4741 66.5832 28.9553 64.6105 29.3982 63.2281V63.2306Z" fill="#DEC270"/>
<path fill-rule="evenodd" clip-rule="evenodd" d="M32.085 57.7143C32.085 57.7143 33.9492 60.7899 35.3474 63.4149C34.9691 62.094 34.0987 59.6712 32.085 57.7143Z" fill="#CBAF59"/>
<path fill-rule="evenodd" clip-rule="evenodd" d="M37.0947 62.2419C38.1183 64.0512 39.0413 65.9155 39.8595 67.8263C39.7044 66.5059 39.2846 64.2459 37.0947 62.2419Z" fill="#E3C677"/>
<path fill-rule="evenodd" clip-rule="evenodd" d="M51.8215 66.7768C52.1317 66.5828 52.7456 65.526 53.2817 65.2623C53.8172 64.9905 54.2212 64.9362 54.703 64.4001C55.1843 63.8405 55.3174 63.499 56.3726 63.0566C57.8487 62.4192 56.8334 61.5959 56.8334 61.5959C56.996 61.4362 57.1699 61.2884 57.3536 61.1535C57.7345 60.8663 58.1769 60.5166 58.1385 59.9027C58.0842 58.87 57.8902 57.3709 57.0434 56.501C57.8666 56.33 59.4431 56.2138 60.4226 55.9654C61.5561 55.6777 62.0768 55.2737 62.0768 55.2737C62.0768 55.2737 61.4245 54.1632 62.4808 53.045C63.537 51.9268 64.3993 51.2586 65.0362 50.0078C64.3061 49.9146 63.193 49.5265 60.3524 50.6058C60.5058 50.678 60.6538 50.7609 60.7953 50.8541C60.7953 50.8541 59.0478 51.3359 58.4109 51.872C57.2999 52.8115 57.1601 53.5805 55.9564 54.1555C54.7527 54.7305 53.5408 54.5748 52.5393 55.0408C51.5378 55.5067 51.3898 55.903 51.0243 56.074C51.1021 56.1672 51.0089 56.3223 51.1564 56.4544C51.0632 56.5865 50.5194 57.4717 49.968 57.4717C50.0223 57.6817 50.4882 57.8368 50.4882 57.8368C50.4882 57.8368 50.1467 58.0856 49.2768 58.1476C49.7192 58.6084 50.139 59.1107 51.2962 59.8408C51.203 60.0348 50.8144 60.3226 50.97 60.6876C51.141 61.0527 51.5844 61.5498 53.3544 61.9538C52.4533 61.9922 51.3975 62.2021 49.9752 62.0081C48.5539 61.8371 48.3209 61.7362 47.4434 61.9538C47.5365 62.047 47.7849 62.047 48.0025 62.2953C47.7695 62.3107 46.3093 62.1243 45.8121 62.7771C45.2919 63.4524 45.0666 64.5635 45.1056 65.3089C44.8337 65.441 44.5695 65.674 44.7016 66.1558C44.8337 66.6376 45.5249 66.7927 45.9678 67.0953C46.4101 67.4214 46.449 67.5377 46.8689 67.4603C47.3113 67.3672 47.9635 66.9248 48.3445 66.9248C48.7254 66.9248 48.9968 67.212 48.9968 67.212C48.9968 67.212 50.03 66.7149 50.1308 66.8081C50.224 66.9012 50.1462 67.4993 50.2471 67.5924C50.3495 67.6626 51.5132 66.9714 51.824 66.7768H51.8215Z" fill="#ECD592"/>
<path fill-rule="evenodd" clip-rule="evenodd" d="M74.4001 35.6943C69.5458 23.1585 57.5455 20.8361 57.5455 20.8361H23.3086L23.4407 33.6048H30.259V62.1176H23.3081V74.8633H56.5978C64.6209 74.8633 71.0521 66.8009 71.0521 66.8009C81.351 52.1838 74.3996 35.6943 74.3996 35.6943H74.4001ZM56.7765 58.2105C56.7765 58.2105 54.1653 61.9778 51.3242 61.9778H45.641L45.5064 33.6361H52.7998C52.7998 33.6361 56.179 34.3426 58.5399 41.0299C58.5399 41.0299 61.6697 50.6043 56.7765 58.2105Z" fill="white" fill-opacity="0.8"/>
</g>
<circle cx="69" cy="69" r="16" fill="#F3BA2F"/>
<g clip-path="url(#clip0)">
<path d="M65.4169 67.4436L68.8571 64.0034L72.299 67.4451L74.3007 65.4434L68.8571 60L63.4153 65.4418L65.4169 67.4435L65.4169 67.4436ZM60 68.8571L62.0018 66.855L64.0034 68.8567L62.0016 70.8584L60 68.8571ZM65.4169 70.2707L68.8571 73.7108L72.2989 70.2691L74.3017 72.2698L74.3007 72.2708L68.8571 77.7142L63.4153 72.2724L63.4125 72.2695L65.4171 70.2705L65.4169 70.2707ZM73.7108 68.8579L75.7126 66.8562L77.7142 68.8578L75.7125 70.8596L73.7108 68.8579Z" fill="white"/>
<path d="M70.8871 68.8558H70.888L68.857 66.8246L67.3557 68.3254L67.1832 68.4979L66.8275 68.8537L66.8247 68.8565L66.8275 68.8594L68.857 70.8891L70.8881 68.8579L70.8891 68.8568L70.8873 68.8558" fill="white"/>
</g>
<defs>
<clipPath id="clip0">
<rect width="17.7143" height="17.7142" fill="white" transform="translate(60 60)"/>
</clipPath>
</defs>
</svg>
