<svg width="96" height="96" viewBox="0 0 96 96" fill="none" xmlns="http://www.w3.org/2000/svg">
<mask id="mask0" mask-type="alpha" maskUnits="userSpaceOnUse" x="0" y="0" width="96" height="96">
<path fill-rule="evenodd" clip-rule="evenodd" d="M96 48C96 21.4903 74.5097 0 48 0C21.4903 0 0 21.4903 0 48C0 74.5097 21.4903 96 48 96C74.5097 96 96 74.5097 96 48ZM69 88C79.4934 88 88 79.4934 88 69C88 58.5066 79.4934 50 69 50C58.5066 50 50 58.5066 50 69C50 79.4934 58.5066 88 69 88Z" fill="#C4C4C4"/>
</mask>
<g mask="url(#mask0)">
<path d="M48.8522 0C29.6361 0.0771879 14.0772 15.6361 14 34.8522C14 38.7005 14.6212 42.5232 15.8378 46.173C16.7457 48.6578 19.4399 49.9957 21.9687 49.2275C24.413 48.2902 25.7105 45.618 24.9313 43.1186C23.8984 40.2737 23.439 37.256 23.575 34.2347C23.994 20.3555 35.5832 9.44265 49.4623 9.86167C63.3414 10.2807 74.2543 21.8699 73.8353 35.749C73.442 48.7423 63.2091 59.295 50.2305 60.0852C50.2305 60.0852 45.3383 60.383 42.905 60.6807C42.0082 60.8093 41.1187 60.9858 40.2402 61.21C40.1152 61.3386 39.9131 61.3386 39.7844 61.2136L39.7807 61.21C39.6925 61.096 39.6925 60.9343 39.7807 60.8204L40.5379 56.689L45.1324 36.0247C45.6838 33.4444 44.0408 30.9045 41.4605 30.3532C38.8802 29.8019 36.3404 31.4449 35.789 34.0251C35.789 34.0251 24.8614 84.6052 24.8614 85.0647C24.2366 87.5237 25.7215 90.0231 28.1805 90.6479C28.2062 90.6553 28.2356 90.6627 28.2614 90.6663H28.515C30.9703 91.3022 33.4771 89.8246 34.1093 87.3693C34.1203 87.3289 34.1313 87.2884 34.1387 87.2443C34.1313 87.1672 34.1313 87.09 34.1387 87.0164C34.2747 86.421 35.653 79.691 35.653 79.691C36.6969 74.6113 40.7915 70.7188 45.9153 69.9322C46.9702 69.7705 51.403 69.4727 51.403 69.4727C70.5456 67.5651 84.5166 50.4992 82.6053 31.3566C80.8631 13.8975 66.3995 0.455776 48.8522 0Z" fill="#1E1E1E"/>
<path d="M50.9668 80.3606C47.8241 79.7063 44.7513 81.7242 44.097 84.8632C44.0897 84.8926 44.086 84.922 44.0787 84.9514C43.3987 88.072 45.3762 91.1558 48.5004 91.8358C48.5041 91.8358 48.5078 91.8358 48.5115 91.8395H48.6732C51.7313 92.5783 54.8078 90.6964 55.5429 87.6419C55.5503 87.6199 55.5539 87.5942 55.5613 87.5721V87.2523C56.1016 84.0987 54.0874 81.0736 50.9668 80.3606Z" fill="#E6007A"/>
</g>
<circle cx="69" cy="69" r="16" fill="#F3BA2F"/>
<g clip-path="url(#clip0)">
<path d="M65.4169 67.4436L68.8571 64.0034L72.299 67.4451L74.3007 65.4434L68.8571 60L63.4153 65.4418L65.4169 67.4435L65.4169 67.4436ZM60 68.8571L62.0018 66.855L64.0034 68.8567L62.0016 70.8584L60 68.8571ZM65.4169 70.2707L68.8571 73.7108L72.2989 70.2691L74.3017 72.2698L74.3007 72.2708L68.8571 77.7142L63.4153 72.2724L63.4125 72.2695L65.4171 70.2705L65.4169 70.2707ZM73.7108 68.8579L75.7126 66.8562L77.7142 68.8578L75.7125 70.8596L73.7108 68.8579Z" fill="white"/>
<path d="M70.8871 68.8558H70.888L68.857 66.8246L67.3557 68.3254L67.1832 68.4979L66.8275 68.8537L66.8247 68.8565L66.8275 68.8594L68.857 70.8891L70.8881 68.8579L70.8891 68.8568L70.8873 68.8558" fill="white"/>
</g>
<defs>
<clipPath id="clip0">
<rect width="17.7143" height="17.7142" fill="white" transform="translate(60 60)"/>
</clipPath>
</defs>
</svg>
