<svg width="96" height="96" viewBox="0 0 96 96" fill="none" xmlns="http://www.w3.org/2000/svg">
<mask id="mask0" mask-type="alpha" maskUnits="userSpaceOnUse" x="0" y="0" width="96" height="96">
<path fill-rule="evenodd" clip-rule="evenodd" d="M96 48C96 21.4903 74.5097 0 48 0C21.4903 0 0 21.4903 0 48C0 74.5097 21.4903 96 48 96C74.5097 96 96 74.5097 96 48ZM69 88C79.4934 88 88 79.4934 88 69C88 58.5066 79.4934 50 69 50C58.5066 50 50 58.5066 50 69C50 79.4934 58.5066 88 69 88Z" fill="#C4C4C4"/>
</mask>
<g mask="url(#mask0)">
<path d="M48.5328 94.5656C74.2322 94.5656 95.0656 73.7322 95.0656 48.0328C95.0656 22.3335 74.2322 1.5 48.5328 1.5C22.8335 1.5 2 22.3335 2 48.0328C2 73.7322 22.8335 94.5656 48.5328 94.5656Z" fill="#7866D5"/>
<path d="M67.3682 25.3895C68.9434 25.5864 70.5842 25.7176 72.1594 25.9802C75.244 26.5708 76.2941 28.146 75.7691 31.2963C75.6378 32.4777 74.719 33.3965 73.5376 33.5934C72.8157 33.7247 72.0281 33.7903 71.3061 33.7247C61.0676 33.7247 50.8947 33.7903 40.6562 33.7903C39.1467 33.7903 37.5715 33.9216 36.062 34.1841C31.0083 34.9717 29.0394 37.0719 28.6456 42.1912C28.4487 44.5539 28.4487 44.5539 30.8771 44.5539H71.5687C71.9625 44.5539 72.3563 44.5539 72.75 44.5539C73.4064 44.5539 73.997 44.7508 74.5877 45.079C76.4254 46.2603 75.966 48.1636 75.9004 49.8701C75.8347 51.2483 74.9815 52.0359 73.5376 52.2984C72.9469 52.4297 72.3562 52.4297 71.6999 52.4297C57.786 52.4297 43.8721 52.4297 29.9582 52.4297C28.4487 52.4297 28.4487 52.4297 28.58 53.9392C28.6456 55.3175 28.7769 56.6958 29.105 58.074C29.7613 60.568 31.2709 62.1432 33.8305 62.8651C36.587 63.6527 39.4748 63.784 42.297 63.8496C52.2073 63.8496 62.1833 63.8496 72.1594 63.8496C73.4064 63.8496 74.5877 63.9809 75.3753 65.1622C76.6223 67.1312 75.966 69.6908 73.997 70.9378C73.7345 71.1347 73.472 71.266 73.1438 71.3316C70.978 72.0536 68.7465 72.1848 66.4494 72.2504C57.0641 72.4473 47.7444 72.4473 38.4247 72.2504C35.5369 72.1848 32.6491 71.8567 29.827 71.266C23.1982 69.8877 19.851 66.4749 18.7352 59.7804C18.4727 58.2709 18.3414 56.6958 18.1445 55.1206V42.9131C18.2758 41.7317 18.4071 40.4847 18.5383 39.3034C19.3915 31.7557 22.8044 28.0147 30.2207 26.3083C32.846 25.7176 35.6025 25.5864 38.2278 25.3238L67.3682 25.3895Z" fill="white"/>
<path d="M52.4049 73.5631C47.6795 73.5631 43.0196 73.4975 38.3598 73.4319C35.4064 73.3662 32.4529 73.0381 29.5651 72.3818C22.4113 70.8722 18.7359 67.0656 17.5546 59.9774C17.3577 58.8616 17.2264 57.7459 17.1608 56.6958C17.0951 56.2364 17.0295 55.777 16.9639 55.2519V55.1206V42.7819L17.0951 41.6005C17.1608 40.7473 17.292 39.9597 17.3577 39.1722C18.2765 31.0995 22.0831 26.9647 30.0246 25.1926C32.1248 24.7332 34.1593 24.5363 36.1939 24.3394C36.8502 24.2738 37.5066 24.2081 38.1629 24.1425H38.2941H67.5002H67.5658C68.0253 24.2081 68.5503 24.2738 69.0097 24.2738C70.1255 24.405 71.2412 24.4707 72.4226 24.7332C76.1636 25.4552 77.6075 27.5554 76.9512 31.362C76.7543 33.0028 75.4416 34.3811 73.6696 34.6436C72.882 34.7748 72.0944 34.8405 71.2412 34.8405C61.0683 34.9061 50.8298 34.9717 40.6569 34.9717C39.213 34.9717 37.7035 35.103 36.2596 35.3655C31.731 36.0875 30.2215 37.7283 29.8277 42.3225C29.8277 42.7163 29.762 43.1101 29.762 43.4382C30.0246 43.4382 30.484 43.4382 30.8778 43.4382H72.7507C73.604 43.4382 74.4572 43.7007 75.1791 44.0945C77.4106 45.5384 77.2137 47.7043 77.0824 49.2794C77.0824 49.4763 77.0168 49.7389 77.0168 49.9357C76.8855 51.7734 75.7698 53.0204 73.7352 53.4142C73.0133 53.5455 72.3569 53.5455 71.7006 53.5455H30.0246C29.9589 53.5455 29.8277 53.5455 29.762 53.5455C29.762 53.6111 29.762 53.6767 29.762 53.7424V53.808C29.8277 55.1863 29.9589 56.4989 30.2871 57.8115C30.8121 59.8461 32.0591 61.0931 34.1594 61.6838C36.9815 62.4714 39.8693 62.6026 42.3633 62.6026C50.1078 62.6683 57.9836 62.6683 65.6625 62.6683H72.2257C73.2102 62.6683 75.2447 62.6683 76.4261 64.5716C77.2137 65.8186 77.4106 67.2625 77.0824 68.6408C76.7543 70.019 75.9011 71.2004 74.6541 71.988C74.3259 72.1849 73.9321 72.3818 73.5383 72.513C71.1099 73.3006 68.6159 73.4319 66.5157 73.4975C61.8559 73.4975 57.1304 73.5631 52.4049 73.5631ZM19.3266 55.055C19.3922 55.5144 19.4579 55.9739 19.4579 56.4333C19.5891 57.4834 19.7204 58.5335 19.8517 59.5836C20.9018 65.753 23.8552 68.772 30.0246 70.0847C32.7811 70.6753 35.6032 71.0035 38.4254 71.0691C47.6795 71.266 57.1304 71.266 66.4501 71.0691C68.3534 71.0035 70.6505 70.8722 72.7507 70.2159C72.9476 70.1503 73.1445 70.019 73.3414 69.9534C73.9977 69.494 74.5228 68.8377 74.7197 68.0501C74.9166 67.2625 74.7853 66.4749 74.3259 65.753C73.9321 65.1623 73.4071 64.9654 72.1601 64.9654H65.5969C57.9836 64.9654 50.0422 64.9654 42.2977 64.8998C39.6724 64.8998 36.5877 64.7685 33.503 63.8496C30.5496 63.0621 28.7119 61.1588 27.99 58.2053C27.6618 56.7614 27.4649 55.2519 27.4649 53.808V53.7424C27.3993 52.8235 27.3337 52.1672 27.8587 51.5765C28.3838 50.9859 29.1057 50.9859 30.0246 50.9859H71.7663C72.2913 50.9859 72.882 50.9858 73.4071 50.8546C74.4572 50.6577 74.7197 50.1983 74.7853 49.542C74.7853 49.2794 74.851 49.0825 74.851 48.82C74.9822 47.1792 74.9822 46.3916 74.0634 45.801C73.7352 45.6041 73.2758 45.4728 72.882 45.4728H30.8778C29.4339 45.4728 28.5807 45.4728 27.9243 44.8165C27.268 44.1602 27.3993 43.2413 27.4649 41.8631C27.9243 36.2187 30.2871 33.6591 35.8658 32.8059C37.4409 32.5434 39.0161 32.4121 40.6569 32.3465C50.8954 32.3465 61.0683 32.2808 71.3068 32.2808C72.0288 32.2808 72.6851 32.2808 73.3414 32.1496C73.9977 32.0839 74.5228 31.5589 74.5884 30.9026C75.0478 28.2773 74.3915 27.4241 71.8975 26.899C70.8474 26.7022 69.7973 26.5709 68.7472 26.5053C68.2878 26.4396 67.7627 26.374 67.3033 26.374H38.2941C37.6378 26.4396 36.9815 26.5053 36.3252 26.5709C34.2906 26.7678 32.3873 26.899 30.4183 27.3585C23.527 29.0649 20.508 32.4121 19.7204 39.5003C19.6548 40.2879 19.5235 41.0755 19.4579 41.9287L19.3266 43.0444V55.055Z" fill="white"/>
</g>
<path d="M69 85C77.8366 85 85 77.8366 85 69C85 60.1634 77.8366 53 69 53C60.1634 53 53 60.1634 53 69C53 77.8366 60.1634 85 69 85Z" fill="#627EEA"/>
<path d="M69.498 57V65.87L76.995 69.22L69.498 57Z" fill="white" fill-opacity="0.602"/>
<path d="M69.498 57L62 69.22L69.498 65.87V57Z" fill="white"/>
<path d="M69.498 74.968V80.995L77 70.616L69.498 74.968Z" fill="white" fill-opacity="0.602"/>
<path d="M69.498 80.995V74.967L62 70.616L69.498 80.995Z" fill="white"/>
<path d="M69.498 73.573L76.995 69.22L69.498 65.872V73.573Z" fill="white" fill-opacity="0.2"/>
<path d="M62 69.22L69.498 73.573V65.872L62 69.22Z" fill="white" fill-opacity="0.602"/>
</svg>
