<svg width="96" height="96" viewBox="0 0 96 96" fill="none" xmlns="http://www.w3.org/2000/svg">
<mask id="mask0" mask-type="alpha" maskUnits="userSpaceOnUse" x="0" y="0" width="96" height="96">
<path fill-rule="evenodd" clip-rule="evenodd" d="M96 48C96 21.4903 74.5097 0 48 0C21.4903 0 0 21.4903 0 48C0 74.5097 21.4903 96 48 96C74.5097 96 96 74.5097 96 48ZM69 88C79.4934 88 88 79.4934 88 69C88 58.5066 79.4934 50 69 50C58.5066 50 50 58.5066 50 69C50 79.4934 58.5066 88 69 88Z" fill="#C4C4C4"/>
</mask>
<g mask="url(#mask0)">
<path fill-rule="evenodd" clip-rule="evenodd" d="M46.8835 8.97885C46.141 9.14648 45.4155 9.39903 44.8167 9.69814C44.2682 9.97213 25.31 20.8979 24.6103 21.3433C23.0114 22.3608 21.7531 24.0681 21.1481 26.0404L20.932 26.7447L20.9093 45.8403C20.8841 66.9556 20.8543 65.5935 21.3785 67.2445C22.1671 69.7277 23.7928 71.7019 26.2537 73.1648C28.1912 74.3165 37.2063 79.4902 37.2452 79.4726C37.269 79.4619 37.3061 69.2295 37.3276 56.7339L37.3667 34.0148L37.6614 33.4185C37.8579 33.0208 38.0822 32.7093 38.3347 32.4834C38.692 32.1636 46.363 27.6714 47.1343 27.3302C47.8708 27.0044 49.0075 27.0032 49.7406 27.3275C49.9298 27.4112 51.9069 28.5293 54.134 29.8122C58.6141 32.3929 58.8081 32.5321 59.2632 33.4928L59.5144 34.0229V39.9597V45.8964L54.9753 48.5169C52.4788 49.9582 50.1795 51.3326 49.8657 51.5712C48.0643 52.9409 46.9281 55.0505 46.7189 57.4141C46.6223 58.5044 46.6214 62.1859 46.7173 63.4963C46.9 65.9916 47.7099 68.3266 49.049 70.2184C49.6878 71.1209 51.1408 72.5922 52.0244 73.2314C52.5257 73.594 75.4615 86.921 75.8903 87.0988C76.0467 87.1636 76.0309 73.4579 75.8736 72.5558C75.3653 69.641 73.8218 67.2377 71.4099 65.6053C71.1086 65.4014 69.5327 64.4685 67.9078 63.5323C66.2829 62.596 64.9535 61.8058 64.9535 61.7764C64.9535 61.747 66.5982 60.7738 68.6084 59.6138C70.6186 58.4537 72.4411 57.3719 72.6583 57.2098C74.1615 56.0877 75.2428 54.4979 75.7776 52.6235L75.949 52.0228L75.973 39.7751C75.9907 30.7568 75.9731 27.3725 75.9062 26.9404C75.5778 24.8202 74.4377 22.9489 72.6621 21.6155C72.1699 21.2459 52.7726 10.0412 51.9231 9.63592C50.7643 9.08293 50.0562 8.92273 48.6362 8.89245C47.7424 8.87343 47.2408 8.89816 46.8835 8.97885Z" fill="url(#paint0_linear)"/>
</g>
<circle cx="69" cy="69" r="16" fill="#F3BA2F"/>
<g clip-path="url(#clip0)">
<path d="M65.4169 67.4436L68.8571 64.0034L72.299 67.4451L74.3007 65.4434L68.8571 60L63.4153 65.4418L65.4169 67.4435L65.4169 67.4436ZM60 68.8571L62.0018 66.855L64.0034 68.8567L62.0016 70.8584L60 68.8571ZM65.4169 70.2707L68.8571 73.7108L72.2989 70.2691L74.3017 72.2698L74.3007 72.2708L68.8571 77.7142L63.4153 72.2724L63.4125 72.2695L65.4171 70.2705L65.4169 70.2707ZM73.7108 68.8579L75.7126 66.8562L77.7142 68.8578L75.7125 70.8596L73.7108 68.8579Z" fill="white"/>
<path d="M70.8871 68.8558H70.888L68.857 66.8246L67.3557 68.3254L67.1832 68.4979L66.8275 68.8537L66.8247 68.8565L66.8275 68.8594L68.857 70.8891L70.8881 68.8579L70.8891 68.8568L70.8873 68.8558" fill="white"/>
</g>
<defs>
<linearGradient id="paint0_linear" x1="7.85457" y1="28.4514" x2="82.854" y2="70.8424" gradientUnits="userSpaceOnUse">
<stop stop-color="#6CCDED"/>
<stop offset="1" stop-color="#026BE9"/>
</linearGradient>
<clipPath id="clip0">
<rect width="17.7143" height="17.7142" fill="white" transform="translate(60 60)"/>
</clipPath>
</defs>
</svg>
