<svg width="96" height="96" viewBox="0 0 96 96" fill="none" xmlns="http://www.w3.org/2000/svg">
<mask id="mask0" mask-type="alpha" maskUnits="userSpaceOnUse" x="0" y="0" width="96" height="96">
<path fill-rule="evenodd" clip-rule="evenodd" d="M96 48C96 21.4903 74.5097 0 48 0C21.4903 0 0 21.4903 0 48C0 74.5097 21.4903 96 48 96C74.5097 96 96 74.5097 96 48ZM69 88C79.4934 88 88 79.4934 88 69C88 58.5066 79.4934 50 69 50C58.5066 50 50 58.5066 50 69C50 79.4934 58.5066 88 69 88Z" fill="#C4C4C4"/>
</mask>
<g mask="url(#mask0)">
<path fill-rule="evenodd" clip-rule="evenodd" d="M43.3628 95.4519C39.3867 92.3066 37.4283 89.1218 37.4481 85.7787C37.4039 84.2538 37.6607 82.7351 38.2038 81.3095C38.7469 79.8839 39.5656 78.5794 40.6131 77.4703L85.5571 32.5264C88.41 34.7736 90.3671 37.9653 91.0762 41.5271C91.6696 44.89 90.7003 47.9165 88.1881 50.6266L43.3628 95.4519ZM27.3397 79.4287C23.4031 76.323 21.4052 73.0986 21.4447 69.7753C21.4006 68.2504 21.6574 66.7317 22.2004 65.3062C22.7435 63.8806 23.5622 62.576 24.6098 61.467L69.5537 16.523C72.4067 18.7702 74.3638 21.9619 75.0728 25.5237C75.6663 28.8866 74.697 31.9132 72.1847 34.6233L27.3397 79.4287ZM11.3561 63.4451C7.37995 60.2999 5.42156 57.115 5.42156 53.7521C5.3774 52.2272 5.6342 50.7086 6.17729 49.283C6.72037 47.8574 7.53908 46.5528 8.58663 45.4438L53.5306 0.49989C56.3949 2.74874 58.3597 5.94853 59.0694 9.52033C59.6629 12.8832 58.6936 15.9098 56.1813 18.6199L11.3561 63.4451Z" fill="url(#paint0_linear)"/>
</g>
<circle cx="69" cy="69" r="16" fill="#F3BA2F"/>
<g clip-path="url(#clip0)">
<path d="M65.4169 67.4436L68.8571 64.0034L72.299 67.4451L74.3007 65.4434L68.8571 60L63.4153 65.4418L65.4169 67.4435L65.4169 67.4436ZM60 68.8571L62.0018 66.855L64.0034 68.8567L62.0016 70.8584L60 68.8571ZM65.4169 70.2707L68.8571 73.7108L72.2989 70.2691L74.3017 72.2698L74.3007 72.2708L68.8571 77.7142L63.4153 72.2724L63.4125 72.2695L65.4171 70.2705L65.4169 70.2707ZM73.7108 68.8579L75.7126 66.8562L77.7142 68.8578L75.7125 70.8596L73.7108 68.8579Z" fill="white"/>
<path d="M70.8871 68.8558H70.888L68.857 66.8246L67.3557 68.3254L67.1832 68.4979L66.8275 68.8537L66.8247 68.8565L66.8275 68.8594L68.857 70.8891L70.8881 68.8579L70.8891 68.8568L70.8873 68.8558" fill="white"/>
</g>
<defs>
<linearGradient id="paint0_linear" x1="32.4789" y1="32.0563" x2="69.6186" y2="69.1961" gradientUnits="userSpaceOnUse">
<stop stop-color="#7EB5FF"/>
<stop offset="0.9997" stop-color="#1A38F8"/>
</linearGradient>
<clipPath id="clip0">
<rect width="17.7143" height="17.7142" fill="white" transform="translate(60 60)"/>
</clipPath>
</defs>
</svg>
