<svg width="96" height="96" viewBox="0 0 96 96" fill="none" xmlns="http://www.w3.org/2000/svg">
<mask id="mask0" mask-type="alpha" maskUnits="userSpaceOnUse" x="0" y="0" width="96" height="96">
<path fill-rule="evenodd" clip-rule="evenodd" d="M96 48C96 21.4903 74.5097 0 48 0C21.4903 0 0 21.4903 0 48C0 74.5097 21.4903 96 48 96C74.5097 96 96 74.5097 96 48ZM69 88C79.4934 88 88 79.4934 88 69C88 58.5066 79.4934 50 69 50C58.5066 50 50 58.5066 50 69C50 79.4934 58.5066 88 69 88Z" fill="#C4C4C4"/>
</mask>
<g mask="url(#mask0)">
<path d="M48.0002 90.8047C71.6406 90.8047 90.805 71.6404 90.805 47.9999C90.805 24.3594 71.6406 5.19507 48.0002 5.19507C24.3597 5.19507 5.19531 24.3594 5.19531 47.9999C5.19531 71.6404 24.3597 90.8047 48.0002 90.8047Z" fill="white"/>
<path d="M48 0C38.5065 0 29.2262 2.81515 21.3327 8.08946C13.4391 13.3638 7.28681 20.8603 3.6538 29.6312C0.0207975 38.4021 -0.929762 48.0532 0.922328 57.3643C2.77442 66.6754 7.34598 75.2282 14.0589 81.9411C20.7718 88.654 29.3246 93.2256 38.6357 95.0777C47.9468 96.9298 57.598 95.9792 66.3688 92.3462C75.1397 88.7132 82.6363 82.5609 87.9106 74.6674C93.1849 66.7738 96 57.4935 96 48C96.0184 41.7149 94.7986 35.4876 92.4103 29.6739C90.022 23.8602 86.512 18.5738 82.0807 14.1166C77.6494 9.65937 72.3835 6.11861 66.5838 3.69648C60.7841 1.27436 54.5641 0.0182884 48.279 0H48ZM48.8136 49.6271L43.816 66.4794H70.5472C70.7243 66.4732 70.9009 66.502 71.0668 66.564C71.2328 66.6261 71.3849 66.7203 71.5144 66.8412C71.6439 66.9621 71.7484 67.1073 71.8217 67.2686C71.8951 67.4299 71.9359 67.604 71.9419 67.7811V68.2228L69.6175 76.2421C69.515 76.6214 69.2866 76.9545 68.9698 77.1868C68.653 77.4191 68.2666 77.5368 67.8741 77.5206H26.9637L33.8208 54.1598L26.1501 56.4843L27.8935 51.138L35.5642 48.8136L45.2107 16.0387C45.3169 15.6616 45.5462 15.3309 45.8621 15.0992C46.1781 14.8675 46.5624 14.7482 46.954 14.7603H57.2978C57.4749 14.7541 57.6515 14.7828 57.8174 14.8449C57.9834 14.907 58.1355 15.0012 58.265 15.122C58.3945 15.2429 58.499 15.3882 58.5723 15.5495C58.6457 15.7107 58.6865 15.8849 58.6925 16.062V16.5036L50.5569 44.1646L58.2276 41.8402L56.6005 47.4189L48.8136 49.6271Z" fill="#345D9D"/>
</g>
<circle cx="69" cy="69" r="16" fill="#F3BA2F"/>
<g clip-path="url(#clip0)">
<path d="M65.4169 67.4436L68.8571 64.0034L72.299 67.4451L74.3007 65.4434L68.8571 60L63.4153 65.4418L65.4169 67.4435L65.4169 67.4436ZM60 68.8571L62.0018 66.855L64.0034 68.8567L62.0016 70.8584L60 68.8571ZM65.4169 70.2707L68.8571 73.7108L72.2989 70.2691L74.3017 72.2698L74.3007 72.2708L68.8571 77.7142L63.4153 72.2724L63.4125 72.2695L65.4171 70.2705L65.4169 70.2707ZM73.7108 68.8579L75.7126 66.8562L77.7142 68.8578L75.7125 70.8596L73.7108 68.8579Z" fill="white"/>
<path d="M70.8871 68.8558H70.888L68.857 66.8246L67.3557 68.3254L67.1832 68.4979L66.8275 68.8537L66.8247 68.8565L66.8275 68.8594L68.857 70.8891L70.8881 68.8579L70.8891 68.8568L70.8873 68.8558" fill="white"/>
</g>
<defs>
<clipPath id="clip0">
<rect width="17.7143" height="17.7142" fill="white" transform="translate(60 60)"/>
</clipPath>
</defs>
</svg>
