<svg width="96" height="96" viewBox="0 0 96 96" fill="none" xmlns="http://www.w3.org/2000/svg">
<mask id="mask0" mask-type="alpha" maskUnits="userSpaceOnUse" x="0" y="0" width="96" height="96">
<path fill-rule="evenodd" clip-rule="evenodd" d="M96 48C96 21.4903 74.5097 0 48 0C21.4903 0 0 21.4903 0 48C0 74.5097 21.4903 96 48 96C74.5097 96 96 74.5097 96 48ZM69 88C79.4934 88 88 79.4934 88 69C88 58.5066 79.4934 50 69 50C58.5066 50 50 58.5066 50 69C50 79.4934 58.5066 88 69 88Z" fill="#C4C4C4"/>
</mask>
<g mask="url(#mask0)">
<path d="M48 96C74.5097 96 96 74.5097 96 48C96 21.4903 74.5097 0 48 0C21.4903 0 0 21.4903 0 48C0 74.5097 21.4903 96 48 96Z" fill="url(#paint0_linear)"/>
<path fill-rule="evenodd" clip-rule="evenodd" d="M34.0078 31.2V67.2H64.0078L34.0078 31.2Z" fill="url(#paint1_linear)"/>
<path fill-rule="evenodd" clip-rule="evenodd" d="M4.00781 67.2H34.0078V31.2L4.00781 67.2Z" fill="white"/>
<path fill-rule="evenodd" clip-rule="evenodd" d="M9.59961 76.8C12.3356 80.424 15.5756 83.664 19.1996 86.4H76.7996C80.4236 83.664 83.6636 80.424 86.3996 76.8H9.59961Z" fill="#FC9965"/>
<path fill-rule="evenodd" clip-rule="evenodd" d="M19.2002 86.4C27.2162 92.424 37.2002 96 48.0002 96C58.8002 96 68.7842 92.424 76.8002 86.4H19.2002Z" fill="#FF2D55"/>
<path fill-rule="evenodd" clip-rule="evenodd" d="M64.3916 50.4V76.8H86.3996L64.3916 50.4Z" fill="url(#paint2_linear)"/>
<path fill-rule="evenodd" clip-rule="evenodd" d="M64.3918 67.2H4.00781C5.49581 70.632 7.39181 73.848 9.59981 76.8H64.4158V67.2H64.3918Z" fill="#FFBC5B"/>
<path fill-rule="evenodd" clip-rule="evenodd" d="M42.4082 76.8H64.3922V50.4L42.4082 76.8Z" fill="white"/>
<path d="M64.3916 43.2C71.019 43.2 76.3916 37.8274 76.3916 31.2C76.3916 24.5726 71.019 19.2 64.3916 19.2C57.7642 19.2 52.3916 24.5726 52.3916 31.2C52.3916 37.8274 57.7642 43.2 64.3916 43.2Z" fill="#FFC95B"/>
<path d="M34.0078 24C37.3215 24 40.0078 21.3137 40.0078 18C40.0078 14.6863 37.3215 12 34.0078 12C30.6941 12 28.0078 14.6863 28.0078 18C28.0078 21.3137 30.6941 24 34.0078 24Z" fill="#FFC95B"/>
</g>
<path d="M69 85C77.8366 85 85 77.8366 85 69C85 60.1634 77.8366 53 69 53C60.1634 53 53 60.1634 53 69C53 77.8366 60.1634 85 69 85Z" fill="#627EEA"/>
<path d="M69.498 57V65.87L76.995 69.22L69.498 57Z" fill="white" fill-opacity="0.602"/>
<path d="M69.498 57L62 69.22L69.498 65.87V57Z" fill="white"/>
<path d="M69.498 74.968V80.995L77 70.616L69.498 74.968Z" fill="white" fill-opacity="0.602"/>
<path d="M69.498 80.995V74.967L62 70.616L69.498 80.995Z" fill="white"/>
<path d="M69.498 73.573L76.995 69.22L69.498 65.872V73.573Z" fill="white" fill-opacity="0.2"/>
<path d="M62 69.22L69.498 73.573V65.872L62 69.22Z" fill="white" fill-opacity="0.602"/>
<defs>
<linearGradient id="paint0_linear" x1="81.9408" y1="14.0592" x2="14.0592" y2="81.9408" gradientUnits="userSpaceOnUse">
<stop stop-color="#FF2D55"/>
<stop offset="1" stop-color="#FFBC5B"/>
</linearGradient>
<linearGradient id="paint1_linear" x1="48.9976" y1="31.2" x2="48.9976" y2="67.2" gradientUnits="userSpaceOnUse">
<stop stop-color="#A524B3"/>
<stop offset="1" stop-color="#FF2D55"/>
</linearGradient>
<linearGradient id="paint2_linear" x1="75.3881" y1="50.4" x2="75.3881" y2="76.8" gradientUnits="userSpaceOnUse">
<stop stop-color="#A524B3"/>
<stop offset="1" stop-color="#FF2D55"/>
</linearGradient>
</defs>
</svg>
