<svg width="96" height="96" viewBox="0 0 96 96" fill="none" xmlns="http://www.w3.org/2000/svg">
<mask id="mask0" mask-type="alpha" maskUnits="userSpaceOnUse" x="0" y="0" width="96" height="96">
<path fill-rule="evenodd" clip-rule="evenodd" d="M96 48C96 21.4903 74.5097 0 48 0C21.4903 0 0 21.4903 0 48C0 74.5097 21.4903 96 48 96C74.5097 96 96 74.5097 96 48ZM69 88C79.4934 88 88 79.4934 88 69C88 58.5066 79.4934 50 69 50C58.5066 50 50 58.5066 50 69C50 79.4934 58.5066 88 69 88Z" fill="#C4C4C4"/>
</mask>
<g mask="url(#mask0)">
<path d="M48 95C74.2335 95 95.5 73.7335 95.5 47.5C95.5 21.2665 74.2335 0 48 0C21.7665 0 0.5 21.2665 0.5 47.5C0.5 73.7335 21.7665 95 48 95Z" fill="url(#paint0_linear)"/>
<path d="M24.6205 61.75V39.3933L41.5749 52.1534V61.75H45.9021V51.2525C45.9013 50.8624 45.8101 50.4779 45.6357 50.129C45.4612 49.7801 45.2083 49.4764 44.8967 49.2417L24.3355 33.7614C23.9594 33.4821 23.5133 33.3125 23.0466 33.2715C22.5799 33.2306 22.1111 33.3198 21.6921 33.5293C21.273 33.7388 20.9203 34.0604 20.6731 34.4583C20.4259 34.8562 20.2939 35.3149 20.2917 35.7833V61.75H24.6205ZM71.5094 61.75V39.3933L54.555 52.1534V61.75H50.2278V51.2525C50.2286 50.8624 50.3198 50.4779 50.4942 50.129C50.6687 49.7801 50.9216 49.4764 51.2332 49.2417L71.7944 33.7678C72.17 33.4887 72.6156 33.3192 73.0817 33.278C73.5478 33.2368 74.0162 33.3254 74.435 33.5342C74.8538 33.7429 75.2066 34.0636 75.4543 34.4606C75.702 34.8576 75.8348 35.3154 75.8382 35.7833V61.75H71.5094Z" fill="white"/>
</g>
<path d="M69 85C77.8366 85 85 77.8366 85 69C85 60.1634 77.8366 53 69 53C60.1634 53 53 60.1634 53 69C53 77.8366 60.1634 85 69 85Z" fill="#627EEA"/>
<path d="M69.498 57V65.87L76.995 69.22L69.498 57Z" fill="white" fill-opacity="0.602"/>
<path d="M69.498 57L62 69.22L69.498 65.87V57Z" fill="white"/>
<path d="M69.498 74.968V80.995L77 70.616L69.498 74.968Z" fill="white" fill-opacity="0.602"/>
<path d="M69.498 80.995V74.967L62 70.616L69.498 80.995Z" fill="white"/>
<path d="M69.498 73.573L76.995 69.22L69.498 65.872V73.573Z" fill="white" fill-opacity="0.2"/>
<path d="M62 69.22L69.498 73.573V65.872L62 69.22Z" fill="white" fill-opacity="0.602"/>
<defs>
<linearGradient id="paint0_linear" x1="48" y1="0" x2="48" y2="95" gradientUnits="userSpaceOnUse">
<stop stop-color="#4FA89B"/>
<stop offset="1" stop-color="#6ACEBB"/>
</linearGradient>
</defs>
</svg>
