<svg width="96" height="96" viewBox="0 0 96 96" fill="none" xmlns="http://www.w3.org/2000/svg">
<mask id="mask0" mask-type="alpha" maskUnits="userSpaceOnUse" x="0" y="0" width="96" height="96">
<path fill-rule="evenodd" clip-rule="evenodd" d="M96 48C96 21.4903 74.5097 0 48 0C21.4903 0 0 21.4903 0 48C0 74.5097 21.4903 96 48 96C74.5097 96 96 74.5097 96 48ZM69 88C79.4934 88 88 79.4934 88 69C88 58.5066 79.4934 50 69 50C58.5066 50 50 58.5066 50 69C50 79.4934 58.5066 88 69 88Z" fill="#C4C4C4"/>
</mask>
<g mask="url(#mask0)">
<path d="M15.8709 47.4264C15.8714 48.3317 15.6033 49.2167 15.1007 49.9696C14.5981 50.7225 13.8835 51.3095 13.0473 51.6562C12.2111 52.003 11.2909 52.0939 10.403 51.9176C9.51506 51.7413 8.69938 51.3056 8.05912 50.6656C7.41885 50.0257 6.98275 49.2103 6.80597 48.3224C6.6292 47.4346 6.7197 46.5143 7.06601 45.6779C7.41233 44.8415 7.99891 44.1267 8.75157 43.6237C9.50422 43.1207 10.3891 42.8522 11.2944 42.8522C12.5077 42.8522 13.6715 43.3341 14.5296 44.1918C15.3878 45.0496 15.8703 46.2131 15.8709 47.4264ZM88.5848 47.4264C88.5853 48.3318 88.3172 49.2169 87.8145 49.9699C87.3118 50.7228 86.5971 51.3098 85.7607 51.6564C84.9244 52.0031 84.004 52.0939 83.116 51.9174C82.2281 51.7409 81.4124 51.305 80.7722 50.6648C80.132 50.0247 79.6961 49.209 79.5196 48.321C79.3431 47.433 79.4339 46.5127 79.7806 45.6763C80.1273 44.84 80.7142 44.1253 81.4672 43.6226C82.2201 43.1199 83.1053 42.8518 84.0106 42.8522C85.222 42.8553 86.3827 43.3385 87.2384 44.1959C88.0941 45.0534 88.575 46.2151 88.5756 47.4264H88.5848ZM52.229 65.4808C52.2295 66.3862 51.9614 67.2713 51.4587 68.0243C50.956 68.7772 50.2413 69.3641 49.4049 69.7108C48.5686 70.0575 47.6482 70.1483 46.7602 69.9718C45.8723 69.7953 45.0566 69.3594 44.4164 68.7192C43.7762 68.079 43.3403 67.2634 43.1638 66.3754C42.9873 65.4874 43.0781 64.567 43.4248 63.7307C43.7715 62.8943 44.3584 62.1796 45.1114 61.6769C45.8643 61.1742 46.7495 60.9061 47.6548 60.9066C48.8678 60.9072 50.0309 61.3893 50.8886 62.247C51.7463 63.1047 52.2284 64.2678 52.229 65.4808ZM33.9253 56.5679C33.9253 57.4731 33.6569 58.3579 33.154 59.1105C32.6511 59.8631 31.9364 60.4497 31.1001 60.7961C30.2639 61.1425 29.3437 61.2331 28.4559 61.0565C27.5682 60.8799 26.7527 60.444 26.1127 59.804C25.4726 59.164 25.0368 58.3485 24.8602 57.4608C24.6836 56.573 24.7742 55.6528 25.1206 54.8166C25.467 53.9803 26.0536 53.2656 26.8062 52.7627C27.5588 52.2598 28.4436 51.9914 29.3488 51.9914C30.5625 51.9914 31.7266 52.4736 32.5848 53.3318C33.4431 54.1901 33.9253 55.3542 33.9253 56.5679ZM70.2834 56.5679C70.2857 57.4739 70.019 58.3603 69.5171 59.1146C69.0152 59.8689 68.3007 60.4573 67.4641 60.8052C66.6275 61.1531 65.7065 61.2448 64.8177 61.0688C63.929 60.8927 63.1124 60.4569 62.4716 59.8164C61.8308 59.1759 61.3945 58.3596 61.218 57.4709C61.0415 56.5822 61.1328 55.6611 61.4803 54.8244C61.8277 53.9876 62.4157 53.2728 63.1698 52.7705C63.9239 52.2683 64.8101 52.0011 65.7161 52.0029C66.9263 52.0054 68.0862 52.487 68.9421 53.3426C69.7981 54.1981 70.2803 55.3578 70.2834 56.5679ZM14.3862 61.2784C14.3857 61.8899 14.2039 62.4875 13.8638 62.9957C13.5237 63.5039 13.0406 63.8998 12.4754 64.1334C11.9103 64.367 11.2886 64.4277 10.6889 64.308C10.0893 64.1882 9.53859 63.8934 9.10652 63.4606C8.67444 63.0279 8.38039 62.4768 8.26154 61.877C8.14269 61.2771 8.20438 60.6555 8.43881 60.0907C8.67325 59.526 9.06989 59.0434 9.57859 58.704C10.0873 58.3647 10.6852 58.1838 11.2967 58.1842C11.7027 58.1845 12.1047 58.2648 12.4797 58.4205C12.8547 58.5761 13.1954 58.8041 13.4822 59.0914C13.7691 59.3788 13.9966 59.7198 14.1517 60.095C14.3068 60.4702 14.3865 60.8723 14.3862 61.2784ZM87.1001 61.2784C87.0996 61.8899 86.9179 62.4875 86.5778 62.9957C86.2376 63.5039 85.7545 63.8998 85.1893 64.1334C84.6242 64.367 84.0025 64.4277 83.4028 64.308C82.8032 64.1882 82.2525 63.8934 81.8204 63.4606C81.3884 63.0279 81.0943 62.4768 80.9754 61.877C80.8566 61.2771 80.9183 60.6555 81.1527 60.0907C81.3872 59.526 81.7838 59.0434 82.2925 58.704C82.8012 58.3647 83.3991 58.1838 84.0106 58.1842C84.8304 58.1849 85.6165 58.5108 86.1962 59.0905C86.7759 59.6702 87.1018 60.4562 87.1024 61.276L87.1001 61.2784ZM50.7443 79.5775C50.7448 80.1892 50.5638 80.7873 50.2242 81.2961C49.8846 81.8049 49.4018 82.2015 48.8367 82.4358C48.2717 82.6701 47.6498 82.7315 47.0499 82.6123C46.4499 82.4931 45.8988 82.1986 45.4663 81.766C45.0337 81.3335 44.7392 80.7824 44.62 80.1824C44.5008 79.5824 44.5622 78.9606 44.7965 78.3955C45.0308 77.8305 45.4274 77.3476 45.9362 77.0081C46.445 76.6685 47.0431 76.4875 47.6548 76.488C48.4738 76.4892 49.2589 76.8151 49.8381 77.3942C50.4172 77.9734 50.7431 78.7585 50.7443 79.5775ZM32.4429 70.4221C32.4429 71.0337 32.2615 71.6316 31.9216 72.1401C31.5818 72.6486 31.0988 73.0449 30.5337 73.2788C29.9686 73.5128 29.3468 73.5739 28.747 73.4544C28.1472 73.3349 27.5963 73.0402 27.164 72.6076C26.7317 72.1749 26.4374 71.6238 26.3184 71.0239C26.1993 70.424 26.2609 69.8023 26.4953 69.2374C26.7296 68.6724 27.1263 68.1897 27.635 67.8503C28.1438 67.5108 28.7418 67.3299 29.3534 67.3303C29.7593 67.3303 30.1612 67.4103 30.5362 67.5657C30.9112 67.7211 31.2519 67.9489 31.5388 68.236C31.8257 68.5232 32.0532 68.864 32.2084 69.2391C32.3635 69.6142 32.4432 70.0162 32.4429 70.4221ZM68.801 70.4221C68.8023 71.0342 68.622 71.633 68.2828 72.1425C67.9436 72.652 67.4608 73.0493 66.8956 73.2842C66.3303 73.5191 65.7081 73.5809 65.1077 73.4618C64.5073 73.3427 63.9558 73.0481 63.5229 72.6153C63.0901 72.1825 62.7955 71.6309 62.6764 71.0305C62.5574 70.4302 62.6192 69.8079 62.8541 69.2427C63.0889 68.6775 63.4863 68.1947 63.9958 67.8554C64.5053 67.5162 65.104 67.3359 65.7161 67.3373C66.5333 67.3397 67.3163 67.6656 67.8939 68.2436C68.4715 68.8217 68.7968 69.6049 68.7987 70.4221H68.801ZM12.9038 72.1585C12.9038 72.4782 12.809 72.7907 12.6314 73.0565C12.4538 73.3223 12.2013 73.5295 11.906 73.6518C11.6107 73.7742 11.2857 73.8062 10.9721 73.7438C10.6586 73.6814 10.3706 73.5275 10.1445 73.3015C9.91849 73.0754 9.76455 72.7874 9.70219 72.4739C9.63982 72.1603 9.67183 71.8353 9.79416 71.54C9.9165 71.2447 10.1237 70.9922 10.3895 70.8146C10.6553 70.637 10.9678 70.5422 11.2875 70.5422C11.7161 70.5422 12.1273 70.7125 12.4304 71.0156C12.7335 71.3187 12.9038 71.7299 12.9038 72.1585ZM85.6177 72.1585C85.6177 72.4782 85.5229 72.7907 85.3453 73.0565C85.1677 73.3223 84.9153 73.5295 84.6199 73.6518C84.3246 73.7742 83.9996 73.8062 83.686 73.7438C83.3725 73.6814 83.0845 73.5275 82.8585 73.3015C82.6324 73.0754 82.4785 72.7874 82.4161 72.4739C82.3537 72.1603 82.3857 71.8353 82.5081 71.54C82.6304 71.2447 82.8376 70.9922 83.1034 70.8146C83.3692 70.637 83.6817 70.5422 84.0014 70.5422C84.43 70.5422 84.8412 70.7125 85.1443 71.0156C85.4474 71.3187 85.6177 71.7299 85.6177 72.1585ZM49.2596 90.4623C49.2596 90.782 49.1648 91.0945 48.9872 91.3603C48.8096 91.6261 48.5571 91.8332 48.2618 91.9556C47.9665 92.0779 47.6415 92.1099 47.3279 92.0476C47.0144 91.9852 46.7264 91.8312 46.5003 91.6052C46.2743 91.3792 46.1204 91.0911 46.058 90.7776C45.9956 90.4641 46.0276 90.1391 46.15 89.8437C46.2723 89.5484 46.4795 89.296 46.7453 89.1184C47.0111 88.9408 47.3236 88.846 47.6433 88.846C48.0719 88.846 48.4831 89.0162 48.7862 89.3194C49.0893 89.6225 49.2596 90.0336 49.2596 90.4623ZM30.9582 81.3116C30.9582 81.6312 30.8634 81.9437 30.6858 82.2095C30.5081 82.4753 30.2557 82.6825 29.9604 82.8049C29.665 82.9272 29.34 82.9592 29.0265 82.8968C28.713 82.8345 28.425 82.6805 28.1989 82.4545C27.9729 82.2284 27.8189 81.9404 27.7566 81.6269C27.6942 81.3134 27.7262 80.9884 27.8485 80.693C27.9709 80.3977 28.178 80.1452 28.4438 79.9676C28.7096 79.79 29.0221 79.6952 29.3418 79.6952C29.7705 79.6952 30.1816 79.8655 30.4847 80.1687C30.7879 80.4718 30.9582 80.8829 30.9582 81.3116ZM67.3163 81.3116C67.3163 81.6312 67.2215 81.9437 67.0439 82.2095C66.8663 82.4753 66.6138 82.6825 66.3185 82.8049C66.0231 82.9272 65.6981 82.9592 65.3846 82.8968C65.0711 82.8345 64.7831 82.6805 64.557 82.4545C64.331 82.2284 64.177 81.9404 64.1147 81.6269C64.0523 81.3134 64.0843 80.9884 64.2066 80.693C64.329 80.3977 64.5361 80.1452 64.802 79.9676C65.0678 79.79 65.3803 79.6952 65.6999 79.6952C66.1286 79.6952 66.5397 79.8655 66.8429 80.1687C67.146 80.4718 67.3163 80.8829 67.3163 81.3116ZM53.7091 12.1836C53.7091 13.4068 53.3463 14.6025 52.6667 15.6195C51.987 16.6365 51.021 17.4291 49.8908 17.8969C48.7606 18.3648 47.5171 18.487 46.3174 18.248C45.1178 18.0091 44.016 17.4197 43.1514 16.5544C42.2868 15.6892 41.6982 14.5869 41.4601 13.3871C41.2221 12.1873 41.3452 10.9439 41.8139 9.81403C42.2826 8.68421 43.0759 7.71878 44.0934 7.03987C45.1109 6.36097 46.3069 5.99908 47.5301 5.99999C49.1693 6.00122 50.7409 6.65324 51.8996 7.81276C53.0583 8.97228 53.7091 10.5444 53.7091 12.1836ZM53.7091 30.4758C53.7091 31.6989 53.3464 32.8945 52.6668 33.9115C51.9873 34.9284 51.0214 35.721 49.8913 36.1889C48.7613 36.6569 47.5179 36.7792 46.3183 36.5404C45.1187 36.3016 44.0169 35.7125 43.1522 34.8474C42.2875 33.9824 41.6988 32.8804 41.4604 31.6807C41.2221 30.4811 41.3449 29.2377 41.8133 28.1078C42.2816 26.978 43.0746 26.0124 44.0918 25.3332C45.1089 24.654 46.3047 24.2917 47.5278 24.2922C49.1674 24.2928 50.7396 24.9446 51.8988 26.1041C53.0579 27.2637 53.7091 28.8362 53.7091 30.4758ZM53.7091 48.5325C53.7091 49.7556 53.3464 50.9512 52.6668 51.9681C51.9873 52.9851 51.0214 53.7776 49.8913 54.2456C48.7613 54.7135 47.5179 54.8359 46.3183 54.5971C45.1187 54.3583 44.0169 53.7691 43.1522 52.9041C42.2875 52.0391 41.6988 50.9371 41.4604 49.7374C41.2221 48.5378 41.3449 47.2944 41.8133 46.1645C42.2816 45.0346 43.0746 44.069 44.0918 43.3899C45.1089 42.7107 46.3047 42.3484 47.5278 42.3489C48.3404 42.3492 49.145 42.5096 49.8956 42.8211C50.6462 43.1326 51.328 43.5889 51.9021 44.1641C52.4761 44.7392 52.9312 45.4219 53.2413 46.173C53.5513 46.9242 53.7103 47.7291 53.7091 48.5417V48.5325ZM90.0695 30.4758C90.0695 31.6988 89.7069 32.8943 89.0274 33.9112C88.3479 34.9281 87.3822 35.7207 86.2523 36.1887C85.1224 36.6567 83.8791 36.7792 82.6796 36.5406C81.4801 36.302 80.3782 35.7131 79.5135 34.8483C78.6487 33.9835 78.0597 32.8817 77.8211 31.6822C77.5825 30.4827 77.705 29.2393 78.173 28.1094C78.641 26.9795 79.4336 26.0138 80.4505 25.3343C81.4674 24.6549 82.6629 24.2922 83.8859 24.2922C85.5259 24.2922 87.0987 24.9437 88.2584 26.1033C89.418 27.263 90.0695 28.8358 90.0695 30.4758ZM17.3556 30.4758C17.3574 31.6992 16.9963 32.8956 16.318 33.9137C15.6396 34.9318 14.6745 35.7258 13.5448 36.1953C12.415 36.6647 11.1714 36.7885 9.97131 36.5509C8.7712 36.3134 7.66853 35.7252 6.80281 34.8608C5.93709 33.9963 5.34725 32.8945 5.1079 31.6948C4.86855 30.495 4.99047 29.2512 5.45822 28.1208C5.92597 26.9904 6.71853 26.0241 7.73562 25.3442C8.75271 24.6643 9.94861 24.3014 11.172 24.3014C12.8104 24.3014 14.3818 24.9516 15.5412 26.1093C16.7006 27.2669 17.3532 28.8374 17.3556 30.4758ZM35.657 21.3251C35.6589 22.5481 35.298 23.7442 34.62 24.7621C33.9421 25.78 32.9775 26.574 31.8483 27.0437C30.7191 27.5134 29.476 27.6377 28.2761 27.4009C27.0763 27.1641 25.9736 26.5768 25.1075 25.7133C24.2414 24.8498 23.6509 23.7489 23.4105 22.5497C23.1701 21.3506 23.2907 20.1071 23.757 18.9765C24.2233 17.8459 25.0145 16.879 26.0303 16.198C27.0462 15.517 28.2412 15.1525 29.4642 15.1507C31.1042 15.1507 32.677 15.8022 33.8367 16.9618C34.9963 18.1215 35.6478 19.6943 35.6478 21.3343L35.657 21.3251ZM35.6478 39.3887C35.6478 40.6117 35.2851 41.8072 34.6057 42.8241C33.9262 43.841 32.9605 44.6336 31.8306 45.1016C30.7007 45.5696 29.4573 45.6921 28.2578 45.4535C27.0583 45.2149 25.9565 44.6259 25.0917 43.7611C24.2269 42.8964 23.638 41.7945 23.3994 40.595C23.1608 39.3955 23.2833 38.1522 23.7513 37.0223C24.2193 35.8924 25.0119 34.9267 26.0288 34.2472C27.0457 33.5677 28.2412 33.2051 29.4642 33.2051C31.1042 33.2051 32.677 33.8566 33.8367 35.0162C34.9963 36.1759 35.6478 37.7487 35.6478 39.3887ZM72.0152 21.3343C72.0152 22.5573 71.6525 23.7529 70.973 24.7697C70.2936 25.7866 69.3278 26.5792 68.1979 27.0472C67.068 27.5152 65.8247 27.6377 64.6252 27.3991C63.4257 27.1605 62.3239 26.5716 61.4591 25.7068C60.5943 24.842 60.0054 23.7402 59.7668 22.5407C59.5282 21.3412 59.6506 20.0979 60.1186 18.968C60.5867 17.838 61.3792 16.8723 62.3961 16.1928C63.413 15.5134 64.6085 15.1507 65.8316 15.1507C67.4715 15.1507 69.0444 15.8022 70.204 16.9618C71.3637 18.1215 72.0152 19.6943 72.0152 21.3343ZM72.0152 39.3887C72.0152 40.6117 71.6525 41.8072 70.973 42.8241C70.2936 43.841 69.3278 44.6336 68.1979 45.1016C67.068 45.5696 65.8247 45.6921 64.6252 45.4535C63.4257 45.2149 62.3239 44.6259 61.4591 43.7611C60.5943 42.8964 60.0054 41.7945 59.7668 40.595C59.5282 39.3955 59.6506 38.1522 60.1186 37.0223C60.5867 35.8924 61.3792 34.9267 62.3961 34.2472C63.413 33.5677 64.6085 33.2051 65.8316 33.2051C67.4715 33.2051 69.0444 33.8566 70.204 35.0162C71.3637 36.1759 72.0152 37.7487 72.0152 39.3887Z" fill="#141414"/>
</g>
<path d="M69 85C77.8366 85 85 77.8366 85 69C85 60.1634 77.8366 53 69 53C60.1634 53 53 60.1634 53 69C53 77.8366 60.1634 85 69 85Z" fill="#627EEA"/>
<path d="M69.498 57V65.87L76.995 69.22L69.498 57Z" fill="white" fill-opacity="0.602"/>
<path d="M69.498 57L62 69.22L69.498 65.87V57Z" fill="white"/>
<path d="M69.498 74.968V80.995L77 70.616L69.498 74.968Z" fill="white" fill-opacity="0.602"/>
<path d="M69.498 80.995V74.967L62 70.616L69.498 80.995Z" fill="white"/>
<path d="M69.498 73.573L76.995 69.22L69.498 65.872V73.573Z" fill="white" fill-opacity="0.2"/>
<path d="M62 69.22L69.498 73.573V65.872L62 69.22Z" fill="white" fill-opacity="0.602"/>
</svg>
