<svg width="96" height="96" viewBox="0 0 96 96" fill="none" xmlns="http://www.w3.org/2000/svg">
<mask id="mask0" mask-type="alpha" maskUnits="userSpaceOnUse" x="0" y="0" width="96" height="96">
<path fill-rule="evenodd" clip-rule="evenodd" d="M96 48C96 21.4903 74.5097 0 48 0C21.4903 0 0 21.4903 0 48C0 74.5097 21.4903 96 48 96C74.5097 96 96 74.5097 96 48ZM69 88C79.4934 88 88 79.4934 88 69C88 58.5066 79.4934 50 69 50C58.5066 50 50 58.5066 50 69C50 79.4934 58.5066 88 69 88Z" fill="#C4C4C4"/>
</mask>
<g mask="url(#mask0)">
<path fill-rule="evenodd" clip-rule="evenodd" d="M42.7006 0.317598C23.9703 2.50577 8.16492 15.3523 2.35923 33.107C0.563717 38.5987 -0.0148092 42.3897 0.000286647 48.5681C0.0500141 69.0197 13.3135 87.2083 32.9403 93.7405C42.0813 96.7827 54.0376 96.7504 63.354 93.6585C77.3141 89.0258 88.3043 78.0996 93.4941 63.694C96.7948 54.5331 96.8383 42.2768 93.6038 32.801C88.4002 17.556 75.4813 5.55115 60.0626 1.63263C53.7845 0.0368815 48.5183 -0.362055 42.7006 0.317598ZM48.8904 17.6503C50.13 17.9354 51.137 18.2843 51.1286 18.4251C51.1201 18.566 50.6495 20.4402 50.0821 22.5903L49.0511 26.4995L50.0714 26.8865C50.6326 27.0995 51.6365 27.3328 52.3016 27.405C53.4742 27.5325 53.5417 27.4165 54.5051 23.6308C55.0517 21.4829 55.5743 19.6499 55.6666 19.5578C55.8966 19.3288 59.715 20.2759 60.1616 20.6727C60.3597 20.8484 60.1097 22.6417 59.6066 24.6571C59.1036 26.6731 58.6929 28.5438 58.6938 28.8148C58.6947 29.0857 59.5711 29.6667 60.6412 30.1054C63.873 31.4307 66.5734 33.366 67.8272 35.2562C70.7141 39.606 68.3289 47.2522 63.726 48.4043C62.2879 48.7642 62.4185 49.1579 64.4102 50.4725C66.9699 52.1621 68.2104 55.002 67.8579 58.3657C67.4769 62.0013 65.6929 65.5842 63.4605 67.1968C60.8307 69.0967 58.7195 69.5218 53.2948 69.2437L48.5632 69.0015L47.5704 73.0639C47.0243 75.2986 46.5217 77.1946 46.4533 77.2769C46.2522 77.52 41.3744 76.3471 41.3931 76.0602C41.4024 75.9163 41.8735 74.0053 42.44 71.8136C43.5895 67.3637 43.5349 67.2172 40.6578 67.0427L39.0124 66.9431L38.0169 70.8488C37.4695 72.9966 36.946 74.8297 36.8537 74.9218C36.6281 75.1463 32.8102 74.2076 32.3715 73.8198C32.1811 73.6511 32.4705 71.6927 33.0144 69.4673C33.5588 67.242 33.9033 65.3208 33.7803 65.1977C33.6569 65.075 31.3699 64.4388 28.6975 63.7844C26.0251 63.1295 23.7798 62.5508 23.7083 62.4986C23.6368 62.4463 24.1248 61.0773 24.7925 59.4558C25.7263 57.1884 26.1658 56.5752 26.6982 56.7979C27.0791 56.9577 28.3325 57.188 29.4838 57.3106C31.3659 57.5107 31.6243 57.4271 32.0416 56.4822C32.9998 54.3148 38.2811 32.0386 38.0267 31.2389C37.7088 30.24 35.9612 29.2761 33.7017 28.8533C31.8383 28.5048 31.7943 28.3419 32.721 25.2301L33.3896 22.9848L38.3819 24.2547C41.1276 24.9534 43.5052 25.529 43.6659 25.5343C43.8262 25.5396 44.4149 23.6512 44.9739 21.3377C45.5333 19.0242 46.1363 17.1314 46.3139 17.1314C46.491 17.1314 47.6507 17.3647 48.8904 17.6503ZM46.3605 37.9695L45.0187 43.3111L46.1145 43.7264C48.4557 44.6142 53.2433 45.0923 55.0175 44.6159C60.0249 43.2712 60.313 37.691 55.5019 35.2434C54.1166 34.5385 48.461 32.6284 47.7595 32.6284C47.7284 32.6284 47.0984 35.0322 46.3605 37.9695ZM42.3246 54.0691C41.5587 57.1189 40.9322 59.795 40.9322 60.0159C40.9322 60.2369 41.7811 60.6301 42.8192 60.8891C52.128 63.215 56.7025 62.0491 57.2495 57.211C57.471 55.2513 57.4009 55.0968 55.4402 53.2234C53.472 51.3425 49.9919 49.8601 45.0995 48.8187L43.7169 48.5243L42.3246 54.0691Z" fill="#87888C"/>
</g>
<path d="M69 85C77.8366 85 85 77.8366 85 69C85 60.1634 77.8366 53 69 53C60.1634 53 53 60.1634 53 69C53 77.8366 60.1634 85 69 85Z" fill="#627EEA"/>
<path d="M69.498 57V65.87L76.995 69.22L69.498 57Z" fill="white" fill-opacity="0.602"/>
<path d="M69.498 57L62 69.22L69.498 65.87V57Z" fill="white"/>
<path d="M69.498 74.968V80.995L77 70.616L69.498 74.968Z" fill="white" fill-opacity="0.602"/>
<path d="M69.498 80.995V74.967L62 70.616L69.498 80.995Z" fill="white"/>
<path d="M69.498 73.573L76.995 69.22L69.498 65.872V73.573Z" fill="white" fill-opacity="0.2"/>
<path d="M62 69.22L69.498 73.573V65.872L62 69.22Z" fill="white" fill-opacity="0.602"/>
</svg>
