<svg width="96" height="96" viewBox="0 0 96 96" fill="none" xmlns="http://www.w3.org/2000/svg">
<mask id="mask0" mask-type="alpha" maskUnits="userSpaceOnUse" x="0" y="0" width="96" height="96">
<path fill-rule="evenodd" clip-rule="evenodd" d="M96 48C96 21.4903 74.5097 0 48 0C21.4903 0 0 21.4903 0 48C0 74.5097 21.4903 96 48 96C74.5097 96 96 74.5097 96 48ZM69 88C79.4934 88 88 79.4934 88 69C88 58.5066 79.4934 50 69 50C58.5066 50 50 58.5066 50 69C50 79.4934 58.5066 88 69 88Z" fill="#C4C4C4"/>
</mask>
<g mask="url(#mask0)">
<mask id="mask1" mask-type="alpha" maskUnits="userSpaceOnUse" x="0" y="0" width="96" height="96">
<path fill-rule="evenodd" clip-rule="evenodd" d="M0 0H96V96H0V0Z" fill="white"/>
</mask>
<g mask="url(#mask1)">
<path fill-rule="evenodd" clip-rule="evenodd" d="M48 0C21.504 0 0 21.504 0 48C0 74.496 21.504 96 48 96C74.496 96 96 74.496 96 48C96 21.504 74.496 0 48 0Z" fill="#29B2FF"/>
</g>
<path fill-rule="evenodd" clip-rule="evenodd" d="M34.2719 33.216L12.1919 62.592H16.7039L21.5039 56.16H36.8639V52.512H24.1919L38.6879 33.216H34.2719Z" fill="white"/>
<path fill-rule="evenodd" clip-rule="evenodd" d="M83.808 62.592L61.728 33.216H57.312L71.808 52.512H59.136V56.16H74.496L79.296 62.592H83.808Z" fill="white"/>
<path fill-rule="evenodd" clip-rule="evenodd" d="M46.176 62.592H49.824V17.184H46.176V62.592Z" fill="white"/>
<path fill-rule="evenodd" clip-rule="evenodd" d="M21.1201 55.392H36.1921V53.28H21.1201V55.392Z" fill="white"/>
<path d="M21.1201 55.392H36.1921V53.28H21.1201V55.392Z" stroke="white" stroke-width="1.4328"/>
<path fill-rule="evenodd" clip-rule="evenodd" d="M59.8081 55.392H74.8801V53.28H59.8081V55.392Z" fill="white"/>
<path d="M59.8081 55.392H74.8801V53.28H59.8081V55.392Z" stroke="white" stroke-width="1.4328"/>
</g>
<path d="M69 85C77.8366 85 85 77.8366 85 69C85 60.1634 77.8366 53 69 53C60.1634 53 53 60.1634 53 69C53 77.8366 60.1634 85 69 85Z" fill="#627EEA"/>
<path d="M69.498 57V65.87L76.995 69.22L69.498 57Z" fill="white" fill-opacity="0.602"/>
<path d="M69.498 57L62 69.22L69.498 65.87V57Z" fill="white"/>
<path d="M69.498 74.968V80.995L77 70.616L69.498 74.968Z" fill="white" fill-opacity="0.602"/>
<path d="M69.498 80.995V74.967L62 70.616L69.498 80.995Z" fill="white"/>
<path d="M69.498 73.573L76.995 69.22L69.498 65.872V73.573Z" fill="white" fill-opacity="0.2"/>
<path d="M62 69.22L69.498 73.573V65.872L62 69.22Z" fill="white" fill-opacity="0.602"/>
</svg>
