<svg width="96" height="96" viewBox="0 0 96 96" fill="none" xmlns="http://www.w3.org/2000/svg">
<mask id="mask0" mask-type="alpha" maskUnits="userSpaceOnUse" x="0" y="0" width="96" height="96">
<path fill-rule="evenodd" clip-rule="evenodd" d="M96 48C96 21.4903 74.5097 0 48 0C21.4903 0 0 21.4903 0 48C0 74.5097 21.4903 96 48 96C74.5097 96 96 74.5097 96 48ZM69 88C79.4934 88 88 79.4934 88 69C88 58.5066 79.4934 50 69 50C58.5066 50 50 58.5066 50 69C50 79.4934 58.5066 88 69 88Z" fill="#C4C4C4"/>
</mask>
<g mask="url(#mask0)">
<path d="M48 95.9947C74.5097 95.9947 96 74.5044 96 47.9947C96 21.485 74.5097 -0.0052948 48 -0.0052948C21.4903 -0.0052948 0 21.485 0 47.9947C0 74.5044 21.4903 95.9947 48 95.9947Z" fill="url(#paint0_linear)"/>
<path d="M32.1893 36.0608C31.8056 35.5846 31.2235 35.3199 30.6017 35.3199H17.7814C17.6755 35.3199 17.5829 35.2803 17.5035 35.2141C17.4374 35.148 17.3977 35.0686 17.3977 34.976V26.3365C17.3977 26.2439 17.4374 26.1645 17.5035 26.0983C17.5829 26.019 17.6755 25.9793 17.7814 25.9925H31.3293C34.7428 25.9925 37.6932 27.3949 40.1805 30.1865L43.4749 34.2086L37.0581 42.0278L32.1893 36.0608ZM55.8718 30.1468C58.3459 27.3817 61.3095 25.9925 64.7626 25.9925H78.2709C78.3635 25.9793 78.4561 26.019 78.5223 26.0719C78.5884 26.138 78.6149 26.2306 78.6017 26.3365V34.976C78.6017 35.0686 78.5752 35.148 78.5223 35.2141C78.4561 35.2935 78.3635 35.3332 78.2709 35.3199H65.4506C64.842 35.3067 64.2599 35.5846 63.863 36.0608L54.4164 47.5581L63.9027 59.1347C64.2863 59.5713 64.8553 59.8359 65.4374 59.8227H78.2577C78.3503 59.8095 78.4561 59.8624 78.5091 59.9285C78.562 60.0079 78.6017 60.1138 78.5884 60.2064V68.8459C78.5884 68.9385 78.562 69.0179 78.5091 69.084C78.4429 69.1634 78.3503 69.2031 78.2577 69.1898H64.7626C61.3095 69.1898 58.3723 67.7874 55.9115 64.9958L48.0526 55.4037L40.1937 64.9958C37.7196 67.7874 34.756 69.1898 31.3029 69.1898H17.7814C17.6888 69.2031 17.5829 69.1502 17.53 69.084C17.4639 69.0046 17.4374 68.8988 17.4506 68.8062V60.1667C17.4506 60.0741 17.4771 59.9947 17.53 59.9285C17.5962 59.8492 17.6888 59.8095 17.7814 59.8227H30.6017C31.2103 59.8227 31.7924 59.5449 32.1893 59.0818L41.4639 47.7565L55.8718 30.1468Z" fill="#00D1FF"/>
</g>
<path d="M69 85C77.8366 85 85 77.8366 85 69C85 60.1634 77.8366 53 69 53C60.1634 53 53 60.1634 53 69C53 77.8366 60.1634 85 69 85Z" fill="#627EEA"/>
<path d="M69.498 57V65.87L76.995 69.22L69.498 57Z" fill="white" fill-opacity="0.602"/>
<path d="M69.498 57L62 69.22L69.498 65.87V57Z" fill="white"/>
<path d="M69.498 74.968V80.995L77 70.616L69.498 74.968Z" fill="white" fill-opacity="0.602"/>
<path d="M69.498 80.995V74.967L62 70.616L69.498 80.995Z" fill="white"/>
<path d="M69.498 73.573L76.995 69.22L69.498 65.872V73.573Z" fill="white" fill-opacity="0.2"/>
<path d="M62 69.22L69.498 73.573V65.872L62 69.22Z" fill="white" fill-opacity="0.602"/>
<defs>
<linearGradient id="paint0_linear" x1="48.0066" y1="-0.00557264" x2="48.0066" y2="25.3969" gradientUnits="userSpaceOnUse">
<stop stop-color="#090220"/>
<stop offset="1" stop-color="#170659"/>
</linearGradient>
</defs>
</svg>
