<svg width="96" height="96" viewBox="0 0 96 96" fill="none" xmlns="http://www.w3.org/2000/svg">
<mask id="mask0" mask-type="alpha" maskUnits="userSpaceOnUse" x="0" y="0" width="96" height="96">
<path fill-rule="evenodd" clip-rule="evenodd" d="M96 48C96 21.4903 74.5097 0 48 0C21.4903 0 0 21.4903 0 48C0 74.5097 21.4903 96 48 96C74.5097 96 96 74.5097 96 48ZM69 88C79.4934 88 88 79.4934 88 69C88 58.5066 79.4934 50 69 50C58.5066 50 50 58.5066 50 69C50 79.4934 58.5066 88 69 88Z" fill="#C4C4C4"/>
</mask>
<g mask="url(#mask0)">
<path fill-rule="evenodd" clip-rule="evenodd" d="M71.0762 20.64C84.7562 21.84 95.5562 32.88 96.2762 46.56C95.5562 24 76.8362 6 54.0362 6.72C40.5962 7.2 28.1162 13.92 20.9162 25.2C22.1162 11.52 33.1562 0.72 46.8362 0C24.0362 0.96 6.51624 20.4 7.47624 43.2C7.95623 56.16 14.6762 68.16 25.4762 75.36C11.7962 74.16 1.23624 63.12 0.516235 49.44C0.996235 72 19.9562 90 42.5162 89.52C55.9562 89.28 68.1962 82.32 75.6362 71.28C74.4362 84.72 63.3962 95.28 49.9562 96C72.5162 95.28 90.2762 76.32 89.5562 53.52C89.0762 40.32 82.3562 27.84 71.0762 20.64ZM48.2762 65.28C43.7162 65.28 39.3962 63.6 36.2762 60.24C29.5562 53.52 29.7962 42.72 36.2762 36.24C42.7562 29.76 53.7962 29.76 60.2762 36.24C66.7562 42.72 66.7562 53.76 60.2762 60.24C57.1562 63.6 52.8362 65.28 48.2762 65.28Z" fill="#94FEBF"/>
</g>
<path d="M69 85C77.8366 85 85 77.8366 85 69C85 60.1634 77.8366 53 69 53C60.1634 53 53 60.1634 53 69C53 77.8366 60.1634 85 69 85Z" fill="#627EEA"/>
<path d="M69.498 57V65.87L76.995 69.22L69.498 57Z" fill="white" fill-opacity="0.602"/>
<path d="M69.498 57L62 69.22L69.498 65.87V57Z" fill="white"/>
<path d="M69.498 74.968V80.995L77 70.616L69.498 74.968Z" fill="white" fill-opacity="0.602"/>
<path d="M69.498 80.995V74.967L62 70.616L69.498 80.995Z" fill="white"/>
<path d="M69.498 73.573L76.995 69.22L69.498 65.872V73.573Z" fill="white" fill-opacity="0.2"/>
<path d="M62 69.22L69.498 73.573V65.872L62 69.22Z" fill="white" fill-opacity="0.602"/>
</svg>
