<svg width="96" height="96" viewBox="0 0 96 96" fill="none" xmlns="http://www.w3.org/2000/svg">
<mask id="mask0" mask-type="alpha" maskUnits="userSpaceOnUse" x="0" y="0" width="96" height="96">
<path fill-rule="evenodd" clip-rule="evenodd" d="M96 48C96 21.4903 74.5097 0 48 0C21.4903 0 0 21.4903 0 48C0 74.5097 21.4903 96 48 96C74.5097 96 96 74.5097 96 48ZM69 88C79.4934 88 88 79.4934 88 69C88 58.5066 79.4934 50 69 50C58.5066 50 50 58.5066 50 69C50 79.4934 58.5066 88 69 88Z" fill="#C4C4C4"/>
</mask>
<g mask="url(#mask0)">
<path d="M48 96C21.6 96 0 74.4 0 48C0 21.6 21.6 0 48 0C74.4 0 96 21.6 96 48C96 74.4 74.4 96 48 96Z" fill="#002868"/>
<path d="M72.192 76.8H23.808C21.2736 76.8 19.2 74.7264 19.2 72.192V23.808C19.2 21.2736 21.2736 19.2 23.808 19.2H72.192C74.7264 19.2 76.8 21.2736 76.8 23.808V72.192C76.8 74.7264 74.7264 76.8 72.192 76.8Z" fill="white"/>
<path d="M30.4399 71.0016C30.2882 71.0016 30.1653 70.8634 30.1653 70.7117V62.9722C30.1653 62.8205 30.0424 62.6822 29.8907 62.6822H27.1586C27.005 62.6822 26.8687 62.5594 26.8687 62.4077V60.912C26.8687 60.7603 27.0069 60.6221 27.1586 60.6221H35.5682C35.7199 60.6221 35.8581 60.7584 35.8581 60.912V62.4077C35.8581 62.5594 35.7199 62.6822 35.5682 62.6822H32.8514C32.6997 62.6822 32.5615 62.8186 32.5615 62.9722V70.7117C32.5615 70.8634 32.4386 71.0016 32.2869 71.0016H30.4399Z" fill="#002868"/>
<path d="M44.2523 60.912C44.2523 60.7603 44.3752 60.6221 44.5268 60.6221H46.3585C46.5102 60.6221 46.6484 60.7584 46.6484 60.912V66.1939C46.6484 69.3235 44.8782 71.1398 42.0692 71.1398C39.2756 71.1398 37.5208 69.3235 37.5208 66.1939V60.912C37.5208 60.7603 37.6436 60.6221 37.7953 60.6221H39.627C39.7787 60.6221 39.9169 60.7584 39.9169 60.912V66.2688C39.9169 67.8106 40.7099 68.9088 42.0846 68.9088C43.4593 68.9088 44.2523 67.8106 44.2523 66.2688V60.912Z" fill="#002868"/>
<path d="M55.0599 64.0109C54.8161 64.0109 54.7393 63.9187 54.6471 63.7363C54.3265 62.9875 53.6238 62.5152 52.5563 62.5152C51.5944 62.5152 50.786 62.8512 50.786 63.4925C50.786 64.1952 51.5348 64.4851 53.1822 64.6829C55.6859 64.9728 57.1201 65.737 57.1201 67.7203C57.1201 69.9495 55.1656 71.1245 52.6638 71.1245C50.4961 71.1245 48.6337 70.0704 48.3438 67.8586C48.3131 67.6455 48.4206 67.5687 48.6337 67.5687H50.3137C50.5268 67.5687 50.6497 67.6608 50.7111 67.8278C50.9396 68.5613 51.7192 69.1258 52.8481 69.1258C53.8408 69.1258 54.7105 68.7591 54.7105 67.9815C54.7105 67.0503 53.7947 66.8832 51.963 66.6528C49.8568 66.3783 48.3918 65.7677 48.3918 63.8285C48.3918 61.8893 50.0564 60.5011 52.6657 60.5011C55.0158 60.5011 56.6497 61.7683 56.9857 63.6615C57.0318 63.8746 56.9704 64.0128 56.7419 64.0128H55.0599V64.0109Z" fill="#002868"/>
<path d="M59.1957 71.0016C59.044 71.0016 58.9211 70.8634 58.9211 70.7117V60.912C58.9211 60.7603 59.044 60.6221 59.1957 60.6221H63.3467C66.4303 60.6221 68.8264 62.7437 68.8264 65.8426C68.8264 68.8954 66.461 71.0016 63.3467 71.0016H59.1957ZM63.3467 68.9395C65.0114 68.9395 66.3074 67.6262 66.3074 65.8099C66.3074 63.9936 65.0095 62.6803 63.3314 62.6803H61.6072C61.4555 62.6803 61.3327 62.8166 61.3327 62.9702V68.663C61.3327 68.8147 61.4555 68.9376 61.6072 68.9376H63.3467V68.9395Z" fill="#002868"/>
<path d="M75.264 54.912H20.736C20.3136 54.912 19.968 54.5664 19.968 54.144V23.808C19.968 21.696 21.696 19.968 23.808 19.968H72.192C74.304 19.968 76.032 21.696 76.032 23.808V54.144C76.032 54.5664 75.6864 54.912 75.264 54.912Z" fill="#002868"/>
<path d="M50.8283 48.6835H45.8363C45.5195 48.6835 45.2603 48.4243 45.2603 48.1075V26.9875C45.2603 26.6707 45.5195 26.4115 45.8363 26.4115H50.8283C51.1451 26.4115 51.4043 26.6707 51.4043 26.9875V48.1075C51.4043 48.4243 51.1451 48.6835 50.8283 48.6835Z" fill="white"/>
<path d="M59.3282 32.5555H36.6722C36.3554 32.5555 36.0962 32.2963 36.0962 31.9795V26.9875C36.0962 26.6707 36.3554 26.4115 36.6722 26.4115H59.3282C59.645 26.4115 59.9042 26.6707 59.9042 26.9875V31.9795C59.9042 32.2963 59.645 32.5555 59.3282 32.5555Z" fill="white"/>
</g>
<path d="M69 85C77.8366 85 85 77.8366 85 69C85 60.1634 77.8366 53 69 53C60.1634 53 53 60.1634 53 69C53 77.8366 60.1634 85 69 85Z" fill="#627EEA"/>
<path d="M69.498 57V65.87L76.995 69.22L69.498 57Z" fill="white" fill-opacity="0.602"/>
<path d="M69.498 57L62 69.22L69.498 65.87V57Z" fill="white"/>
<path d="M69.498 74.968V80.995L77 70.616L69.498 74.968Z" fill="white" fill-opacity="0.602"/>
<path d="M69.498 80.995V74.967L62 70.616L69.498 80.995Z" fill="white"/>
<path d="M69.498 73.573L76.995 69.22L69.498 65.872V73.573Z" fill="white" fill-opacity="0.2"/>
<path d="M62 69.22L69.498 73.573V65.872L62 69.22Z" fill="white" fill-opacity="0.602"/>
</svg>
