<svg width="96" height="96" viewBox="0 0 96 96" fill="none" xmlns="http://www.w3.org/2000/svg">
<mask id="mask0" mask-type="alpha" maskUnits="userSpaceOnUse" x="0" y="0" width="96" height="96">
<path fill-rule="evenodd" clip-rule="evenodd" d="M96 48C96 21.4903 74.5097 0 48 0C21.4903 0 0 21.4903 0 48C0 74.5097 21.4903 96 48 96C74.5097 96 96 74.5097 96 48ZM69 88C79.4934 88 88 79.4934 88 69C88 58.5066 79.4934 50 69 50C58.5066 50 50 58.5066 50 69C50 79.4934 58.5066 88 69 88Z" fill="#C4C4C4"/>
</mask>
<g mask="url(#mask0)">
<path d="M38.7001 30.5034C37.9142 30.3911 37.8768 30.3537 38.251 30.3163C38.9621 30.204 40.6087 30.3537 41.7688 30.6156C44.4632 31.2518 46.8957 32.8984 49.4778 35.78L50.1514 36.5658L51.1244 36.4162C55.2783 35.7425 59.5445 36.2665 63.0997 37.9131C64.0726 38.3621 65.607 39.2603 65.7941 39.4848C65.8689 39.5596 65.9812 40.0461 66.056 40.5326C66.318 42.2915 66.2057 43.6013 65.6444 44.6117C65.345 45.173 65.345 45.3227 65.5321 45.8092C65.6818 46.1835 66.1309 46.4454 66.5425 46.4454C67.4407 46.4454 68.3762 45.0234 68.8253 43.04L69.0124 42.2541L69.3492 42.6283C71.2578 44.7614 72.7547 47.7178 72.9792 49.8134L73.0541 50.3748L72.7173 49.8883C72.1559 49.0276 71.632 48.4662 70.921 47.9797C69.6486 47.119 68.3014 46.8571 64.7463 46.67C61.5279 46.4828 59.6942 46.2209 57.8979 45.6221C54.8293 44.6117 53.2575 43.3019 49.6275 38.4744C48.0183 36.3413 47.0079 35.1812 45.9975 34.2082C43.7896 32.0751 41.5816 30.9524 38.7001 30.5034Z" fill="#FF007A"/>
<path d="M66.5799 35.256C66.6547 33.834 66.8418 32.8984 67.2535 32.0377C67.4032 31.7009 67.5529 31.4015 67.5903 31.4015C67.6277 31.4015 67.5529 31.6635 67.4406 31.9629C67.1412 32.7862 67.1038 33.9463 67.2909 35.256C67.5529 36.9401 67.6651 37.1646 69.4614 38.9983C70.2847 39.859 71.2577 40.9443 71.6319 41.3934L72.2681 42.2167L71.6319 41.6179C70.846 40.8694 69.0498 39.4474 68.6381 39.2603C68.3762 39.1106 68.3387 39.1106 68.1516 39.2977C68.0019 39.4474 67.9645 39.6719 67.9645 40.7572C67.9271 42.4412 67.7025 43.489 67.1412 44.5743C66.8418 45.1356 66.8044 45.0234 67.0664 44.3872C67.2535 43.9007 67.2909 43.6761 67.2909 42.067C67.2909 38.8112 66.9167 38.0253 64.6339 36.7155C64.0726 36.3787 63.0996 35.8922 62.5382 35.6303C61.9395 35.3683 61.4904 35.1438 61.5278 35.1438C61.6027 35.0689 63.8106 35.7051 64.6713 36.0793C65.9811 36.6033 66.2056 36.6407 66.3553 36.6033C66.4676 36.491 66.5424 36.1916 66.5799 35.256Z" fill="#FF007A"/>
<path d="M40.2344 40.832C38.6626 38.6615 37.6522 35.2935 37.8767 32.7862L37.9516 32.0003L38.3258 32.0751C38.9994 32.1874 40.1595 32.6365 40.7208 32.9733C42.2178 33.8714 42.8914 35.1064 43.5275 38.175C43.7147 39.0732 43.9766 40.121 44.0889 40.4578C44.276 41.0191 44.987 42.3289 45.5858 43.1522C45.9974 43.751 45.7355 44.0504 44.7999 43.9755C43.3779 43.8258 41.4693 42.516 40.2344 40.832Z" fill="#FF007A"/>
<path d="M64.6714 57.1109C57.2617 54.117 54.6421 51.5349 54.6421 47.1564C54.6421 46.5203 54.6795 45.9963 54.6795 45.9963C54.7169 45.9963 54.9789 46.2209 55.3157 46.4828C56.8126 47.6804 58.4966 48.2043 63.1744 48.8779C65.9063 49.2895 67.478 49.5889 68.9001 50.0754C73.4282 51.5723 76.2349 54.641 76.9086 58.7949C77.0957 59.9924 76.9834 62.2752 76.684 63.4727C76.4221 64.4083 75.6736 66.1297 75.4865 66.1671C75.4491 66.1671 75.3742 65.98 75.3742 65.6806C75.2994 64.1089 74.5135 62.612 73.2037 61.4519C71.632 60.1047 69.6111 59.0943 64.6714 57.1109Z" fill="#FF007A"/>
<path d="M59.4321 58.3458C59.3573 57.7845 59.1701 57.0734 59.0579 56.7741L58.8708 56.2127L59.2076 56.6244C59.6941 57.1857 60.0683 57.8593 60.4051 58.7949C60.6671 59.5059 60.667 59.7304 60.667 60.8906C60.667 62.0132 60.6296 62.2752 60.4051 62.9114C60.0309 63.9218 59.5818 64.6328 58.8333 65.4187C57.4861 66.8033 55.7273 67.5518 53.22 67.8886C52.7709 67.926 51.4985 68.0383 50.3758 68.1131C47.5691 68.2628 45.698 68.5622 44.014 69.1609C43.7894 69.2358 43.5649 69.3106 43.5275 69.2732C43.4526 69.1984 44.6127 68.5248 45.5483 68.0757C46.8581 67.4395 48.2053 67.1027 51.1617 66.5788C52.6212 66.3543 54.1181 66.0549 54.4923 65.9052C58.1972 64.7451 60.0309 61.8635 59.4321 58.3458Z" fill="#FF007A"/>
<path d="M62.8376 64.3709C61.8646 62.2378 61.6401 60.2169 62.164 58.3084C62.2388 58.1213 62.3137 57.9342 62.3885 57.9342C62.4634 57.9342 62.6879 58.0464 62.9124 58.1961C63.3615 58.4955 64.2971 59.0194 66.6921 60.3292C69.7233 61.9758 71.4448 63.2482 72.6423 64.7077C73.6901 65.98 74.3263 67.4395 74.6257 69.2358C74.8128 70.2462 74.7006 72.6787 74.4386 73.6891C73.6153 76.87 71.7442 79.4147 69.0123 80.8742C68.6007 81.0988 68.2639 81.2485 68.2264 81.2485C68.189 81.2485 68.3387 80.8742 68.5632 80.4252C69.4614 78.5166 69.5737 76.6829 68.9 74.6246C68.4884 73.3523 67.6277 71.818 65.9062 69.2358C63.848 66.242 63.3615 65.4561 62.8376 64.3709Z" fill="#FF007A"/>
<path d="M34.9577 75.8222C37.727 73.502 41.1325 71.8554 44.276 71.3314C45.6232 71.1069 47.8686 71.1818 49.1035 71.5186C51.0869 72.0425 52.8832 73.1652 53.8188 74.5498C54.7169 75.897 55.1285 77.0571 55.5402 79.6393C55.6899 80.6497 55.877 81.6975 55.9144 81.922C56.2138 83.2693 56.8126 84.3171 57.561 84.8784C58.7211 85.7392 60.7419 85.7766 62.7253 85.0281C63.0621 84.9159 63.3615 84.8036 63.3615 84.841C63.4364 84.9159 62.426 85.5895 61.7523 85.9263C60.8168 86.4128 60.0683 86.5624 59.0579 86.5624C57.2616 86.5624 55.7273 85.6269 54.4924 83.7558C54.2304 83.3815 53.7065 82.2963 53.2574 81.2859C51.9476 78.2546 51.274 77.3565 49.7397 76.3461C48.3925 75.4854 46.671 75.2982 45.3612 75.9344C43.6398 76.7577 43.1907 78.9657 44.3882 80.3129C44.8747 80.8742 45.7729 81.3233 46.5213 81.4355C47.906 81.6227 49.1035 80.5374 49.1035 79.1528C49.1035 78.2546 48.7667 77.7307 47.8686 77.3191C46.671 76.7951 45.3612 77.3939 45.3987 78.554C45.3987 79.0405 45.6232 79.3399 46.1097 79.5644C46.4091 79.7141 46.4091 79.7141 46.1845 79.6767C45.0993 79.4522 44.8373 78.1049 45.698 77.2442C46.7459 76.1964 48.9538 76.6455 49.7023 78.1049C50.0016 78.7037 50.0391 79.9012 49.7771 80.6497C49.1409 82.2963 47.3446 83.157 45.5109 82.6705C44.276 82.3337 43.7521 81.9969 42.2552 80.4626C39.6356 77.7681 38.6252 77.2442 34.8829 76.6829L34.1719 76.5706L34.9577 75.8222Z" fill="#FF007A"/>
<path fill-rule="evenodd" clip-rule="evenodd" d="M15.274 15.6092C23.9935 26.1998 37.4282 42.6657 38.1018 43.5639C38.6632 44.3123 38.4386 45.0234 37.5031 45.5473C36.9792 45.8467 35.8939 46.146 35.37 46.146C34.7712 46.146 34.0602 45.8467 33.5737 45.3602C33.2369 45.0234 31.7774 42.8903 28.4842 37.7634C25.9769 33.834 23.8438 30.5782 23.8064 30.5408C23.6567 30.466 23.6567 30.466 28.2223 38.6241C31.1038 43.751 32.0394 45.5847 32.0394 45.8092C32.0394 46.2957 31.8897 46.5577 31.2909 47.2313C30.2805 48.354 29.8314 49.6263 29.4946 52.2833C29.1204 55.2397 28.11 57.3354 25.2285 60.8905C23.5444 62.9862 23.2825 63.3604 22.8708 64.2212C22.3469 65.269 22.1972 65.8678 22.1224 67.215C22.0475 68.637 22.1972 69.5352 22.6089 70.8824C22.9831 72.0799 23.3947 72.8658 24.4052 74.4001C25.2659 75.7473 25.7898 76.7577 25.7898 77.132C25.7898 77.4313 25.8646 77.4313 27.2119 77.132C30.4302 76.3835 33.0872 75.1111 34.5467 73.5394C35.4448 72.5664 35.6694 72.0425 35.6694 70.6953C35.6694 69.8346 35.6319 69.6474 35.4074 69.1235C35.0332 68.3002 34.3221 67.6266 32.7878 66.5788C30.767 65.1941 29.9063 64.0715 29.6817 62.5746C29.4946 61.3022 29.7192 60.4415 30.8418 58.0839C32.0019 55.6514 32.3013 54.641 32.4884 52.1711C32.6007 50.5993 32.7878 49.9631 33.2369 49.4767C33.7234 48.9527 34.135 48.7656 35.2951 48.6159C37.2037 48.354 38.4386 47.8675 39.4116 46.9319C40.2723 46.146 40.6466 45.3602 40.684 44.2001L40.7214 43.3393L40.2349 42.8154C38.4761 40.7946 14.1139 14 14.0017 14C13.9642 14 14.563 14.711 15.274 15.6092ZM26.7628 68.8241C27.1744 68.1131 26.9499 67.215 26.2763 66.7659C25.6401 66.3543 24.6671 66.5414 24.6671 67.1027C24.6671 67.2524 24.742 67.4021 24.9665 67.4769C25.3033 67.664 25.3407 67.8512 25.0788 68.2628C24.8168 68.6745 24.8168 69.0487 25.1536 69.3106C25.6775 69.7223 26.3886 69.4978 26.7628 68.8241Z" fill="#FF007A"/>
<path fill-rule="evenodd" clip-rule="evenodd" d="M41.9184 49.1398C41.0203 49.4018 40.1595 50.3748 39.8976 51.3478C39.7479 51.9465 39.8227 53.0318 40.0847 53.3686C40.4963 53.8925 40.8706 54.0422 41.9184 54.0422C43.9766 54.0422 45.7355 53.1441 45.9226 52.0588C46.1097 51.1607 45.3239 49.9257 44.2386 49.3644C43.6773 49.065 42.5172 48.9527 41.9184 49.1398ZM44.3135 51.011C44.6128 50.5619 44.5006 50.0754 43.9392 49.7386C42.9288 49.1024 41.3945 49.6263 41.3945 50.5993C41.3945 51.0858 42.1804 51.6097 42.9288 51.6097C43.4153 51.6097 44.0889 51.3104 44.3135 51.011Z" fill="#FF007A"/>
</g>
<path d="M69 85C77.8366 85 85 77.8366 85 69C85 60.1634 77.8366 53 69 53C60.1634 53 53 60.1634 53 69C53 77.8366 60.1634 85 69 85Z" fill="#627EEA"/>
<path d="M69.498 57V65.87L76.995 69.22L69.498 57Z" fill="white" fill-opacity="0.602"/>
<path d="M69.498 57L62 69.22L69.498 65.87V57Z" fill="white"/>
<path d="M69.498 74.968V80.995L77 70.616L69.498 74.968Z" fill="white" fill-opacity="0.602"/>
<path d="M69.498 80.995V74.967L62 70.616L69.498 80.995Z" fill="white"/>
<path d="M69.498 73.573L76.995 69.22L69.498 65.872V73.573Z" fill="white" fill-opacity="0.2"/>
<path d="M62 69.22L69.498 73.573V65.872L62 69.22Z" fill="white" fill-opacity="0.602"/>
</svg>
