<svg width="96" height="96" viewBox="0 0 96 96" fill="none" xmlns="http://www.w3.org/2000/svg">
<mask id="mask0" mask-type="alpha" maskUnits="userSpaceOnUse" x="0" y="0" width="96" height="96">
<path fill-rule="evenodd" clip-rule="evenodd" d="M96 48C96 21.4903 74.5097 0 48 0C21.4903 0 0 21.4903 0 48C0 74.5097 21.4903 96 48 96C74.5097 96 96 74.5097 96 48ZM69 88C79.4934 88 88 79.4934 88 69C88 58.5066 79.4934 50 69 50C58.5066 50 50 58.5066 50 69C50 79.4934 58.5066 88 69 88Z" fill="#C4C4C4"/>
</mask>
<g mask="url(#mask0)">
<path d="M47.999 94.57C73.7188 94.57 94.5689 73.72 94.5689 48.0002C94.5689 22.2804 73.7188 1.43036 47.999 1.43036C22.2792 1.43036 1.4292 22.2804 1.4292 48.0002C1.4292 73.72 22.2792 94.57 47.999 94.57Z" fill="white"/>
<path d="M81.9391 14.0608C72.8648 4.98643 60.8254 0 47.9999 0C21.5405 0 0 21.5404 0 47.9999C0 74.4595 21.5405 96 47.9999 96C60.8254 96 72.8648 91.0136 81.9391 81.9391C91.0136 72.8648 96 60.8254 96 47.9999C96 35.1745 91.0136 23.1352 81.9391 14.0608ZM47.9999 93.5291C22.8881 93.5291 2.47075 73.1119 2.47075 47.9999C2.47075 22.8882 22.8881 2.47075 47.9999 2.47075C73.1118 2.47075 93.5293 22.8882 93.5293 47.9999C93.5293 73.1119 73.1118 93.5291 47.9999 93.5291Z" fill="#1B1B1B"/>
<path d="M52.7516 42.8857C45.3168 39.4941 38.8928 36.574 39.3645 29.4762C39.5668 26.6911 41.5658 25.029 43.2055 24.1304C45.2495 23.0074 47.9898 22.4234 50.3707 22.5806C56.7047 23.0074 61.6912 25.6803 66.5428 31.2282L68.4072 29.611C63.1512 23.5914 57.4685 20.5815 50.5278 20.1099C49.9888 20.0649 49.4497 20.0649 48.8882 20.0874C48.7759 20.0874 48.6636 20.0874 48.5738 20.0874C44.014 20.0874 39.0501 21.5699 35.2316 24.0855C30.7394 27.0504 28.2237 31.1159 28.1563 35.5408C27.9766 46.3673 36.9387 50.0509 44.8451 53.3078C52.1226 56.3176 58.4343 58.9007 58.2995 66.0209C58.2321 70.8276 51.6285 73.4108 46.9789 73.4108C46.9116 73.4108 46.8666 73.4108 46.7993 73.4108V73.4331H46.7768C39.9037 73.3433 33.7941 70.4682 28.6055 64.8978L26.7863 66.5824C32.379 72.602 39.2747 75.8365 46.7543 75.9263C46.8666 75.9263 46.9789 75.9263 47.0912 75.9263C51.9205 75.9263 57.1316 74.6461 61.1297 72.4449C66.0263 69.7719 68.8789 65.8861 69.1708 61.5287C69.9121 50.7022 60.7928 46.5469 52.7516 42.8857ZM66.7001 61.3264C66.408 65.7963 62.8591 68.6489 59.9392 70.2436C59.6696 70.4009 59.4001 70.5357 59.1306 70.6705C60.1413 69.3677 60.7478 67.8179 60.7928 66.0434C60.9275 57.2385 53.2456 54.0715 45.811 51.0167C37.9494 47.7823 30.5148 44.7051 30.6496 35.5633C30.6945 31.992 32.8284 28.6452 36.6243 26.1295C37.1858 25.7476 37.7923 25.4107 38.4211 25.0738C37.5452 26.3317 37.0286 27.7468 36.9387 29.2741C36.3323 38.079 44.1713 41.6503 51.7633 45.0869C59.7594 48.7705 67.329 52.2296 66.7001 61.3264Z" fill="#1B1B1B"/>
</g>
<path d="M69 85C77.8366 85 85 77.8366 85 69C85 60.1634 77.8366 53 69 53C60.1634 53 53 60.1634 53 69C53 77.8366 60.1634 85 69 85Z" fill="#627EEA"/>
<path d="M69.498 57V65.87L76.995 69.22L69.498 57Z" fill="white" fill-opacity="0.602"/>
<path d="M69.498 57L62 69.22L69.498 65.87V57Z" fill="white"/>
<path d="M69.498 74.968V80.995L77 70.616L69.498 74.968Z" fill="white" fill-opacity="0.602"/>
<path d="M69.498 80.995V74.967L62 70.616L69.498 80.995Z" fill="white"/>
<path d="M69.498 73.573L76.995 69.22L69.498 65.872V73.573Z" fill="white" fill-opacity="0.2"/>
<path d="M62 69.22L69.498 73.573V65.872L62 69.22Z" fill="white" fill-opacity="0.602"/>
</svg>
