<svg width="96" height="96" viewBox="0 0 96 96" fill="none" xmlns="http://www.w3.org/2000/svg">
<mask id="mask0" mask-type="alpha" maskUnits="userSpaceOnUse" x="0" y="0" width="96" height="96">
<path fill-rule="evenodd" clip-rule="evenodd" d="M96 48C96 21.4903 74.5097 0 48 0C21.4903 0 0 21.4903 0 48C0 74.5097 21.4903 96 48 96C74.5097 96 96 74.5097 96 48ZM69 88C79.4934 88 88 79.4934 88 69C88 58.5066 79.4934 50 69 50C58.5066 50 50 58.5066 50 69C50 79.4934 58.5066 88 69 88Z" fill="#C4C4C4"/>
</mask>
<g mask="url(#mask0)">
<path d="M48 96C74.6002 96 96 74.6002 96 48C96 21.3998 74.6002 0 48 0C21.3998 0 0 21.3998 0 48C0 74.6002 21.3998 96 48 96Z" fill="#2775CA"/>
<path d="M61.2002 55.5998C61.2002 48.6 57.0002 46.2 48.6002 45.2002C42.6002 44.4 41.4002 42.8002 41.4002 39.9998C41.4002 37.1995 43.4004 35.4 47.4002 35.4C51.0002 35.4 53.0004 36.6 54.0002 39.6C54.2004 40.2 54.8004 40.5998 55.4004 40.5998H58.6001C59.4002 40.5998 60.0002 39.9998 60.0002 39.2002V39C59.2001 34.5998 55.6001 31.2 51.0002 30.8002V26.0002C51.0002 25.2 50.4002 24.6 49.4004 24.3998H46.4004C45.6002 24.3998 45.0002 24.9998 44.8001 26.0002V30.6C38.8001 31.4002 35.0004 35.4 35.0004 40.4002C35.0004 47.0002 39.0002 49.5998 47.4002 50.6002C53.0004 51.6 54.8004 52.8 54.8004 56.0002C54.8004 59.2003 52.0001 61.4002 48.2004 61.4002C43.0001 61.4002 41.2001 59.1998 40.6001 56.1998C40.4004 55.4002 39.8004 54.9998 39.2004 54.9998H35.8001C35.0004 54.9998 34.4004 55.5998 34.4004 56.4V56.6002C35.2001 61.5998 38.4002 65.1998 45.0002 66.2002V71.0002C45.0002 71.7998 45.6002 72.3998 46.6001 72.6H49.6001C50.4002 72.6 51.0002 72 51.2004 71.0002V66.2002C57.2004 65.1998 61.2002 60.9998 61.2002 55.5998Z" fill="white"/>
<path d="M37.7995 76.5999C22.1995 71.0002 14.1993 53.6002 19.9997 38.1999C22.9997 29.7999 29.5997 23.4 37.7995 20.4C38.5997 20.0002 38.9995 19.4002 38.9995 18.3999V15.6C38.9995 14.7999 38.5997 14.1999 37.7995 14.0002C37.5993 14.0002 37.1995 14.0002 36.9993 14.1999C17.9995 20.1999 7.59934 40.4002 13.5993 59.4C17.1993 70.5999 25.7995 79.2 36.9993 82.8C37.7995 83.1999 38.5997 82.8 38.7993 81.9999C38.9995 81.8002 38.9995 81.6 38.9995 81.2002V78.3999C38.9995 77.7999 38.3995 77.0002 37.7995 76.5999ZM58.9997 14.1999C58.1995 13.8 57.3993 14.1999 57.1997 15C56.9995 15.2002 56.9995 15.3999 56.9995 15.8002V18.6C56.9995 19.4002 57.5995 20.1999 58.1995 20.6002C73.7995 26.1999 81.7997 43.5999 75.9993 59.0002C72.9993 67.4002 66.3993 73.8 58.1995 76.8C57.3993 77.1999 56.9995 77.7999 56.9995 78.8002V81.6C56.9995 82.4002 57.3993 83.0002 58.1995 83.1999C58.3997 83.1999 58.7995 83.1999 58.9997 83.0002C77.9995 77.0002 88.3997 56.7999 82.3997 37.8C78.7997 26.4 69.9993 17.7999 58.9997 14.1999Z" fill="white"/>
</g>
<circle cx="69" cy="69" r="16" fill="#F3BA2F"/>
<g clip-path="url(#clip0)">
<path d="M65.4169 67.4436L68.8571 64.0034L72.299 67.4451L74.3007 65.4434L68.8571 60L63.4153 65.4418L65.4169 67.4435L65.4169 67.4436ZM60 68.8571L62.0018 66.855L64.0034 68.8567L62.0016 70.8584L60 68.8571ZM65.4169 70.2707L68.8571 73.7108L72.2989 70.2691L74.3017 72.2698L74.3007 72.2708L68.8571 77.7142L63.4153 72.2724L63.4125 72.2695L65.4171 70.2705L65.4169 70.2707ZM73.7108 68.8579L75.7126 66.8562L77.7142 68.8578L75.7125 70.8596L73.7108 68.8579Z" fill="white"/>
<path d="M70.8871 68.8558H70.888L68.857 66.8246L67.3557 68.3254L67.1832 68.4979L66.8275 68.8537L66.8247 68.8565L66.8275 68.8594L68.857 70.8891L70.8881 68.8579L70.8891 68.8568L70.8873 68.8558" fill="white"/>
</g>
<defs>
<clipPath id="clip0">
<rect width="17.7143" height="17.7142" fill="white" transform="translate(60 60)"/>
</clipPath>
</defs>
</svg>
