<svg width="96" height="96" viewBox="0 0 96 96" fill="none" xmlns="http://www.w3.org/2000/svg">
<mask id="mask0" mask-type="alpha" maskUnits="userSpaceOnUse" x="0" y="0" width="96" height="96">
<path fill-rule="evenodd" clip-rule="evenodd" d="M96 48C96 21.4903 74.5097 0 48 0C21.4903 0 0 21.4903 0 48C0 74.5097 21.4903 96 48 96C74.5097 96 96 74.5097 96 48ZM69 88C79.4934 88 88 79.4934 88 69C88 58.5066 79.4934 50 69 50C58.5066 50 50 58.5066 50 69C50 79.4934 58.5066 88 69 88Z" fill="#C4C4C4"/>
</mask>
<g mask="url(#mask0)">
<path d="M48 0C74.5067 0 96 21.4933 96 48C96 74.5067 74.5067 96 48 96C21.4933 96 0 74.52 0 48C0 21.48 21.4933 0 48 0Z" fill="#26A17B"/>
<path d="M54.7589 42.6481V35.5015H71.0922V24.6215H26.6256V35.5015H42.9589V42.6481C29.6922 43.2615 19.7056 45.8881 19.7056 49.0348C19.7056 52.1815 29.6922 54.8081 42.9589 55.4215V78.2881H54.7722V55.4215C68.0256 54.8081 77.9856 52.1815 77.9856 49.0348C77.9722 45.8881 68.0122 43.2615 54.7589 42.6481ZM54.7722 53.4881C54.4389 53.5015 52.7322 53.6081 48.9189 53.6081C45.8656 53.6081 43.7322 53.5281 42.9722 53.4881V53.5015C31.2522 52.9815 22.4922 50.9415 22.4922 48.5015C22.4922 46.0615 31.2389 44.0215 42.9722 43.5015V51.4481C43.7456 51.5015 45.9322 51.6348 48.9722 51.6348C52.6122 51.6348 54.4389 51.4881 54.7856 51.4481V43.4748C66.4922 43.9948 75.2256 46.0348 75.2256 48.4748C75.1989 50.9148 66.4656 52.9548 54.7722 53.4881Z" fill="white"/>
</g>
<circle cx="69" cy="69" r="16" fill="#F3BA2F"/>
<g clip-path="url(#clip0)">
<path d="M65.4169 67.4436L68.8571 64.0034L72.299 67.4451L74.3007 65.4434L68.8571 60L63.4153 65.4418L65.4169 67.4435L65.4169 67.4436ZM60 68.8571L62.0018 66.855L64.0034 68.8567L62.0016 70.8584L60 68.8571ZM65.4169 70.2707L68.8571 73.7108L72.2989 70.2691L74.3017 72.2698L74.3007 72.2708L68.8571 77.7142L63.4153 72.2724L63.4125 72.2695L65.4171 70.2705L65.4169 70.2707ZM73.7108 68.8579L75.7126 66.8562L77.7142 68.8578L75.7125 70.8596L73.7108 68.8579Z" fill="white"/>
<path d="M70.8871 68.8558H70.888L68.857 66.8246L67.3557 68.3254L67.1832 68.4979L66.8275 68.8537L66.8247 68.8565L66.8275 68.8594L68.857 70.8891L70.8881 68.8579L70.8891 68.8568L70.8873 68.8558" fill="white"/>
</g>
<defs>
<clipPath id="clip0">
<rect width="17.7143" height="17.7142" fill="white" transform="translate(60 60)"/>
</clipPath>
</defs>
</svg>
