<svg width="96" height="96" viewBox="0 0 96 96" fill="none" xmlns="http://www.w3.org/2000/svg">
<mask id="mask0" mask-type="alpha" maskUnits="userSpaceOnUse" x="0" y="0" width="96" height="96">
<path fill-rule="evenodd" clip-rule="evenodd" d="M96 48C96 21.4903 74.5097 0 48 0C21.4903 0 0 21.4903 0 48C0 74.5097 21.4903 96 48 96C74.5097 96 96 74.5097 96 48ZM69 88C79.4934 88 88 79.4934 88 69C88 58.5066 79.4934 50 69 50C58.5066 50 50 58.5066 50 69C50 79.4934 58.5066 88 69 88Z" fill="#C4C4C4"/>
</mask>
<g mask="url(#mask0)">
<path d="M46 0C72.5067 0 94 21.4933 94 48C94 74.5067 72.5067 96 46 96C19.4933 96 -2 74.52 -2 48C-2 21.48 19.4933 0 46 0Z" fill="#26A17B"/>
<path d="M52.7587 42.6481V35.5015H69.092V24.6215H24.6253V35.5015H40.9587V42.6481C27.692 43.2615 17.7053 45.8881 17.7053 49.0348C17.7053 52.1815 27.692 54.8081 40.9587 55.4215V78.2881H52.772V55.4215C66.0253 54.8081 75.9853 52.1815 75.9853 49.0348C75.972 45.8881 66.012 43.2615 52.7587 42.6481ZM52.772 53.4881C52.4387 53.5015 50.732 53.6081 46.9187 53.6081C43.8653 53.6081 41.732 53.5281 40.972 53.4881V53.5015C29.252 52.9815 20.492 50.9415 20.492 48.5015C20.492 46.0615 29.2387 44.0215 40.972 43.5015V51.4481C41.7453 51.5015 43.932 51.6348 46.972 51.6348C50.612 51.6348 52.4387 51.4881 52.7853 51.4481V43.4748C64.492 43.9948 73.2253 46.0348 73.2253 48.4748C73.1987 50.9148 64.4653 52.9548 52.772 53.4881Z" fill="white"/>
</g>
<path d="M69 85C77.8366 85 85 77.8366 85 69C85 60.1634 77.8366 53 69 53C60.1634 53 53 60.1634 53 69C53 77.8366 60.1634 85 69 85Z" fill="#627EEA"/>
<path d="M69.498 57V65.87L76.995 69.22L69.498 57Z" fill="white" fill-opacity="0.602"/>
<path d="M69.498 57L62 69.22L69.498 65.87V57Z" fill="white"/>
<path d="M69.498 74.968V80.995L77 70.616L69.498 74.968Z" fill="white" fill-opacity="0.602"/>
<path d="M69.498 80.995V74.967L62 70.616L69.498 80.995Z" fill="white"/>
<path d="M69.498 73.573L76.995 69.22L69.498 65.872V73.573Z" fill="white" fill-opacity="0.2"/>
<path d="M62 69.22L69.498 73.573V65.872L62 69.22Z" fill="white" fill-opacity="0.602"/>
</svg>
