<svg width="18" height="18" viewBox="0 0 18 18" fill="none" xmlns="http://www.w3.org/2000/svg">
<path d="M2.59922 0.200031C1.28324 0.200031 0.199219 1.28406 0.199219 2.60003V15.4C0.199219 16.7256 1.27362 17.8 2.59922 17.8H16.1992C17.0832 17.8 17.7992 17.084 17.7992 16.2V5.00003C17.7992 4.11603 17.0832 3.40003 16.1992 3.40003H9.79922H2.59922C2.14719 3.40003 1.79922 3.05206 1.79922 2.60003C1.79922 2.14801 2.14719 1.80003 2.59922 1.80003H14.5992C14.7052 1.80153 14.8105 1.78195 14.9089 1.74241C15.0072 1.70288 15.0968 1.64419 15.1723 1.56976C15.2478 1.49532 15.3077 1.40663 15.3486 1.30882C15.3895 1.21101 15.4106 1.10605 15.4106 1.00003C15.4106 0.894011 15.3895 0.789048 15.3486 0.691243C15.3077 0.593437 15.2478 0.504739 15.1723 0.430303C15.0968 0.355868 15.0072 0.297179 14.9089 0.257648C14.8105 0.218117 14.7052 0.198532 14.5992 0.200031H2.59922ZM14.5992 9.00003C15.4832 9.00003 16.1992 9.71603 16.1992 10.6C16.1992 11.484 15.4832 12.2 14.5992 12.2C13.7152 12.2 12.9992 11.484 12.9992 10.6C12.9992 9.71603 13.7152 9.00003 14.5992 9.00003Z" fill="#1B1B1B"/>
</svg>
