<svg width="96" height="96" viewBox="0 0 96 96" fill="none" xmlns="http://www.w3.org/2000/svg">
<mask id="mask0" mask-type="alpha" maskUnits="userSpaceOnUse" x="0" y="0" width="96" height="96">
<path fill-rule="evenodd" clip-rule="evenodd" d="M96 48C96 21.4903 74.5097 0 48 0C21.4903 0 0 21.4903 0 48C0 74.5097 21.4903 96 48 96C74.5097 96 96 74.5097 96 48ZM69 88C79.4934 88 88 79.4934 88 69C88 58.5066 79.4934 50 69 50C58.5066 50 50 58.5066 50 69C50 79.4934 58.5066 88 69 88Z" fill="#C4C4C4"/>
</mask>
<g mask="url(#mask0)">
<path d="M78.2782 20.1472L75.6423 22.7831C81.9321 29.6613 85.42 38.6444 85.42 47.9648C85.42 57.2853 81.9321 66.2684 75.6423 73.1466L78.2782 75.7825C85.2731 68.1953 89.1566 58.2537 89.1566 47.9341C89.1566 37.6145 85.2731 27.6729 78.2782 20.0857V20.1472Z" fill="#5A5564"/>
<path d="M22.8441 20.3756C29.7224 14.0859 38.7055 10.5979 48.0259 10.5979C57.3464 10.5979 66.3294 14.0859 73.2077 20.3756L75.8436 17.7397C68.2564 10.7448 58.3147 6.86137 47.9952 6.86137C37.6756 6.86137 27.7339 10.7448 20.1467 17.7397L22.8441 20.3756Z" fill="#5A5564"/>
<path d="M20.3755 73.1729C14.0933 66.2962 10.6099 57.3186 10.6099 48.0043C10.6099 38.69 14.0933 29.7125 20.3755 22.8358L17.7396 20.1998C10.7448 27.787 6.86133 37.7287 6.86133 48.0483C6.86133 58.3678 10.7448 68.3095 17.7396 75.8967L20.3755 73.1729Z" fill="#5A5564"/>
<path d="M73.1728 75.6068C66.2945 81.8965 57.3115 85.3845 47.991 85.3845C38.6706 85.3845 29.6875 81.8965 22.8093 75.6068L20.1733 78.2427C27.7605 85.2375 37.7022 89.121 48.0218 89.121C58.3413 89.121 68.283 85.2375 75.8702 78.2427L73.1728 75.6068Z" fill="#5A5564"/>
<path d="M64.6413 39.2048C64.1142 33.7045 59.3695 31.8594 53.3684 31.297V23.7232H48.7292V31.1565C47.5079 31.1565 46.2602 31.1565 45.0214 31.1565V23.7232H40.4173V31.3498H31.0071V36.3141C31.0071 36.3141 34.4338 36.2526 34.3811 36.3141C34.9989 36.2461 35.619 36.4206 36.1107 36.8009C36.6024 37.1811 36.9273 37.7374 37.017 38.3525V59.229C37.0038 59.4459 36.9472 59.658 36.8506 59.8526C36.754 60.0473 36.6194 60.2207 36.4546 60.3624C36.293 60.5068 36.1038 60.6171 35.8985 60.6866C35.6931 60.756 35.4758 60.7832 35.2597 60.7666C35.3212 60.8193 31.8857 60.7666 31.8857 60.7666L31.0071 66.3108H40.3294V74.0604H44.9686V66.425H48.6765V74.0252H53.3245V66.3635C61.1619 65.889 66.6271 63.956 67.3124 56.6194C67.8659 50.715 65.0894 48.079 60.6523 47.0159C63.3497 45.6891 65.0192 43.229 64.6413 39.2048ZM58.1394 55.7056C58.1394 61.4695 48.2635 60.8105 45.118 60.8105V50.5832C48.2635 50.5919 58.1394 49.6869 58.1394 55.7056ZM55.9868 41.296C55.9868 46.5678 47.7451 45.9264 45.1268 45.9264V36.6304C47.7451 36.6304 55.9868 35.8045 55.9868 41.296Z" fill="#F09242"/>
<path d="M47.9912 96C38.4985 95.9983 29.2194 93.1819 21.3272 87.9069C13.435 82.6319 7.28404 75.1352 3.65212 66.3647C0.0202055 57.5943 -0.929614 47.9438 0.922757 38.6335C2.77513 29.3232 7.3465 20.7713 14.0589 14.0589C20.7713 7.34648 29.3233 2.7751 38.6335 0.922733C47.9438 -0.929638 57.5943 0.0201817 66.3648 3.6521C75.1353 7.28402 82.6319 13.4349 87.9069 21.3271C93.1819 29.2194 95.9983 38.4985 96 47.9912C96.0012 54.2961 94.7602 60.5395 92.3479 66.3647C89.9357 72.19 86.3994 77.4829 81.9412 81.9411C77.4829 86.3994 72.19 89.9356 66.3648 92.3479C60.5396 94.7602 54.2962 96.0012 47.9912 96ZM47.9912 3.743C39.2455 3.74995 30.6981 6.34949 23.4294 11.2131C16.1607 16.0766 10.497 22.9859 7.1542 31.0676C3.81136 39.1493 2.93943 48.0406 4.64862 56.6177C6.35781 65.1948 10.5714 73.0727 16.7568 79.2556C22.9422 85.4386 30.8218 89.649 39.3996 91.3548C47.9773 93.0606 56.8683 92.1851 64.9486 88.8391C73.029 85.493 79.936 79.8266 84.7967 72.556C89.6574 65.2854 92.2535 56.737 92.257 47.9912C92.2593 42.1783 91.1158 36.422 88.8919 31.0514C86.6679 25.6807 83.4071 20.8011 79.296 16.6916C75.1848 12.5821 70.3039 9.32327 64.9324 7.10144C59.5609 4.87961 53.8041 3.73838 47.9912 3.743Z" fill="#282138"/>
</g>
<path d="M69 85C77.8366 85 85 77.8366 85 69C85 60.1634 77.8366 53 69 53C60.1634 53 53 60.1634 53 69C53 77.8366 60.1634 85 69 85Z" fill="#627EEA"/>
<path d="M69.498 57V65.87L76.995 69.22L69.498 57Z" fill="white" fill-opacity="0.602"/>
<path d="M69.498 57L62 69.22L69.498 65.87V57Z" fill="white"/>
<path d="M69.498 74.968V80.995L77 70.616L69.498 74.968Z" fill="white" fill-opacity="0.602"/>
<path d="M69.498 80.995V74.967L62 70.616L69.498 80.995Z" fill="white"/>
<path d="M69.498 73.573L76.995 69.22L69.498 65.872V73.573Z" fill="white" fill-opacity="0.2"/>
<path d="M62 69.22L69.498 73.573V65.872L62 69.22Z" fill="white" fill-opacity="0.602"/>
</svg>
