<svg width="96" height="96" viewBox="0 0 96 96" fill="none" xmlns="http://www.w3.org/2000/svg">
<mask id="mask0" mask-type="alpha" maskUnits="userSpaceOnUse" x="0" y="0" width="96" height="96">
<path fill-rule="evenodd" clip-rule="evenodd" d="M96 48C96 21.4903 74.5097 0 48 0C21.4903 0 0 21.4903 0 48C0 74.5097 21.4903 96 48 96C74.5097 96 96 74.5097 96 48ZM69 88C79.4934 88 88 79.4934 88 69C88 58.5066 79.4934 50 69 50C58.5066 50 50 58.5066 50 69C50 79.4934 58.5066 88 69 88Z" fill="#C4C4C4"/>
</mask>
<g mask="url(#mask0)">
<path d="M48 96C74.5091 96 96 74.5091 96 48C96 21.4909 74.5091 0 48 0C21.4909 0 0 21.4909 0 48C0 74.5091 21.4909 96 48 96Z" fill="url(#paint0_linear)"/>
<path d="M72.4941 50.6727H23.5069C22.7219 50.675 21.9698 50.9878 21.4147 51.5427C20.8596 52.0976 20.5465 52.8496 20.5439 53.6345C20.546 54.4198 20.8587 55.1724 21.4139 55.7278C21.9691 56.2832 22.7216 56.5962 23.5069 56.5985H35.8145L44.1545 78.6229C44.3782 79.2085 44.7814 79.7083 45.3063 80.051C45.8312 80.3936 46.4509 80.5616 47.077 80.5309C47.7031 80.5616 48.3229 80.3936 48.8478 80.051C49.3727 79.7083 49.7758 79.2085 49.9996 78.6229L58.3396 56.5974H72.4952C73.2803 56.5951 74.0326 56.2822 74.5878 55.7271C75.1429 55.1719 75.4558 54.4196 75.4581 53.6345C75.4558 52.8494 75.1429 52.0971 74.5878 51.542C74.0326 50.9868 73.2803 50.6739 72.4952 50.6716L72.4941 50.6727ZM47.0759 69.6065L42.1494 56.5964H52.0025L47.0759 69.6054V69.6065ZM23.5069 45.1418H72.4952C73.2805 45.1395 74.033 44.8265 74.5881 44.2711C75.1433 43.7157 75.4561 42.9631 75.4581 42.1778C75.4558 41.3927 75.1429 40.6404 74.5878 40.0853C74.0326 39.5301 73.2803 39.2172 72.4952 39.2149H64.9221L71.029 23.0858C71.305 22.3508 71.2788 21.5364 70.9563 20.8206C70.6337 20.1047 70.041 19.5457 69.3076 19.2654C68.5724 18.9896 67.7579 19.0159 67.0421 19.3386C66.3262 19.6614 65.7672 20.2544 65.4872 20.988L58.5839 39.2149H35.5669L28.6647 20.988C28.3844 20.2546 27.8254 19.6618 27.1096 19.339C26.3939 19.0163 25.5795 18.9899 24.8443 19.2654C24.1109 19.5457 23.5182 20.1047 23.1956 20.8206C22.8731 21.5364 22.8469 22.3508 23.1229 23.0858L29.2309 39.2149H23.5069C22.7217 39.2172 21.9695 39.5301 21.4143 40.0853C20.8591 40.6404 20.5462 41.3927 20.5439 42.1778C20.5462 42.9629 20.8591 43.7152 21.4143 44.2704C21.9695 44.8255 22.7217 45.1384 23.5069 45.1407V45.1418Z" fill="white"/>
</g>
<circle cx="69" cy="69" r="16" fill="#F3BA2F"/>
<g clip-path="url(#clip0)">
<path d="M65.4169 67.4436L68.8571 64.0034L72.299 67.4451L74.3007 65.4434L68.8571 60L63.4153 65.4418L65.4169 67.4435L65.4169 67.4436ZM60 68.8571L62.0018 66.855L64.0034 68.8567L62.0016 70.8584L60 68.8571ZM65.4169 70.2707L68.8571 73.7108L72.2989 70.2691L74.3017 72.2698L74.3007 72.2708L68.8571 77.7142L63.4153 72.2724L63.4125 72.2695L65.4171 70.2705L65.4169 70.2707ZM73.7108 68.8579L75.7126 66.8562L77.7142 68.8578L75.7125 70.8596L73.7108 68.8579Z" fill="white"/>
<path d="M70.8871 68.8558H70.888L68.857 66.8246L67.3557 68.3254L67.1832 68.4979L66.8275 68.8537L66.8247 68.8565L66.8275 68.8594L68.857 70.8891L70.8881 68.8579L70.8891 68.8568L70.8873 68.8558" fill="white"/>
</g>
<defs>
<linearGradient id="paint0_linear" x1="10.0996" y1="78.1855" x2="84.8487" y2="18.6513" gradientUnits="userSpaceOnUse">
<stop stop-color="#F8B342"/>
<stop offset="1" stop-color="#F2C35E"/>
</linearGradient>
<clipPath id="clip0">
<rect width="17.7143" height="17.7142" fill="white" transform="translate(60 60)"/>
</clipPath>
</defs>
</svg>
