<svg width="96" height="96" viewBox="0 0 96 96" fill="none" xmlns="http://www.w3.org/2000/svg">
<mask id="mask0" mask-type="alpha" maskUnits="userSpaceOnUse" x="0" y="0" width="96" height="96">
<path fill-rule="evenodd" clip-rule="evenodd" d="M96 48C96 21.4903 74.5097 0 48 0C21.4903 0 0 21.4903 0 48C0 74.5097 21.4903 96 48 96C74.5097 96 96 74.5097 96 48ZM69 88C79.4934 88 88 79.4934 88 69C88 58.5066 79.4934 50 69 50C58.5066 50 50 58.5066 50 69C50 79.4934 58.5066 88 69 88Z" fill="#C4C4C4"/>
</mask>
<g mask="url(#mask0)">
<path fill-rule="evenodd" clip-rule="evenodd" d="M48 0C74.5056 0 96 21.4944 96 48C96 74.5056 74.5056 96 48 96C21.4944 96 0 74.5056 0 48C0 21.4944 21.4944 0 48 0Z" fill="#006AE3"/>
<path d="M46.0223 68.2368V28.3008H50.3711V68.2368H46.0223Z" fill="white"/>
<path d="M68.1601 41.6064L54.7297 45.168L51.7345 31.2288L55.7281 30.3264L57.3025 36.9312C57.3025 36.9312 60.9313 30.9792 56.0929 24.816C53.2417 21.648 51.8881 21.5136 48.6913 21.0144C45.8785 20.6112 39.3409 21.5616 37.3921 29.1936C36.5665 34.1088 37.4977 37.7472 43.8337 42.5088L43.4785 47.808C43.4785 47.808 36.4033 42.8256 34.5793 39.3312C33.1681 36.5664 30.7489 31.104 35.1169 23.5008C37.4689 19.6992 42.1057 16.0512 50.2753 16.4352C54.3841 16.608 64.4161 21.6288 62.8609 33.36C62.5921 35.5584 61.4497 38.4864 61.4497 38.4864L66.9601 37.2576L68.1601 41.6064Z" fill="white"/>
<path d="M60.4895 72.8544C58.0319 76.5888 53.2991 80.112 45.1487 79.5168C41.0399 79.2384 31.1519 73.9488 33.0143 62.2656C33.3407 60.0768 34.5599 57.1872 34.5599 57.1872L29.0207 58.2624L27.9359 53.8944L41.4623 50.688L44.0927 64.704L40.0703 65.5008L38.6687 58.848C38.6687 58.848 34.8863 64.6944 39.5519 70.992C42.3167 74.2368 43.6607 74.4 46.8575 74.9856C49.6511 75.4656 56.2175 74.6784 58.3679 67.104C59.3183 62.2176 58.4831 58.5504 52.2815 53.616L52.7807 48.3264C52.7807 48.3264 59.7215 53.4912 61.4495 57.0336C62.7743 59.8464 65.0495 65.376 60.4895 72.8544Z" fill="white"/>
</g>
<path d="M69 85C77.8366 85 85 77.8366 85 69C85 60.1634 77.8366 53 69 53C60.1634 53 53 60.1634 53 69C53 77.8366 60.1634 85 69 85Z" fill="#627EEA"/>
<path d="M69.498 57V65.87L76.995 69.22L69.498 57Z" fill="white" fill-opacity="0.602"/>
<path d="M69.498 57L62 69.22L69.498 65.87V57Z" fill="white"/>
<path d="M69.498 74.968V80.995L77 70.616L69.498 74.968Z" fill="white" fill-opacity="0.602"/>
<path d="M69.498 80.995V74.967L62 70.616L69.498 80.995Z" fill="white"/>
<path d="M69.498 73.573L76.995 69.22L69.498 65.872V73.573Z" fill="white" fill-opacity="0.2"/>
<path d="M62 69.22L69.498 73.573V65.872L62 69.22Z" fill="white" fill-opacity="0.602"/>
</svg>
