<svg width="96" height="96" viewBox="0 0 96 96" fill="none" xmlns="http://www.w3.org/2000/svg">
<mask id="mask0" mask-type="alpha" maskUnits="userSpaceOnUse" x="0" y="0" width="96" height="96">
<path fill-rule="evenodd" clip-rule="evenodd" d="M96 48C96 21.4903 74.5097 0 48 0C21.4903 0 0 21.4903 0 48C0 74.5097 21.4903 96 48 96C74.5097 96 96 74.5097 96 48ZM69 88C79.4934 88 88 79.4934 88 69C88 58.5066 79.4934 50 69 50C58.5066 50 50 58.5066 50 69C50 79.4934 58.5066 88 69 88Z" fill="#C4C4C4"/>
</mask>
<g mask="url(#mask0)">
<path fill-rule="evenodd" clip-rule="evenodd" d="M39.5301 0.812113C7.92411 6.66158 -9.18251 40.8135 5.08574 69.5771C9.84372 79.1681 17.3049 86.6108 26.8487 91.2865C34.5069 95.0388 38.8323 96 48.0547 96C56.6973 96 61.1055 95.1119 68.0274 91.9771C81.4211 85.9107 91.9745 72.9667 95.1501 58.7101C96.6182 52.1183 96.1194 39.7299 94.1537 33.9543C86.0787 10.2303 63.3042 -3.58729 39.5301 0.812113ZM56.2193 23.5408C60.5365 25.7818 64.1491 27.5352 64.2476 27.4375C64.3454 27.3391 64.0304 25.9464 63.5473 24.3424L62.6689 21.4265L65.1619 20.43C66.5334 19.8819 67.7679 19.4334 67.9056 19.4334C68.2604 19.4334 73.9612 36.6437 73.8608 37.4094C73.8147 37.7564 70.4762 39.2071 66.4412 40.6325C55.5683 44.475 56.3437 44.3286 55.7167 42.6553C54.1621 38.5057 54.121 38.6186 57.6704 37.2701L60.9994 36.0054L54.3692 32.6732L47.7389 29.3417L40.6598 33.058L33.5806 36.7737L33.3981 41.1352L33.2156 45.4961L28.9533 46.9304L24.691 48.3647V39.9677V31.5707L35.5835 25.549C41.5741 22.237 46.9023 19.5135 47.4232 19.4965C47.9442 19.4794 51.9027 21.2991 56.2193 23.5408ZM70.1422 56.1739L70.1283 64.5312L58.7615 70.7288L47.3948 76.9265L39.5036 72.7787C35.1636 70.4974 31.3617 68.631 31.0554 68.631C30.7485 68.631 30.8969 69.9549 31.3844 71.5734C31.8719 73.1919 32.199 74.5688 32.1118 74.6331C31.7689 74.8873 27.6317 76.1999 27.1751 76.1999C26.6416 76.1999 20.6207 58.6105 21.0179 58.2137C21.1536 58.0781 24.3797 56.8456 28.1873 55.4751C31.995 54.1038 35.8999 52.6752 36.8654 52.2999C38.4535 51.6831 38.6783 51.7701 39.2283 53.2145C40.8391 57.4461 40.7766 57.6606 37.6806 58.5266C36.0931 58.9706 34.7942 59.5988 34.7942 59.9224C34.7942 60.5903 46.154 66.1131 47.4965 66.0979C47.977 66.0923 51.2119 64.5779 54.6849 62.7323L60.9994 59.3762L61.1819 54.9944L61.365 50.6127L64.9706 49.2957C66.954 48.571 68.9323 47.9421 69.3661 47.8974C69.9628 47.8362 70.1523 49.859 70.1422 56.1739Z" fill="#2A5BDB"/>
<path d="M64.0492 27.0041C63.9507 27.1019 60.3381 25.3484 56.0209 23.1074C51.7043 20.8658 47.7458 19.0461 47.2248 19.0631C46.7039 19.0801 41.3757 21.8037 35.3851 25.1157L24.4926 31.1373V39.5343V47.9314L28.7549 46.4971L33.0172 45.0628L33.1997 40.7018L33.3822 36.3403L40.4614 32.6246L47.5405 28.9083L54.1708 32.2399L60.801 35.5721L57.472 36.8367C53.9226 38.1852 53.9637 38.0723 55.5183 42.2219C56.1453 43.8953 55.3699 44.0416 66.2428 40.1992C70.2778 38.7737 73.6163 37.323 73.6624 36.9761C73.7628 36.2104 68.062 19 67.7072 19C67.5695 19 66.335 19.4485 64.9635 19.9966L62.4705 20.9932L63.3489 23.9091C63.832 25.513 64.147 26.9057 64.0492 27.0041Z" fill="white"/>
<path d="M69.9299 64.0978L69.9438 55.7405C69.9539 49.4256 69.7644 47.4028 69.1677 47.464C68.7339 47.5088 66.7556 48.1376 64.7722 48.8623L61.1666 50.1793L60.9835 54.5611L60.801 58.9428L54.4865 62.299C51.0135 64.1445 47.7786 65.6589 47.2981 65.6646C45.9556 65.6797 34.5958 60.157 34.5958 59.489C34.5958 59.1655 35.8947 58.5372 37.4822 58.0932C40.5782 57.2272 40.6407 57.0127 39.0299 52.7811C38.4799 51.3367 38.2551 51.2497 36.667 51.8666C35.7015 52.2418 31.7966 53.6705 27.989 55.0417C24.1813 56.4123 20.9552 57.6447 20.8195 57.7803C20.4223 58.1771 26.4432 75.7665 26.9767 75.7665C27.4333 75.7665 31.5705 74.4539 31.9134 74.1997C32.0006 74.1354 31.6735 72.7585 31.186 71.14C30.6985 69.5215 30.5501 68.1976 30.857 68.1976C31.1633 68.1976 34.9652 70.064 39.3052 72.3454L47.1964 76.4931L58.5631 70.2955L69.9299 64.0978Z" fill="white"/>
</g>
<path d="M69 85C77.8366 85 85 77.8366 85 69C85 60.1634 77.8366 53 69 53C60.1634 53 53 60.1634 53 69C53 77.8366 60.1634 85 69 85Z" fill="#627EEA"/>
<path d="M69.498 57V65.87L76.995 69.22L69.498 57Z" fill="white" fill-opacity="0.602"/>
<path d="M69.498 57L62 69.22L69.498 65.87V57Z" fill="white"/>
<path d="M69.498 74.968V80.995L77 70.616L69.498 74.968Z" fill="white" fill-opacity="0.602"/>
<path d="M69.498 80.995V74.967L62 70.616L69.498 80.995Z" fill="white"/>
<path d="M69.498 73.573L76.995 69.22L69.498 65.872V73.573Z" fill="white" fill-opacity="0.2"/>
<path d="M62 69.22L69.498 73.573V65.872L62 69.22Z" fill="white" fill-opacity="0.602"/>
</svg>
