<svg width="96" height="96" viewBox="0 0 96 96" fill="none" xmlns="http://www.w3.org/2000/svg">
<mask id="mask0" mask-type="alpha" maskUnits="userSpaceOnUse" x="0" y="0" width="96" height="96">
<path fill-rule="evenodd" clip-rule="evenodd" d="M96 48C96 21.4903 74.5097 0 48 0C21.4903 0 0 21.4903 0 48C0 74.5097 21.4903 96 48 96C74.5097 96 96 74.5097 96 48ZM69 88C79.4934 88 88 79.4934 88 69C88 58.5066 79.4934 50 69 50C58.5066 50 50 58.5066 50 69C50 79.4934 58.5066 88 69 88Z" fill="#C4C4C4"/>
</mask>
<g mask="url(#mask0)">
<path d="M74.1879 64.6067C77.6577 69.2625 81.236 74.0266 84.8143 78.7906C77.6577 87.236 68.7663 92.6497 58.0314 94.9235C46.1039 97.4138 34.8269 95.5731 23.8752 89.5098C33.6341 82.2554 43.1762 75.1093 52.8267 67.9632C54.9953 70.0204 57.0556 72.0776 59.1158 74.0266C61.3929 76.1921 60.5254 76.3003 63.4531 74.6762C67.4651 72.4025 70.8265 69.2625 73.4289 65.4729C73.5373 65.2564 73.7542 65.0398 73.8626 64.8233C73.7542 64.8233 73.8626 64.8233 74.1879 64.6067ZM31.5739 74.1348C28.8631 76.1921 26.3691 78.0327 23.8752 79.9816C22.0318 81.3892 20.1885 82.6885 18.3451 84.0961C17.5861 84.7457 17.0439 84.7457 16.1765 83.9878C7.9356 76.6252 2.73083 67.5301 0.779044 56.7027C-1.17274 45.767 0.562179 35.3727 5.76694 25.5198C5.87538 25.3032 6.09224 24.9784 6.20067 24.7618C6.20067 24.6536 6.3091 24.6536 6.52597 24.5453C13.6825 33.9651 20.9475 43.385 28.1041 52.8048C27.8872 53.1297 27.7788 53.3462 27.5619 53.5628C25.3932 55.8365 23.2246 58.1103 20.9475 60.2758C20.2969 60.9254 20.1885 61.4668 20.6222 62.2247C22.8993 66.5557 26.0438 70.1287 29.9474 73.0521C30.4896 73.3769 30.9233 73.7018 31.5739 74.1348ZM72.0192 6.89662C68.5494 9.38692 65.0796 11.8772 61.6097 14.2593C55.6459 18.4819 49.6821 22.8129 43.8268 27.0356C43.0678 27.577 42.5256 27.6852 41.875 26.9273C39.9232 24.8701 37.863 23.0295 35.9112 20.9723C35.369 20.4309 34.8269 20.3226 34.0678 20.6474C29.4052 23.0295 25.7185 26.386 22.6824 30.6086C22.4656 30.8252 22.2487 31.15 22.0318 31.4748C20.2969 29.2011 18.6704 27.1439 17.0439 24.9784C15.309 22.7046 13.6825 20.4309 12.056 18.2654C11.5139 17.5075 11.4054 16.9661 12.1645 16.2082C20.5138 7.00489 30.8149 1.59119 43.1762 0.291897C52.9351 -0.790845 62.2603 1.15809 70.9349 5.81388C71.2602 6.03043 71.5855 6.1387 71.9108 6.35525C71.9108 6.68007 71.9108 6.78834 72.0192 6.89662ZM89.6938 71.8611C87.4167 68.9377 85.3565 66.2308 83.2962 63.524C78.5252 57.2441 73.7542 50.8559 68.8747 44.576C68.2241 43.7098 68.2241 43.1684 68.9831 42.4105C71.0434 40.3533 72.9951 38.2961 75.0554 36.2389C75.5975 35.6975 75.8144 35.1562 75.3807 34.3982C72.9951 29.8507 69.7422 26.0611 65.5133 23.0295C65.188 22.8129 64.8627 22.4881 64.429 22.2715C64.7543 21.9467 65.0796 21.7302 65.2964 21.5136C69.4169 18.3737 73.5373 15.342 77.6577 12.202C78.3083 11.6607 78.8505 11.4441 79.6095 12.202C89.9106 21.5136 95.4407 33.099 95.9828 47.0663C96.1997 55.1869 94.3564 62.8743 90.6696 70.1287C90.3443 70.5618 90.0191 71.1032 89.6938 71.8611Z" fill="#231815"/>
</g>
<path d="M69 85C77.8366 85 85 77.8366 85 69C85 60.1634 77.8366 53 69 53C60.1634 53 53 60.1634 53 69C53 77.8366 60.1634 85 69 85Z" fill="#627EEA"/>
<path d="M69.498 57V65.87L76.995 69.22L69.498 57Z" fill="white" fill-opacity="0.602"/>
<path d="M69.498 57L62 69.22L69.498 65.87V57Z" fill="white"/>
<path d="M69.498 74.968V80.995L77 70.616L69.498 74.968Z" fill="white" fill-opacity="0.602"/>
<path d="M69.498 80.995V74.967L62 70.616L69.498 80.995Z" fill="white"/>
<path d="M69.498 73.573L76.995 69.22L69.498 65.872V73.573Z" fill="white" fill-opacity="0.2"/>
<path d="M62 69.22L69.498 73.573V65.872L62 69.22Z" fill="white" fill-opacity="0.602"/>
</svg>
