<svg width="20" height="20" viewBox="0 0 20 20" fill="none" xmlns="http://www.w3.org/2000/svg">
<circle cx="10" cy="10" r="9" fill="#D1A700" stroke="#212121" stroke-width="2"/>
<path d="M10 4C6.688 4 4 6.688 4 10C4 13.312 6.688 16 10 16C13.312 16 16 13.312 16 10C16 6.688 13.312 4 10 4ZM5.2 10C5.2 7.348 7.348 5.2 10 5.2C11.11 5.2 12.13 5.578 12.94 6.214L6.214 12.94C5.578 12.13 5.2 11.11 5.2 10ZM10 14.8C8.89 14.8 7.87 14.422 7.06 13.786L13.786 7.06C14.422 7.87 14.8 8.89 14.8 10C14.8 12.652 12.652 14.8 10 14.8Z" fill="black"/>
</svg>
