<svg width="24" height="24" viewBox="0 0 24 24" fill="none" xmlns="http://www.w3.org/2000/svg">
<rect width="24" height="24" rx="12" fill="#9747FF"/>
<path d="M18.5 11.5C18.498 9.7767 17.8126 8.12455 16.594 6.906C15.3754 5.68744 13.7233 5.00198 12 5C10.2767 5.00198 8.62456 5.68744 7.406 6.906C6.18744 8.12455 5.50199 9.7767 5.5 11.5C5.49986 11.5755 5.51696 11.6501 5.55 11.718C5.58303 11.7859 5.63113 11.8454 5.69063 11.8919C5.69345 11.8949 5.69659 11.8976 5.7 11.9L11.5 16.25V17.5H11C10.8674 17.5 10.7402 17.5527 10.6464 17.6464C10.5527 17.7402 10.5 17.8674 10.5 18C10.5 18.1326 10.5527 18.2598 10.6464 18.3536C10.7402 18.4473 10.8674 18.5 11 18.5H13C13.1326 18.5 13.2598 18.4473 13.3536 18.3536C13.4473 18.2598 13.5 18.1326 13.5 18C13.5 17.8674 13.4473 17.7402 13.3536 17.6464C13.2598 17.5527 13.1326 17.5 13 17.5H12.5V16.25L18.3 11.9C18.3621 11.8534 18.4125 11.793 18.4472 11.7236C18.4819 11.6542 18.5 11.5776 18.5 11.5ZM17.4775 11H14.9894C14.8931 8.62812 14.12 7.09812 13.42 6.1875C14.5067 6.47966 15.4779 7.09737 16.2032 7.95766C16.9285 8.81794 17.3732 9.8796 17.4775 11ZM12 6.125C12.3349 6.42093 12.6269 6.76214 12.8675 7.13875C13.3431 7.875 13.9031 9.11688 13.9888 11H10.0113C10.0969 9.11688 10.6569 7.875 11.1325 7.14125C11.373 6.76377 11.6649 6.42172 12 6.125ZM13.65 12L12 14.9706L10.35 12H13.65ZM9.20563 12L10.4244 14.1931L7.5 12H9.20563ZM14.7944 12H16.5L13.5756 14.1931L14.7944 12ZM10.58 6.1875C9.88 7.09812 9.10688 8.62812 9.01063 11H6.5225C6.6268 9.8796 7.07148 8.81794 7.7968 7.95766C8.52212 7.09737 9.49334 6.47966 10.58 6.1875Z" fill="white"/>
</svg>
