<svg width="342" height="454" viewBox="0 0 342 454" fill="none" xmlns="http://www.w3.org/2000/svg">
<g clip-path="url(#clip0_35_115)">
<rect width="342" height="454" rx="12" fill="url(#paint0_linear_35_115)"/>
<path opacity="0.1" d="M208.978 -48.6133C218.024 -51.037 222.75 -52.3014 226.697 -52.8908L227.477 -52.9999C254.882 -56.5619 281.34 -41.8048 292.757 -16.7501L293.29 -15.5493C294.523 -12.6881 295.579 -9.31679 297.174 -3.74622L298.974 2.6201L326.637 100.923C335.373 131.97 341.895 155.156 344.432 173.552C346.925 191.633 345.543 204.928 338.733 216.41L338.405 216.955C331.312 228.562 320.03 235.993 302.53 242.117C287.193 247.485 267.201 251.81 241.264 257.087L229.781 259.411L204.044 264.612L204.002 264.621L203.96 264.634L187.305 269.531C156.377 278.626 133.279 285.415 114.922 288.166C96.8788 290.87 83.5719 289.646 72.0129 282.975L71.4648 282.654C59.778 275.702 52.2135 264.515 45.8793 247.097C40.3282 231.832 35.7621 211.903 30.1723 186.044L27.7079 174.594L25.2491 163.146L25.2393 163.098L25.2238 163.052L18.8037 142.955C9.02775 112.356 1.72937 89.5036 -1.44056 71.274C-4.55603 53.3573 -3.65268 40.0613 2.70756 28.3693L3.0147 27.8139C9.65234 15.9872 20.6064 8.15155 37.7916 1.37191C52.8524 -4.56962 72.581 -9.65736 98.1883 -15.9245L109.526 -18.6885L134.032 -24.6512L134.067 -24.6596L134.1 -24.6706L208.978 -48.6133Z" stroke="#C8C8C8" stroke-width="2"/>
<path opacity="0.1" d="M218.249 -87.3993C242.174 -93.81 254.286 -97.0403 264.699 -96.4961L265.703 -96.4312C284.139 -95.0221 301.004 -85.5674 311.825 -70.6109L312.336 -69.8944C317.708 -62.2461 320.991 -52.0536 326.37 -33.1255L328.816 -24.4605L371.118 125.871C379.854 156.917 386.376 180.103 388.913 198.499C391.406 216.579 390.024 229.874 383.215 241.357L382.886 241.902C375.793 253.508 364.511 260.939 347.01 267.064C331.674 272.431 311.682 276.756 285.745 282.033L274.262 284.359L212.312 296.877L212.269 296.885L212.228 296.897L162.067 311.647C131.138 320.742 108.04 327.532 89.6827 330.283C71.6401 332.987 58.3336 331.763 46.7747 325.093L46.2264 324.77C34.5395 317.819 26.9752 306.631 20.6409 289.213C15.0899 273.949 10.5238 254.02 4.93411 228.161L2.46978 216.711L-7.05499 172.362L-7.06575 172.314L-7.08027 172.267L-24.3486 118.216C-34.1245 87.6163 -41.4229 64.7643 -44.5928 46.5347C-47.7083 28.618 -46.805 15.322 -40.4447 3.63004L-40.1376 3.07459C-33.4999 -8.75202 -22.5458 -16.5877 -5.36071 -23.3673C9.70013 -29.3089 29.4288 -34.3966 55.0361 -40.6637L66.374 -43.4277L126.419 -58.0386L126.453 -58.0467L126.487 -58.058L218.249 -87.3993Z" stroke="#C8C8C8" stroke-width="2"/>
<path opacity="0.1" d="M199.937 -4.6687C228.637 -12.3456 258.172 4.28013 266.555 32.6956L266.748 33.3687L282.13 88.0314C288.84 111.877 293.85 129.685 296.26 143.99C298.591 157.832 298.466 168.279 295.151 177.644L294.82 178.546C292.132 185.643 288.18 192.192 283.16 197.878L282.671 198.426C275.789 206.038 266.374 211.096 252.528 215.479C238.666 219.867 220.484 223.542 196.137 228.462L196.094 228.47L196.053 228.483L192.01 229.672C173.074 235.24 158.933 239.397 147.501 241.709C136.437 243.947 128.002 244.436 120.302 242.836L119.559 242.674C107.042 239.836 95.7039 233.236 87.0603 223.774L86.2322 222.85C80.8872 216.762 77.1648 208.974 73.7438 197.836C70.7475 188.08 68.0031 175.827 64.5871 159.988L63.0787 152.977L63.0688 152.929L63.0543 152.883C56.0593 130.987 50.8367 114.637 48.0343 101.423C45.3226 88.6359 44.902 78.8919 47.2885 70.0012L47.5287 69.1432C50.1294 60.1938 54.6869 51.9385 60.8671 44.9729L61.4701 44.3028C67.8767 37.2874 76.5624 32.4051 89.2878 27.9188C100.435 23.9888 114.597 20.3898 132.926 15.9106L141.039 13.9338L144.028 13.2067L144.063 13.1974L144.097 13.1873L199.937 -4.6687Z" stroke="#C8C8C8" stroke-width="2"/>
</g>
<defs>
<linearGradient id="paint0_linear_35_115" x1="171" y1="0" x2="171" y2="454" gradientUnits="userSpaceOnUse">
<stop stop-color="#227745"/>
<stop offset="1" stop-color="#0F2418"/>
</linearGradient>
<clipPath id="clip0_35_115">
<rect width="342" height="454" rx="12" fill="white"/>
</clipPath>
</defs>
</svg>
