<svg width="16" height="16" viewBox="0 0 16 16" fill="none" xmlns="http://www.w3.org/2000/svg">
<rect width="16" height="16" rx="4" fill="url(#paint0_linear_8_33)"/>
<path d="M13 6.66666C13.0002 6.48394 12.9574 6.30373 12.8752 6.14056C12.7929 5.97738 12.6735 5.83581 12.5265 5.72724C12.3795 5.61867 12.2091 5.54614 12.029 5.5155C11.8488 5.48486 11.664 5.49695 11.4894 5.55082C11.3148 5.60468 11.1553 5.69881 11.0237 5.82561C10.8922 5.95241 10.7922 6.10835 10.732 6.28085C10.6717 6.45335 10.6528 6.63759 10.6768 6.81874C10.7007 6.99989 10.7669 7.17287 10.87 7.32375L9.75375 8.69875L8.75 6.39166C8.93307 6.23759 9.06433 6.03095 9.126 5.79976C9.18767 5.56857 9.17676 5.32401 9.09476 5.09922C9.01276 4.87444 8.86362 4.68031 8.66757 4.54314C8.47151 4.40597 8.23802 4.3324 7.99875 4.3324C7.75948 4.3324 7.52599 4.40597 7.32993 4.54314C7.13388 4.68031 6.98474 4.87444 6.90274 5.09922C6.82074 5.32401 6.80983 5.56857 6.8715 5.79976C6.93317 6.03095 7.06443 6.23759 7.2475 6.39166L6.24625 8.6975L5.13 7.3225C5.27339 7.11239 5.34419 6.86118 5.3316 6.60712C5.31902 6.35305 5.22374 6.11007 5.06029 5.91516C4.89683 5.72026 4.67415 5.58411 4.42617 5.52747C4.17818 5.47082 3.91848 5.49678 3.68661 5.60138C3.45474 5.70598 3.26341 5.8835 3.14176 6.1069C3.02011 6.3303 2.97481 6.58734 3.01275 6.83886C3.05069 7.09039 3.1698 7.32262 3.35194 7.5002C3.53408 7.67777 3.76926 7.79095 4.02167 7.8225L4.625 11.4429C4.65094 11.5986 4.73125 11.74 4.85164 11.842C4.97203 11.944 5.1247 12 5.2825 12H10.7175C10.8753 12 11.028 11.944 11.1484 11.842C11.2688 11.74 11.3491 11.5986 11.375 11.4429L11.9779 7.82416C12.2601 7.78892 12.5196 7.65185 12.7079 7.43871C12.8961 7.22556 13 6.95101 13 6.66666ZM8 5C8.09889 5 8.19556 5.02932 8.27779 5.08426C8.36001 5.1392 8.4241 5.21729 8.46194 5.30866C8.49978 5.40002 8.50969 5.50055 8.49039 5.59754C8.4711 5.69453 8.42348 5.78362 8.35355 5.85355C8.28363 5.92348 8.19454 5.9711 8.09755 5.99039C8.00055 6.00968 7.90002 5.99978 7.80866 5.96194C7.7173 5.92409 7.63921 5.86001 7.58427 5.77778C7.52932 5.69556 7.5 5.59889 7.5 5.5C7.5 5.36739 7.55268 5.24021 7.64645 5.14644C7.74021 5.05268 7.86739 5 8 5ZM3.66667 6.66666C3.66667 6.56777 3.69599 6.4711 3.75093 6.38888C3.80587 6.30665 3.88396 6.24257 3.97532 6.20472C4.06669 6.16688 4.16722 6.15698 4.26421 6.17627C4.3612 6.19556 4.45029 6.24318 4.52022 6.31311C4.59015 6.38304 4.63777 6.47213 4.65706 6.56912C4.67635 6.66611 4.66645 6.76664 4.62861 6.85801C4.59076 6.94937 4.52668 7.02746 4.44445 7.0824C4.36223 7.13734 4.26556 7.16666 4.16667 7.16666C4.03406 7.16666 3.90688 7.11399 3.81311 7.02022C3.71934 6.92645 3.66667 6.79927 3.66667 6.66666ZM11.8333 7.16666C11.7344 7.16666 11.6378 7.13734 11.5555 7.0824C11.4733 7.02746 11.4092 6.94937 11.3714 6.85801C11.3336 6.76664 11.3236 6.66611 11.3429 6.56912C11.3622 6.47213 11.4099 6.38304 11.4798 6.31311C11.5497 6.24318 11.6388 6.19556 11.7358 6.17627C11.8328 6.15698 11.9333 6.16688 12.0247 6.20472C12.116 6.24257 12.1941 6.30665 12.2491 6.38888C12.304 6.4711 12.3333 6.56777 12.3333 6.66666C12.3333 6.79927 12.2807 6.92645 12.1869 7.02022C12.0931 7.11399 11.9659 7.16666 11.8333 7.16666Z" fill="white"/>
<defs>
<linearGradient id="paint0_linear_8_33" x1="15.7778" y1="0.222222" x2="0.222222" y2="15.7778" gradientUnits="userSpaceOnUse">
<stop stop-color="#29A874"/>
<stop offset="1" stop-color="#10422E"/>
</linearGradient>
</defs>
</svg>
