<svg width="24" height="24" viewBox="0 0 24 24" fill="none" xmlns="http://www.w3.org/2000/svg">
<rect width="24" height="24" rx="12" fill="#DA8A67"/>
<path d="M12.9613 5.11563C12.8996 5.06439 12.8266 5.02871 12.7482 5.01161C12.6699 4.99452 12.5887 4.9965 12.5113 5.01739C12.4339 5.03829 12.3627 5.07748 12.3036 5.13167C12.2445 5.18586 12.1993 5.25345 12.1719 5.32876L10.7969 9.10438L9.28687 7.64126C9.23616 7.59207 9.17561 7.55419 9.10919 7.53011C9.04278 7.50603 8.97201 7.4963 8.90157 7.50155C8.83112 7.50681 8.76258 7.52693 8.70047 7.5606C8.63837 7.59427 8.5841 7.64072 8.54125 7.69688C7.1875 9.47063 6.5 11.255 6.5 13C6.5 14.4587 7.07946 15.8576 8.11091 16.8891C9.14236 17.9205 10.5413 18.5 12 18.5C13.4587 18.5 14.8576 17.9205 15.8891 16.8891C16.9205 15.8576 17.5 14.4587 17.5 13C17.5 9.28438 14.3256 6.25001 12.9613 5.11563ZM15.4931 13.5838C15.3635 14.3079 15.0151 14.975 14.4948 15.4952C13.9745 16.0154 13.3073 16.3636 12.5831 16.4931C12.5557 16.4978 12.5279 16.5001 12.5 16.5C12.3746 16.5 12.2538 16.4528 12.1615 16.3679C12.0692 16.2829 12.0122 16.1664 12.0018 16.0414C11.9915 15.9164 12.0284 15.7921 12.1054 15.6931C12.1824 15.5941 12.2938 15.5276 12.4175 15.5069C13.4531 15.3325 14.3319 14.4538 14.5075 13.4163C14.5297 13.2855 14.603 13.1689 14.7112 13.0921C14.8193 13.0153 14.9536 12.9847 15.0844 13.0069C15.2152 13.0291 15.3318 13.1023 15.4085 13.2105C15.4853 13.3187 15.516 13.453 15.4937 13.5838H15.4931Z" fill="#FFFFFD"/>
</svg>
