<svg width="24" height="24" viewBox="0 0 24 24" fill="none" xmlns="http://www.w3.org/2000/svg">
<rect width="24" height="24" rx="12" fill="#B03060"/>
<path d="M17.9906 6.94501C17.9758 6.70121 17.8723 6.47127 17.6996 6.29856C17.5269 6.12585 17.2969 6.02232 17.0531 6.00751C16.2669 5.96063 14.2575 6.03251 12.59 7.69938L12.2931 8.00001H8.64749C8.51567 7.99926 8.38501 8.02474 8.26312 8.07496C8.14123 8.12517 8.03054 8.19912 7.93749 8.29251L5.79374 10.4375C5.66227 10.5689 5.57002 10.7343 5.52734 10.9152C5.48465 11.0961 5.49323 11.2853 5.5521 11.4616C5.61097 11.6379 5.71781 11.7943 5.86063 11.9132C6.00345 12.0322 6.17659 12.109 6.36062 12.135L8.76499 12.4706L11.5281 15.2338L11.8637 17.6394C11.8896 17.8234 11.9663 17.9966 12.0854 18.1393C12.2044 18.282 12.3611 18.3885 12.5375 18.4469C12.6403 18.4812 12.7479 18.4987 12.8562 18.4988C12.9874 18.499 13.1174 18.4733 13.2386 18.4231C13.3598 18.3729 13.4699 18.2992 13.5625 18.2063L15.7075 16.0625C15.8009 15.9695 15.8748 15.8588 15.925 15.7369C15.9753 15.615 16.0007 15.4843 16 15.3525V11.7069L16.2981 11.4088C17.9656 9.74126 18.0375 7.73188 17.9906 6.94501ZM8.64749 9.00001H11.2931L8.82249 11.47L6.49999 11.1463L8.64749 9.00001ZM13.2981 8.40938C13.7786 7.92597 14.3566 7.55064 14.9937 7.30846C15.6308 7.06628 16.3122 6.96282 16.9925 7.00501C17.0363 7.68562 16.9339 8.36772 16.6922 9.00548C16.4505 9.64324 16.0751 10.2219 15.5912 10.7025L12 14.2925L9.70749 12L13.2981 8.40938ZM15 15.3525L12.8544 17.5L12.53 15.1769L15 12.7069V15.3525ZM10.365 15.9463C10.0837 16.5625 9.14312 18 6.49999 18C6.36739 18 6.24021 17.9473 6.14644 17.8536C6.05267 17.7598 5.99999 17.6326 5.99999 17.5C5.99999 14.8569 7.43749 13.9163 8.05374 13.6344C8.1135 13.6071 8.17803 13.5919 8.24366 13.5896C8.30929 13.5873 8.37473 13.5979 8.43625 13.6209C8.49777 13.6439 8.55416 13.6788 8.6022 13.7236C8.65024 13.7683 8.68899 13.8221 8.71624 13.8819C8.74349 13.9416 8.75871 14.0062 8.76102 14.0718C8.76333 14.1374 8.75268 14.2029 8.7297 14.2644C8.70672 14.3259 8.67185 14.3823 8.62707 14.4303C8.5823 14.4784 8.5285 14.5171 8.46874 14.5444C8.06687 14.7275 7.17999 15.3169 7.02374 16.9763C8.68312 16.82 9.27374 15.9331 9.45562 15.5313C9.48287 15.4715 9.52162 15.4177 9.56966 15.3729C9.6177 15.3282 9.67409 15.2933 9.73561 15.2703C9.79713 15.2473 9.86257 15.2367 9.9282 15.239C9.99383 15.2413 10.0584 15.2565 10.1181 15.2838C10.1779 15.311 10.2317 15.3498 10.2764 15.3978C10.3212 15.4458 10.3561 15.5022 10.3791 15.5637C10.4021 15.6253 10.4127 15.6907 10.4104 15.7563C10.4081 15.822 10.3929 15.8865 10.3656 15.9463H10.365Z" fill="white"/>
</svg>
