<svg width="24" height="24" viewBox="0 0 24 24" fill="none" xmlns="http://www.w3.org/2000/svg">
<rect width="24" height="24" rx="12" fill="#009688"/>
<path d="M17.0769 6H6.92308C6.67826 6 6.44347 6.10994 6.27036 6.30563C6.09725 6.50133 6 6.76675 6 7.0435V17.4785C6.00004 17.5675 6.02019 17.6549 6.05853 17.7325C6.09687 17.8102 6.15213 17.8755 6.21906 17.9222C6.28599 17.9689 6.36238 17.9955 6.44097 17.9995C6.51955 18.0034 6.59773 17.9846 6.66808 17.9448L8.30769 17.0181L9.94731 17.9448C10.0114 17.9811 10.0821 18 10.1538 18C10.2255 18 10.2963 17.9811 10.3604 17.9448L12 17.0181L13.6396 17.9448C13.7037 17.9811 13.7745 18 13.8462 18C13.9179 18 13.9886 17.9811 14.0527 17.9448L15.6923 17.0181L17.3319 17.9448C17.4023 17.9846 17.4804 18.0034 17.559 17.9995C17.6376 17.9955 17.714 17.9689 17.7809 17.9222C17.8479 17.8755 17.9031 17.8102 17.9415 17.7325C17.9798 17.6549 18 17.5675 18 17.4785V7.0435C18 6.76675 17.9027 6.50133 17.7296 6.30563C17.5565 6.10994 17.3217 6 17.0769 6ZM11.3077 13.8263C11.3077 13.8955 11.2834 13.9618 11.2401 14.0107C11.1968 14.0597 11.1381 14.0871 11.0769 14.0871H8.30769C8.24649 14.0871 8.18779 14.0597 8.14451 14.0107C8.10124 13.9618 8.07692 13.8955 8.07692 13.8263V9.65226C8.07692 9.58307 8.10124 9.51672 8.14451 9.46779C8.18779 9.41887 8.24649 9.39138 8.30769 9.39138H11.0769C11.1381 9.39138 11.1968 9.41887 11.2401 9.46779C11.2834 9.51672 11.3077 9.58307 11.3077 9.65226V13.8263ZM15.6923 13.3045H12.9231C12.8007 13.3045 12.6833 13.2495 12.5967 13.1517C12.5102 13.0539 12.4615 12.9211 12.4615 12.7828C12.4615 12.6444 12.5102 12.5117 12.5967 12.4138C12.6833 12.316 12.8007 12.261 12.9231 12.261H15.6923C15.8147 12.261 15.9321 12.316 16.0187 12.4138C16.1052 12.5117 16.1538 12.6444 16.1538 12.7828C16.1538 12.9211 16.1052 13.0539 16.0187 13.1517C15.9321 13.2495 15.8147 13.3045 15.6923 13.3045ZM15.6923 11.2175H12.9231C12.8007 11.2175 12.6833 11.1625 12.5967 11.0647C12.5102 10.9668 12.4615 10.8341 12.4615 10.6958C12.4615 10.5574 12.5102 10.4247 12.5967 10.3268C12.6833 10.229 12.8007 10.174 12.9231 10.174H15.6923C15.8147 10.174 15.9321 10.229 16.0187 10.3268C16.1052 10.4247 16.1538 10.5574 16.1538 10.6958C16.1538 10.8341 16.1052 10.9668 16.0187 11.0647C15.9321 11.1625 15.8147 11.2175 15.6923 11.2175Z" fill="white"/>
</svg>
