<svg width="24" height="24" viewBox="0 0 24 24" fill="none" xmlns="http://www.w3.org/2000/svg">
<rect width="24" height="24" rx="12" fill="#29A874"/>
<path d="M16.6667 6H7.33333C6.6 6 6 6.6 6 7.33333V16.6667C6 17.4 6.6 18 7.33333 18H16.6667C17.4 18 18 17.4 18 16.6667V7.33333C18 6.6 17.4 6 16.6667 6ZM12.6667 7.33333H16.6667V11.3333H14.6667L15.3333 8.66667L12.6667 9.33333V7.33333ZM7.33333 7.33333H11.3333V9.33333L8.66667 8.66667L9.33333 11.3333H7.33333V7.33333ZM11.3333 16.6667H7.33333V12.6667H9.33333L8.66667 15.3333L11.3333 14.6667V16.6667ZM16.6667 16.6667H12.6667V14.6667L15.3333 15.3333L14.6667 12.6667H16.6667V16.6667ZM13.7533 13.7533L12 13.1467L10.2467 13.7533L10.8533 12L10.2467 10.2467L12 10.8533L13.7533 10.2467L13.1467 12L13.7533 13.7533Z" fill="white"/>
</svg>
