<svg width="24" height="24" viewBox="0 0 24 24" fill="none" xmlns="http://www.w3.org/2000/svg">
<rect width="24" height="24" rx="12" fill="#FF9F0A"/>
<path d="M17 6H7C6.73478 6 6.48043 6.10536 6.29289 6.29289C6.10536 6.48043 6 6.73478 6 7V17C6 17.2652 6.10536 17.5196 6.29289 17.7071C6.48043 17.8946 6.73478 18 7 18H17C17.2652 18 17.5196 17.8946 17.7071 17.7071C17.8946 17.5196 18 17.2652 18 17V7C18 6.73478 17.8946 6.48043 17.7071 6.29289C17.5196 6.10536 17.2652 6 17 6ZM7 7H17V11.8362L15.4569 10.2925C15.2694 10.1051 15.0151 9.99984 14.75 9.99984C14.4849 9.99984 14.2306 10.1051 14.0431 10.2925L7.33562 17H7V7ZM17 17H8.75L14.75 11L17 13.25V17ZM10 11.5C10.2967 11.5 10.5867 11.412 10.8334 11.2472C11.08 11.0824 11.2723 10.8481 11.3858 10.574C11.4994 10.2999 11.5291 9.99834 11.4712 9.70736C11.4133 9.41639 11.2704 9.14912 11.0607 8.93934C10.8509 8.72956 10.5836 8.5867 10.2926 8.52882C10.0017 8.47094 9.70006 8.50065 9.42597 8.61418C9.15189 8.72771 8.91762 8.91997 8.7528 9.16664C8.58797 9.41332 8.5 9.70333 8.5 10C8.5 10.3978 8.65804 10.7794 8.93934 11.0607C9.22064 11.342 9.60218 11.5 10 11.5ZM10 9.5C10.0989 9.5 10.1956 9.52932 10.2778 9.58427C10.36 9.63921 10.4241 9.7173 10.4619 9.80866C10.4998 9.90002 10.5097 10.0006 10.4904 10.0975C10.4711 10.1945 10.4235 10.2836 10.3536 10.3536C10.2836 10.4235 10.1945 10.4711 10.0975 10.4904C10.0006 10.5097 9.90002 10.4998 9.80866 10.4619C9.7173 10.4241 9.63921 10.36 9.58427 10.2778C9.52932 10.1956 9.5 10.0989 9.5 10C9.5 9.86739 9.55268 9.74021 9.64645 9.64645C9.74021 9.55268 9.86739 9.5 10 9.5Z" fill="white"/>
</svg>
