<svg width="24" height="24" viewBox="0 0 24 24" fill="none" xmlns="http://www.w3.org/2000/svg">
<rect width="24" height="24" rx="12" fill="#B03060"/>
<path d="M18.7927 7.10569C18.7282 7.05902 18.6531 7.0266 18.5731 7.0109C18.4931 6.9952 18.4103 6.99662 18.331 7.01506L14.2164 7.97006L10.0871 6.05257C9.97206 5.99928 9.84027 5.98598 9.71558 6.01507L5.40788 7.01506C5.29139 7.0421 5.18798 7.10452 5.11407 7.1924C5.04017 7.28027 5.00002 7.38856 5 7.50006V16.5C5.00001 16.576 5.01867 16.651 5.05456 16.7192C5.09044 16.7875 5.14262 16.8473 5.20711 16.8941C5.2716 16.9408 5.34672 16.9733 5.42676 16.9891C5.5068 17.0048 5.58966 17.0034 5.66904 16.985L9.78356 16.03L13.9129 17.9475C13.9878 17.9818 14.0703 17.9998 14.1538 18C14.1979 18 14.2417 17.9949 14.2844 17.985L18.5921 16.985C18.7086 16.958 18.812 16.8956 18.8859 16.8077C18.9598 16.7198 19 16.6115 19 16.5V7.50006C19 7.42401 18.9814 7.34897 18.9454 7.28063C18.9095 7.21229 18.8573 7.15246 18.7927 7.10569ZM9.84615 15C9.80213 15 9.75828 15.0051 9.71558 15.015L6.07692 15.8594V7.89068L9.78356 7.03006L9.84615 7.05881V15ZM17.9231 16.1094L14.2164 16.97L14.1538 16.9413V9.00005C14.1978 9.00023 14.2417 8.9954 14.2844 8.98568L17.9231 8.14068V16.1094Z" fill="white"/>
</svg>
