<svg width="24" height="24" viewBox="0 0 24 24" fill="none" xmlns="http://www.w3.org/2000/svg">
<rect width="24" height="24" rx="12" fill="#9747FF"/>
<path d="M17 10.1351C17.0005 9.27027 16.788 8.41929 16.3824 7.66125C15.9767 6.90321 15.391 6.2627 14.6796 5.7992C13.9682 5.33571 13.1542 5.06426 12.3132 5.01008C11.4723 4.9559 10.6316 5.12074 9.86934 5.48929C9.10706 5.85784 8.44789 6.41815 7.95305 7.11817C7.4582 7.81819 7.14375 8.63522 7.03888 9.49337C6.93401 10.3515 7.04213 11.223 7.3532 12.0267C7.66427 12.8305 8.1682 13.5406 8.81818 14.0909V18.5331C8.81813 18.6127 8.8379 18.6909 8.87562 18.7605C8.91333 18.83 8.96775 18.8884 9.03368 18.9303C9.09962 18.9721 9.17488 18.996 9.25232 18.9995C9.32977 19.0031 9.40681 18.9863 9.47614 18.9507L12 17.6583L14.5244 18.9536C14.5877 18.9847 14.6571 19.0004 14.7273 18.9997C14.8478 18.9997 14.9634 18.9505 15.0487 18.863C15.1339 18.7755 15.1818 18.6569 15.1818 18.5331V14.0909C15.7505 13.6102 16.2085 13.0061 16.5229 12.3222C16.8372 11.6383 17.0002 10.8914 17 10.1351ZM7.90909 10.1351C7.90909 9.30466 8.14902 8.49283 8.59853 7.80231C9.04805 7.11179 9.68696 6.5736 10.4345 6.25578C11.182 5.93797 12.0045 5.85482 12.7981 6.01684C13.5917 6.17886 14.3206 6.57877 14.8927 7.16601C15.4648 7.75325 15.8545 8.50144 16.0123 9.31596C16.1702 10.1305 16.0891 10.9748 15.7795 11.742C15.4699 12.5093 14.9455 13.1651 14.2728 13.6265C13.6 14.0879 12.8091 14.3341 12 14.3341C10.9154 14.3329 9.87555 13.8901 9.10862 13.1029C8.34169 12.3157 7.91029 11.2484 7.90909 10.1351ZM8.81818 10.1351C8.81818 9.48921 9.00479 8.85779 9.35441 8.32072C9.70404 7.78365 10.201 7.36505 10.7824 7.11786C11.3638 6.87068 12.0035 6.806 12.6207 6.93202C13.238 7.05803 13.8049 7.36908 14.2499 7.82582C14.6949 8.28256 14.9979 8.86448 15.1207 9.498C15.2435 10.1315 15.1804 10.7882 14.9396 11.3849C14.6988 11.9817 14.291 12.4918 13.7677 12.8506C13.2445 13.2095 12.6293 13.401 12 13.401C11.1564 13.4001 10.3476 13.0557 9.75111 12.4434C9.1546 11.8312 8.81908 11.001 8.81818 10.1351Z" fill="white"/>
</svg>
