<svg width="24" height="24" viewBox="0 0 24 24" fill="none" xmlns="http://www.w3.org/2000/svg">
<rect width="24" height="24" rx="12" fill="#0A84FF"/>
<path d="M7.33329 18C6.76663 18 6.36385 17.7472 6.12496 17.2417C5.88607 16.7361 5.9444 16.2667 6.29996 15.8333L9.99996 11.3333V7.33333H9.33329C9.1444 7.33333 8.98607 7.26944 8.85829 7.14167C8.73052 7.01389 8.66663 6.85556 8.66663 6.66667C8.66663 6.47778 8.73052 6.31944 8.85829 6.19167C8.98607 6.06389 9.1444 6 9.33329 6H14.6666C14.8555 6 15.0138 6.06389 15.1416 6.19167C15.2694 6.31944 15.3333 6.47778 15.3333 6.66667C15.3333 6.85556 15.2694 7.01389 15.1416 7.14167C15.0138 7.26944 14.8555 7.33333 14.6666 7.33333H14V11.3333L17.7 15.8333C18.0555 16.2667 18.1138 16.7361 17.875 17.2417C17.6361 17.7472 17.2333 18 16.6666 18H7.33329ZM8.66663 16H15.3333L13.0666 13.3333H10.9333L8.66663 16ZM7.33329 16.6667H16.6666L12.6666 11.8V7.33333H11.3333V11.8L7.33329 16.6667Z" fill="white"/>
</svg>
