<svg width="24" height="24" viewBox="0 0 24 24" fill="none" xmlns="http://www.w3.org/2000/svg">
<rect width="24" height="24" rx="12" fill="#6B8E23"/>
<path d="M15.5 9.59812V9.25C15.5 7.6825 13.1356 6.5 10 6.5C6.86438 6.5 4.5 7.6825 4.5 9.25V11.75C4.5 13.0556 6.14062 14.0931 8.5 14.4038V14.75C8.5 16.3175 10.8644 17.5 14 17.5C17.1356 17.5 19.5 16.3175 19.5 14.75V12.25C19.5 10.9563 17.9113 9.9175 15.5 9.59812ZM18.5 12.25C18.5 13.0763 16.5756 14 14 14C13.7669 14 13.5356 13.9919 13.3075 13.9769C14.6556 13.4856 15.5 12.6875 15.5 11.75V10.6087C17.3669 10.8869 18.5 11.6419 18.5 12.25ZM8.5 13.3906V11.9037C8.99736 11.9686 9.49843 12.0007 10 12C10.5016 12.0007 11.0026 11.9686 11.5 11.9037V13.3906C11.0034 13.464 10.502 13.5005 10 13.5C9.49799 13.5005 8.99662 13.464 8.5 13.3906ZM14.5 10.8706V11.75C14.5 12.2744 13.7244 12.8375 12.5 13.1794V11.7188C13.3069 11.5231 13.99 11.2319 14.5 10.8706ZM10 7.5C12.5756 7.5 14.5 8.42375 14.5 9.25C14.5 10.0763 12.5756 11 10 11C7.42438 11 5.5 10.0763 5.5 9.25C5.5 8.42375 7.42438 7.5 10 7.5ZM5.5 11.75V10.8706C6.01 11.2319 6.69313 11.5231 7.5 11.7188V13.1794C6.27562 12.8375 5.5 12.2744 5.5 11.75ZM9.5 14.75V14.4894C9.66437 14.4956 9.83063 14.5 10 14.5C10.2425 14.5 10.4794 14.4919 10.7119 14.4781C10.9702 14.5706 11.2333 14.649 11.5 14.7131V16.1794C10.2756 15.8375 9.5 15.2744 9.5 14.75ZM12.5 16.3906V14.9C12.9972 14.9668 13.4983 15.0002 14 15C14.5016 15.0007 15.0026 14.9686 15.5 14.9038V16.3906C14.5053 16.5365 13.4947 16.5365 12.5 16.3906ZM16.5 16.1794V14.7188C17.3069 14.5231 17.99 14.2319 18.5 13.8706V14.75C18.5 15.2744 17.7244 15.8375 16.5 16.1794Z" fill="white"/>
</svg>
