<svg width="24" height="24" viewBox="0 0 24 24" fill="none" xmlns="http://www.w3.org/2000/svg">
<rect width="24" height="24" rx="12" fill="#009688"/>
<path d="M10 10.5C10 10.3674 10.0527 10.2402 10.1464 10.1464C10.2402 10.0527 10.3674 10 10.5 10H14.5C14.6326 10 14.7598 10.0527 14.8536 10.1464C14.9473 10.2402 15 10.3674 15 10.5C15 10.6326 14.9473 10.7598 14.8536 10.8536C14.7598 10.9473 14.6326 11 14.5 11H10.5C10.3674 11 10.2402 10.9473 10.1464 10.8536C10.0527 10.7598 10 10.6326 10 10.5ZM10.5 13H14.5C14.6326 13 14.7598 12.9473 14.8536 12.8536C14.9473 12.7598 15 12.6326 15 12.5C15 12.3674 14.9473 12.2402 14.8536 12.1464C14.7598 12.0527 14.6326 12 14.5 12H10.5C10.3674 12 10.2402 12.0527 10.1464 12.1464C10.0527 12.2402 10 12.3674 10 12.5C10 12.6326 10.0527 12.7598 10.1464 12.8536C10.2402 12.9473 10.3674 13 10.5 13ZM18.5 16C18.5 16.5304 18.2893 17.0391 17.9142 17.4142C17.5391 17.7893 17.0304 18 16.5 18H9.5C8.96957 18 8.46086 17.7893 8.08579 17.4142C7.71071 17.0391 7.5 16.5304 7.5 16V8C7.5 7.73478 7.39464 7.48043 7.20711 7.29289C7.01957 7.10536 6.76522 7 6.5 7C6.23478 7 5.98043 7.10536 5.79289 7.29289C5.60536 7.48043 5.5 7.73478 5.5 8C5.5 8.35875 5.80187 8.60125 5.805 8.60375C5.88775 8.66743 5.94849 8.75542 5.97869 8.85538C6.00889 8.95533 6.00705 9.06223 5.97341 9.16108C5.93977 9.25993 5.87602 9.34577 5.79112 9.40655C5.70622 9.46734 5.60442 9.50001 5.5 9.5C5.39188 9.50019 5.28669 9.46483 5.20062 9.39937C5.12812 9.34625 4.5 8.85062 4.5 8C4.5 7.46957 4.71071 6.96086 5.08579 6.58579C5.46086 6.21071 5.96957 6 6.5 6H15C15.5304 6 16.0391 6.21071 16.4142 6.58579C16.7893 6.96086 17 7.46957 17 8V14.5H17.5C17.6082 14.5 17.7135 14.5351 17.8 14.6C17.875 14.6538 18.5 15.1494 18.5 16ZM10.0163 14.8425C10.0504 14.7417 10.1156 14.6542 10.2025 14.5927C10.2894 14.5312 10.3935 14.4987 10.5 14.5H16V8C16 7.73478 15.8946 7.48043 15.7071 7.29289C15.5196 7.10536 15.2652 7 15 7H8.23063C8.40746 7.30357 8.50043 7.64868 8.5 8V16C8.5 16.2652 8.60536 16.5196 8.79289 16.7071C8.98043 16.8946 9.23478 17 9.5 17C9.76522 17 10.0196 16.8946 10.2071 16.7071C10.3946 16.5196 10.5 16.2652 10.5 16C10.5 15.6413 10.1981 15.3987 10.195 15.3962C10.1098 15.3353 10.0464 15.2486 10.0142 15.1489C9.98205 15.0492 9.98276 14.9418 10.0163 14.8425ZM17.5 16C17.4937 15.8147 17.4223 15.6377 17.2981 15.5H11.4231C11.4734 15.6619 11.4989 15.8305 11.4988 16C11.4992 16.3512 11.4067 16.6962 11.2306 17H16.5C16.7652 17 17.0196 16.8946 17.2071 16.7071C17.3946 16.5196 17.5 16.2652 17.5 16Z" fill="white"/>
</svg>
