<svg width="24" height="24" viewBox="0 0 24 24" fill="none" xmlns="http://www.w3.org/2000/svg">
<rect width="24" height="24" rx="12" fill="#FF707E"/>
<path d="M13.5667 9.7C13.4333 9.36667 13.2361 9.10556 12.975 8.91667C12.7139 8.72778 12.4 8.63334 12.0333 8.63334C11.8334 8.63334 11.6389 8.66111 11.45 8.71667C11.2611 8.77222 11.0889 8.87778 10.9334 9.03334L9.96668 8.06667C10.1222 7.91111 10.3333 7.76945 10.6 7.64167C10.8667 7.51389 11.1111 7.43334 11.3334 7.4V6H12.6667V7.36667C13.1667 7.46667 13.6056 7.66945 13.9833 7.975C14.3611 8.28056 14.6445 8.67778 14.8334 9.16667L13.5667 9.7ZM17.2 19.0667L14.1334 16C13.9667 16.1667 13.7389 16.3028 13.45 16.4083C13.1611 16.5139 12.9 16.5778 12.6667 16.6V18H11.3334V16.5667C10.7111 16.4111 10.1917 16.1278 9.77502 15.7167C9.35835 15.3056 9.05557 14.7889 8.86668 14.1667L10.2 13.6333C10.3333 14.1 10.5584 14.5 10.875 14.8333C11.1917 15.1667 11.6111 15.3333 12.1333 15.3333C12.3334 15.3333 12.5167 15.3083 12.6834 15.2583C12.85 15.2083 13.0111 15.1333 13.1667 15.0333L4.93335 6.8L5.86668 5.86667L18.1334 18.1333L17.2 19.0667Z" fill="#E3E3E3"/>
</svg>
