<svg width="163" height="36" viewBox="0 0 163 36" fill="none" xmlns="http://www.w3.org/2000/svg">
<rect width="163" height="36" rx="18" fill="black" fill-opacity="0.4"/>
<path d="M23.9999 11.3333C20.3199 11.3333 17.3333 14.3199 17.3333 17.9999C17.3333 21.6799 20.3199 24.6666 23.9999 24.6666C27.6799 24.6666 30.6666 21.6799 30.6666 17.9999C30.6666 14.3199 27.6799 11.3333 23.9999 11.3333ZM24.6666 22.6666H23.3333V21.3333H24.6666V22.6666ZM26.0466 17.4999L25.4466 18.1133C25.1133 18.4533 24.8733 18.7599 24.7533 19.2399C24.6999 19.4533 24.6666 19.6933 24.6666 19.9999H23.3333V19.6666C23.3333 19.3599 23.3866 19.0666 23.4799 18.7933C23.6133 18.4066 23.8333 18.0599 24.1133 17.7799L24.9399 16.9399C25.2466 16.6466 25.3933 16.2066 25.3066 15.7399C25.2199 15.2599 24.8466 14.8533 24.3799 14.7199C23.6399 14.5133 22.9533 14.9333 22.7333 15.5666C22.6533 15.8133 22.4466 15.9999 22.1866 15.9999H21.9866C21.5999 15.9999 21.3333 15.6266 21.4399 15.2533C21.7266 14.2733 22.5599 13.5266 23.5933 13.3666C24.6066 13.2066 25.5733 13.7333 26.1733 14.5666C26.9599 15.6533 26.7266 16.8199 26.0466 17.4999Z" fill="white"/>
<path d="M40.2354 23H42.0834L45.8914 12.766H44.0294L41.8174 18.66C41.6214 19.178 41.4114 19.808 41.1594 20.704C40.9354 19.878 40.7394 19.276 40.5154 18.66L38.2754 12.766H36.3714L40.2354 23ZM47.7702 14.698C48.3302 14.698 48.7922 14.236 48.7922 13.662C48.7922 13.088 48.3302 12.64 47.7702 12.64C47.1822 12.64 46.7202 13.088 46.7202 13.662C46.7202 14.236 47.1822 14.698 47.7702 14.698ZM46.9162 23H48.6242V16.084H46.9162V23ZM49.8568 20.9C49.8568 22.258 50.9488 23.182 52.6708 23.182C54.3788 23.182 55.5688 22.314 55.5688 20.914C55.5688 19.85 54.9808 19.318 53.8188 19.052L52.5728 18.758C51.9848 18.618 51.6768 18.366 51.6768 17.974C51.6768 17.456 52.0688 17.148 52.7408 17.148C53.3988 17.148 53.7908 17.526 53.8048 18.114H55.4288C55.4148 16.77 54.3648 15.874 52.8108 15.874C51.2148 15.874 50.0668 16.686 50.0668 18.044C50.0668 19.15 50.6688 19.738 51.9148 20.018L53.1608 20.312C53.7768 20.452 53.9588 20.704 53.9588 21.054C53.9588 21.558 53.5248 21.88 52.7268 21.88C51.9428 21.88 51.4948 21.502 51.4808 20.9H49.8568ZM57.7233 14.698C58.2833 14.698 58.7453 14.236 58.7453 13.662C58.7453 13.088 58.2833 12.64 57.7233 12.64C57.1353 12.64 56.6733 13.088 56.6733 13.662C56.6733 14.236 57.1353 14.698 57.7233 14.698ZM56.8693 23H58.5773V16.084H56.8693V23ZM62.694 23V17.512H64.038V16.084H62.694V13.928H60.986V16.084H59.656V17.512H60.986V23H62.694ZM70.9172 23V18.66H75.4532V23H77.2452V12.766H75.4532V16.994H70.9172V12.766H69.1252V23H70.9172ZM82.3578 23.182C84.1638 23.182 85.4238 22.272 85.7178 20.76H84.1358C83.9398 21.418 83.3238 21.782 82.3858 21.782C81.2518 21.782 80.6078 21.166 80.4818 19.948L85.6898 19.934V19.416C85.6898 17.26 84.3738 15.874 82.3018 15.874C80.2718 15.874 78.8578 17.372 78.8578 19.542C78.8578 21.684 80.2998 23.182 82.3578 23.182ZM82.3158 17.274C83.3378 17.274 83.9958 17.904 83.9958 18.856H80.5238C80.6918 17.82 81.3078 17.274 82.3158 17.274ZM88.7788 23V12.584H87.0848V23H88.7788ZM90.5705 26.206H92.2785V22.076C92.7125 22.776 93.6085 23.182 94.6445 23.182C96.7025 23.182 97.8785 21.614 97.8785 19.458C97.8785 17.288 96.5905 15.874 94.6445 15.874C93.5945 15.874 92.6845 16.336 92.2645 17.134L92.1525 16.084H90.5705V26.206ZM92.2925 19.542C92.2925 18.296 93.0625 17.428 94.2385 17.428C95.4425 17.428 96.1565 18.31 96.1565 19.542C96.1565 20.774 95.4425 21.642 94.2385 21.642C93.0625 21.642 92.2925 20.788 92.2925 19.542ZM107.59 23.168C110.012 23.168 111.888 21.74 112.28 19.584H110.418C110.082 20.718 109.018 21.446 107.632 21.446C105.756 21.446 104.552 20.046 104.552 17.876C104.552 15.692 105.742 14.32 107.632 14.32C108.99 14.32 110.012 15.02 110.362 16.21H112.252C111.902 14.012 110.096 12.598 107.674 12.598C104.678 12.598 102.676 14.712 102.676 17.89C102.676 21.096 104.608 23.168 107.59 23.168ZM116.729 23.182C118.535 23.182 119.795 22.272 120.089 20.76H118.507C118.311 21.418 117.695 21.782 116.757 21.782C115.623 21.782 114.979 21.166 114.853 19.948L120.061 19.934V19.416C120.061 17.26 118.745 15.874 116.673 15.874C114.643 15.874 113.229 17.372 113.229 19.542C113.229 21.684 114.671 23.182 116.729 23.182ZM116.687 17.274C117.709 17.274 118.367 17.904 118.367 18.856H114.895C115.063 17.82 115.679 17.274 116.687 17.274ZM123.136 23V19.276C123.136 18.156 123.78 17.428 124.83 17.428C125.712 17.428 126.286 17.988 126.286 19.15V23H127.994V18.744C127.994 16.952 127.098 15.874 125.362 15.874C124.424 15.874 123.584 16.28 123.15 16.98L123.01 16.084H121.428V23H123.136ZM132.024 23V17.512H133.368V16.084H132.024V13.928H130.316V16.084H128.986V17.512H130.316V23H132.024ZM137.455 23.182C139.261 23.182 140.521 22.272 140.815 20.76H139.233C139.037 21.418 138.421 21.782 137.483 21.782C136.349 21.782 135.705 21.166 135.579 19.948L140.787 19.934V19.416C140.787 17.26 139.471 15.874 137.399 15.874C135.369 15.874 133.955 17.372 133.955 19.542C133.955 21.684 135.397 23.182 137.455 23.182ZM137.413 17.274C138.435 17.274 139.093 17.904 139.093 18.856H135.621C135.789 17.82 136.405 17.274 137.413 17.274ZM146.494 16.056C146.214 15.986 145.976 15.958 145.738 15.958C144.814 15.958 144.156 16.42 143.862 17.106L143.764 16.098H142.154V23H143.862V19.64C143.862 18.296 144.632 17.638 145.864 17.638H146.494V16.056Z" fill="white"/>
</svg>
