<svg width="13" height="14" viewBox="0 0 13 14" fill="none" xmlns="http://www.w3.org/2000/svg">
<path d="M8.8335 12.3333H2.16683V3.66659C2.16683 3.29992 1.86683 2.99992 1.50016 2.99992C1.1335 2.99992 0.833496 3.29992 0.833496 3.66659V12.3333C0.833496 13.0666 1.4335 13.6666 2.16683 13.6666H8.8335C9.20016 13.6666 9.50016 13.3666 9.50016 12.9999C9.50016 12.6333 9.20016 12.3333 8.8335 12.3333ZM12.1668 9.66659V1.66659C12.1668 0.933252 11.5668 0.333252 10.8335 0.333252H4.8335C4.10016 0.333252 3.50016 0.933252 3.50016 1.66659V9.66659C3.50016 10.3999 4.10016 10.9999 4.8335 10.9999H10.8335C11.5668 10.9999 12.1668 10.3999 12.1668 9.66659ZM10.8335 9.66659H4.8335V1.66659H10.8335V9.66659Z" fill="#D6D6D6"/>
</svg>
