<svg width="18" height="18" viewBox="0 0 18 18" fill="none" xmlns="http://www.w3.org/2000/svg">
<path d="M8.99984 0.666748C4.3915 0.666748 0.666504 4.39175 0.666504 9.00008C0.666504 13.6084 4.3915 17.3334 8.99984 17.3334C13.6082 17.3334 17.3332 13.6084 17.3332 9.00008C17.3332 4.39175 13.6082 0.666748 8.99984 0.666748ZM12.5832 12.5834C12.2582 12.9084 11.7332 12.9084 11.4082 12.5834L8.99984 10.1751L6.5915 12.5834C6.2665 12.9084 5.7415 12.9084 5.4165 12.5834C5.0915 12.2584 5.0915 11.7334 5.4165 11.4084L7.82484 9.00008L5.4165 6.59175C5.0915 6.26675 5.0915 5.74175 5.4165 5.41675C5.7415 5.09175 6.2665 5.09175 6.5915 5.41675L8.99984 7.82508L11.4082 5.41675C11.7332 5.09175 12.2582 5.09175 12.5832 5.41675C12.9082 5.74175 12.9082 6.26675 12.5832 6.59175L10.1748 9.00008L12.5832 11.4084C12.8998 11.7251 12.8998 12.2584 12.5832 12.5834Z" fill="#9E9E9E"/>
</svg>

