<svg width="44" height="44" viewBox="0 0 44 44" fill="none" xmlns="http://www.w3.org/2000/svg">
<g clip-path="url(#clip0_3906_48298)">
<rect x="2" y="2" width="40" height="40" rx="20" fill="#9E7E00"/>
<rect x="6" y="6" width="32" height="32" rx="16" fill="#9E7E00"/>
<path d="M32.5 2H47L12.5 42H-2L32.5 2Z" fill="white" fill-opacity="0.1"/>
<path d="M16.669 23.25C14.459 23.25 12.669 25.04 12.669 27.25C12.669 29.46 14.459 31.25 16.669 31.25C18.879 31.25 20.669 29.46 20.669 27.25C20.669 25.04 18.879 23.25 16.669 23.25ZM22.649 24.25V30.25C22.649 30.8 23.099 31.25 23.649 31.25H29.649C30.199 31.25 30.649 30.8 30.649 30.25V24.25C30.649 23.7 30.199 23.25 29.649 23.25H23.649C23.099 23.25 22.649 23.7 22.649 24.25ZM15.779 13.82L12.479 19.76C12.109 20.43 12.589 21.25 13.349 21.25H19.949C20.709 21.25 21.189 20.43 20.819 19.76L17.519 13.82C17.139 13.14 16.159 13.14 15.779 13.82ZM28.899 12.75C27.839 12.75 27.089 13.31 26.649 13.92C26.209 13.31 25.459 12.75 24.399 12.75C22.839 12.75 21.649 14.03 21.649 15.5C21.649 17.33 23.679 18.67 25.999 20.68C26.369 21 26.919 21 27.299 20.68C29.619 18.67 31.649 17.33 31.649 15.5C31.649 14.03 30.459 12.75 28.899 12.75Z" fill="white"/>
</g>
<rect x="1" y="1" width="42" height="42" rx="21" stroke="#212121" stroke-width="2"/>
<defs>
<clipPath id="clip0_3906_48298">
<rect x="2" y="2" width="40" height="40" rx="20" fill="white"/>
</clipPath>
</defs>
</svg>
