<svg width="18" height="28" viewBox="0 0 18 28" fill="none" xmlns="http://www.w3.org/2000/svg">
<path d="M12.5058 11.083H5.50578C4.86411 11.083 4.33911 11.608 4.33911 12.2497V26.2497C4.33911 26.8913 4.86411 27.4163 5.50578 27.4163H12.5058C13.1474 27.4163 13.6724 26.8913 13.6724 26.2497V12.2497C13.6724 11.608 13.1474 11.083 12.5058 11.083ZM9.00578 17.208C8.20078 17.208 7.54744 16.5547 7.54744 15.7497C7.54744 14.9447 8.20078 14.2913 9.00578 14.2913C9.81078 14.2913 10.4641 14.9447 10.4641 15.7497C10.4641 16.5547 9.81078 17.208 9.00578 17.208Z" fill="#D6D6D6"/>
<path d="M4.12911 8.53967C4.53744 8.94801 5.17911 8.98301 5.64578 8.65634C6.59078 7.97967 7.75744 7.58301 9.00578 7.58301C10.2541 7.58301 11.4208 7.97967 12.3658 8.64467C12.8324 8.97134 13.4741 8.94801 13.8824 8.53967C14.3841 8.03801 14.3374 7.19801 13.7774 6.78967C12.4358 5.82134 10.7908 5.24967 9.00578 5.24967C7.22078 5.24967 5.57578 5.82134 4.23411 6.78967C3.66244 7.19801 3.62744 8.03801 4.12911 8.53967Z" fill="#D6D6D6"/>
<path d="M9.00578 0.583008C5.92578 0.583008 3.10244 1.66801 0.897444 3.46467C0.360777 3.90801 0.31411 4.71301 0.80411 5.20301C1.22411 5.62301 1.88911 5.65801 2.34411 5.28467C4.15244 3.81467 6.47411 2.91634 9.00578 2.91634C11.5374 2.91634 13.8591 3.81467 15.6558 5.29634C16.1108 5.66967 16.7758 5.63467 17.1958 5.21467C17.6858 4.72467 17.6391 3.91967 17.1024 3.47634C14.9091 1.66801 12.0858 0.583008 9.00578 0.583008Z" fill="#D6D6D6"/>
</svg>
