<svg width="164" height="164" viewBox="0 0 164 164" fill="none" xmlns="http://www.w3.org/2000/svg">
<rect width="164" height="164" rx="16" fill="#212121"/>
<path d="M71.8866 80.5546C72.9911 80.5546 73.8866 79.6592 73.8866 78.5546C73.8866 77.45 72.9911 76.5546 71.8866 76.5546C70.782 76.5546 69.8866 77.45 69.8866 78.5546C69.8866 79.6592 70.782 80.5546 71.8866 80.5546Z" fill="#4F4F4F"/>
<path d="M95.4466 78.1146C95.4466 72.9546 91.2732 68.7812 86.1132 68.7812C80.9532 68.7812 76.7799 72.9546 76.7799 78.1146C76.7799 82.7412 80.1399 86.5679 84.5532 87.3012V92.5546H73.8866V88.5546H75.2199V83.2212C75.2199 82.4879 74.6199 81.8879 73.8866 81.8879H69.8866C69.1532 81.8879 68.5532 82.4879 68.5532 83.2212V88.5546H69.8866V95.2212H91.2199V92.5546H87.2199V87.3813C91.8466 86.8346 95.4466 82.9012 95.4466 78.1146ZM86.1132 84.7812C82.4332 84.7812 79.4466 81.7946 79.4466 78.1146C79.4466 74.4346 82.4332 71.4479 86.1132 71.4479C89.7932 71.4479 92.7799 74.4346 92.7799 78.1146C92.7799 81.7946 89.7932 84.7812 86.1132 84.7812Z" fill="#4F4F4F"/>
</svg>