<svg width="320" height="210" viewBox="0 0 320 210" fill="none" xmlns="http://www.w3.org/2000/svg">
<rect x="0.5" y="42.5" width="319" height="167" rx="7.5" fill="white"/>
<path d="M25.92 75.968C28.256 75.968 29.792 74.384 29.792 72.128C29.792 69.84 28.272 68.304 25.92 68.304H21.296V80H23.344V75.968H25.92ZM25.52 70.128C26.88 70.128 27.648 70.832 27.648 72.112C27.648 73.392 26.896 74.144 25.488 74.144H23.344V70.128H25.52ZM32.2028 70.512C32.8428 70.512 33.3708 69.984 33.3708 69.328C33.3708 68.672 32.8428 68.16 32.2028 68.16C31.5308 68.16 31.0028 68.672 31.0028 69.328C31.0028 69.984 31.5308 70.512 32.2028 70.512ZM31.2268 80H33.1788V72.096H31.2268V80ZM37.1475 80V75.744C37.1475 74.464 37.8835 73.632 39.0835 73.632C40.0915 73.632 40.7475 74.272 40.7475 75.6V80H42.6995V75.136C42.6995 73.088 41.6755 71.856 39.6915 71.856C38.6195 71.856 37.6595 72.32 37.1635 73.12L37.0035 72.096H35.1955V80H37.1475ZM51.2659 68.304H49.2179V80H56.1619V78.112H51.2659V68.304ZM60.919 80.208C62.983 80.208 64.423 79.168 64.759 77.44H62.951C62.727 78.192 62.023 78.608 60.951 78.608C59.655 78.608 58.919 77.904 58.775 76.512L64.727 76.496V75.904C64.727 73.44 63.223 71.856 60.855 71.856C58.535 71.856 56.919 73.568 56.919 76.048C56.919 78.496 58.567 80.208 60.919 80.208ZM60.871 73.456C62.039 73.456 62.791 74.176 62.791 75.264H58.823C59.015 74.08 59.719 73.456 60.871 73.456ZM68.5631 80.208C69.7951 80.208 70.8671 79.648 71.2031 78.832L71.3471 80H73.0591V75.2C73.0591 73.008 71.7471 71.856 69.6191 71.856C67.4751 71.856 66.0671 72.976 66.0671 74.688H67.7311C67.7311 73.856 68.3711 73.376 69.5231 73.376C70.5151 73.376 71.1551 73.808 71.1551 74.88V75.056L68.7871 75.232C66.9151 75.376 65.8591 76.288 65.8591 77.744C65.8591 79.232 66.8831 80.208 68.5631 80.208ZM69.2031 78.736C68.3231 78.736 67.8431 78.384 67.8431 77.664C67.8431 77.024 68.3071 76.624 69.5231 76.512L71.1711 76.384V76.8C71.1711 78.016 70.4031 78.736 69.2031 78.736ZM74.9768 83.664H76.9288V78.944C77.4248 79.744 78.4488 80.208 79.6328 80.208C81.9848 80.208 83.3288 78.416 83.3288 75.952C83.3288 73.472 81.8568 71.856 79.6328 71.856C78.4328 71.856 77.3928 72.384 76.9128 73.296L76.7848 72.096H74.9768V83.664ZM76.9448 76.048C76.9448 74.624 77.8248 73.632 79.1688 73.632C80.5448 73.632 81.3608 74.64 81.3608 76.048C81.3608 77.456 80.5448 78.448 79.1688 78.448C77.8248 78.448 76.9448 77.472 76.9448 76.048ZM91.8835 80V73.728H93.4195V72.096H91.8835V69.632H89.9315V72.096H88.4115V73.728H89.9315V80H91.8835ZM94.0909 76.032C94.0909 78.496 95.8669 80.192 98.3149 80.192C100.763 80.192 102.539 78.496 102.539 76.032C102.539 73.568 100.763 71.872 98.3149 71.872C95.8669 71.872 94.0909 73.568 94.0909 76.032ZM96.0429 76.032C96.0429 74.592 96.9709 73.616 98.3149 73.616C99.6589 73.616 100.587 74.592 100.587 76.032C100.587 77.472 99.6589 78.448 98.3149 78.448C96.9709 78.448 96.0429 77.472 96.0429 76.032ZM111.087 80V73.728H112.623V72.096H111.087V69.632H109.135V72.096H107.615V73.728H109.135V80H111.087ZM113.294 76.032C113.294 78.496 115.07 80.192 117.518 80.192C119.966 80.192 121.742 78.496 121.742 76.032C121.742 73.568 119.966 71.872 117.518 71.872C115.07 71.872 113.294 73.568 113.294 76.032ZM115.246 76.032C115.246 74.592 116.174 73.616 117.518 73.616C118.862 73.616 119.79 74.592 119.79 76.032C119.79 77.472 118.862 78.448 117.518 78.448C116.174 78.448 115.246 77.472 115.246 76.032ZM122.825 76.032C122.825 78.496 124.601 80.192 127.049 80.192C129.497 80.192 131.273 78.496 131.273 76.032C131.273 73.568 129.497 71.872 127.049 71.872C124.601 71.872 122.825 73.568 122.825 76.032ZM124.777 76.032C124.777 74.592 125.705 73.616 127.049 73.616C128.393 73.616 129.321 74.592 129.321 76.032C129.321 77.472 128.393 78.448 127.049 78.448C125.705 78.448 124.777 77.472 124.777 76.032ZM134.789 80V68.096H132.853V80H134.789ZM138.644 80L138.772 78.768C139.236 79.68 140.244 80.208 141.428 80.208C143.7 80.208 145.188 78.528 145.188 76.096C145.188 73.6 143.812 71.84 141.556 71.84C140.356 71.84 139.3 72.368 138.788 73.248V68.096H136.836V80H138.644ZM138.804 76.016C138.804 74.592 139.684 73.6 141.028 73.6C142.404 73.6 143.22 74.608 143.22 76.016C143.22 77.424 142.404 78.416 141.028 78.416C139.684 78.416 138.804 77.44 138.804 76.016ZM149.094 80.208C150.326 80.208 151.398 79.648 151.734 78.832L151.878 80H153.59V75.2C153.59 73.008 152.278 71.856 150.15 71.856C148.006 71.856 146.598 72.976 146.598 74.688H148.262C148.262 73.856 148.902 73.376 150.054 73.376C151.046 73.376 151.686 73.808 151.686 74.88V75.056L149.318 75.232C147.446 75.376 146.39 76.288 146.39 77.744C146.39 79.232 147.414 80.208 149.094 80.208ZM149.734 78.736C148.854 78.736 148.374 78.384 148.374 77.664C148.374 77.024 148.838 76.624 150.054 76.512L151.702 76.384V76.8C151.702 78.016 150.934 78.736 149.734 78.736ZM160.468 72.064C160.148 71.984 159.876 71.952 159.604 71.952C158.548 71.952 157.796 72.48 157.46 73.264L157.348 72.112H155.508V80H157.46V76.16C157.46 74.624 158.34 73.872 159.748 73.872H160.468V72.064ZM165.318 72.096V73.728H166.454V80H168.39V73.728H170.278V72.096H168.39V71.136C168.39 70.352 168.63 69.84 169.622 69.84H170.31V68.176C169.974 68.112 169.606 68.096 169.302 68.096C167.59 68.096 166.454 68.992 166.454 71.136V72.096H165.318ZM170.825 76.032C170.825 78.496 172.601 80.192 175.049 80.192C177.497 80.192 179.273 78.496 179.273 76.032C179.273 73.568 177.497 71.872 175.049 71.872C172.601 71.872 170.825 73.568 170.825 76.032ZM172.777 76.032C172.777 74.592 173.705 73.616 175.049 73.616C176.393 73.616 177.321 74.592 177.321 76.032C177.321 77.472 176.393 78.448 175.049 78.448C173.705 78.448 172.777 77.472 172.777 76.032ZM185.781 72.064C185.461 71.984 185.189 71.952 184.917 71.952C183.861 71.952 183.109 72.48 182.773 73.264L182.661 72.112H180.821V80H182.773V76.16C182.773 74.624 183.653 73.872 185.061 73.872H185.781V72.064ZM194.95 80.208C197.014 80.208 198.454 79.168 198.79 77.44H196.982C196.758 78.192 196.054 78.608 194.982 78.608C193.686 78.608 192.95 77.904 192.806 76.512L198.758 76.496V75.904C198.758 73.44 197.254 71.856 194.886 71.856C192.566 71.856 190.95 73.568 190.95 76.048C190.95 78.496 192.598 80.208 194.95 80.208ZM194.902 73.456C196.07 73.456 196.822 74.176 196.822 75.264H192.854C193.046 74.08 193.75 73.456 194.902 73.456ZM202.594 80.208C203.826 80.208 204.898 79.648 205.234 78.832L205.378 80H207.09V75.2C207.09 73.008 205.778 71.856 203.65 71.856C201.506 71.856 200.098 72.976 200.098 74.688H201.762C201.762 73.856 202.402 73.376 203.554 73.376C204.546 73.376 205.186 73.808 205.186 74.88V75.056L202.818 75.232C200.946 75.376 199.89 76.288 199.89 77.744C199.89 79.232 200.914 80.208 202.594 80.208ZM203.234 78.736C202.354 78.736 201.874 78.384 201.874 77.664C201.874 77.024 202.338 76.624 203.554 76.512L205.202 76.384V76.8C205.202 78.016 204.434 78.736 203.234 78.736ZM208.4 77.6C208.4 79.152 209.648 80.208 211.616 80.208C213.568 80.208 214.928 79.216 214.928 77.616C214.928 76.4 214.256 75.792 212.928 75.488L211.504 75.152C210.832 74.992 210.48 74.704 210.48 74.256C210.48 73.664 210.928 73.312 211.696 73.312C212.448 73.312 212.896 73.744 212.912 74.416H214.768C214.752 72.88 213.552 71.856 211.776 71.856C209.952 71.856 208.64 72.784 208.64 74.336C208.64 75.6 209.328 76.272 210.752 76.592L212.176 76.928C212.88 77.088 213.088 77.376 213.088 77.776C213.088 78.352 212.592 78.72 211.68 78.72C210.784 78.72 210.272 78.288 210.256 77.6H208.4ZM217.39 70.512C218.03 70.512 218.558 69.984 218.558 69.328C218.558 68.672 218.03 68.16 217.39 68.16C216.718 68.16 216.19 68.672 216.19 69.328C216.19 69.984 216.718 70.512 217.39 70.512ZM216.414 80H218.366V72.096H216.414V80ZM223.919 80.208C225.983 80.208 227.423 79.168 227.759 77.44H225.951C225.727 78.192 225.023 78.608 223.951 78.608C222.655 78.608 221.919 77.904 221.775 76.512L227.727 76.496V75.904C227.727 73.44 226.223 71.856 223.855 71.856C221.535 71.856 219.919 73.568 219.919 76.048C219.919 78.496 221.567 80.208 223.919 80.208ZM223.871 73.456C225.039 73.456 225.791 74.176 225.791 75.264H221.823C222.015 74.08 222.719 73.456 223.871 73.456ZM234.249 72.064C233.929 71.984 233.657 71.952 233.385 71.952C232.329 71.952 231.577 72.48 231.241 73.264L231.129 72.112H229.289V80H231.241V76.16C231.241 74.624 232.121 73.872 233.529 73.872H234.249V72.064ZM242.235 80.208C243.467 80.208 244.539 79.648 244.875 78.832L245.019 80H246.731V75.2C246.731 73.008 245.419 71.856 243.291 71.856C241.147 71.856 239.739 72.976 239.739 74.688H241.403C241.403 73.856 242.043 73.376 243.195 73.376C244.187 73.376 244.827 73.808 244.827 74.88V75.056L242.459 75.232C240.587 75.376 239.531 76.288 239.531 77.744C239.531 79.232 240.555 80.208 242.235 80.208ZM242.875 78.736C241.995 78.736 241.515 78.384 241.515 77.664C241.515 77.024 241.979 76.624 243.195 76.512L244.843 76.384V76.8C244.843 78.016 244.075 78.736 242.875 78.736ZM248.185 76.032C248.185 78.544 249.753 80.208 252.153 80.208C254.217 80.208 255.753 78.944 255.993 77.104H254.025C253.817 77.968 253.129 78.448 252.153 78.448C250.905 78.448 250.137 77.52 250.137 76.032C250.137 74.544 250.969 73.6 252.217 73.6C253.145 73.6 253.801 74.064 254.025 74.96H255.977C255.769 73.056 254.297 71.856 252.137 71.856C249.801 71.856 248.185 73.584 248.185 76.032ZM256.982 76.032C256.982 78.544 258.549 80.208 260.95 80.208C263.014 80.208 264.55 78.944 264.79 77.104H262.822C262.614 77.968 261.926 78.448 260.95 78.448C259.702 78.448 258.934 77.52 258.934 76.032C258.934 74.544 259.766 73.6 261.014 73.6C261.942 73.6 262.598 74.064 262.822 74.96H264.774C264.566 73.056 263.094 71.856 260.934 71.856C258.598 71.856 256.982 73.584 256.982 76.032ZM269.778 80.208C271.842 80.208 273.282 79.168 273.618 77.44H271.81C271.586 78.192 270.882 78.608 269.81 78.608C268.514 78.608 267.778 77.904 267.634 76.512L273.586 76.496V75.904C273.586 73.44 272.082 71.856 269.714 71.856C267.394 71.856 265.778 73.568 265.778 76.048C265.778 78.496 267.426 80.208 269.778 80.208ZM269.73 73.456C270.898 73.456 271.65 74.176 271.65 75.264H267.682C267.874 74.08 268.578 73.456 269.73 73.456ZM274.541 77.6C274.541 79.152 275.789 80.208 277.757 80.208C279.709 80.208 281.069 79.216 281.069 77.616C281.069 76.4 280.397 75.792 279.069 75.488L277.645 75.152C276.973 74.992 276.621 74.704 276.621 74.256C276.621 73.664 277.069 73.312 277.837 73.312C278.589 73.312 279.037 73.744 279.053 74.416H280.909C280.893 72.88 279.693 71.856 277.917 71.856C276.093 71.856 274.781 72.784 274.781 74.336C274.781 75.6 275.469 76.272 276.893 76.592L278.317 76.928C279.021 77.088 279.229 77.376 279.229 77.776C279.229 78.352 278.733 78.72 277.821 78.72C276.925 78.72 276.413 78.288 276.397 77.6H274.541ZM281.947 77.6C281.947 79.152 283.195 80.208 285.163 80.208C287.115 80.208 288.475 79.216 288.475 77.616C288.475 76.4 287.803 75.792 286.475 75.488L285.051 75.152C284.379 74.992 284.027 74.704 284.027 74.256C284.027 73.664 284.475 73.312 285.243 73.312C285.995 73.312 286.443 73.744 286.459 74.416H288.315C288.299 72.88 287.099 71.856 285.323 71.856C283.499 71.856 282.187 72.784 282.187 74.336C282.187 75.6 282.875 76.272 284.299 76.592L285.723 76.928C286.427 77.088 286.635 77.376 286.635 77.776C286.635 78.352 286.139 78.72 285.227 78.72C284.331 78.72 283.819 78.288 283.803 77.6H281.947Z" fill="#1F7F58"/>
<rect x="20" y="108" width="16" height="16" rx="8" fill="#F4F4F4"/>
<rect x="52" y="108" width="53" height="16" rx="4" fill="#F4F4F4"/>
<path d="M257.333 110.666V114C257.333 114.746 257.58 115.44 258 116H254C254.433 115.426 254.666 114.733 254.666 114V110.666H257.333ZM259.333 109.333H252.666C252.3 109.333 252 109.633 252 110C252 110.366 252.3 110.666 252.666 110.666H253.333V114C253.333 115.106 252.44 116 251.333 116V117.333H255.313V122L255.98 122.666L256.646 122V117.333H260.666V116C259.56 116 258.666 115.106 258.666 114V110.666H259.333C259.7 110.666 260 110.366 260 110C260 109.633 259.7 109.333 259.333 109.333Z" fill="#606367"/>
<path d="M290 112.666C290.916 112.666 291.666 111.916 291.666 111C291.666 110.083 290.916 109.333 290 109.333C289.083 109.333 288.333 110.083 288.333 111C288.333 111.916 289.083 112.666 290 112.666ZM290 114.333C289.083 114.333 288.333 115.083 288.333 116C288.333 116.916 289.083 117.666 290 117.666C290.916 117.666 291.666 116.916 291.666 116C291.666 115.083 290.916 114.333 290 114.333ZM290 119.333C289.083 119.333 288.333 120.083 288.333 121C288.333 121.916 289.083 122.666 290 122.666C290.916 122.666 291.666 121.916 291.666 121C291.666 120.083 290.916 119.333 290 119.333Z" fill="#606367"/>
<path d="M20 151.391H36.418C36.418 153.936 34.3543 156 31.8087 156H24.6093C22.0636 156 20 153.936 20 151.391Z" fill="#AC4BFF"/>
<g clip-path="url(#clip0_4172_48220)">
<path d="M34.5273 147.252C34.5273 149.566 31.7749 150.507 28.3574 150.507C24.9399 150.507 22.1475 149.566 22.1475 147.252C22.1475 144.938 24.9199 143.065 28.3374 143.065C31.7549 143.065 34.5273 144.942 34.5273 147.252Z" fill="#4BAF74"/>
<path d="M33.8995 142.214C33.8995 140.995 32.93 140.006 31.7361 140.006C31.063 140.006 30.462 140.321 30.0654 140.811C29.5245 140.689 28.9476 140.619 28.3507 140.619C27.7537 140.619 27.1768 140.685 26.6359 140.811C26.2353 140.321 25.6343 140.006 24.9652 140.006C23.7713 140.006 22.8018 140.995 22.8018 142.214C22.8018 142.614 22.9059 142.986 23.0862 143.309C22.9139 143.686 22.8218 144.086 22.8218 144.503C22.8218 146.65 25.2978 148.387 28.3507 148.387C31.4035 148.387 33.8795 146.65 33.8795 144.503C33.8795 144.086 33.7874 143.686 33.6151 143.309C33.7954 142.986 33.8995 142.614 33.8995 142.214Z" fill="#32DA6D"/>
<path d="M24.7909 143.442C25.5211 143.442 26.113 142.838 26.113 142.092C26.113 141.347 25.5211 140.743 24.7909 140.743C24.0607 140.743 23.4688 141.347 23.4688 142.092C23.4688 142.838 24.0607 143.442 24.7909 143.442Z" fill="white"/>
<path d="M31.8456 143.442C32.5757 143.442 33.1677 142.838 33.1677 142.092C33.1677 141.347 32.5757 140.743 31.8456 140.743C31.1154 140.743 30.5234 141.347 30.5234 142.092C30.5234 142.838 31.1154 143.442 31.8456 143.442Z" fill="white"/>
<path d="M24.0847 150.347C24.3691 150.347 24.5935 150.094 24.5614 149.807C24.4453 148.794 23.9525 146.598 21.785 145.277C18.9004 143.519 21.184 149.57 21.184 149.57L20.5871 149.922C20.3868 150.041 20.4709 150.347 20.6993 150.347H24.0847Z" fill="#32DA6D"/>
<path d="M32.693 150.347C32.4366 150.347 32.2363 150.094 32.2643 149.807C32.3645 148.798 32.8132 146.598 34.7684 145.277C37.3765 143.519 35.3132 149.57 35.3132 149.57L35.8541 149.922C36.0344 150.041 35.9583 150.347 35.7539 150.347H32.693Z" fill="#32DA6D"/>
<path d="M24.7931 142.33C24.9259 142.33 25.0335 142.221 25.0335 142.085C25.0335 141.95 24.9259 141.84 24.7931 141.84C24.6604 141.84 24.5527 141.95 24.5527 142.085C24.5527 142.221 24.6604 142.33 24.7931 142.33Z" fill="#0D0D0D"/>
<path d="M31.841 142.33C31.9737 142.33 32.0814 142.221 32.0814 142.085C32.0814 141.95 31.9737 141.84 31.841 141.84C31.7082 141.84 31.6006 141.95 31.6006 142.085C31.6006 142.221 31.7082 142.33 31.841 142.33Z" fill="#0D0D0D"/>
</g>
<path d="M59.6846 151.523V153H54.6807V151.523H59.6846ZM55.248 143.047V153H53.3682V143.047H55.248ZM64.1279 153.137C63.5674 153.137 63.0638 153.046 62.6172 152.863C62.1706 152.681 61.79 152.428 61.4756 152.104C61.1657 151.776 60.9264 151.396 60.7578 150.963C60.5938 150.525 60.5117 150.056 60.5117 149.555V149.281C60.5117 148.712 60.5938 148.194 60.7578 147.729C60.9219 147.26 61.1543 146.857 61.4551 146.52C61.7559 146.182 62.1159 145.923 62.5352 145.74C62.9544 145.558 63.417 145.467 63.9229 145.467C64.4469 145.467 64.9095 145.556 65.3105 145.733C65.7116 145.907 66.0465 146.153 66.3154 146.472C66.5843 146.791 66.7871 147.174 66.9238 147.62C67.0605 148.062 67.1289 148.552 67.1289 149.09V149.849H61.332V148.604H65.3516V148.468C65.3424 148.181 65.2878 147.919 65.1875 147.682C65.0872 147.44 64.9323 147.249 64.7227 147.107C64.513 146.962 64.2419 146.889 63.9092 146.889C63.6403 146.889 63.4056 146.948 63.2051 147.066C63.0091 147.18 62.8451 147.344 62.7129 147.559C62.5853 147.768 62.4896 148.019 62.4258 148.311C62.362 148.602 62.3301 148.926 62.3301 149.281V149.555C62.3301 149.865 62.3711 150.152 62.4531 150.416C62.5397 150.68 62.665 150.91 62.8291 151.106C62.9977 151.298 63.1982 151.448 63.4307 151.558C63.6676 151.662 63.9365 151.715 64.2373 151.715C64.6156 151.715 64.9574 151.642 65.2627 151.496C65.5726 151.346 65.8415 151.125 66.0693 150.833L66.9785 151.776C66.8236 152.004 66.6139 152.223 66.3496 152.433C66.0898 152.642 65.7754 152.813 65.4062 152.945C65.0371 153.073 64.611 153.137 64.1279 153.137ZM72.4131 151.428V148.017C72.4131 147.766 72.3698 147.549 72.2832 147.367C72.1966 147.185 72.0645 147.044 71.8867 146.943C71.709 146.843 71.4834 146.793 71.21 146.793C70.9684 146.793 70.7565 146.834 70.5742 146.916C70.3965 146.998 70.2598 147.114 70.1641 147.265C70.0684 147.41 70.0205 147.579 70.0205 147.771H68.209C68.209 147.465 68.2819 147.176 68.4277 146.902C68.5736 146.624 68.7809 146.378 69.0498 146.164C69.3232 145.945 69.6491 145.774 70.0273 145.651C70.4102 145.528 70.8385 145.467 71.3125 145.467C71.873 145.467 72.3721 145.562 72.8096 145.754C73.2516 145.941 73.598 146.223 73.8486 146.602C74.1038 146.98 74.2314 147.456 74.2314 148.03V151.257C74.2314 151.626 74.2542 151.943 74.2998 152.207C74.3499 152.467 74.4229 152.692 74.5186 152.884V153H72.6797C72.5931 152.813 72.527 152.576 72.4814 152.289C72.4359 151.997 72.4131 151.71 72.4131 151.428ZM72.666 148.495L72.6797 149.568H71.5381C71.2555 149.568 71.0072 149.598 70.793 149.657C70.5788 149.712 70.4033 149.794 70.2666 149.903C70.1299 150.008 70.0273 150.136 69.959 150.286C69.8906 150.432 69.8564 150.598 69.8564 150.785C69.8564 150.967 69.8975 151.132 69.9795 151.277C70.0661 151.423 70.1891 151.539 70.3486 151.626C70.5127 151.708 70.7041 151.749 70.9229 151.749C71.2419 151.749 71.5199 151.685 71.7568 151.558C71.9938 151.425 72.1784 151.266 72.3105 151.079C72.4427 150.892 72.5133 150.715 72.5225 150.546L73.042 151.325C72.9782 151.512 72.8825 151.71 72.7549 151.92C72.6273 152.13 72.4632 152.326 72.2627 152.508C72.0622 152.69 71.8206 152.84 71.5381 152.959C71.2555 153.077 70.9274 153.137 70.5537 153.137C70.0752 153.137 69.6468 153.041 69.2686 152.85C68.8903 152.658 68.5918 152.396 68.373 152.063C68.1543 151.731 68.0449 151.353 68.0449 150.929C68.0449 150.537 68.1178 150.19 68.2637 149.89C68.4095 149.589 68.626 149.336 68.9131 149.131C69.2002 148.921 69.5557 148.764 69.9795 148.659C70.4079 148.55 70.8978 148.495 71.4492 148.495H72.666ZM77.6631 147.025V155.844H75.8516V145.604H77.5264L77.6631 147.025ZM82.4141 149.227V149.37C82.4141 149.908 82.3503 150.407 82.2227 150.867C82.0996 151.323 81.9173 151.722 81.6758 152.063C81.4342 152.401 81.1335 152.665 80.7734 152.856C80.418 153.043 80.0078 153.137 79.543 153.137C79.0872 153.137 78.6908 153.05 78.3535 152.877C78.0163 152.699 77.7314 152.449 77.499 152.125C77.2666 151.801 77.0798 151.425 76.9385 150.997C76.8018 150.564 76.6992 150.092 76.6309 149.582V149.124C76.6992 148.582 76.8018 148.09 76.9385 147.647C77.0798 147.201 77.2666 146.816 77.499 146.492C77.7314 146.164 78.014 145.911 78.3467 145.733C78.6839 145.556 79.0781 145.467 79.5293 145.467C79.9987 145.467 80.4111 145.556 80.7666 145.733C81.1266 145.911 81.4297 146.166 81.6758 146.499C81.9219 146.832 82.1064 147.228 82.2295 147.688C82.3525 148.149 82.4141 148.661 82.4141 149.227ZM80.6025 149.37V149.227C80.6025 148.898 80.5729 148.595 80.5137 148.317C80.4544 148.035 80.3633 147.789 80.2402 147.579C80.1172 147.365 79.9577 147.199 79.7617 147.08C79.5658 146.962 79.3288 146.902 79.0508 146.902C78.7728 146.902 78.5335 146.948 78.333 147.039C78.1325 147.13 77.9684 147.26 77.8408 147.429C77.7132 147.597 77.613 147.798 77.54 148.03C77.4717 148.258 77.4261 148.511 77.4033 148.789V149.924C77.4443 150.261 77.5241 150.564 77.6426 150.833C77.7611 151.102 77.9342 151.316 78.1621 151.476C78.3945 151.635 78.6953 151.715 79.0645 151.715C79.3424 151.715 79.5794 151.653 79.7754 151.53C79.9714 151.407 80.1309 151.239 80.2539 151.024C80.377 150.806 80.4658 150.555 80.5205 150.272C80.5752 149.99 80.6025 149.689 80.6025 149.37ZM93.1807 149.726H95.0605C95.0104 150.391 94.8258 150.981 94.5068 151.496C94.1878 152.007 93.7435 152.408 93.1738 152.699C92.6042 152.991 91.9137 153.137 91.1025 153.137C90.4782 153.137 89.9154 153.027 89.4141 152.809C88.9173 152.585 88.4912 152.269 88.1357 151.858C87.7848 151.444 87.516 150.947 87.3291 150.368C87.1423 149.785 87.0488 149.131 87.0488 148.406V147.647C87.0488 146.923 87.1445 146.269 87.3359 145.686C87.5273 145.102 87.8008 144.605 88.1562 144.195C88.5163 143.781 88.9469 143.462 89.4482 143.238C89.9541 143.015 90.5192 142.903 91.1436 142.903C91.9548 142.903 92.6406 143.054 93.2012 143.354C93.7617 143.651 94.1969 144.059 94.5068 144.578C94.8167 145.098 95.0036 145.695 95.0674 146.369H93.1875C93.151 145.95 93.0599 145.594 92.9141 145.303C92.7728 145.011 92.5586 144.79 92.2715 144.64C91.9889 144.485 91.613 144.407 91.1436 144.407C90.779 144.407 90.4577 144.476 90.1797 144.612C89.9062 144.749 89.6784 144.954 89.4961 145.228C89.3138 145.496 89.1771 145.834 89.0859 146.239C88.9948 146.64 88.9492 147.105 88.9492 147.634V148.406C88.9492 148.912 88.9902 149.366 89.0723 149.767C89.1543 150.168 89.2819 150.507 89.4551 150.785C89.6283 151.063 89.8516 151.275 90.125 151.421C90.3984 151.567 90.7243 151.64 91.1025 151.64C91.5628 151.64 91.9365 151.567 92.2236 151.421C92.5153 151.275 92.7363 151.061 92.8867 150.778C93.0417 150.496 93.1396 150.145 93.1807 149.726ZM96.0586 149.377V149.233C96.0586 148.691 96.1361 148.192 96.291 147.736C96.446 147.276 96.6715 146.877 96.9678 146.54C97.264 146.203 97.6263 145.941 98.0547 145.754C98.4831 145.562 98.9707 145.467 99.5176 145.467C100.074 145.467 100.566 145.562 100.994 145.754C101.427 145.941 101.792 146.203 102.088 146.54C102.384 146.877 102.61 147.276 102.765 147.736C102.92 148.192 102.997 148.691 102.997 149.233V149.377C102.997 149.915 102.92 150.414 102.765 150.874C102.61 151.33 102.384 151.729 102.088 152.07C101.792 152.408 101.429 152.67 101.001 152.856C100.573 153.043 100.083 153.137 99.5312 153.137C98.9844 153.137 98.4945 153.043 98.0615 152.856C97.6286 152.67 97.264 152.408 96.9678 152.07C96.6715 151.729 96.446 151.33 96.291 150.874C96.1361 150.414 96.0586 149.915 96.0586 149.377ZM97.8633 149.233V149.377C97.8633 149.701 97.8952 150.004 97.959 150.286C98.0228 150.569 98.1208 150.817 98.2529 151.031C98.3851 151.245 98.556 151.414 98.7656 151.537C98.9798 151.656 99.235 151.715 99.5312 151.715C99.8229 151.715 100.074 151.656 100.283 151.537C100.493 151.414 100.664 151.245 100.796 151.031C100.933 150.817 101.033 150.569 101.097 150.286C101.16 150.004 101.192 149.701 101.192 149.377V149.233C101.192 148.914 101.16 148.616 101.097 148.338C101.033 148.055 100.933 147.807 100.796 147.593C100.664 147.374 100.491 147.203 100.276 147.08C100.067 146.952 99.8138 146.889 99.5176 146.889C99.2259 146.889 98.9753 146.952 98.7656 147.08C98.556 147.203 98.3851 147.374 98.2529 147.593C98.1208 147.807 98.0228 148.055 97.959 148.338C97.8952 148.616 97.8633 148.914 97.8633 149.233ZM108.377 150.977C108.377 150.822 108.336 150.683 108.254 150.56C108.172 150.437 108.017 150.325 107.789 150.225C107.566 150.12 107.238 150.022 106.805 149.931C106.422 149.849 106.069 149.746 105.745 149.623C105.422 149.5 105.144 149.352 104.911 149.179C104.679 149.001 104.496 148.794 104.364 148.557C104.237 148.315 104.173 148.037 104.173 147.723C104.173 147.417 104.239 147.13 104.371 146.861C104.503 146.588 104.695 146.349 104.945 146.144C105.196 145.934 105.501 145.77 105.861 145.651C106.221 145.528 106.627 145.467 107.078 145.467C107.707 145.467 108.247 145.569 108.698 145.774C109.154 145.979 109.503 146.262 109.744 146.622C109.986 146.978 110.106 147.379 110.106 147.825H108.302C108.302 147.629 108.256 147.451 108.165 147.292C108.078 147.132 107.944 147.005 107.762 146.909C107.579 146.809 107.349 146.759 107.071 146.759C106.821 146.759 106.609 146.8 106.436 146.882C106.267 146.964 106.139 147.071 106.053 147.203C105.966 147.335 105.923 147.481 105.923 147.641C105.923 147.759 105.946 147.866 105.991 147.962C106.041 148.053 106.121 148.137 106.23 148.215C106.34 148.292 106.488 148.363 106.675 148.427C106.866 148.491 107.101 148.552 107.379 148.611C107.93 148.721 108.411 148.867 108.821 149.049C109.236 149.227 109.56 149.464 109.792 149.76C110.024 150.056 110.141 150.434 110.141 150.895C110.141 151.223 110.07 151.523 109.929 151.797C109.787 152.066 109.582 152.3 109.313 152.501C109.045 152.701 108.723 152.859 108.35 152.973C107.976 153.082 107.554 153.137 107.085 153.137C106.406 153.137 105.832 153.016 105.362 152.774C104.893 152.528 104.537 152.218 104.296 151.845C104.054 151.466 103.934 151.075 103.934 150.669H105.663C105.677 150.956 105.754 151.186 105.896 151.359C106.037 151.533 106.215 151.658 106.429 151.735C106.647 151.808 106.878 151.845 107.119 151.845C107.393 151.845 107.623 151.808 107.81 151.735C107.996 151.658 108.138 151.555 108.233 151.428C108.329 151.296 108.377 151.145 108.377 150.977ZM113.312 147.121V153H111.508V145.604H113.21L113.312 147.121ZM113.046 149.035H112.492C112.492 148.52 112.554 148.046 112.677 147.613C112.804 147.18 112.991 146.804 113.237 146.485C113.483 146.162 113.786 145.911 114.146 145.733C114.511 145.556 114.933 145.467 115.411 145.467C115.744 145.467 116.049 145.517 116.327 145.617C116.605 145.713 116.844 145.866 117.045 146.075C117.25 146.28 117.407 146.549 117.517 146.882C117.626 147.21 117.681 147.604 117.681 148.064V153H115.876V148.249C115.876 147.903 115.826 147.632 115.726 147.436C115.63 147.24 115.491 147.103 115.309 147.025C115.126 146.943 114.908 146.902 114.652 146.902C114.37 146.902 114.126 146.959 113.921 147.073C113.72 147.183 113.554 147.335 113.422 147.531C113.294 147.727 113.199 147.953 113.135 148.208C113.076 148.463 113.046 148.739 113.046 149.035ZM117.544 148.7L116.799 148.837C116.803 148.372 116.867 147.937 116.99 147.531C117.113 147.121 117.293 146.763 117.53 146.458C117.772 146.148 118.07 145.907 118.426 145.733C118.786 145.556 119.201 145.467 119.67 145.467C120.035 145.467 120.363 145.519 120.654 145.624C120.951 145.724 121.203 145.886 121.413 146.109C121.623 146.328 121.782 146.613 121.892 146.964C122.006 147.315 122.062 147.743 122.062 148.249V153H120.244V148.242C120.244 147.882 120.194 147.606 120.094 147.415C119.998 147.224 119.859 147.091 119.677 147.019C119.494 146.941 119.28 146.902 119.034 146.902C118.784 146.902 118.565 146.95 118.378 147.046C118.196 147.137 118.041 147.265 117.913 147.429C117.79 147.593 117.697 147.784 117.633 148.003C117.574 148.217 117.544 148.45 117.544 148.7ZM123.361 149.377V149.233C123.361 148.691 123.439 148.192 123.594 147.736C123.749 147.276 123.974 146.877 124.271 146.54C124.567 146.203 124.929 145.941 125.357 145.754C125.786 145.562 126.273 145.467 126.82 145.467C127.376 145.467 127.868 145.562 128.297 145.754C128.73 145.941 129.094 146.203 129.391 146.54C129.687 146.877 129.912 147.276 130.067 147.736C130.222 148.192 130.3 148.691 130.3 149.233V149.377C130.3 149.915 130.222 150.414 130.067 150.874C129.912 151.33 129.687 151.729 129.391 152.07C129.094 152.408 128.732 152.67 128.304 152.856C127.875 153.043 127.385 153.137 126.834 153.137C126.287 153.137 125.797 153.043 125.364 152.856C124.931 152.67 124.567 152.408 124.271 152.07C123.974 151.729 123.749 151.33 123.594 150.874C123.439 150.414 123.361 149.915 123.361 149.377ZM125.166 149.233V149.377C125.166 149.701 125.198 150.004 125.262 150.286C125.326 150.569 125.424 150.817 125.556 151.031C125.688 151.245 125.859 151.414 126.068 151.537C126.283 151.656 126.538 151.715 126.834 151.715C127.126 151.715 127.376 151.656 127.586 151.537C127.796 151.414 127.966 151.245 128.099 151.031C128.235 150.817 128.336 150.569 128.399 150.286C128.463 150.004 128.495 149.701 128.495 149.377V149.233C128.495 148.914 128.463 148.616 128.399 148.338C128.336 148.055 128.235 147.807 128.099 147.593C127.966 147.374 127.793 147.203 127.579 147.08C127.369 146.952 127.117 146.889 126.82 146.889C126.529 146.889 126.278 146.952 126.068 147.08C125.859 147.203 125.688 147.374 125.556 147.593C125.424 147.807 125.326 148.055 125.262 148.338C125.198 148.616 125.166 148.914 125.166 149.233ZM135.68 150.977C135.68 150.822 135.639 150.683 135.557 150.56C135.475 150.437 135.32 150.325 135.092 150.225C134.868 150.12 134.54 150.022 134.107 149.931C133.725 149.849 133.371 149.746 133.048 149.623C132.724 149.5 132.446 149.352 132.214 149.179C131.981 149.001 131.799 148.794 131.667 148.557C131.539 148.315 131.476 148.037 131.476 147.723C131.476 147.417 131.542 147.13 131.674 146.861C131.806 146.588 131.997 146.349 132.248 146.144C132.499 145.934 132.804 145.77 133.164 145.651C133.524 145.528 133.93 145.467 134.381 145.467C135.01 145.467 135.55 145.569 136.001 145.774C136.457 145.979 136.805 146.262 137.047 146.622C137.288 146.978 137.409 147.379 137.409 147.825H135.604C135.604 147.629 135.559 147.451 135.468 147.292C135.381 147.132 135.247 147.005 135.064 146.909C134.882 146.809 134.652 146.759 134.374 146.759C134.123 146.759 133.911 146.8 133.738 146.882C133.57 146.964 133.442 147.071 133.355 147.203C133.269 147.335 133.226 147.481 133.226 147.641C133.226 147.759 133.248 147.866 133.294 147.962C133.344 148.053 133.424 148.137 133.533 148.215C133.643 148.292 133.791 148.363 133.978 148.427C134.169 148.491 134.404 148.552 134.682 148.611C135.233 148.721 135.714 148.867 136.124 149.049C136.539 149.227 136.862 149.464 137.095 149.76C137.327 150.056 137.443 150.434 137.443 150.895C137.443 151.223 137.373 151.523 137.231 151.797C137.09 152.066 136.885 152.3 136.616 152.501C136.347 152.701 136.026 152.859 135.652 152.973C135.279 153.082 134.857 153.137 134.388 153.137C133.709 153.137 133.134 153.016 132.665 152.774C132.196 152.528 131.84 152.218 131.599 151.845C131.357 151.466 131.236 151.075 131.236 150.669H132.966C132.979 150.956 133.057 151.186 133.198 151.359C133.34 151.533 133.517 151.658 133.731 151.735C133.95 151.808 134.18 151.845 134.422 151.845C134.695 151.845 134.925 151.808 135.112 151.735C135.299 151.658 135.44 151.555 135.536 151.428C135.632 151.296 135.68 151.145 135.68 150.977ZM144.888 151.093L146.87 143.047H147.943L148.012 144.742L145.893 153H144.758L144.888 151.093ZM143.637 143.047L145.264 151.065V153H144.026L141.771 143.047H143.637ZM150.069 151.031L151.669 143.047H153.542L151.286 153H150.049L150.069 151.031ZM148.456 143.047L150.438 151.12L150.555 153H149.42L147.308 144.735L147.39 143.047H148.456ZM158.437 151.428V148.017C158.437 147.766 158.393 147.549 158.307 147.367C158.22 147.185 158.088 147.044 157.91 146.943C157.732 146.843 157.507 146.793 157.233 146.793C156.992 146.793 156.78 146.834 156.598 146.916C156.42 146.998 156.283 147.114 156.188 147.265C156.092 147.41 156.044 147.579 156.044 147.771H154.232C154.232 147.465 154.305 147.176 154.451 146.902C154.597 146.624 154.804 146.378 155.073 146.164C155.347 145.945 155.673 145.774 156.051 145.651C156.434 145.528 156.862 145.467 157.336 145.467C157.896 145.467 158.396 145.562 158.833 145.754C159.275 145.941 159.621 146.223 159.872 146.602C160.127 146.98 160.255 147.456 160.255 148.03V151.257C160.255 151.626 160.278 151.943 160.323 152.207C160.373 152.467 160.446 152.692 160.542 152.884V153H158.703C158.617 152.813 158.55 152.576 158.505 152.289C158.459 151.997 158.437 151.71 158.437 151.428ZM158.689 148.495L158.703 149.568H157.562C157.279 149.568 157.031 149.598 156.816 149.657C156.602 149.712 156.427 149.794 156.29 149.903C156.153 150.008 156.051 150.136 155.982 150.286C155.914 150.432 155.88 150.598 155.88 150.785C155.88 150.967 155.921 151.132 156.003 151.277C156.09 151.423 156.213 151.539 156.372 151.626C156.536 151.708 156.728 151.749 156.946 151.749C157.265 151.749 157.543 151.685 157.78 151.558C158.017 151.425 158.202 151.266 158.334 151.079C158.466 150.892 158.537 150.715 158.546 150.546L159.065 151.325C159.002 151.512 158.906 151.71 158.778 151.92C158.651 152.13 158.487 152.326 158.286 152.508C158.086 152.69 157.844 152.84 157.562 152.959C157.279 153.077 156.951 153.137 156.577 153.137C156.099 153.137 155.67 153.041 155.292 152.85C154.914 152.658 154.615 152.396 154.396 152.063C154.178 151.731 154.068 151.353 154.068 150.929C154.068 150.537 154.141 150.19 154.287 149.89C154.433 149.589 154.649 149.336 154.937 149.131C155.224 148.921 155.579 148.764 156.003 148.659C156.431 148.55 156.921 148.495 157.473 148.495H158.689ZM163.796 142.5V153H161.984V142.5H163.796ZM167.433 142.5V153H165.621V142.5H167.433ZM172.478 153.137C171.917 153.137 171.413 153.046 170.967 152.863C170.52 152.681 170.14 152.428 169.825 152.104C169.515 151.776 169.276 151.396 169.107 150.963C168.943 150.525 168.861 150.056 168.861 149.555V149.281C168.861 148.712 168.943 148.194 169.107 147.729C169.271 147.26 169.504 146.857 169.805 146.52C170.105 146.182 170.465 145.923 170.885 145.74C171.304 145.558 171.767 145.467 172.272 145.467C172.797 145.467 173.259 145.556 173.66 145.733C174.061 145.907 174.396 146.153 174.665 146.472C174.934 146.791 175.137 147.174 175.273 147.62C175.41 148.062 175.479 148.552 175.479 149.09V149.849H169.682V148.604H173.701V148.468C173.692 148.181 173.637 147.919 173.537 147.682C173.437 147.44 173.282 147.249 173.072 147.107C172.863 146.962 172.591 146.889 172.259 146.889C171.99 146.889 171.755 146.948 171.555 147.066C171.359 147.18 171.195 147.344 171.062 147.559C170.935 147.768 170.839 148.019 170.775 148.311C170.712 148.602 170.68 148.926 170.68 149.281V149.555C170.68 149.865 170.721 150.152 170.803 150.416C170.889 150.68 171.015 150.91 171.179 151.106C171.347 151.298 171.548 151.448 171.78 151.558C172.017 151.662 172.286 151.715 172.587 151.715C172.965 151.715 173.307 151.642 173.612 151.496C173.922 151.346 174.191 151.125 174.419 150.833L175.328 151.776C175.173 152.004 174.964 152.223 174.699 152.433C174.439 152.642 174.125 152.813 173.756 152.945C173.387 153.073 172.961 153.137 172.478 153.137ZM180.188 145.604V146.902H175.95V145.604H180.188ZM177.085 143.785H178.896V150.867C178.896 151.086 178.926 151.255 178.985 151.373C179.045 151.492 179.133 151.571 179.252 151.612C179.37 151.653 179.512 151.674 179.676 151.674C179.794 151.674 179.904 151.667 180.004 151.653C180.104 151.64 180.188 151.626 180.257 151.612L180.264 152.966C180.113 153.016 179.942 153.057 179.751 153.089C179.564 153.121 179.352 153.137 179.115 153.137C178.71 153.137 178.354 153.068 178.049 152.932C177.743 152.79 177.507 152.565 177.338 152.255C177.169 151.94 177.085 151.526 177.085 151.011V143.785Z" fill="black"/>
<path fill-rule="evenodd" clip-rule="evenodd" d="M260.666 148.58C260.666 148.266 260.44 148.013 260.133 147.926C259.286 147.693 258.666 146.92 258.666 146V142.666H259.333C259.7 142.666 260 142.366 260 142C260 141.633 259.7 141.333 259.333 141.333H252.666C252.3 141.333 252 141.633 252 142C252 142.366 252.3 142.666 252.666 142.666H253.333V146C253.333 146.92 252.713 147.693 251.866 147.926C251.56 148.013 251.333 148.266 251.333 148.58V148.666C251.333 149.033 251.633 149.333 252 149.333H255.32L255.333 154C255.333 154.366 255.633 154.666 256 154.666C256.366 154.666 256.666 154.366 256.666 154L256.653 149.333H260C260.366 149.333 260.666 149.033 260.666 148.666V148.58Z" fill="#3972E0"/>
<path d="M290 144.666C290.916 144.666 291.666 143.916 291.666 143C291.666 142.083 290.916 141.333 290 141.333C289.083 141.333 288.333 142.083 288.333 143C288.333 143.916 289.083 144.666 290 144.666ZM290 146.333C289.083 146.333 288.333 147.083 288.333 148C288.333 148.916 289.083 149.666 290 149.666C290.916 149.666 291.666 148.916 291.666 148C291.666 147.083 290.916 146.333 290 146.333ZM290 151.333C289.083 151.333 288.333 152.083 288.333 153C288.333 153.916 289.083 154.666 290 154.666C290.916 154.666 291.666 153.916 291.666 153C291.666 152.083 290.916 151.333 290 151.333Z" fill="#606367"/>
<rect x="20" y="172" width="16" height="16" rx="8" fill="#F4F4F4"/>
<rect x="52" y="172" width="53" height="16" rx="4" fill="#F4F4F4"/>
<path d="M257.333 174.666V178C257.333 178.746 257.58 179.44 258 180H254C254.433 179.426 254.666 178.733 254.666 178V174.666H257.333ZM259.333 173.333H252.666C252.3 173.333 252 173.633 252 174C252 174.366 252.3 174.666 252.666 174.666H253.333V178C253.333 179.106 252.44 180 251.333 180V181.333H255.313V186L255.98 186.666L256.646 186V181.333H260.666V180C259.56 180 258.666 179.106 258.666 178V174.666H259.333C259.7 174.666 260 174.366 260 174C260 173.633 259.7 173.333 259.333 173.333Z" fill="#606367"/>
<path d="M290 176.666C290.916 176.666 291.666 175.916 291.666 175C291.666 174.083 290.916 173.333 290 173.333C289.083 173.333 288.333 174.083 288.333 175C288.333 175.916 289.083 176.666 290 176.666ZM290 178.333C289.083 178.333 288.333 179.083 288.333 180C288.333 180.916 289.083 181.666 290 181.666C290.916 181.666 291.666 180.916 291.666 180C291.666 179.083 290.916 178.333 290 178.333ZM290 183.333C289.083 183.333 288.333 184.083 288.333 185C288.333 185.916 289.083 186.666 290 186.666C290.916 186.666 291.666 185.916 291.666 185C291.666 184.083 290.916 183.333 290 183.333Z" fill="#606367"/>
<rect x="0.5" y="42.5" width="319" height="167" rx="7.5" stroke="#D6D6D6"/>
<path d="M94.5718 12.9057C95.7083 11.3475 96.4886 9.9215 96.7076 8.72977C95.9324 9.09699 95.1365 9.46928 94.3846 9.81591C93.2317 10.3473 92.1602 10.8286 91.4126 11.1429C91.0551 11.2932 90.7131 11.4304 90.4653 11.51C90.4 11.5309 90.3097 11.5582 90.2098 11.5806L90.2096 11.5807L90.2096 11.5807L90.2089 11.5808C90.1519 11.5941 89.8669 11.6607 89.5255 11.6143C89.3894 11.5958 88.7157 11.497 88.2756 10.8308C87.7657 10.0588 88.0494 9.30782 88.1511 9.09146C88.2698 8.83865 88.4208 8.67363 88.4743 8.61649C88.5458 8.54015 88.6118 8.48229 88.6544 8.44657C89.8402 7.45155 91.4157 6.71228 92.8663 6.14213C93.959 5.71265 95.094 5.33789 96.0589 5.01929L96.0643 5.0175C96.2946 4.94144 96.515 4.86867 96.7237 4.79887C97.6872 4.33366 98.5186 3.92262 99.0546 3.64392L99.2853 4.08754L99.0546 3.64392C99.4884 3.41839 100.057 3.25111 100.697 3.35781C101.348 3.46661 101.833 3.81996 102.159 4.19251C102.735 4.84992 102.981 5.74889 103.116 6.44968C103.407 7.9602 103.432 10.0472 103.36 12.107C103.247 15.3678 102.867 18.9886 102.655 21.0089L102.654 21.0138C102.595 21.5751 102.55 22.0073 102.526 22.2772C102.441 23.2509 101.583 23.9711 100.609 23.8859C99.6353 23.8007 98.9151 22.9423 99.0003 21.9686L99.4984 22.0122L99.0003 21.9686C99.0287 21.644 99.0795 21.1593 99.1419 20.5637L99.1425 20.5573C99.3572 18.5086 99.7143 15.0982 99.8231 11.9835C99.8394 11.5168 99.8497 11.0653 99.8533 10.6332C99.3154 12.2033 98.3732 13.7003 97.4316 14.9914C96.5375 16.2173 95.5236 17.4109 94.6751 18.4099L94.6701 18.4158C94.3249 18.8222 94.0084 19.1948 93.7352 19.5276C89.3854 24.8268 84.9914 27.9898 79.941 29.9199C74.9509 31.827 69.4192 32.4884 62.917 32.9592C61.9421 33.0298 61.0946 32.2968 61.024 31.3219C60.9534 30.347 61.6865 29.4995 62.6613 29.4289C69.1364 28.9601 74.2131 28.3198 78.6774 26.6136C83.0816 24.9305 86.9881 22.1686 90.9993 17.2818C91.328 16.8814 91.6808 16.4662 92.043 16.04L92.0447 16.038C92.8752 15.0606 93.7592 14.02 94.5718 12.9057Z" fill="#29A874" stroke="white" stroke-linecap="round"/>
<rect x="16" y="20" width="36" height="36" rx="12" fill="black"/>
<path d="M40.6667 37.5833H39.4167V34.25C39.4167 33.3333 38.6667 32.5833 37.75 32.5833H34.4167V31.3333C34.4167 30.1833 33.4833 29.25 32.3333 29.25C31.1833 29.25 30.25 30.1833 30.25 31.3333V32.5833H26.9167C26 32.5833 25.2583 33.3333 25.2583 34.25V37.4167H26.5C27.7417 37.4167 28.75 38.425 28.75 39.6667C28.75 40.9083 27.7417 41.9167 26.5 41.9167H25.25V45.0833C25.25 46 26 46.75 26.9167 46.75H30.0833V45.5C30.0833 44.2583 31.0917 43.25 32.3333 43.25C33.575 43.25 34.5833 44.2583 34.5833 45.5V46.75H37.75C38.6667 46.75 39.4167 46 39.4167 45.0833V41.75H40.6667C41.8167 41.75 42.75 40.8167 42.75 39.6667C42.75 38.5167 41.8167 37.5833 40.6667 37.5833Z" fill="white"/>
<rect x="16" y="20" width="36" height="36" rx="12" stroke="white" stroke-width="2"/>
<defs>
<clipPath id="clip0_4172_48220">
<rect width="15.7613" height="10.5075" fill="white" transform="translate(20.3262 140)"/>
</clipPath>
</defs>
</svg>

