<svg width="20" height="21" viewBox="0 0 20 21" fill="none" xmlns="http://www.w3.org/2000/svg">
<path d="M7.59 7.36612L10.67 10.5011L7.59 13.6361L9 15.0815L13.5 10.5011L9 5.92076L7.59 7.36612ZM-4.37114e-07 10.5011C-1.95827e-07 16.1197 4.48 20.6797 10 20.6797C15.52 20.6797 20 16.1197 20 10.5011C20 4.88254 15.52 0.322545 10 0.322546C4.48 0.322546 -6.78401e-07 4.88255 -4.37114e-07 10.5011ZM18 10.5011C18 15 14.42 18.644 10 18.644C5.58 18.644 2 15 2 10.5011C2 6.00219 5.58 2.35826 10 2.35826C14.42 2.35826 18 6.00219 18 10.5011Z" fill="#9E9E9E"/>
</svg>
