<svg width="32" height="32" viewBox="0 0 32 32" fill="none" xmlns="http://www.w3.org/2000/svg">
<rect width="32" height="32" rx="16" fill="white"/>
<path d="M13.9166 19.3333V12.6667C13.9166 11.75 14.6583 11 15.5833 11H23.0833V10.1667C23.0833 9.25 22.3333 8.5 21.4166 8.5H9.74992C8.82492 8.5 8.08325 9.25 8.08325 10.1667V21.8333C8.08325 22.75 8.82492 23.5 9.74992 23.5H21.4166C22.3333 23.5 23.0833 22.75 23.0833 21.8333V21H15.5833C14.6583 21 13.9166 20.25 13.9166 19.3333ZM16.4166 12.6667C15.9583 12.6667 15.5833 13.0417 15.5833 13.5V18.5C15.5833 18.9583 15.9583 19.3333 16.4166 19.3333H23.9166V12.6667H16.4166ZM18.9166 17.25C18.2249 17.25 17.6666 16.6917 17.6666 16C17.6666 15.3083 18.2249 14.75 18.9166 14.75C19.6083 14.75 20.1666 15.3083 20.1666 16C20.1666 16.6917 19.6083 17.25 18.9166 17.25Z" fill="black"/>
</svg>

