<svg width="36" height="36" viewBox="0 0 36 36" fill="none" xmlns="http://www.w3.org/2000/svg">
<path fill-rule="evenodd" clip-rule="evenodd" d="M18 3C9.71572 3 3 9.71572 3 18C3 26.2842 9.71572 33 18 33C26.2842 33 33 26.2842 33 18C33 9.71572 26.2842 3 18 3ZM0 18C0 8.05887 8.05887 0 18 0C27.9411 0 36 8.05887 36 18C36 27.9411 27.9411 36 18 36C8.05887 36 0 27.9411 0 18ZM15.8787 18L10.9393 13.0607L13.0607 10.9393L18 15.8787L22.9394 10.9393L25.0606 13.0607L20.1213 18L25.0606 22.9394L22.9394 25.0606L18 20.1213L13.0607 25.0606L10.9393 22.9394L15.8787 18Z" fill="#420006"/>
</svg>
