<svg width="24" height="24" viewBox="0 0 24 24" fill="none" xmlns="http://www.w3.org/2000/svg">
<path d="M13.5 3.04525V9.96525H21.5C21.5 5.93525 18.52 2.59525 14.64 2.04525C14.04 1.95525 13.5 2.43525 13.5 3.04525ZM19.82 15.8552C20.87 14.5052 21.5 12.8052 21.5 10.9652H6.94L6.26 9.53525C6.1 9.18525 5.74 8.96525 5.36 8.96525H3.5C2.95 8.96525 2.5 9.41525 2.5 9.96525C2.5 10.5152 2.95 10.9652 3.5 10.9652H4.72C4.72 10.9652 6.61 15.0352 6.84 15.3852C5.51 16.0952 4.7 17.6552 5.1 19.3252C5.4 20.5852 6.44 21.5952 7.7 21.8752C9.8 22.3352 11.68 20.9152 11.95 18.9652H14.03C14.3 20.9052 16.17 22.3252 18.25 21.8852C19.52 21.6152 20.56 20.6152 20.88 19.3552C21.23 17.9652 20.74 16.6752 19.82 15.8552ZM8.5 19.9652C7.67 19.9652 7 19.2952 7 18.4652C7 17.6352 7.67 16.9652 8.5 16.9652C9.33 16.9652 10 17.6352 10 18.4652C10 19.2952 9.33 19.9652 8.5 19.9652ZM17.5 19.9652C16.67 19.9652 16 19.2952 16 18.4652C16 17.6352 16.67 16.9652 17.5 16.9652C18.33 16.9652 19 17.6352 19 18.4652C19 19.2952 18.33 19.9652 17.5 19.9652Z" fill="#B558E4"/>
</svg>

