<svg width="24" height="24" viewBox="0 0 24 24" fill="none" xmlns="http://www.w3.org/2000/svg">
<path d="M16.5 11C17.2 11 17.87 11.1 18.5 11.29V10C18.5 8.9 17.6 8 16.5 8H15.5V6C15.5 3.24 13.26 1 10.5 1C7.74 1 5.5 3.24 5.5 6V8H4.5C3.4 8 2.5 8.9 2.5 10V20C2.5 21.1 3.4 22 4.5 22H10.76C9.97 20.87 9.5 19.49 9.5 18C9.5 14.13 12.63 11 16.5 11ZM7.5 6C7.5 4.34 8.84 3 10.5 3C12.16 3 13.5 4.34 13.5 6V8H7.5V6Z" fill="#6B75D7"/>
<path d="M16.5 13C13.74 13 11.5 15.24 11.5 18C11.5 20.76 13.74 23 16.5 23C19.26 23 21.5 20.76 21.5 18C21.5 15.24 19.26 13 16.5 13ZM18.5 20C18.3 20.2 17.99 20.2 17.79 20L16.14 18.35C16.05 18.26 15.99 18.13 15.99 18V15.5C15.99 15.22 16.21 15 16.49 15C16.77 15 16.99 15.22 16.99 15.5V17.79L18.49 19.29C18.7 19.49 18.7 19.8 18.5 20Z" fill="#6B75D7"/>
</svg>

