<svg width="24" height="24" viewBox="0 0 24 24" fill="none" xmlns="http://www.w3.org/2000/svg">
<path d="M12.6492 10.0011C11.6992 7.3111 8.89921 5.5011 5.76921 6.1211C3.47921 6.5811 1.61921 8.4111 1.13921 10.7011C0.319207 14.5711 3.25921 18.0011 6.99921 18.0011C9.60921 18.0011 11.8292 16.3311 12.6492 14.0011H16.9992V16.0011C16.9992 17.1011 17.8992 18.0011 18.9992 18.0011C20.0992 18.0011 20.9992 17.1011 20.9992 16.0011V14.0011C22.0992 14.0011 22.9992 13.1011 22.9992 12.0011C22.9992 10.9011 22.0992 10.0011 20.9992 10.0011H12.6492ZM6.99921 14.0011C5.89921 14.0011 4.99921 13.1011 4.99921 12.0011C4.99921 10.9011 5.89921 10.0011 6.99921 10.0011C8.09921 10.0011 8.99921 10.9011 8.99921 12.0011C8.99921 13.1011 8.09921 14.0011 6.99921 14.0011Z" fill="#4F4F4F"/>
</svg>
