<svg width="40" height="40" viewBox="0 0 40 40" fill="none" xmlns="http://www.w3.org/2000/svg">
<path d="M0 12C0 5.37258 5.37258 0 12 0H28C34.6274 0 40 5.37258 40 12V28C40 34.6274 34.6274 40 28 40H12C5.37258 40 0 34.6274 0 28V12Z" fill="white"/>
<g clip-path="url(#clip0_3738_54202)">
<path d="M29.6211 22.9958C29.6211 26.4469 25.4319 27.85 20.2263 27.85C15.0207 27.85 10.7705 26.4469 10.7705 22.9958C10.7705 19.5448 14.9902 16.7471 20.1958 16.7471C25.4014 16.7471 29.6211 19.5448 29.6211 22.9958Z" fill="#1F7F58"/>
<path d="M28.6602 15.466C28.6599 14.7877 28.4502 14.1261 28.0597 13.5714C27.6693 13.0168 27.1171 12.5962 26.4787 12.3671C25.8403 12.138 25.1467 12.1115 24.4927 12.2913C23.8386 12.4711 23.2561 12.8484 22.8245 13.3717C21.1039 12.9919 19.3212 12.9919 17.6006 13.3717C17.0763 12.7329 16.3311 12.3144 15.5127 12.1993C14.6943 12.0843 13.8625 12.281 13.1824 12.7506C12.5023 13.2202 12.0235 13.9282 11.8411 14.7343C11.6586 15.5403 11.7858 16.3855 12.1974 17.1022C11.9328 17.6585 11.7945 18.2663 11.7923 18.8823C11.7923 22.0832 15.5618 24.6778 20.211 24.6778C24.8602 24.6778 28.6297 22.0832 28.6297 18.8823C28.6278 18.2663 28.4895 17.6584 28.2247 17.1022C28.5109 16.6045 28.6611 16.0402 28.6602 15.466Z" fill="#29A874"/>
<path d="M14.7969 17.2961C15.9087 17.2961 16.81 16.3948 16.81 15.2829C16.81 14.1711 15.9087 13.2698 14.7969 13.2698C13.685 13.2698 12.7837 14.1711 12.7837 15.2829C12.7837 16.3948 13.685 17.2961 14.7969 17.2961Z" fill="white"/>
<path d="M25.5337 17.2961C26.6455 17.2961 27.5468 16.3948 27.5468 15.2829C27.5468 14.1711 26.6455 13.2698 25.5337 13.2698C24.4218 13.2698 23.5205 14.1711 23.5205 15.2829C23.5205 16.3948 24.4218 17.2961 25.5337 17.2961Z" fill="white"/>
<path d="M13.72 27.6061C13.8221 27.6062 13.9232 27.5848 14.0165 27.5432C14.1098 27.5016 14.1933 27.4408 14.2615 27.3647C14.3297 27.2887 14.3811 27.1991 14.4124 27.1018C14.4436 27.0046 14.454 26.9018 14.4429 26.8002C14.2733 25.2879 13.5211 22.0119 10.2213 20.0415C5.82896 17.4183 9.30625 26.447 9.30625 26.447L8.39788 26.9704C8.3328 27.0078 8.28188 27.0656 8.25303 27.1348C8.22419 27.2041 8.21903 27.281 8.23838 27.3535C8.25772 27.426 8.30047 27.49 8.35998 27.5357C8.4195 27.5814 8.49244 27.6062 8.56747 27.6061H13.72Z" fill="#29A874"/>
<path d="M26.8305 27.6061C26.4389 27.6061 26.1326 27.2303 26.1766 26.8002C26.3303 25.2879 27.0099 22.0119 29.9924 20.0415C33.9626 17.4183 30.8197 26.447 30.8197 26.447L31.6408 26.9704C31.9141 27.1443 31.8024 27.6061 31.4871 27.6061H26.8305Z" fill="#29A874"/>
<path d="M14.7967 15.6491C14.9988 15.6491 15.1627 15.4852 15.1627 15.283C15.1627 15.0809 14.9988 14.917 14.7967 14.917C14.5945 14.917 14.4307 15.0809 14.4307 15.283C14.4307 15.4852 14.5945 15.6491 14.7967 15.6491Z" fill="black"/>
<path d="M25.5335 15.6491C25.7357 15.6491 25.8995 15.4852 25.8995 15.283C25.8995 15.0809 25.7357 14.917 25.5335 14.917C25.3314 14.917 25.1675 15.0809 25.1675 15.283C25.1675 15.4852 25.3314 15.6491 25.5335 15.6491Z" fill="black"/>
</g>
<defs>
<clipPath id="clip0_3738_54202">
<rect width="24" height="15.6783" fill="white" transform="translate(8 12.1719)"/>
</clipPath>
</defs>
</svg>
