<svg width="30" height="30" viewBox="0 0 30 30" fill="none" xmlns="http://www.w3.org/2000/svg">
<path d="M26.2143 17.2857H17.2857V26.2143C17.2857 27.1964 16.4821 28 15.5 28C14.5179 28 13.7143 27.1964 13.7143 26.2143V17.2857H4.78571C3.80357 17.2857 3 16.4821 3 15.5C3 14.5179 3.80357 13.7143 4.78571 13.7143H13.7143V4.78571C13.7143 3.80357 14.5179 3 15.5 3C16.4821 3 17.2857 3.80357 17.2857 4.78571V13.7143H26.2143C27.1964 13.7143 28 14.5179 28 15.5C28 16.4821 27.1964 17.2857 26.2143 17.2857Z" fill="#FFC770"/>
</svg>
