<svg xmlns="http://www.w3.org/2000/svg" width="20" height="20" viewBox="0 0 20 20" fill="none">
<path d="M17.0984 12.4363C17.0984 14.9703 14.0058 16 10.166 16C6.32619 16 3.1886 14.9703 3.1886 12.4363C3.1886 9.90232 6.30368 7.85184 10.1435 7.85184C13.9833 7.85184 17.0984 9.9068 17.0984 12.4363Z" fill="#24A95A"/>
<path d="M16.3922 6.91296C16.3922 5.5788 15.3029 4.49536 13.9614 4.49536C13.2638 4.49536 12.6351 4.78868 12.192 5.25585C12.1234 5.32822 12.0231 5.36348 11.9253 5.34374C11.364 5.23041 10.7702 5.16692 10.1576 5.16692C9.54503 5.16692 8.95127 5.22666 8.38999 5.34273C8.29212 5.36297 8.19138 5.32829 8.12233 5.25604C7.6757 4.78876 7.04729 4.49536 6.35375 4.49536C5.01229 4.49536 3.92291 5.5788 3.92291 6.91296C3.92291 7.30209 4.01497 7.66656 4.17711 7.99076C4.21594 8.0684 4.21984 8.15931 4.18625 8.23934C4.02896 8.61415 3.94542 9.0099 3.94542 9.4201C3.94542 11.7705 6.72738 13.6733 10.1576 13.6733C13.5878 13.6733 16.3697 11.7705 16.3697 9.4201C16.3697 9.0099 16.2862 8.61415 16.1289 8.23934C16.0953 8.15931 16.0992 8.0684 16.138 7.99076C16.3002 7.66656 16.3922 7.30209 16.3922 6.91296Z" fill="#32DA6D"/>
<path d="M16.3922 6.91296C16.3922 5.5788 15.3029 4.49536 13.9614 4.49536C13.2638 4.49536 12.6351 4.78868 12.192 5.25585C12.1234 5.32822 12.0231 5.36348 11.9253 5.34374C11.364 5.23041 10.7702 5.16692 10.1576 5.16692C9.54503 5.16692 8.95127 5.22666 8.38999 5.34273C8.29212 5.36297 8.19138 5.32829 8.12233 5.25604C7.6757 4.78876 7.04729 4.49536 6.35375 4.49536C5.01229 4.49536 3.92291 5.5788 3.92291 6.91296C3.92291 7.30209 4.01497 7.66656 4.17711 7.99076C4.21594 8.0684 4.21984 8.15931 4.18625 8.23934C4.02896 8.61415 3.94542 9.0099 3.94542 9.4201C3.94542 11.7705 6.72738 13.6733 10.1576 13.6733C13.5878 13.6733 16.3697 11.7705 16.3697 9.4201C16.3697 9.0099 16.2862 8.61415 16.1289 8.23934C16.0953 8.15931 16.0992 8.0684 16.138 7.99076C16.3002 7.66656 16.3922 7.30209 16.3922 6.91296Z" fill="url(#paint0_radial_577_36075)"/>
<path d="M12.1175 9.92792C12.3392 9.94699 12.5068 10.1437 12.4509 10.3591C12.4058 10.5331 12.3412 10.702 12.258 10.8624C12.1128 11.1423 11.9139 11.3909 11.6726 11.594C11.4313 11.7971 11.1524 11.9506 10.8517 12.0459C10.5511 12.1412 10.2346 12.1763 9.92044 12.1492C9.60623 12.1222 9.30043 12.0336 9.02049 11.8883C8.74054 11.7431 8.49194 11.5442 8.28888 11.3029C8.08582 11.0616 7.93227 10.7827 7.837 10.4821C7.76884 10.267 7.73147 10.0438 7.72562 9.8191C7.72176 9.67082 7.85345 9.56109 8.00123 9.5738L10.1263 9.75662L12.1175 9.92792Z" fill="#092511"/>
<path d="M6.15519 8.2541C6.97562 8.2541 7.64071 7.59264 7.64071 6.77668C7.64071 5.96072 6.97562 5.29926 6.15519 5.29926C5.33477 5.29926 4.66968 5.96072 4.66968 6.77668C4.66968 7.59264 5.33477 8.2541 6.15519 8.2541Z" fill="white"/>
<path d="M14.0803 8.2541C14.9007 8.2541 15.5658 7.59264 15.5658 6.77668C15.5658 5.96072 14.9007 5.29926 14.0803 5.29926C13.2599 5.29926 12.5948 5.96072 12.5948 6.77668C12.5948 7.59264 13.2599 8.2541 14.0803 8.2541Z" fill="white"/>
<path d="M5.36693 15.8177C5.68654 15.8177 5.93863 15.5401 5.90261 15.2267C5.77207 14.1164 5.21838 11.7123 2.78303 10.2662C0.11338 8.68048 1.3835 12.8963 1.91439 14.4323C2.02177 14.743 1.89724 15.0879 1.61216 15.2516L1.43707 15.3521C1.21199 15.4819 1.30652 15.8177 1.56311 15.8177H5.36693Z" fill="#32DA6D"/>
<path d="M5.36693 15.8177C5.68654 15.8177 5.93863 15.5401 5.90261 15.2267C5.77207 14.1164 5.21838 11.7123 2.78303 10.2662C0.11338 8.68048 1.3835 12.8963 1.91439 14.4323C2.02177 14.743 1.89724 15.0879 1.61216 15.2516L1.43707 15.3521C1.21199 15.4819 1.30652 15.8177 1.56311 15.8177H5.36693Z" fill="url(#paint1_radial_577_36075)"/>
<path d="M15.0417 15.8177C14.7536 15.8177 14.5286 15.5401 14.5601 15.2267C14.6726 14.1209 15.1768 11.7122 17.3736 10.2661C19.8061 8.66814 18.6221 12.9621 18.1495 14.4675C18.0567 14.7629 18.1708 15.0843 18.4323 15.25L18.5935 15.3521C18.796 15.4819 18.7105 15.8177 18.4809 15.8177H15.0417Z" fill="#32DA6D"/>
<path d="M15.0417 15.8177C14.7536 15.8177 14.5286 15.5401 14.5601 15.2267C14.6726 14.1209 15.1768 11.7122 17.3736 10.2661C19.8061 8.66814 18.6221 12.9621 18.1495 14.4675C18.0567 14.7629 18.1708 15.0843 18.4323 15.25L18.5935 15.3521C18.796 15.4819 18.7105 15.8177 18.4809 15.8177H15.0417Z" fill="url(#paint2_radial_577_36075)"/>
<path d="M6.15737 7.6603C6.64681 7.6603 7.04357 7.26354 7.04357 6.7741C7.04357 6.28467 6.64681 5.88791 6.15737 5.88791C5.66794 5.88791 5.27118 6.28467 5.27118 6.7741C5.27118 7.26354 5.66794 7.6603 6.15737 7.6603Z" fill="#092511"/>
<path d="M14.0825 7.6603C14.5719 7.6603 14.9687 7.26354 14.9687 6.7741C14.9687 6.28467 14.5719 5.88791 14.0825 5.88791C13.5931 5.88791 13.1963 6.28467 13.1963 6.7741C13.1963 7.26354 13.5931 7.6603 14.0825 7.6603Z" fill="#092511"/>
<defs>
<radialGradient id="paint0_radial_577_36075" cx="0" cy="0" r="1" gradientUnits="userSpaceOnUse" gradientTransform="translate(9.30007 5.63458) rotate(84.0479) scale(8.08227 10.8717)">
<stop stop-color="#32DA6D"/>
<stop offset="0.557236" stop-color="#56E488"/>
</radialGradient>
<radialGradient id="paint1_radial_577_36075" cx="0" cy="0" r="1" gradientUnits="userSpaceOnUse" gradientTransform="translate(3.1975 10.648) rotate(86.4571) scale(5.17959 4.16649)">
<stop stop-color="#32DA6D"/>
<stop offset="0.557236" stop-color="#56E488"/>
</radialGradient>
<radialGradient id="paint2_radial_577_36075" cx="0" cy="0" r="1" gradientUnits="userSpaceOnUse" gradientTransform="translate(16.411 10.648) rotate(86.8009) scale(5.17775 3.76264)">
<stop stop-color="#32DA6D"/>
<stop offset="0.557236" stop-color="#56E488"/>
</radialGradient>
</defs>
</svg>