<svg width="73" height="73" viewBox="0 0 73 73" fill="none" xmlns="http://www.w3.org/2000/svg">
<circle cx="37.0625" cy="36.6802" r="25.875" fill="white"/>
<path d="M36.5 6.68018C19.94 6.68018 6.5 20.1202 6.5 36.6802C6.5 53.2402 19.94 66.6802 36.5 66.6802C53.06 66.6802 66.5 53.2402 66.5 36.6802C66.5 20.1202 53.06 6.68018 36.5 6.68018ZM28.37 49.5502L17.6 38.7802C16.43 37.6102 16.43 35.7202 17.6 34.5502C18.77 33.3802 20.66 33.3802 21.83 34.5502L30.5 43.1902L51.14 22.5502C52.31 21.3802 54.2 21.3802 55.37 22.5502C56.54 23.7202 56.54 25.6102 55.37 26.7802L32.6 49.5502C31.46 50.7202 29.54 50.7202 28.37 49.5502Z" fill="#29A874"/>
</svg>
