<svg width="14" height="14" viewBox="0 0 14 14" fill="none" xmlns="http://www.w3.org/2000/svg">
<path d="M6.06671 8.19992L4.63337 6.76659C4.51115 6.64436 4.3556 6.58325 4.16671 6.58325C3.97782 6.58325 3.82226 6.64436 3.70004 6.76659C3.57782 6.88881 3.51671 7.04436 3.51671 7.23325C3.51671 7.42214 3.57782 7.5777 3.70004 7.69992L5.60004 9.59992C5.73337 9.73325 5.88893 9.79992 6.06671 9.79992C6.24449 9.79992 6.40004 9.73325 6.53337 9.59992L10.3 5.83325C10.4223 5.71103 10.4834 5.55547 10.4834 5.36659C10.4834 5.1777 10.4223 5.02214 10.3 4.89992C10.1778 4.7777 10.0223 4.71659 9.83337 4.71659C9.64449 4.71659 9.48893 4.7777 9.36671 4.89992L6.06671 8.19992ZM7.00004 13.6666C6.07782 13.6666 5.21115 13.4916 4.40004 13.1416C3.58893 12.7916 2.88337 12.3166 2.28337 11.7166C1.68337 11.1166 1.20837 10.411 0.858374 9.59992C0.508374 8.78881 0.333374 7.92214 0.333374 6.99992C0.333374 6.0777 0.508374 5.21103 0.858374 4.39992C1.20837 3.58881 1.68337 2.88325 2.28337 2.28325C2.88337 1.68325 3.58893 1.20825 4.40004 0.858252C5.21115 0.508252 6.07782 0.333252 7.00004 0.333252C7.92226 0.333252 8.78893 0.508252 9.60004 0.858252C10.4112 1.20825 11.1167 1.68325 11.7167 2.28325C12.3167 2.88325 12.7917 3.58881 13.1417 4.39992C13.4917 5.21103 13.6667 6.0777 13.6667 6.99992C13.6667 7.92214 13.4917 8.78881 13.1417 9.59992C12.7917 10.411 12.3167 11.1166 11.7167 11.7166C11.1167 12.3166 10.4112 12.7916 9.60004 13.1416C8.78893 13.4916 7.92226 13.6666 7.00004 13.6666ZM7.00004 12.3333C8.48893 12.3333 9.75004 11.8166 10.7834 10.7833C11.8167 9.74992 12.3334 8.48881 12.3334 6.99992C12.3334 5.51103 11.8167 4.24992 10.7834 3.21659C9.75004 2.18325 8.48893 1.66659 7.00004 1.66659C5.51115 1.66659 4.25004 2.18325 3.21671 3.21659C2.18337 4.24992 1.66671 5.51103 1.66671 6.99992C1.66671 8.48881 2.18337 9.74992 3.21671 10.7833C4.25004 11.8166 5.51115 12.3333 7.00004 12.3333Z" fill="#3ACF92"/>
</svg>
