<svg width="21" height="21" viewBox="0 0 21 21" fill="none" xmlns="http://www.w3.org/2000/svg">
<g clip-path="url(#clip0_4108_25702)">
<path fill-rule="evenodd" clip-rule="evenodd" d="M12.6 8.40003L10.5 0.875032L8.40003 8.40003L0.875029 10.5L8.40003 12.6L10.5 20.125L12.6 12.6L20.125 10.5L12.6 8.40003ZM9.79338 0.0234379C4.55744 0.371396 0.371394 4.55744 0.0234375 9.79338L0.612529 9.62503L1.83251 9.29367C2.08755 7.44422 2.9206 5.77925 4.14346 4.48697L6.22784 8.09989L7.70003 7.70003L8.09989 6.22784L4.48697 4.14346C5.77925 2.9206 7.44422 2.08755 9.29367 1.83251L9.62503 0.61253L9.79338 0.0234379ZM0.0234375 11.2067C0.371394 16.4426 4.55744 20.6287 9.79338 20.9766L9.62503 20.3875L9.29367 19.1675C7.44422 18.9125 5.77925 18.0795 4.48697 16.8566L8.09989 14.7722L7.70003 13.3L6.22784 12.9002L4.14346 16.5131C2.9206 15.2208 2.08755 13.5559 1.83251 11.7064L0.612529 11.375L0.0234375 11.2067ZM11.2067 20.9767C16.4426 20.6287 20.6287 16.4426 20.9767 11.2067L20.3875 11.375L19.1675 11.7064C18.9125 13.5559 18.0795 15.2208 16.8566 16.5131L14.7722 12.9002L13.3 13.3L12.9002 14.7722L16.5131 16.8566C15.2208 18.0795 13.5559 18.9125 11.7064 19.1675L11.375 20.3875L11.2067 20.9767ZM20.9767 9.79338C20.6287 4.55744 16.4426 0.371393 11.2067 0.0234375L11.375 0.61253L11.7064 1.83251C13.5559 2.08755 15.2208 2.9206 16.5131 4.14346L12.9002 6.22783L13.3 7.70003L14.7722 8.09989L16.8566 4.48697C18.0795 5.77925 18.9125 7.44422 19.1675 9.29367L20.3875 9.62503L20.9767 9.79338Z" fill="#212121"/>
</g>
<defs>
<clipPath id="clip0_4108_25702">
<rect width="21" height="21" fill="white"/>
</clipPath>
</defs>
</svg>
