<svg width="19" height="18" viewBox="0 0 19 18" fill="none" xmlns="http://www.w3.org/2000/svg">
<path fill-rule="evenodd" clip-rule="evenodd" d="M7.70102 10.8L9.50102 17.25L11.301 10.8L17.751 9.00004L11.301 7.20004L9.50102 0.750039L7.70102 7.20004L1.25102 9.00004L7.70102 10.8ZM10.1067 17.98C14.5947 17.6817 18.1827 14.0937 18.481 9.60574L17.976 9.75004L16.9303 10.0341C16.7117 11.6193 15.9977 13.0464 14.9495 14.1541L14.6551 14.4485C13.5474 15.4967 12.1203 16.2107 10.535 16.4293L10.251 17.475L10.1067 17.98ZM18.481 8.39434C18.1827 3.90642 14.5947 0.31834 10.1067 0.0201409L10.251 0.525041L10.535 1.57076C12.1203 1.78931 13.5474 2.50339 14.6551 3.55152L14.9495 3.84597C15.9977 4.95364 16.7117 6.38074 16.9303 7.96602L17.976 8.25004L18.481 8.39434ZM8.89532 0.0200645C4.40739 0.318339 0.819318 3.90641 0.521043 8.39434L1.02602 8.25004L2.07174 7.96601C2.29029 6.38074 3.00437 4.95364 4.05249 3.84596L4.34694 3.55151C5.45462 2.50339 6.88172 1.78931 8.46699 1.57076L8.75102 0.525041L8.89532 0.0200645ZM0.521043 9.60574C0.819317 14.0937 4.40739 17.6817 8.89532 17.98L8.75102 17.475L8.46699 16.4293C6.88172 16.2107 5.45462 15.4967 4.34694 14.4485L4.05249 14.1541C3.00437 13.0464 2.29029 11.6193 2.07174 10.0341L1.02602 9.75004L0.521043 9.60574Z" fill="#A1A1A1"/>
</svg>
