<svg width="26" height="18" viewBox="0 0 26 18" fill="none" xmlns="http://www.w3.org/2000/svg">
<path d="M12.9998 0.25C7.1665 0.25 2.18484 3.87833 0.166504 9C2.18484 14.1217 7.1665 17.75 12.9998 17.75C18.8332 17.75 23.8148 14.1217 25.8332 9C23.8148 3.87833 18.8332 0.25 12.9998 0.25ZM12.9998 14.8333C9.77984 14.8333 7.1665 12.22 7.1665 9C7.1665 5.78 9.77984 3.16667 12.9998 3.16667C16.2198 3.16667 18.8332 5.78 18.8332 9C18.8332 12.22 16.2198 14.8333 12.9998 14.8333ZM12.9998 5.5C11.0632 5.5 9.49984 7.06333 9.49984 9C9.49984 10.9367 11.0632 12.5 12.9998 12.5C14.9365 12.5 16.4998 10.9367 16.4998 9C16.4998 7.06333 14.9365 5.5 12.9998 5.5Z" fill="#D6D6D6"/>
</svg>
