<svg width="22" height="12" viewBox="0 0 22 12" fill="none" xmlns="http://www.w3.org/2000/svg">
<path d="M19.7936 4.0011H11.8536C10.9036 1.3111 8.09355 -0.498902 4.97355 0.121098C2.68355 0.581098 0.823553 2.4211 0.343553 4.7011C-0.476447 8.5811 2.46355 12.0011 6.20355 12.0011C8.81355 12.0011 11.0336 10.3311 11.8536 8.0011H12.2036L13.4936 9.2911C13.8836 9.6811 14.5136 9.6811 14.9036 9.2911L16.2036 8.0011L17.4936 9.2911C17.8836 9.6811 18.5236 9.6811 18.9136 9.2911L21.5036 6.6811C21.8936 6.2911 21.8936 5.6511 21.4936 5.2611L20.5036 4.2911C20.3036 4.1011 20.0536 4.0011 19.7936 4.0011ZM6.20355 9.0011C4.55355 9.0011 3.20355 7.6511 3.20355 6.0011C3.20355 4.3511 4.55355 3.0011 6.20355 3.0011C7.85355 3.0011 9.20355 4.3511 9.20355 6.0011C9.20355 7.6511 7.85355 9.0011 6.20355 9.0011Z" fill="#9E9E9E"/>
</svg>
