<svg width="40" height="40" viewBox="0 0 40 40" fill="none" xmlns="http://www.w3.org/2000/svg">
<rect width="40" height="40" rx="20" fill="#525252"/>
<path d="M20 15.4167C23.1583 15.4167 25.975 17.1917 27.35 20C25.975 22.8083 23.1667 24.5833 20 24.5833C16.8333 24.5833 14.025 22.8083 12.65 20C14.025 17.1917 16.8417 15.4167 20 15.4167ZM20 13.75C15.8333 13.75 12.275 16.3417 10.8333 20C12.275 23.6583 15.8333 26.25 20 26.25C24.1667 26.25 27.725 23.6583 29.1667 20C27.725 16.3417 24.1667 13.75 20 13.75ZM20 17.9167C21.15 17.9167 22.0833 18.85 22.0833 20C22.0833 21.15 21.15 22.0833 20 22.0833C18.85 22.0833 17.9167 21.15 17.9167 20C17.9167 18.85 18.85 17.9167 20 17.9167ZM20 16.25C17.9333 16.25 16.25 17.9333 16.25 20C16.25 22.0667 17.9333 23.75 20 23.75C22.0667 23.75 23.75 22.0667 23.75 20C23.75 17.9333 22.0667 16.25 20 16.25Z" fill="white"/>
</svg>
