<svg width="30" height="30" viewBox="0 0 30 30" fill="none" xmlns="http://www.w3.org/2000/svg">
<path fill-rule="evenodd" clip-rule="evenodd" d="M12.6491 10.4146L7.48042 19.261C7.21687 19.1983 6.94076 19.1606 6.66466 19.1606C4.64408 19.1606 3 20.8047 3 22.8253C3 22.9196 3.00358 23.0131 3.01062 23.1057C3.02355 23.7192 3.18723 24.3387 3.51646 24.909C4.55813 26.7132 6.85541 27.3287 8.65963 26.2871C9.51826 25.7913 10.0954 25.0089 10.3686 24.1266L20.7176 24.1801C20.795 24.4397 20.9005 24.6977 21.0385 24.9368C22.0488 26.6867 24.2947 27.2884 26.0445 26.2781C26.7323 25.8811 27.2427 25.2931 27.5476 24.6194C27.8362 24.0864 28 23.4754 28 22.8253C28 20.742 26.3183 19.0602 24.2349 19.0602C23.9337 19.0602 23.6451 19.1104 23.3564 19.1732L18.2388 10.3949C18.7351 9.83965 19.0486 9.15493 19.1544 8.43474C19.1941 8.2178 19.2149 7.99411 19.2149 7.76506C19.2149 5.68173 17.5331 4 15.4498 4C13.5906 4 12.0513 5.3393 11.7416 7.10813C11.5559 7.98496 11.6818 8.93119 12.1664 9.77068C12.3032 10.0076 12.4707 10.2148 12.6491 10.4146ZM16.3918 11.5261L21.4864 20.2651C21.0395 20.7477 20.7135 21.3387 20.5629 21.997L10.3792 21.9612C10.2892 21.6798 10.1883 21.4047 10.0377 21.1439C9.88714 20.883 9.69933 20.6582 9.50066 20.4396L14.5841 11.5485C15.1748 11.6827 15.7936 11.6822 16.3918 11.5261ZM25.4747 23.0206C25.3802 23.619 24.8588 24.0803 24.2349 24.0803C23.5832 24.0803 23.0433 23.5768 22.9851 22.9396C23.0406 22.5748 23.2547 22.2371 23.5973 22.0393C24.195 21.6942 24.9665 21.9009 25.3116 22.4987C25.4069 22.6636 25.4601 22.8418 25.4747 23.0206ZM14.2039 7.61423C14.1979 7.6637 14.1948 7.71404 14.1948 7.76506C14.1948 8.45532 14.7595 9.02008 15.4498 9.02008C16.0361 9.02008 16.5319 8.61259 16.6679 8.06683C16.7072 7.79729 16.6599 7.51343 16.514 7.26064C16.1688 6.66285 15.3974 6.45614 14.7996 6.80127C14.4846 6.98314 14.2782 7.28339 14.2039 7.61423ZM5.67369 23.6244C5.35197 23.031 5.5616 22.279 6.14959 21.9395C6.68206 21.6321 7.35234 21.7625 7.73636 22.2172C7.83708 22.3976 7.89458 22.6051 7.89458 22.8253C7.89458 23.5156 7.32982 24.0803 6.63956 24.0803C6.25221 24.0803 5.90438 23.9025 5.67369 23.6244Z" fill="#C984EB"/>
</svg>
