<svg width="24" height="24" viewBox="0 0 24 24" fill="none" xmlns="http://www.w3.org/2000/svg">
<rect width="24" height="24" rx="12" fill="#050409"/>
<path fill-rule="evenodd" clip-rule="evenodd" d="M10.3579 8.49488L7.38072 13.5904C7.22891 13.5543 7.06988 13.5326 6.91084 13.5326C5.74698 13.5326 4.8 14.4796 4.8 15.6434C4.8 15.6978 4.80206 15.7516 4.80611 15.8049C4.81356 16.1583 4.90784 16.5151 5.09748 16.8436C5.69748 17.8828 7.02071 18.2374 8.05994 17.6374C8.55452 17.3519 8.88696 16.9012 9.0443 16.393L15.0053 16.4238C15.0499 16.5733 15.1107 16.7219 15.1902 16.8596C15.7721 17.8676 17.0657 18.2142 18.0737 17.6323C18.4698 17.4035 18.7638 17.0649 18.9394 16.6768C19.1057 16.3698 19.2 16.0179 19.2 15.6434C19.2 14.4434 18.2313 13.4747 17.0313 13.4747C16.8578 13.4747 16.6916 13.5037 16.5253 13.5398L13.5776 8.48349C13.8634 8.16369 14.044 7.76929 14.1049 7.35446C14.1278 7.2295 14.1398 7.10066 14.1398 6.96872C14.1398 5.76872 13.1711 4.80005 11.9711 4.80005C10.9002 4.80005 10.0135 5.57149 9.83513 6.59033C9.72818 7.09538 9.80069 7.64041 10.0799 8.12396C10.1587 8.26042 10.2551 8.37979 10.3579 8.49488ZM12.5137 9.13508L15.4482 14.1687C15.1908 14.4467 15.003 14.7871 14.9163 15.1663L9.0504 15.1457C8.99857 14.9836 8.94048 14.8252 8.85373 14.6749C8.76699 14.5247 8.65881 14.3951 8.54438 14.2692L11.4724 9.148C11.8127 9.22528 12.1691 9.22498 12.5137 9.13508ZM17.7454 15.7559C17.691 16.1006 17.3907 16.3663 17.0313 16.3663C16.6559 16.3663 16.345 16.0763 16.3114 15.7093C16.3434 15.4991 16.4667 15.3046 16.664 15.1907C17.0083 14.9919 17.4527 15.111 17.6515 15.4553C17.7064 15.5503 17.737 15.6529 17.7454 15.7559ZM11.2534 6.88185C11.25 6.91034 11.2482 6.93933 11.2482 6.96872C11.2482 7.36631 11.5735 7.69161 11.9711 7.69161C12.3088 7.69161 12.5944 7.4569 12.6727 7.14254C12.6953 6.98729 12.6681 6.82379 12.584 6.67818C12.3852 6.33385 11.9409 6.21478 11.5965 6.41358C11.4151 6.51833 11.2962 6.69128 11.2534 6.88185ZM6.34004 16.1037C6.15473 15.7619 6.27548 15.3288 6.61416 15.1332C6.92086 14.9562 7.30694 15.0313 7.52814 15.2931C7.58616 15.3971 7.61927 15.5166 7.61927 15.6434C7.61927 16.041 7.29397 16.3663 6.89638 16.3663C6.67327 16.3663 6.47292 16.2639 6.34004 16.1037Z" fill="#9168F2"/>
</svg>
