<svg width="36" height="36" viewBox="0 0 36 36" fill="none" xmlns="http://www.w3.org/2000/svg">
<rect width="36" height="36" rx="18" fill="white"/>
<path d="M18.541 16.3341C17.7493 14.0924 15.416 12.5841 12.8076 13.1008C10.8993 13.4841 9.3493 15.0091 8.9493 16.9174C8.26597 20.1424 10.716 23.0008 13.8326 23.0008C16.0076 23.0008 17.8576 21.6091 18.541 19.6674H22.166V21.3341C22.166 22.2508 22.916 23.0008 23.8326 23.0008C24.7493 23.0008 25.4993 22.2508 25.4993 21.3341V19.6674C26.416 19.6674 27.166 18.9174 27.166 18.0008C27.166 17.0841 26.416 16.3341 25.4993 16.3341H18.541ZM13.8326 19.6674C12.916 19.6674 12.166 18.9174 12.166 18.0008C12.166 17.0841 12.916 16.3341 13.8326 16.3341C14.7493 16.3341 15.4993 17.0841 15.4993 18.0008C15.4993 18.9174 14.7493 19.6674 13.8326 19.6674Z" fill="black"/>
</svg>

