<svg width="32" height="22" viewBox="0 0 32 22" fill="none" xmlns="http://www.w3.org/2000/svg">
<path d="M28.8278 14.9947C28.8278 19.5961 23.2422 21.4669 16.3014 21.4669C9.36069 21.4669 3.69373 19.5961 3.69373 14.9947C3.69373 10.3932 9.32002 6.66299 16.2608 6.66299C23.2015 6.66299 28.8278 10.3932 28.8278 14.9947Z" fill="#29A874"/>
<path d="M27.5467 4.95486C27.5462 4.05046 27.2666 3.16826 26.746 2.42873C26.2254 1.68919 25.4892 1.12839 24.638 0.822901C23.7867 0.517413 22.8619 0.482136 21.9899 0.721887C21.1179 0.961638 20.3411 1.46473 19.7657 2.16245C17.4716 1.65597 15.0946 1.65597 12.8005 2.16245C12.1015 1.31062 11.1078 0.752652 10.0166 0.599243C8.92535 0.445835 7.81633 0.708191 6.90952 1.33427C6.00271 1.96034 5.36435 2.9044 5.12108 3.97915C4.87781 5.05391 5.0474 6.18084 5.59621 7.1364C5.24347 7.8781 5.05904 8.6886 5.05611 9.5099C5.05611 13.7778 10.0821 17.2372 16.281 17.2372C22.48 17.2372 27.506 13.7778 27.506 9.5099C27.5034 8.68855 27.319 7.87797 26.9659 7.1364C27.3475 6.47276 27.5478 5.72039 27.5467 4.95486V4.95486Z" fill="#63D9A9"/>
<path d="M9.06215 7.39506C10.5446 7.39506 11.7464 6.19329 11.7464 4.71083C11.7464 3.22838 10.5446 2.02661 9.06215 2.02661C7.5797 2.02661 6.37793 3.22838 6.37793 4.71083C6.37793 6.19329 7.5797 7.39506 9.06215 7.39506Z" fill="white"/>
<path d="M23.3779 7.39506C24.8604 7.39506 26.0622 6.19329 26.0622 4.71083C26.0622 3.22838 24.8604 2.02661 23.3779 2.02661C21.8955 2.02661 20.6937 3.22838 20.6937 4.71083C20.6937 6.19329 21.8955 7.39506 23.3779 7.39506Z" fill="white"/>
<path d="M7.6265 21.1415C7.76271 21.1417 7.89743 21.1131 8.02184 21.0576C8.14626 21.0021 8.25758 20.9211 8.34854 20.8197C8.4395 20.7183 8.50805 20.5988 8.54972 20.4691C8.59139 20.3395 8.60525 20.2024 8.59038 20.067C8.36425 18.0506 7.36133 13.6827 2.96164 11.0554C-2.89485 7.55775 1.74154 19.5961 1.74154 19.5961L0.530384 20.294C0.443609 20.3438 0.375714 20.4208 0.337254 20.5132C0.298794 20.6055 0.291924 20.708 0.317713 20.8047C0.343502 20.9013 0.400504 20.9868 0.479857 21.0477C0.55921 21.1086 0.656468 21.1416 0.75651 21.1415H7.6265Z" fill="#63D9A9"/>
<path d="M25.1073 21.1415C24.5851 21.1415 24.1768 20.6405 24.2353 20.067C24.4403 18.0506 25.3464 13.6827 29.3232 11.0554C34.6168 7.55775 30.4261 19.5961 30.4261 19.5961L31.521 20.294C31.8854 20.5258 31.7365 21.1415 31.316 21.1415H25.1073Z" fill="#63D9A9"/>
<path d="M9.06214 5.19889C9.33167 5.19889 9.55018 4.98039 9.55018 4.71085C9.55018 4.44131 9.33167 4.22281 9.06214 4.22281C8.7926 4.22281 8.5741 4.44131 8.5741 4.71085C8.5741 4.98039 8.7926 5.19889 9.06214 5.19889Z" fill="black"/>
<path d="M23.3779 5.19889C23.6475 5.19889 23.866 4.98039 23.866 4.71085C23.866 4.44131 23.6475 4.22281 23.3779 4.22281C23.1084 4.22281 22.8899 4.44131 22.8899 4.71085C22.8899 4.98039 23.1084 5.19889 23.3779 5.19889Z" fill="black"/>
</svg>