<svg width="32" height="32" viewBox="0 0 32 32" fill="none" xmlns="http://www.w3.org/2000/svg">
<rect width="32" height="32" rx="16" fill="#29A874"/>
<path d="M20.9999 13.0833H20.1666V11.4167C20.1666 9.11667 18.2999 7.25 15.9999 7.25C13.6999 7.25 11.8333 9.11667 11.8333 11.4167V13.0833H10.9999C10.0833 13.0833 9.33325 13.8333 9.33325 14.75V23.0833C9.33325 24 10.0833 24.75 10.9999 24.75H20.9999C21.9166 24.75 22.6666 24 22.6666 23.0833V14.75C22.6666 13.8333 21.9166 13.0833 20.9999 13.0833ZM15.9999 20.5833C15.0833 20.5833 14.3333 19.8333 14.3333 18.9167C14.3333 18 15.0833 17.25 15.9999 17.25C16.9166 17.25 17.6666 18 17.6666 18.9167C17.6666 19.8333 16.9166 20.5833 15.9999 20.5833ZM13.4999 13.0833V11.4167C13.4999 10.0333 14.6166 8.91667 15.9999 8.91667C17.3833 8.91667 18.4999 10.0333 18.4999 11.4167V13.0833H13.4999Z" fill="white"/>
</svg>

