<svg width="21" height="21" viewBox="0 0 21 21" fill="none" xmlns="http://www.w3.org/2000/svg">
<path d="M3.70295 10.7L1.20295 8.2C1.00295 8 0.902954 7.76667 0.902954 7.5C0.902954 7.23333 1.00295 7 1.20295 6.8L3.70295 4.3C3.90295 4.1 4.13629 4 4.40295 4C4.66962 4 4.90295 4.1 5.10295 4.3L7.60295 6.8C7.80295 7 7.90295 7.23333 7.90295 7.5C7.90295 7.76667 7.80295 8 7.60295 8.2L5.10295 10.7C4.90295 10.9 4.66962 11 4.40295 11C4.13629 11 3.90295 10.9 3.70295 10.7ZM8.90295 21C8.61962 21 8.38212 20.9042 8.19045 20.7125C7.99879 20.5208 7.90295 20.2833 7.90295 20V16C7.06962 15.9333 6.24462 15.8417 5.42795 15.725C4.61129 15.6083 3.79462 15.4583 2.97795 15.275C2.69462 15.2083 2.46545 15.05 2.29045 14.8C2.11545 14.55 2.06962 14.2833 2.15295 14C2.23629 13.7167 2.40712 13.5083 2.66545 13.375C2.92379 13.2417 3.19462 13.2083 3.47795 13.275C4.69462 13.5583 5.92379 13.75 7.16545 13.85C8.40712 13.95 9.65295 14 10.903 14C12.153 14 13.3988 13.95 14.6405 13.85C15.8821 13.75 17.1113 13.5583 18.328 13.275C18.6113 13.2083 18.8821 13.2417 19.1405 13.375C19.3988 13.5083 19.5696 13.7167 19.653 14C19.7363 14.2833 19.6905 14.55 19.5155 14.8C19.3405 15.05 19.1113 15.2083 18.828 15.275C18.0113 15.4583 17.1946 15.6083 16.378 15.725C15.5613 15.8417 14.7363 15.9333 13.903 16V20C13.903 20.2833 13.8071 20.5208 13.6155 20.7125C13.4238 20.9042 13.1863 21 12.903 21H8.90295ZM10.903 6C10.0696 6 9.36129 5.70833 8.77795 5.125C8.19462 4.54167 7.90295 3.83333 7.90295 3C7.90295 2.16667 8.19462 1.45833 8.77795 0.875C9.36129 0.291667 10.0696 0 10.903 0C11.7363 0 12.4446 0.291667 13.028 0.875C13.6113 1.45833 13.903 2.16667 13.903 3C13.903 3.83333 13.6113 4.54167 13.028 5.125C12.4446 5.70833 11.7363 6 10.903 6ZM10.903 13C10.353 13 9.88212 12.8042 9.49045 12.4125C9.09879 12.0208 8.90295 11.55 8.90295 11C8.90295 10.45 9.09879 9.97917 9.49045 9.5875C9.88212 9.19583 10.353 9 10.903 9C11.453 9 11.9238 9.19583 12.3155 9.5875C12.7071 9.97917 12.903 10.45 12.903 11C12.903 11.55 12.7071 12.0208 12.3155 12.4125C11.9238 12.8042 11.453 13 10.903 13ZM15.678 10.5L14.528 8.5C14.4446 8.35 14.403 8.18333 14.403 8C14.403 7.81667 14.4446 7.65 14.528 7.5L15.678 5.5C15.7613 5.33333 15.878 5.20833 16.028 5.125C16.178 5.04167 16.3446 5 16.528 5H18.778C18.9613 5 19.128 5.04167 19.278 5.125C19.428 5.20833 19.5446 5.33333 19.628 5.5L20.778 7.5C20.8613 7.65 20.903 7.81667 20.903 8C20.903 8.18333 20.8613 8.35 20.778 8.5L19.628 10.5C19.5446 10.6667 19.428 10.7917 19.278 10.875C19.128 10.9583 18.9613 11 18.778 11H16.528C16.3446 11 16.178 10.9583 16.028 10.875C15.878 10.7917 15.7613 10.6667 15.678 10.5Z" fill="#9E9E9E"/>
</svg>
