<svg width="20" height="20" viewBox="0 0 20 20" fill="none" xmlns="http://www.w3.org/2000/svg">
<path d="M13.3139 12.0598H12.6556L12.4222 11.8348C13.4222 10.6681 13.9389 9.07643 13.6556 7.38477C13.2639 5.0681 11.3306 3.2181 8.99725 2.93477C5.47225 2.50143 2.50558 5.4681 2.93892 8.9931C3.22225 11.3264 5.07225 13.2598 7.38892 13.6514C9.08058 13.9348 10.6722 13.4181 11.8389 12.4181L12.0639 12.6514V13.3098L15.6056 16.8514C15.9472 17.1931 16.5056 17.1931 16.8472 16.8514C17.1889 16.5098 17.1889 15.9514 16.8472 15.6098L13.3139 12.0598ZM8.31392 12.0598C6.23892 12.0598 4.56392 10.3848 4.56392 8.30977C4.56392 6.23477 6.23892 4.55977 8.31392 4.55977C10.3889 4.55977 12.0639 6.23477 12.0639 8.30977C12.0639 10.3848 10.3889 12.0598 8.31392 12.0598Z" fill="#9E9E9E"/>
</svg>
