<svg width="18" height="19" viewBox="0 0 18 19" fill="none" xmlns="http://www.w3.org/2000/svg">
<path d="M12.9762 11.9716H12.1862L11.9062 11.7016C13.1062 10.3016 13.7262 8.39157 13.3862 6.36157C12.9162 3.58157 10.5962 1.36157 7.79621 1.02157C3.56621 0.501573 0.00621155 4.06157 0.526212 8.29157C0.866212 11.0916 3.08621 13.4116 5.86621 13.8816C7.89621 14.2216 9.80621 13.6016 11.2062 12.4016L11.4762 12.6816V13.4716L15.7262 17.7216C16.1362 18.1316 16.8062 18.1316 17.2162 17.7216C17.6262 17.3116 17.6262 16.6416 17.2162 16.2316L12.9762 11.9716ZM6.97621 11.9716C4.48621 11.9716 2.47621 9.96157 2.47621 7.47157C2.47621 4.98157 4.48621 2.97157 6.97621 2.97157C9.46621 2.97157 11.4762 4.98157 11.4762 7.47157C11.4762 9.96157 9.46621 11.9716 6.97621 11.9716Z" fill="white"/>
</svg>
