<svg width="20" height="20" viewBox="0 0 20 20" fill="none" xmlns="http://www.w3.org/2000/svg">
<path d="M16.25 9.99996C16.25 9.80829 16.2417 9.62496 16.225 9.43329L17.775 8.25829C18.1083 8.00829 18.2 7.54163 17.9917 7.17496L16.4333 4.48329C16.225 4.11663 15.775 3.96663 15.3917 4.13329L13.6 4.89163C13.2917 4.67496 12.9667 4.48329 12.625 4.32496L12.3833 2.39996C12.3333 1.98329 11.975 1.66663 11.5583 1.66663H8.45C8.025 1.66663 7.66667 1.98329 7.61667 2.39996L7.375 4.32496C7.03333 4.48329 6.70833 4.67496 6.4 4.89163L4.60833 4.13329C4.225 3.96663 3.775 4.11663 3.56667 4.48329L2.00833 7.18329C1.8 7.54996 1.89167 8.00829 2.225 8.26663L3.775 9.44163C3.75833 9.62496 3.75 9.80829 3.75 9.99996C3.75 10.1916 3.75833 10.375 3.775 10.5666L2.225 11.7416C1.89167 11.9916 1.8 12.4583 2.00833 12.825L3.56667 15.5166C3.775 15.8833 4.225 16.0333 4.60833 15.8666L6.4 15.1083C6.70833 15.325 7.03333 15.5166 7.375 15.675L7.61667 17.6C7.66667 18.0166 8.025 18.3333 8.44167 18.3333H11.55C11.9667 18.3333 12.325 18.0166 12.375 17.6L12.6167 15.675C12.9583 15.5166 13.2833 15.325 13.5917 15.1083L15.3833 15.8666C15.7667 16.0333 16.2167 15.8833 16.425 15.5166L17.9833 12.825C18.1917 12.4583 18.1 12 17.7667 11.7416L16.2167 10.5666C16.2417 10.375 16.25 10.1916 16.25 9.99996ZM10.0333 12.9166C8.425 12.9166 7.11667 11.6083 7.11667 9.99996C7.11667 8.39163 8.425 7.08329 10.0333 7.08329C11.6417 7.08329 12.95 8.39163 12.95 9.99996C12.95 11.6083 11.6417 12.9166 10.0333 12.9166Z" fill="#9E9E9E"/>
</svg>
