<svg width="40" height="40" viewBox="0 0 40 40" fill="none" xmlns="http://www.w3.org/2000/svg">
<g clip-path="url(#clip0_5774_58055)">
<rect x="4" y="4" width="32" height="32" rx="16" fill="#9E7E00"/>
<rect x="7.2" y="7.19995" width="25.6" height="25.6" rx="12.8" fill="#9E7E00"/>
<path d="M28.4 4H40L12.4 36H0.800003L28.4 4Z" fill="white" fill-opacity="0.1"/>
<path d="M15.7352 21.0001C13.9672 21.0001 12.5352 22.4321 12.5352 24.2001C12.5352 25.9681 13.9672 27.4001 15.7352 27.4001C17.5032 27.4001 18.9352 25.9681 18.9352 24.2001C18.9352 22.4321 17.5032 21.0001 15.7352 21.0001ZM20.5192 21.8001V26.6001C20.5192 27.0401 20.8792 27.4001 21.3192 27.4001H26.1192C26.5592 27.4001 26.9192 27.0401 26.9192 26.6001V21.8001C26.9192 21.3601 26.5592 21.0001 26.1192 21.0001H21.3192C20.8792 21.0001 20.5192 21.3601 20.5192 21.8001ZM15.0232 13.4561L12.3832 18.2081C12.0872 18.7441 12.4712 19.4001 13.0792 19.4001H18.3592C18.9672 19.4001 19.3512 18.7441 19.0552 18.2081L16.4152 13.4561C16.1112 12.9121 15.3272 12.9121 15.0232 13.4561ZM25.5192 12.6001C24.6712 12.6001 24.0712 13.0481 23.7192 13.5361C23.3672 13.0481 22.7672 12.6001 21.9192 12.6001C20.6712 12.6001 19.7192 13.6241 19.7192 14.8001C19.7192 16.2641 21.3432 17.3361 23.1992 18.9441C23.4952 19.2001 23.9352 19.2001 24.2392 18.9441C26.0952 17.3361 27.7192 16.2641 27.7192 14.8001C27.7192 13.6241 26.7672 12.6001 25.5192 12.6001Z" fill="white"/>
</g>
<rect x="2" y="2" width="36" height="36" rx="18" stroke="black" stroke-opacity="0.8" stroke-width="4"/>
<defs>
<clipPath id="clip0_5774_58055">
<rect x="4" y="4" width="32" height="32" rx="16" fill="white"/>
</clipPath>
</defs>
</svg>
