<svg width="20" height="20" viewBox="0 0 20 20" fill="none" xmlns="http://www.w3.org/2000/svg">
<path d="M13.3302 14.1788V9.17051C13.3302 8.71217 12.9552 8.33717 12.4969 8.33717C12.0385 8.33717 11.6635 8.71217 11.6635 9.17051V14.1788H10.1719C9.79685 14.1788 9.61352 14.6288 9.88018 14.8872L12.2052 17.2038C12.3719 17.3622 12.6302 17.3622 12.7969 17.2038L15.1219 14.8872C15.3885 14.6288 15.1968 14.1788 14.8302 14.1788H13.3302ZM7.20518 2.79551L4.88018 5.12051C4.61352 5.37884 4.79685 5.82884 5.17185 5.82884H6.66352V10.8372C6.66352 11.2955 7.03852 11.6705 7.49685 11.6705C7.95518 11.6705 8.33018 11.2955 8.33018 10.8372V5.82884H9.82185C10.1969 5.82884 10.3802 5.37884 10.1135 5.12051L7.78852 2.79551C7.63018 2.63717 7.36352 2.63717 7.20518 2.79551Z" fill="white"/>
</svg>
