<svg width="16" height="16" viewBox="0 0 16 16" fill="none" xmlns="http://www.w3.org/2000/svg">
<path d="M6.71666 2.72493V0.983268C6.16666 1.12494 5.64166 1.3416 5.15 1.60827L6.4 2.85827C6.50833 2.8166 6.60833 2.7666 6.71666 2.72493ZM15.05 7.43327C15.05 5.5916 14.2917 3.93327 13.0833 2.73327L15.05 0.766602H10.05V5.7666L11.9167 3.89994C12.8167 4.80827 13.3833 6.04993 13.3833 7.43327C13.3833 8.1416 13.225 8.80827 12.9583 9.4166L14.2083 10.6666C14.7417 9.7166 15.05 8.60827 15.05 7.43327ZM1.94166 0.766602L0.766663 1.9416L2.73333 3.90827C2.09166 4.92493 1.71666 6.13327 1.71666 7.43327C1.71666 9.27493 2.475 10.9333 3.68333 12.1333L1.71666 14.0999H6.71666V9.09993L4.85 10.9666C3.95 10.0583 3.38333 8.8166 3.38333 7.43327C3.38333 6.59993 3.59166 5.8166 3.95 5.12493L10.6833 11.8583C10.475 11.9666 10.2667 12.0583 10.05 12.1416V13.8833C10.7167 13.7083 11.3417 13.4333 11.9083 13.0833L14.0583 15.2333L15.2333 14.0583L1.94166 0.766602Z" fill="white" fill-opacity="0.4"/>
</svg>
