<svg width="23" height="20" viewBox="0 0 23 20" fill="none" xmlns="http://www.w3.org/2000/svg">
<path d="M11.5 4.4699C14.26 4.4699 16.5 6.7099 16.5 9.4699C16.5 9.9799 16.4 10.4699 16.26 10.9299L19.32 13.9899C20.71 12.7599 21.81 11.2199 22.5 9.4599C20.77 5.0799 16.5 1.9699 11.5 1.9699C10.23 1.9699 9.01 2.1699 7.86 2.5399L10.03 4.7099C10.5 4.5699 10.99 4.4699 11.5 4.4699ZM2.21 1.1299C1.82 1.5199 1.82 2.1499 2.21 2.5399L4.18 4.5099C2.56 5.7999 1.27 7.4999 0.5 9.4699C2.23 13.8599 6.5 16.9699 11.5 16.9699C13.02 16.9699 14.47 16.6699 15.81 16.1499L18.53 18.8699C18.92 19.2599 19.55 19.2599 19.94 18.8699C20.33 18.4799 20.33 17.8499 19.94 17.4599L3.63 1.1299C3.24 0.739902 2.6 0.739902 2.21 1.1299ZM11.5 14.4699C8.74 14.4699 6.5 12.2299 6.5 9.4699C6.5 8.6999 6.68 7.9699 6.99 7.3299L8.56 8.8999C8.53 9.0799 8.5 9.2699 8.5 9.4699C8.5 11.1299 9.84 12.4699 11.5 12.4699C11.7 12.4699 11.88 12.4399 12.07 12.3999L13.64 13.9699C12.99 14.2899 12.27 14.4699 11.5 14.4699ZM14.47 9.1399C14.32 7.7399 13.22 6.6499 11.83 6.4999L14.47 9.1399Z" fill="white"/>
</svg>
