<svg width="41" height="40" viewBox="0 0 41 40" fill="none" xmlns="http://www.w3.org/2000/svg">
<path d="M0.25 20C0.25 8.95431 9.20431 0 20.25 0V0C31.2957 0 40.25 8.95431 40.25 20V20C40.25 31.0457 31.2957 40 20.25 40V40C9.20431 40 0.25 31.0457 0.25 20V20Z" fill="#3ACF92"/>
<path d="M18.1666 23.3333V16.6667C18.1666 15.75 18.9083 15 19.8333 15H27.3333V14.1667C27.3333 13.25 26.5833 12.5 25.6666 12.5H13.9999C13.0749 12.5 12.3333 13.25 12.3333 14.1667V25.8333C12.3333 26.75 13.0749 27.5 13.9999 27.5H25.6666C26.5833 27.5 27.3333 26.75 27.3333 25.8333V25H19.8333C18.9083 25 18.1666 24.25 18.1666 23.3333ZM20.6666 16.6667C20.2083 16.6667 19.8333 17.0417 19.8333 17.5V22.5C19.8333 22.9583 20.2083 23.3333 20.6666 23.3333H28.1666V16.6667H20.6666ZM23.1666 21.25C22.4749 21.25 21.9166 20.6917 21.9166 20C21.9166 19.3083 22.4749 18.75 23.1666 18.75C23.8583 18.75 24.4166 19.3083 24.4166 20C24.4166 20.6917 23.8583 21.25 23.1666 21.25Z" fill="white"/>
</svg>

