<svg width="41" height="40" viewBox="0 0 41 40" fill="none" xmlns="http://www.w3.org/2000/svg">
<path d="M0.25 20C0.25 8.95431 9.20431 0 20.25 0V0C31.2957 0 40.25 8.95431 40.25 20V20C40.25 31.0457 31.2957 40 20.25 40V40C9.20431 40 0.25 31.0457 0.25 20V20Z" fill="#C01189"/>
<path d="M18.1667 23.3333V16.6667C18.1667 15.75 18.9084 15 19.8334 15H27.3334V14.1667C27.3334 13.25 26.5834 12.5 25.6667 12.5H14C13.075 12.5 12.3334 13.25 12.3334 14.1667V25.8333C12.3334 26.75 13.075 27.5 14 27.5H25.6667C26.5834 27.5 27.3334 26.75 27.3334 25.8333V25H19.8334C18.9084 25 18.1667 24.25 18.1667 23.3333ZM20.6667 16.6667C20.2084 16.6667 19.8334 17.0417 19.8334 17.5V22.5C19.8334 22.9583 20.2084 23.3333 20.6667 23.3333H28.1667V16.6667H20.6667ZM23.1667 21.25C22.475 21.25 21.9167 20.6917 21.9167 20C21.9167 19.3083 22.475 18.75 23.1667 18.75C23.8584 18.75 24.4167 19.3083 24.4167 20C24.4167 20.6917 23.8584 21.25 23.1667 21.25Z" fill="white"/>
</svg>

