<svg width="41" height="40" viewBox="0 0 41 40" fill="none" xmlns="http://www.w3.org/2000/svg">
<path d="M0.75 20C0.75 8.95431 9.70431 0 20.75 0V0C31.7957 0 40.75 8.95431 40.75 20V20C40.75 31.0457 31.7957 40 20.75 40V40C9.70431 40 0.75 31.0457 0.75 20V20Z" fill="#811DB4"/>
<path d="M18.6667 23.3333V16.6667C18.6667 15.75 19.4084 15 20.3334 15H27.8334V14.1667C27.8334 13.25 27.0834 12.5 26.1667 12.5H14.5C13.575 12.5 12.8334 13.25 12.8334 14.1667V25.8333C12.8334 26.75 13.575 27.5 14.5 27.5H26.1667C27.0834 27.5 27.8334 26.75 27.8334 25.8333V25H20.3334C19.4084 25 18.6667 24.25 18.6667 23.3333ZM21.1667 16.6667C20.7084 16.6667 20.3334 17.0417 20.3334 17.5V22.5C20.3334 22.9583 20.7084 23.3333 21.1667 23.3333H28.6667V16.6667H21.1667ZM23.6667 21.25C22.975 21.25 22.4167 20.6917 22.4167 20C22.4167 19.3083 22.975 18.75 23.6667 18.75C24.3584 18.75 24.9167 19.3083 24.9167 20C24.9167 20.6917 24.3584 21.25 23.6667 21.25Z" fill="white"/>
</svg>

