<svg width="40" height="40" viewBox="0 0 40 40" fill="none" xmlns="http://www.w3.org/2000/svg">
<path d="M0 20C0 8.95431 8.95431 0 20 0C31.0457 0 40 8.95431 40 20C40 31.0457 31.0457 40 20 40C8.95431 40 0 31.0457 0 20Z" fill="#29A874"/>
<path d="M17.9166 23.3333V16.6667C17.9166 15.75 18.6583 15 19.5833 15H27.0833V14.1667C27.0833 13.25 26.3333 12.5 25.4166 12.5H13.7499C12.8249 12.5 12.0833 13.25 12.0833 14.1667V25.8333C12.0833 26.75 12.8249 27.5 13.7499 27.5H25.4166C26.3333 27.5 27.0833 26.75 27.0833 25.8333V25H19.5833C18.6583 25 17.9166 24.25 17.9166 23.3333ZM20.4166 16.6667C19.9583 16.6667 19.5833 17.0417 19.5833 17.5V22.5C19.5833 22.9583 19.9583 23.3333 20.4166 23.3333H27.9166V16.6667H20.4166ZM22.9166 21.25C22.2249 21.25 21.6666 20.6917 21.6666 20C21.6666 19.3083 22.2249 18.75 22.9166 18.75C23.6083 18.75 24.1666 19.3083 24.1666 20C24.1666 20.6917 23.6083 21.25 22.9166 21.25Z" fill="white"/>
</svg>

