<svg width="40" height="41" viewBox="0 0 40 41" fill="none" xmlns="http://www.w3.org/2000/svg">
<circle cx="20" cy="20.9706" r="20" fill="#FF9F0A" fill-opacity="0.1"/>
<path d="M20 10.9706C14.48 10.9706 10 15.4506 10 20.9706C10 26.4906 14.48 30.9706 20 30.9706C25.52 30.9706 30 26.4906 30 20.9706C30 15.4506 25.52 10.9706 20 10.9706ZM20 25.9706C19.45 25.9706 19 25.5206 19 24.9706V20.9706C19 20.4206 19.45 19.9706 20 19.9706C20.55 19.9706 21 20.4206 21 20.9706V24.9706C21 25.5206 20.55 25.9706 20 25.9706ZM21 17.9706H19V15.9706H21V17.9706Z" fill="#FF9F0A"/>
</svg>

