<svg width="22" height="18" viewBox="0 0 22 18" fill="none" xmlns="http://www.w3.org/2000/svg">
<path d="M1.72674 18C1.54341 18 1.37674 17.9542 1.22674 17.8625C1.07674 17.7708 0.960076 17.65 0.876743 17.5C0.793409 17.35 0.747576 17.1875 0.739243 17.0125C0.730909 16.8375 0.776743 16.6667 0.876743 16.5L10.1267 0.5C10.2267 0.333333 10.3559 0.208333 10.5142 0.125C10.6726 0.0416667 10.8351 0 11.0017 0C11.1684 0 11.3309 0.0416667 11.4892 0.125C11.6476 0.208333 11.7767 0.333333 11.8767 0.5L21.1267 16.5C21.2267 16.6667 21.2726 16.8375 21.2642 17.0125C21.2559 17.1875 21.2101 17.35 21.1267 17.5C21.0434 17.65 20.9267 17.7708 20.7767 17.8625C20.6267 17.9542 20.4601 18 20.2767 18H1.72674ZM11.0017 15C11.2851 15 11.5226 14.9042 11.7142 14.7125C11.9059 14.5208 12.0017 14.2833 12.0017 14C12.0017 13.7167 11.9059 13.4792 11.7142 13.2875C11.5226 13.0958 11.2851 13 11.0017 13C10.7184 13 10.4809 13.0958 10.2892 13.2875C10.0976 13.4792 10.0017 13.7167 10.0017 14C10.0017 14.2833 10.0976 14.5208 10.2892 14.7125C10.4809 14.9042 10.7184 15 11.0017 15ZM11.0017 12C11.2851 12 11.5226 11.9042 11.7142 11.7125C11.9059 11.5208 12.0017 11.2833 12.0017 11V8C12.0017 7.71667 11.9059 7.47917 11.7142 7.2875C11.5226 7.09583 11.2851 7 11.0017 7C10.7184 7 10.4809 7.09583 10.2892 7.2875C10.0976 7.47917 10.0017 7.71667 10.0017 8V11C10.0017 11.2833 10.0976 11.5208 10.2892 11.7125C10.4809 11.9042 10.7184 12 11.0017 12Z" fill="white"/>
</svg>
