<svg width="36" height="36" viewBox="0 0 36 36" fill="none" xmlns="http://www.w3.org/2000/svg">
<path fill-rule="evenodd" clip-rule="evenodd" d="M3 18C3 9.71572 9.71572 3 18 3C26.2842 3 33 9.71572 33 18C33 26.2842 26.2842 33 18 33C9.71572 33 3 26.2842 3 18ZM18 0C8.05887 0 0 8.05887 0 18C0 27.9411 8.05887 36 18 36C27.9411 36 36 27.9411 36 18C36 8.05887 27.9411 0 18 0ZM17.5606 23.5606L28.0606 13.0607L25.9394 10.9393L16.5 20.3787L11.5607 15.4394L9.43933 17.5606L15.4394 23.5606C16.0251 24.1464 16.9749 24.1464 17.5606 23.5606Z" fill="#0D3525"/>
</svg>