<svg width="36" height="36" viewBox="0 0 36 36" fill="none" xmlns="http://www.w3.org/2000/svg">
<g transform="scale(-1,1) translate(-36,0)" clip-path="url(#clip0_4108_6886)">
<path d="M17.6053 33.972C16.3523 33.9725 15.1034 33.8274 13.8838 33.54" stroke="#F4F4F4" stroke-width="3" stroke-linejoin="round"/>
<path d="M11.2527 32.673C9.12299 31.7565 7.21535 30.3927 5.65918 28.674" stroke="#F4F4F4" stroke-width="3" stroke-linejoin="round"/>
<path d="M3.9822 26.472C2.74297 24.5123 1.94313 22.3071 1.6377 20.0085" stroke="#F4F4F4" stroke-width="3" stroke-linejoin="round"/>
<path d="M1.5 17.2425C1.58477 14.9239 2.17123 12.6512 3.219 10.5811" stroke="#F4F4F4" stroke-width="3" stroke-linejoin="round"/>
<path d="M4.67725 8.22887C6.06409 6.36968 7.83398 4.82997 9.86725 3.71387" stroke="#F4F4F4" stroke-width="3" stroke-linejoin="round"/>
<path d="M12.3838 2.60251C13.5694 2.19741 14.7982 1.93212 16.0453 1.81201" stroke="#F4F4F4" stroke-width="3" stroke-linejoin="round"/>
<path d="M28.6665 6.13354C31.0141 8.34838 32.6427 11.2171 33.3412 14.3682C34.0398 17.5193 33.7761 20.8074 32.5843 23.8068C31.3924 26.8064 29.3275 29.3789 26.6569 31.1912C23.9863 33.0036 20.833 33.9723 17.6055 33.972" stroke="#F4F4F4" stroke-width="3" stroke-linejoin="round"/>
<path d="M23.708 1.539L23.7485 13.8195L35.9885 1.5L23.708 1.539Z" fill="#F4F4F4"/>
</g>
<defs>
<clipPath id="clip0_4108_6886">
<rect width="36" height="36" fill="white"/>
</clipPath>
</defs>
</svg>
