<svg width="20" height="20" viewBox="0 0 20 20" fill="none" xmlns="http://www.w3.org/2000/svg">
<rect x="1" y="1" width="18" height="18" rx="9" fill="#8583EC"/>
<path d="M15 10C15 7.24 12.76 5 10 5C7.24 5 5 7.24 5 10C5 10.665 5.13 11.305 5.37 11.885L7.675 9.575C7.86 9.39 8.15 9.38 8.35 9.545L9.65 10.64L11.29 9H11C10.725 9 10.5 8.775 10.5 8.5C10.5 8.225 10.725 8 11 8H12.5C12.775 8 13 8.225 13 8.5V10C13 10.275 12.775 10.5 12.5 10.5C12.225 10.5 12 10.275 12 10V9.71L10.03 11.675C9.845 11.86 9.55 11.87 9.355 11.7L8.06 10.605L5.86 12.805C6.76 14.13 8.28 15 10 15H14C14.55 15 15 14.55 15 14V10ZM13.75 14.25C13.475 14.25 13.25 14.025 13.25 13.75C13.25 13.475 13.475 13.25 13.75 13.25C14.025 13.25 14.25 13.475 14.25 13.75C14.25 14.025 14.025 14.25 13.75 14.25Z" fill="white"/>
<rect x="1" y="1" width="18" height="18" rx="9" stroke="white" stroke-width="2"/>
</svg>
