<svg width="20" height="20" viewBox="0 0 20 20" fill="none" xmlns="http://www.w3.org/2000/svg">
<rect x="1" y="1" width="18" height="18" rx="9" fill="#29A874"/>
<path d="M10 5C7.24 5 5 7.24 5 10C5 12.76 7.24 15 10 15C12.76 15 15 12.76 15 10C15 7.24 12.76 5 10 5ZM8.645 12.145L6.85 10.35C6.655 10.155 6.655 9.84 6.85 9.645C7.045 9.45 7.36 9.45 7.555 9.645L9 11.085L12.44 7.645C12.635 7.45 12.95 7.45 13.145 7.645C13.34 7.84 13.34 8.155 13.145 8.35L9.35 12.145C9.16 12.34 8.84 12.34 8.645 12.145Z" fill="white"/>
<rect x="1" y="1" width="18" height="18" rx="9" stroke="white" stroke-width="2"/>
</svg>
