<svg width="20" height="20" viewBox="0 0 20 20" fill="none" xmlns="http://www.w3.org/2000/svg">
<rect x="1" y="1" width="18" height="18" rx="9" fill="#29A874"/>
<path d="M12.5169 12.571C13.8483 11.2395 13.8483 9.08085 12.5169 7.74942C11.991 7.2235 11.336 6.90532 10.6539 6.79488C10.3917 6.75243 10.1782 6.53919 10.1782 6.27357C10.1782 6.00083 10.4024 5.77826 10.6728 5.81332C11.599 5.93339 12.4942 6.34916 13.2057 7.06063C14.9175 8.77247 14.9175 11.5479 13.2057 13.2597C11.4939 14.9716 8.71842 14.9716 7.00658 13.2597C5.9652 12.2184 5.52877 10.7463 5.80214 9.32738C5.85303 9.06324 6.10841 8.89038 6.37254 8.94126C6.63667 8.99215 6.80954 9.24753 6.75865 9.51166C6.5458 10.6165 6.88501 11.7606 7.69537 12.571C9.0268 13.9024 11.1855 13.9024 12.5169 12.571Z" fill="white"/>
<rect x="1" y="1" width="18" height="18" rx="9" stroke="white" stroke-width="2"/>
</svg>
