<svg width="20" height="20" viewBox="0 0 20 20" fill="none" xmlns="http://www.w3.org/2000/svg">
<rect x="1" y="1" width="18" height="18" rx="9" fill="#29A874"/>
<path d="M12.295 8.75H11.5V6.25C11.5 5.975 11.275 5.75 11 5.75H9C8.725 5.75 8.5 5.975 8.5 6.25V8.75H7.705C7.26 8.75 7.035 9.29 7.35 9.605L9.645 11.9C9.84 12.095 10.155 12.095 10.35 11.9L12.645 9.605C12.96 9.29 12.74 8.75 12.295 8.75ZM6.5 13.75C6.5 14.025 6.725 14.25 7 14.25H13C13.275 14.25 13.5 14.025 13.5 13.75C13.5 13.475 13.275 13.25 13 13.25H7C6.725 13.25 6.5 13.475 6.5 13.75Z" fill="white"/>
<rect x="1" y="1" width="18" height="18" rx="9" stroke="white" stroke-width="2"/>
</svg>
