<svg width="40" height="40" viewBox="0 0 40 40" fill="none" xmlns="http://www.w3.org/2000/svg">
<path d="M0 20C0 8.95431 8.95431 0 20 0V0C31.0457 0 40 8.95431 40 20V20C40 31.0457 31.0457 40 20 40V40C8.95431 40 0 31.0457 0 20V20Z" fill="#EBF9FF"/>
<path d="M28.6834 17.27L28.6934 17.21C28.8534 16.59 28.3934 16 27.7634 16H25.0034L25.7034 13.21C25.8534 12.59 25.3934 12 24.7634 12C24.3134 12 23.9334 12.3 23.8234 12.73L23.0034 16H19.0034L19.7034 13.21C19.8534 12.59 19.3934 12 18.7634 12C18.3134 12 17.9334 12.3 17.8234 12.73L17.0034 16H13.7634C13.3134 16 12.9234 16.3 12.8234 16.73L12.8034 16.79C12.6534 17.41 13.1134 18 13.7434 18H16.5034L15.5034 22H12.2634C11.8134 22 11.4334 22.3 11.3234 22.73L11.3034 22.79C11.1534 23.41 11.6134 24 12.2434 24H15.0034L14.3034 26.79C14.1534 27.41 14.6134 28 15.2434 28C15.6934 28 16.0734 27.7 16.1834 27.27L17.0034 24H21.0034L20.3034 26.79C20.1534 27.41 20.6134 28 21.2434 28C21.6934 28 22.0734 27.7 22.1834 27.27L23.0034 24H26.2434C26.6934 24 27.0734 23.7 27.1834 23.27L27.1934 23.21C27.3434 22.6 26.8834 22 26.2534 22H23.5034L24.5034 18H27.7434C28.1934 18 28.5834 17.7 28.6834 17.27ZM21.5034 22H17.5034L18.5034 18H22.5034L21.5034 22Z" fill="#0094D1"/>
</svg>
