<svg width="20" height="20" viewBox="0 0 20 20" fill="none" xmlns="http://www.w3.org/2000/svg">
<rect width="20" height="20" rx="6" fill="#4B8FE7"/>
<path d="M10.6785 6.57738C10.6785 6.95213 10.3747 7.25592 10 7.25592C9.62526 7.25592 9.32147 6.95213 9.32147 6.57738C9.32147 6.20264 9.62526 5.89884 10 5.89884C10.3747 5.89884 10.6785 6.20264 10.6785 6.57738Z" fill="white"/>
<path fill-rule="evenodd" clip-rule="evenodd" d="M11.9894 3.67773C11.128 2.10742 8.87205 2.10742 8.01056 3.67773L6.79374 5.89573C6.58598 6.27444 6.27444 6.58598 5.89573 6.79374L3.67773 8.01056C2.10742 8.87205 2.10742 11.1279 3.67773 11.9894L5.89573 13.2063C6.27444 13.414 6.58598 13.7256 6.79374 14.1043L8.01056 16.3223C8.87205 17.8926 11.1279 17.8926 11.9894 16.3223L13.2063 14.1043C13.414 13.7256 13.7256 13.414 14.1043 13.2063L16.3223 11.9894C17.8926 11.128 17.8926 8.87205 16.3223 8.01056L14.1043 6.79374C13.7256 6.58598 13.414 6.27444 13.2063 5.89573L11.9894 3.67773ZM11.0777 5.31091C10.7061 4.30676 9.2859 4.30676 8.91433 5.3109L8.12407 7.44655C8.00725 7.76225 7.75834 8.01116 7.44264 8.12798L5.307 8.91824C4.30285 9.28981 4.30285 10.7101 5.307 11.0816L7.44264 11.8719C7.75834 11.9887 8.00725 12.2376 8.12407 12.5533L8.91433 14.689C9.2859 15.6931 10.7061 15.6931 11.0777 14.689L11.868 12.5533C11.9848 12.2376 12.2337 11.9887 12.5494 11.8719L14.6851 11.0816C15.6892 10.7101 15.6892 9.28981 14.6851 8.91824L12.5494 8.12798C12.2337 8.01116 11.9848 7.76225 11.868 7.44655L11.0777 5.31091Z" fill="white"/>
</svg>
