<svg width="176" height="26" viewBox="0 0 176 26" fill="none" xmlns="http://www.w3.org/2000/svg">
<path fill-rule="evenodd" clip-rule="evenodd" d="M139.545 10.5394L140.051 11.4077C139.721 11.389 139.433 11.3701 139.186 11.3512L139.184 11.351C138.559 11.301 137.927 11.1889 137.287 11.0169L137.283 11.0158L137.279 11.0146C136.627 10.8322 136.032 10.5378 135.64 10.0477C135.256 9.56769 135.1 8.98012 135.1 8.36155C135.1 7.20194 135.698 6.29373 136.705 5.66755C137.727 5.02358 139.108 4.75322 140.747 4.75322C142.43 4.75322 143.849 5.08767 144.865 5.89195C145.618 6.48719 146.116 7.23062 146.307 8.10807H150.741C150.551 6.28716 149.722 4.87181 148.241 3.8008L148.239 3.79935L148.237 3.79789C146.535 2.55087 144.027 1.87109 140.605 1.87109C137.233 1.87109 134.748 2.54969 133.043 3.79789L133.041 3.79983L133.038 3.80175C131.34 5.02482 130.534 6.57125 130.534 8.49848C130.534 10.6233 131.269 12.1162 132.673 13.1208C134.163 14.1463 136.402 14.7151 139.5 14.7151C140.552 14.7151 141.396 14.7379 142.021 14.7858M142.022 14.7859L140.052 11.4077L142.022 14.7859ZM140.052 11.4077C140.538 11.4353 141.116 11.4627 141.782 11.4899L141.8 11.4906H141.817C143.08 11.4906 144.241 11.5899 145.301 11.7849C146.351 11.9781 147.394 12.3007 148.431 12.7554L148.441 12.7596L148.451 12.7636C149.415 13.1579 150.159 13.7689 150.705 14.6041L150.707 14.6079L150.71 14.6116C151.243 15.4086 151.531 16.4033 151.531 17.6387C151.531 20.1364 150.648 21.9047 148.941 23.0885C147.179 24.3108 144.431 24.985 140.569 24.985C136.81 24.985 134.16 24.2351 132.472 22.8794C131.006 21.6661 130.191 20.1661 130.005 18.3372H134.648C134.848 19.3096 135.402 20.1254 136.251 20.7692C137.351 21.6036 138.826 21.966 140.569 21.966C142.415 21.966 143.935 21.7065 145.021 21.0853C146.176 20.4242 146.786 19.3785 146.786 18.0495C146.786 17.3165 146.57 16.6436 146.071 16.1186C145.593 15.5668 144.884 15.2638 144.093 15.1097C143.374 14.9437 142.683 14.8348 142.022 14.7859M140.052 11.4077C140.052 11.4077 140.051 11.4077 140.051 11.4077L142.021 14.7858M140.052 11.4077L139.546 10.5395C139.545 10.5395 139.545 10.5395 139.545 10.5394M164.013 10.5394C164.013 10.5394 164.013 10.5394 164.014 10.5394L164.52 11.4077C164.52 11.4077 164.52 11.4076 164.519 11.4076L164.013 10.5394ZM166.49 14.7858L164.519 11.4076C164.189 11.3889 163.901 11.3701 163.655 11.3512L163.653 11.351C163.028 11.301 162.395 11.1889 161.756 11.0169L161.752 11.0158L161.747 11.0146C161.096 10.8322 160.501 10.5378 160.109 10.0477C159.724 9.56769 159.569 8.98012 159.569 8.36155C159.569 7.20244 160.166 6.2945 161.172 5.66833C162.195 5.0238 163.577 4.75322 165.216 4.75322C166.899 4.75322 168.317 5.08767 169.334 5.89195C170.087 6.48719 170.584 7.23061 170.775 8.10807H175.209C175.02 6.28716 174.191 4.87181 172.71 3.8008L172.708 3.79935L172.706 3.79789C171.004 2.55087 168.496 1.87109 165.074 1.87109C161.702 1.87109 159.216 2.54969 157.512 3.79789L157.509 3.79983L157.507 3.80175C155.809 5.02482 155.003 6.57125 155.003 8.49848C155.003 10.6231 155.737 12.1159 157.142 13.1206C158.632 14.1462 160.871 14.7151 163.969 14.7151C165.021 14.7151 165.864 14.7379 166.49 14.7858ZM19.3589 10.881C19.011 9.3257 18.2604 8.05538 17.081 7.12786C15.7609 6.04793 14.0894 5.54058 12.1386 5.54058C9.83933 5.54058 7.93904 6.19526 6.5555 7.60212C5.16437 8.99351 4.52074 10.9804 4.4956 13.4194L4.49551 13.4281L4.4956 13.4367C4.52077 15.8785 5.16563 17.8732 6.55271 19.2854L6.5555 19.2882L6.55832 19.291C7.9429 20.6741 9.84224 21.3155 12.1386 21.3155C14.109 21.3155 15.793 20.8218 17.1159 19.763C18.2844 18.8277 19.0211 17.5314 19.3632 15.9409H23.8737C23.5192 18.8318 22.4258 20.9796 20.6547 22.476C18.6915 24.112 15.8777 24.985 12.103 24.985C8.0561 24.985 5.083 23.9707 3.05351 22.0638C1.03593 20.1457 -0.0224793 17.3161 0.000362036 13.433C0.0232065 9.57125 1.10352 6.74722 3.12641 4.82495C5.15779 2.89463 8.10781 1.87109 12.103 1.87109C15.8002 1.87109 18.5938 2.75258 20.5848 4.41552L20.5866 4.41694L20.5883 4.41836C22.4006 5.91574 23.5125 8.04122 23.8716 10.881H19.3589ZM105.654 4.23533L105.659 4.23992L105.664 4.24444C106.98 5.48906 107.683 7.25608 107.683 9.66241C107.683 12.0185 106.983 13.75 105.669 14.9731L105.666 14.9753L105.664 14.9776C104.354 16.2162 102.579 16.8718 100.25 16.8718H93.9347C93.3195 16.8718 92.8208 17.3705 92.8208 17.9857V24.5742H88.6107V2.28189H100.25C102.572 2.28189 104.343 2.95571 105.654 4.23533ZM166.251 11.4899C165.584 11.4627 165.007 11.4353 164.52 11.4077L166.491 14.7859C167.152 14.8348 167.843 14.9437 168.562 15.1097C169.353 15.2638 170.061 15.5668 170.54 16.1184C171.039 16.6435 171.255 17.3164 171.255 18.0495C171.255 19.3785 170.644 20.4242 169.489 21.0853C168.404 21.7065 166.884 21.966 165.038 21.966C163.295 21.966 161.82 21.6036 160.719 20.7692C159.87 20.1254 159.317 19.3096 159.117 18.3372H154.474C154.66 20.1661 155.475 21.6661 156.941 22.8794C158.629 24.2351 161.279 24.985 165.038 24.985C168.9 24.985 171.648 24.3108 173.41 23.0885C175.117 21.9047 176 20.1364 176 17.6387C176 16.4033 175.712 15.4086 175.179 14.6116L175.176 14.6079L175.174 14.6041C174.628 13.7689 173.884 13.1579 172.92 12.7636L172.91 12.7596L172.9 12.7554C171.863 12.3007 170.82 11.9781 169.77 11.7849C168.71 11.5899 167.549 11.4906 166.285 11.4906H166.268L166.251 11.4899ZM58.0493 24.5742H53.8392V2.28189H61.5027L67.9815 17.6312C68.3642 18.538 69.6488 18.5391 70.0332 17.6331L76.546 2.28189H84.1749V24.5742H79.9648V8.91243C79.9648 7.69241 78.2858 7.36 77.821 8.48802L71.1921 24.5742H66.8219L60.1931 8.48803C59.7283 7.36004 58.0493 7.69237 58.0493 8.91243V24.5742ZM93.9347 13.75H98.1115C99.6721 13.75 100.993 13.4727 101.942 12.7873C102.941 12.0656 103.402 10.9852 103.402 9.69664C103.402 8.40012 102.944 7.31154 101.945 6.58274C100.996 5.88967 99.6734 5.60905 98.1115 5.60905H93.9347C93.3195 5.60905 92.8208 6.10777 92.8208 6.72297V12.6361C92.8208 13.2513 93.3195 13.75 93.9347 13.75ZM111.071 24.5742H106.566L115.319 2.28189H120.453L129.207 24.5742H124.702L123.441 21.2222C123.278 20.788 122.862 20.5005 122.398 20.5005H113.374C112.91 20.5005 112.495 20.788 112.332 21.2222L111.071 24.5742ZM114.936 17.6868H120.939C121.72 17.6868 122.258 16.9053 121.98 16.1762L118.931 8.17563C118.565 7.21403 117.202 7.22106 116.845 8.18641L113.891 16.187C113.622 16.9143 114.16 17.6868 114.936 17.6868Z" fill="white"/>
<path d="M40.0577 7.5167C40.0577 8.11708 39.571 8.60378 38.9706 8.60378C38.3702 8.60378 37.8835 8.11708 37.8835 7.5167C37.8835 6.91633 38.3702 6.42963 38.9706 6.42963C39.571 6.42963 40.0577 6.91633 40.0577 7.5167Z" fill="white"/>
<path fill-rule="evenodd" clip-rule="evenodd" d="M42.1579 2.87121C40.7777 0.355433 37.1635 0.355431 35.7833 2.8712L33.8339 6.42464C33.501 7.03136 33.0019 7.53047 32.3952 7.86333L28.8418 9.81278C26.326 11.193 26.326 14.8071 28.8418 16.1873L32.3952 18.1368C33.0019 18.4696 33.501 18.9687 33.8339 19.5754L35.7833 23.1289C37.1635 25.6446 40.7777 25.6447 42.1579 23.1289L44.1073 19.5754C44.4402 18.9687 44.9393 18.4696 45.546 18.1368L49.0994 16.1873C51.6152 14.8071 51.6152 11.193 49.0994 9.81278L45.546 7.86333C44.9393 7.53047 44.4402 7.03136 44.1073 6.42463L42.1579 2.87121ZM40.6972 5.4877C40.1019 3.87896 37.8265 3.87896 37.2313 5.48769L35.9652 8.90919C35.778 9.41497 35.3793 9.81374 34.8735 10.0009L31.452 11.267C29.8433 11.8623 29.8433 14.1376 31.452 14.7329L34.8735 15.999C35.3793 16.1861 35.778 16.5849 35.9652 17.0907L37.2313 20.5122C37.8265 22.1209 40.1019 22.1209 40.6972 20.5122L41.9633 17.0907C42.1504 16.5849 42.5492 16.1861 43.055 15.999L46.4765 14.7329C48.0852 14.1376 48.0852 11.8623 46.4765 11.267L43.055 10.0009C42.5492 9.81374 42.1504 9.41497 41.9633 8.90919L40.6972 5.4877Z" fill="white"/>
</svg>
