<svg width="40" height="40" viewBox="0 0 40 40" fill="none" xmlns="http://www.w3.org/2000/svg">
<path d="M0 20C0 8.95431 8.95431 0 20 0C31.0457 0 40 8.95431 40 20C40 31.0457 31.0457 40 20 40C8.95431 40 0 31.0457 0 20Z" fill="#171717"/>
<path fill-rule="evenodd" clip-rule="evenodd" d="M20 4C28.8365 4 36 11.1634 36 20C36 28.8365 28.8365 36 20 36C11.1634 36 4 28.8365 4 20C4 11.1634 11.1634 4 20 4Z" fill="#171717"/>
<path fill-rule="evenodd" clip-rule="evenodd" d="M19.9691 10.7692C25.067 10.7692 29.1998 14.902 29.1998 20C29.1998 25.098 25.067 29.2307 19.9691 29.2307C14.871 29.2307 10.7383 25.098 10.7383 20C10.7383 14.902 14.871 10.7692 19.9691 10.7692Z" fill="black"/>
<path opacity="0.67" fill-rule="evenodd" clip-rule="evenodd" d="M20.2512 6.7367C20.124 6.61973 20.0584 6.61751 20.0475 6.61751C20.0364 6.61751 19.9708 6.61973 19.8438 6.7367C19.7132 6.85676 19.5573 7.06393 19.3893 7.38357C19.0538 8.02158 18.7328 8.98592 18.4562 10.2303C18.145 11.6296 17.8991 13.3399 17.744 15.2545C18.4932 15.617 19.2636 16.0111 20.0472 16.4342C20.831 16.011 21.6015 15.6169 22.3508 15.2543C22.1957 13.3398 21.9498 11.6295 21.6387 10.2303C21.362 8.98592 21.041 8.02158 20.7055 7.38357C20.5376 7.06393 20.3816 6.85676 20.2512 6.7367ZM19.3916 16.7934C18.8161 16.4876 18.2491 16.1983 17.6939 15.9265C17.6518 16.5429 17.6191 17.1783 17.5962 17.8293C17.8899 17.6535 18.1878 17.4782 18.4897 17.304C18.7916 17.1298 19.0924 16.9596 19.3916 16.7934ZM17.1396 14.9667C17.5892 9.71662 18.7216 5.99131 20.0475 5.99131C21.3732 5.99131 22.5055 9.71654 22.9552 14.9666C27.7294 12.7308 31.5236 11.8482 32.1866 12.9957C32.8495 14.1432 30.1876 16.9859 25.8629 20C30.1876 23.0141 32.8495 25.8567 32.1866 27.0042C31.5236 28.1517 27.7294 27.2692 22.9552 25.0333C22.5055 30.2834 21.3732 34.0086 20.0475 34.0086C18.7216 34.0086 17.5892 30.2833 17.1396 25.0332C12.3652 27.2691 8.57079 28.1517 7.90785 27.0042C7.24494 25.8567 9.90688 23.0141 14.2315 20C9.90688 16.9859 7.24494 14.1432 7.90785 12.9957C8.57079 11.8482 12.3652 12.7308 17.1396 14.9667ZM14.7833 19.6206C13.2017 18.529 11.8423 17.461 10.7852 16.4919C9.84524 15.6303 9.17007 14.8702 8.78489 14.2609C8.59191 13.9557 8.49039 13.7171 8.4516 13.5442C8.41382 13.3759 8.4447 13.3183 8.45006 13.309V13.309C8.45547 13.2996 8.49011 13.2439 8.65509 13.1924C8.82446 13.1395 9.08206 13.1081 9.44314 13.1225C10.1638 13.1512 11.1601 13.3555 12.3768 13.7383C13.745 14.1686 15.3501 14.811 17.0868 15.634C17.0263 16.4636 16.9827 17.3272 16.9575 18.2169C16.1989 18.6837 15.4721 19.1534 14.7833 19.6206ZM14.7833 20.3793C13.2017 21.4709 11.8423 22.539 10.7852 23.508C9.84524 24.3697 9.17007 25.1297 8.78489 25.739C8.59191 26.0442 8.49039 26.2828 8.4516 26.4557C8.41382 26.624 8.4447 26.6817 8.45006 26.6909C8.45544 26.7003 8.49006 26.756 8.65509 26.8075C8.82446 26.8604 9.08206 26.8918 9.44314 26.8774C10.1638 26.8487 11.1601 26.6444 12.3768 26.2617C13.745 25.8313 15.3501 25.189 17.0868 24.3659C17.0263 23.5363 16.9827 22.6727 16.9575 21.783C16.1989 21.3162 15.4721 20.8465 14.7833 20.3793ZM16.9409 21.0359C16.3881 20.6907 15.8538 20.3446 15.3406 20C15.8538 19.6553 16.3881 19.3092 16.9409 18.964C16.9354 19.3061 16.9325 19.6516 16.9325 20C16.9325 20.3484 16.9354 20.694 16.9409 21.0359ZM17.5749 21.4264C17.5642 20.9578 17.5587 20.4819 17.5587 20C17.5587 19.5181 17.5642 19.0421 17.5749 18.5735C17.9756 18.33 18.3852 18.0874 18.8027 17.8464C19.2204 17.6054 19.6356 17.3721 20.0472 17.147C20.4588 17.3721 20.874 17.6054 21.2917 17.8464C21.7095 18.0874 22.1192 18.3301 22.52 18.5738C22.5306 19.0423 22.5361 19.5181 22.5361 20C22.5361 20.4818 22.5306 20.9577 22.52 21.4262C22.1192 21.6698 21.7095 21.9126 21.2917 22.1536C20.874 22.3945 20.4588 22.6278 20.0472 22.853C19.6356 22.6278 19.2204 22.3945 18.8027 22.1536C18.3852 21.9126 17.9756 21.67 17.5749 21.4264ZM17.5962 22.1707C17.6191 22.8216 17.6518 23.457 17.6939 24.0734C18.2491 23.8016 18.8161 23.5123 19.3916 23.2065C19.0924 23.0403 18.7916 22.8701 18.4897 22.6959C18.1878 22.5217 17.8899 22.3465 17.5962 22.1707ZM20.0472 23.5657C19.2636 23.9888 18.4932 24.3829 17.744 24.7455C17.8991 26.6601 18.145 28.3704 18.4562 29.7696C18.7328 31.014 19.0538 31.9784 19.3893 32.6164C19.5573 32.936 19.7132 33.1432 19.8438 33.2633C19.9708 33.3802 20.0364 33.3824 20.0475 33.3824C20.0584 33.3824 20.124 33.3802 20.2512 33.2633C20.3816 33.1432 20.5376 32.936 20.7055 32.6164C21.041 31.9784 21.362 31.014 21.6387 29.7696C21.9498 28.3704 22.1957 26.6601 22.3508 24.7456C21.6015 24.383 20.831 23.9889 20.0472 23.5657ZM23.0081 24.3661C24.7446 25.189 26.3496 25.8314 27.7177 26.2617C28.9344 26.6444 29.9306 26.8487 30.6513 26.8774C31.0124 26.8918 31.2699 26.8604 31.4393 26.8075C31.6045 26.756 31.6391 26.7003 31.6444 26.6909C31.6497 26.6817 31.6806 26.6241 31.6428 26.4557C31.6041 26.2828 31.5025 26.0442 31.3096 25.739C30.9243 25.1297 30.2492 24.3697 29.3092 23.508C28.2522 22.539 26.8927 21.4709 25.311 20.3793C24.6224 20.8464 23.8958 21.3161 23.1373 21.7827C23.1122 22.6725 23.0685 23.5365 23.0081 24.3661ZM25.311 19.6206C26.8927 18.529 28.2522 17.461 29.3092 16.4919C30.2492 15.6303 30.9243 14.8702 31.3096 14.2609C31.5025 13.9557 31.6041 13.7171 31.6428 13.5442C31.6806 13.3758 31.6497 13.3182 31.6444 13.309C31.6391 13.2997 31.6045 13.244 31.4393 13.1924C31.2699 13.1395 31.0124 13.1081 30.6513 13.1225C29.9306 13.1512 28.9344 13.3555 27.7177 13.7383C26.3496 14.1686 24.7446 14.8109 23.0081 15.6339C23.0685 16.4635 23.1122 17.3273 23.1373 18.2172C23.8958 18.6838 24.6224 19.1535 25.311 19.6206ZM23.154 18.9642C23.7066 19.3093 24.2407 19.6554 24.7538 20C24.2407 20.3445 23.7066 20.6906 23.154 21.0357C23.1595 20.6937 23.1623 20.3484 23.1623 20C23.1623 19.6516 23.1595 19.3062 23.154 18.9642ZM22.4986 17.8295C22.4759 17.1783 22.443 16.5429 22.4009 15.9263C21.8456 16.1982 21.2785 16.4875 20.7029 16.7934C21.0021 16.9596 21.3028 17.1298 21.6047 17.304C21.9068 17.4783 22.2048 17.6536 22.4986 17.8295ZM22.4009 24.0736C21.8456 23.8018 21.2785 23.5124 20.7029 23.2065C21.0021 23.0403 21.3028 22.8701 21.6047 22.6959C21.9068 22.5216 22.2048 22.3463 22.4986 22.1704C22.4759 22.8216 22.443 23.4571 22.4009 24.0736Z" fill="white"/>
<path fill-rule="evenodd" clip-rule="evenodd" d="M11.0937 16.0769C11.6378 16.0769 12.0788 16.5182 12.0788 17.0625C12.0788 17.6068 11.6378 18.0481 11.0937 18.0481C10.5497 18.0481 10.1086 17.6068 10.1086 17.0625C10.1086 16.5182 10.5497 16.0769 11.0937 16.0769Z" fill="white"/>
<path fill-rule="evenodd" clip-rule="evenodd" d="M26.7497 12.7019C27.294 12.7019 27.7353 13.1432 27.7353 13.6875C27.7353 14.2318 27.294 14.6731 26.7497 14.6731C26.2053 14.6731 25.764 14.2318 25.764 13.6875C25.764 13.1432 26.2053 12.7019 26.7497 12.7019Z" fill="white"/>
<path fill-rule="evenodd" clip-rule="evenodd" d="M18.0625 28.1711C18.6068 28.1711 19.048 28.6121 19.048 29.1562C19.048 29.7002 18.6068 30.1413 18.0625 30.1413C17.5182 30.1413 17.0769 29.7002 17.0769 29.1562C17.0769 28.6121 17.5182 28.1711 18.0625 28.1711Z" fill="white"/>
<path fill-rule="evenodd" clip-rule="evenodd" d="M19.9928 18.3241C20.9144 18.3241 21.6614 19.0711 21.6614 19.9926C21.6614 20.9142 20.9144 21.6613 19.9928 21.6613C19.0713 21.6613 18.3242 20.9142 18.3242 19.9926C18.3242 19.0711 19.0713 18.3241 19.9928 18.3241Z" fill="white"/>
</svg>
