<svg width="166" height="166" viewBox="0 0 166 166" fill="none" xmlns="http://www.w3.org/2000/svg">
<g clip-path="url(#clip0_2734_3597)">
<rect width="166" height="166" fill="#212121"/>
<g clip-path="url(#clip1_2734_3597)">
<mask id="mask0_2734_3597" style="mask-type:alpha" maskUnits="userSpaceOnUse" x="63" y="63" width="40" height="40">
<rect x="63" y="63" width="40" height="40" fill="#D9D9D9"/>
</mask>
<g mask="url(#mask0_2734_3597)">
<path d="M71.3333 98C70.4167 98 69.6319 97.6736 68.9792 97.0208C68.3264 96.3681 68 95.5833 68 94.6667V71.3333C68 70.4167 68.3264 69.6319 68.9792 68.9792C69.6319 68.3264 70.4167 68 71.3333 68H94.6667C95.5833 68 96.3681 68.3264 97.0208 68.9792C97.6736 69.6319 98 70.4167 98 71.3333V94.6667C98 95.5833 97.6736 96.3681 97.0208 97.0208C96.3681 97.6736 95.5833 98 94.6667 98H71.3333ZM74.6667 91.3333H91.3333C91.6667 91.3333 91.9167 91.1806 92.0833 90.875C92.25 90.5694 92.2222 90.2778 92 90L87.4167 83.875C87.25 83.6528 87.0278 83.5417 86.75 83.5417C86.4722 83.5417 86.25 83.6528 86.0833 83.875L81.75 89.6667L78.6667 85.5417C78.5 85.3194 78.2778 85.2083 78 85.2083C77.7222 85.2083 77.5 85.3194 77.3333 85.5417L74 90C73.7778 90.2778 73.75 90.5694 73.9167 90.875C74.0833 91.1806 74.3333 91.3333 74.6667 91.3333ZM77.1667 79.6667C77.8611 79.6667 78.4514 79.4236 78.9375 78.9375C79.4236 78.4514 79.6667 77.8611 79.6667 77.1667C79.6667 76.4722 79.4236 75.8819 78.9375 75.3958C78.4514 74.9097 77.8611 74.6667 77.1667 74.6667C76.4722 74.6667 75.8819 74.9097 75.3958 75.3958C74.9097 75.8819 74.6667 76.4722 74.6667 77.1667C74.6667 77.8611 74.9097 78.4514 75.3958 78.9375C75.8819 79.4236 76.4722 79.6667 77.1667 79.6667Z" fill="#686869"/>
</g>
</g>
</g>
<defs>
<clipPath id="clip0_2734_3597">
<rect width="166" height="166" rx="12" fill="white"/>
</clipPath>
<clipPath id="clip1_2734_3597">
<rect width="40" height="40" fill="white" transform="translate(63 63)"/>
</clipPath>
</defs>
</svg>
