<svg width="40" height="40" viewBox="0 0 40 40" fill="none" xmlns="http://www.w3.org/2000/svg">
<path d="M0 20C0 8.95431 8.95431 0 20 0V0C31.0457 0 40 8.95431 40 20V20C40 31.0457 31.0457 40 20 40V40C8.95431 40 0 31.0457 0 20V20Z" fill="#F4F4F4"/>
<path d="M10 14C10.55 14 11 13.55 11 13V12C11 11.45 11.45 11 12 11H13C13.55 11 14 10.55 14 10C14 9.45 13.55 9 13 9H12C10.34 9 9 10.34 9 12V13C9 13.55 9.45 14 10 14Z" fill="#696969"/>
<path d="M13 29H12C11.45 29 11 28.55 11 28V27C11 26.45 10.55 26 10 26C9.45 26 9 26.45 9 27V28C9 29.66 10.34 31 12 31H13C13.55 31 14 30.55 14 30C14 29.45 13.55 29 13 29Z" fill="#696969"/>
<path d="M28 9H27C26.45 9 26 9.45 26 10C26 10.55 26.45 11 27 11H28C28.55 11 29 11.45 29 12V13C29 13.55 29.45 14 30 14C30.55 14 31 13.55 31 13V12C31 10.34 29.66 9 28 9Z" fill="#696969"/>
<path d="M30 26C29.45 26 29 26.45 29 27V28C29 28.55 28.55 29 28 29H27C26.45 29 26 29.45 26 30C26 30.55 26.45 31 27 31H28C29.66 31 31 29.66 31 28V27C31 26.45 30.55 26 30 26Z" fill="#696969"/>
<path d="M27 22.87V17.13C27 16.41 26.62 15.75 26 15.4L21 12.52C20.69 12.34 20.35 12.25 20 12.25C19.65 12.25 19.31 12.34 19 12.52L14 15.39C13.38 15.75 13 16.41 13 17.13V22.87C13 23.59 13.38 24.25 14 24.6L19 27.48C19.31 27.66 19.65 27.75 20 27.75C20.35 27.75 20.69 27.66 21 27.48L26 24.6C26.62 24.25 27 23.59 27 22.87ZM19 25.17L15 22.87V18.24L19 20.57V25.17ZM20 18.84L16.04 16.53L20 14.25L23.96 16.53L20 18.84ZM25 22.87L21 25.17V20.57L25 18.24V22.87Z" fill="#696969"/>
</svg>
