<svg width="40" height="40" viewBox="0 0 40 40" fill="none" xmlns="http://www.w3.org/2000/svg">
<rect width="40" height="40" rx="20" fill="white"/>
<path opacity="0.75" d="M29.4266 23.8489C30.1885 21.7575 30.4872 19.5018 30.1735 17.2909C29.6357 13.4965 27.619 10.5685 23.8247 8.50703C18.9995 5.84797 12.4564 6.7891 8.54251 10.6881C6.37642 12.8541 5.06183 16.4394 6.80964 18.964C8.07942 20.7865 10.5144 21.4588 11.9485 23.1468C13.7411 25.2681 13.6067 28.5396 15.3844 30.6609C16.9679 32.5432 19.8062 33.066 22.1366 32.2892C24.0935 31.6469 27.619 28.7936 29.4266 23.8489Z" fill="#5493F7"/>
<path opacity="0.8" d="M22.137 32.3042C24.0939 31.6618 27.6194 28.8086 29.427 23.8639C30.1888 21.7725 30.6071 19.7558 30.1739 17.3059C28.7249 9.22416 18.8206 19.6214 17.1027 20.682C13.7265 22.7585 12.8004 27.3297 15.2055 30.4817C15.2652 30.5564 15.31 30.6311 15.3698 30.6908C16.9533 32.5582 19.8065 33.0661 22.137 32.3042Z" fill="#2043B5"/>
<path opacity="0.7" d="M25.2132 9.76186C23.1218 8.99999 20.8661 8.70122 18.6552 9.01493C14.8608 9.55272 11.9328 11.5694 9.87129 15.3638C7.21223 20.189 8.15336 26.732 12.0523 30.6459C14.2184 32.812 17.8037 34.1266 20.3283 32.3788C22.1508 31.109 22.823 28.674 24.5111 27.2399C26.6323 25.4473 29.9039 25.5818 32.0252 23.8041C33.9074 22.2206 34.4303 19.3823 33.6535 17.0519C33.0111 15.0949 30.1578 11.5694 25.2132 9.76186Z" fill="#3573EC"/>
<path d="M20.8815 25.7311L18.9544 21.8471L17.6697 23.0273L17.0871 25.7311H14.8911L16.9974 15.782H19.2084L18.3867 19.6511L22.6293 15.782H25.6917L20.6873 20.2935L23.5256 25.7311H20.8815Z" fill="white"/>
</svg>
