<svg xmlns="http://www.w3.org/2000/svg" version="1.1" class="w-16" x="0px" y="0px" viewBox="0 0 1000 400.5" fill="#9e9e9e"><g id="Layer_1"><g><g><path class="fill-zinc-500" d="M264.5,20.6c81,0,149.7,54,172,127.8c8.7,5.4,17.2,11,25.2,16.8C445.1,71.5,363,0,264.5,0     C171.8,0,93.6,63.4,70.9,149.1c5.5,4.7,11.5,9.4,17.9,14.1C105.9,81.9,178.2,20.6,264.5,20.6z"></path><path class="fill-zinc-500" d="M440.2,237.3c-17.1,81.3-89.4,142.5-175.7,142.5c-81,0-149.7-54-172-127.8c-8.7-5.4-17.2-11-25.2-16.8     C83.9,329,166,400.5,264.5,400.5c92.7,0,170.9-63.4,193.6-149.1C452.6,246.7,446.6,242,440.2,237.3z"></path><path class="fill-zinc-500" d="M457.8,340.3c35.1,0,59.1-12.3,67.7-34.7c11.7-30.4-8.4-62.4-27.4-83.9c-24.2-27.4-61.9-54.9-103.4-75.3     c-70-34.4-137.1-43.9-171-24.2c-4,2.3-7,6.3-8.3,11.1c-1.4,4.8-1,10,1.1,14.5c2.1,4.5,5.5,7.9,9.8,9.4c4.3,1.6,8.8,1.1,12.8-1.2     c20.7-12,76.2-7.2,142.2,25.2c5.1,2.5,10.2,5.2,15.2,7.9c32.4,16.6,61.4,36.6,81.7,56.2c33.7,32.6,34.5,55.7,29.3,69.4     c-6,15.6-26.4,23.5-60.6,23.5c-6.5,0-13.5-0.3-20.9-0.9C437.2,339.3,447.8,340.3,457.8,340.3     C457.8,340.3,457.8,340.3,457.8,340.3z"></path><path class="fill-zinc-500" d="M71.2,60.2c-35.1,0-59.1,12.3-67.7,34.7c-11.7,30.4,8.4,62.4,27.4,83.9c24.2,27.4,61.9,54.9,103.4,75.3     c70,34.4,137.1,43.9,171,24.2c4-2.3,7-6.3,8.3-11.1c1.4-4.8,1-10-1.1-14.5c-2.1-4.5-5.5-7.9-9.8-9.4c-4.3-1.6-8.8-1.1-12.8,1.2     c-20.7,12-76.2,7.2-142.2-25.2c-5.1-2.5-10.2-5.2-15.2-7.9c-32.4-16.6-61.4-36.6-81.7-56.2c-33.7-32.6-34.5-55.7-29.3-69.4     c6-15.6,26.4-23.5,60.6-23.5c6.5,0,13.5,0.3,20.9,0.9C91.8,61.1,81.2,60.2,71.2,60.2C71.2,60.2,71.2,60.2,71.2,60.2z"></path></g><g><path class="fill-zinc-500" d="M683.7,242.5c4.8,0,9.5-1.7,14-5.1c4.5-3.4,7.4-7.5,8.9-12.3c1.5-4.8,1-9-1.3-12.4c-2.4-3.4-6-5.1-10.8-5.1     h-19.7c-8.8,0-15.3-3.1-19.6-9.4c-4.4-6.2-5.2-13.7-2.5-22.6c2.7-8.8,8.1-16.3,16.3-22.5c8.1-6.3,16.6-9.4,25.4-9.4h19.7     c8.8,0,15.4,3.1,19.7,9.4c4.4,6.2,5.2,13.7,2.5,22.5c-0.6,2-1.8,3.7-3.7,5.1c-1.9,1.4-3.8,2.1-5.8,2.1c-2,0-3.5-0.7-4.4-2.1     c-1-1.4-1.2-3.1-0.6-5.1c1.5-4.8,1-8.9-1.4-12.3s-6-5.1-10.8-5.1h-19.7c-4.8,0-9.4,1.7-13.9,5.1c-4.5,3.4-7.4,7.5-8.9,12.3     c-1.5,4.8-1,9,1.3,12.4c2.4,3.4,6,5.1,10.8,5.1h19.7c8.8,0,15.4,3.1,19.7,9.4c4.4,6.2,5.2,13.7,2.5,22.6     c-2.7,8.8-8.1,16.3-16.3,22.5c-8.2,6.3-16.7,9.4-25.5,9.4h-19.7c-8.8,0-15.3-3.1-19.6-9.4c-4.4-6.2-5.2-13.7-2.5-22.5     c0.6-2,1.8-3.7,3.7-5.1c1.8-1.4,3.7-2.1,5.7-2.1c2,0,3.5,0.7,4.5,2.1c1,1.4,1.2,3.1,0.6,5.1c-1.5,4.8-1,8.9,1.4,12.3     c2.4,3.4,6,5.1,10.8,5.1H683.7z"></path><path class="fill-zinc-500" d="M772.4,150.8c0.6-1.9,1.8-3.6,3.7-5.1c1.8-1.4,3.7-2.1,5.7-2.1c2,0,3.5,0.7,4.5,2.1c1,1.4,1.2,3.1,0.6,5.1     l-13.3,43.5l68.8-48.8c1.9-1.4,3.8-2,5.8-1.9c1.9,0.1,3.3,0.9,4.3,2.4c0.9,1.5,0.9,3.2,0.2,5.2c-0.7,2-2,3.7-3.9,5l-56.6,40.2     l30,48.5c0.9,1.5,1,3.2,0.3,5.1c-0.7,2-1.9,3.7-3.8,5.1c-1.8,1.3-3.6,1.9-5.5,1.9c-2.1,0-3.6-0.8-4.6-2.3l-30-48.7l-10.9,7.7     l-11,36c-0.6,2-1.8,3.7-3.7,5.1c-1.9,1.4-3.8,2.1-5.8,2.1c-2,0-3.5-0.7-4.4-2.1c-1-1.4-1.2-3.1-0.6-5.1L772.4,150.8z"></path><path class="fill-zinc-500" d="M856.4,256.9c-2,0-3.5-0.7-4.4-2.1c-1-1.4-1.2-3.1-0.6-5.1l30.3-99c0.6-1.9,1.8-3.6,3.7-5.1     c1.8-1.4,3.7-2.1,5.7-2.1c2,0,3.5,0.7,4.5,2.1c1,1.4,1.2,3.1,0.6,5.1l-30.3,99c-0.6,2-1.8,3.7-3.7,5.1     C860.3,256.2,858.4,256.9,856.4,256.9z"></path><path class="fill-zinc-500" d="M929.8,158c-2,0-3.5-0.7-4.4-2.1c-1-1.4-1.2-3.1-0.6-5.1c0.6-1.9,1.8-3.6,3.7-5.1c1.8-1.4,3.7-2.1,5.7-2.1     h38.3c10.2,0,17.8,3.6,22.8,10.8c5,7.3,6,16,2.9,26.1c-3.1,10.2-9.4,18.9-18.9,26.1c-9.4,7.2-19.2,10.8-29.4,10.8h-31l-9.9,32.2     c-0.6,2-1.8,3.7-3.7,5.1c-1.9,1.4-3.8,2.1-5.8,2.1c-2,0-3.5-0.7-4.4-2.1c-1-1.4-1.2-3.1-0.6-5.1l12.1-39.4c0.6-2,1.8-3.7,3.7-5.1     c1.8-1.4,3.7-2.1,5.7-2.1h38.3c6.2,0,12.2-2.2,17.9-6.6c5.8-4.4,9.6-9.7,11.5-16c1.9-6.2,1.3-11.5-1.8-16     c-3-4.4-7.7-6.6-13.9-6.6H929.8z"></path></g></g></g></svg>