<svg width="40" height="40" viewBox="0 0 40 40" fill="none" xmlns="http://www.w3.org/2000/svg">
<path d="M0 20C0 8.95431 8.95431 0 20 0C31.0457 0 40 8.95431 40 20C40 31.0457 31.0457 40 20 40C8.95431 40 0 31.0457 0 20Z" fill="#180F34"/>
<path d="M32.5645 10.9497C32.2798 9.85206 31.3646 8.75444 29.7172 7.53254C28.3953 6.55917 26.992 6 25.8734 6C25.6497 6 25.4464 6.0207 25.2429 6.06213C24.7345 6.16568 24.2871 6.53846 24.0024 7.09763C23.6566 7.76035 23.5753 8.65088 23.799 9.18935C23.8803 9.35503 23.982 9.56211 24.1041 9.7485C23.0262 10.4112 22.416 10.5976 22.3347 10.6184C25.1413 11.571 27.4801 13.5592 28.9444 16.1479L28.9647 15.8994C29.0258 15.216 29.2291 14.429 29.5138 13.6213C29.7986 13.7041 30.0833 13.7456 30.368 13.7456C31.1205 13.7456 31.7713 13.4349 32.1781 12.8757C32.5848 12.3165 32.7476 11.571 32.5645 10.9497Z" fill="#5E12A0"/>
<path d="M29.636 13.0208C31.4868 13.5385 32.2392 12.0889 31.9952 11.1154C31.7308 10.1421 30.8766 9.148 29.3716 8.02966C27.8667 6.91132 26.3414 6.45569 25.3651 6.6628C24.3889 6.8699 24.1042 8.38173 24.3483 8.96161C24.4499 9.18942 24.6736 9.52075 24.9787 9.89354C24.5923 10.1628 24.2263 10.3699 23.9211 10.5563C25.7922 11.4054 27.4192 12.7309 28.6395 14.3877C28.7818 13.8285 28.9852 13.3314 29.1683 12.8965C29.3106 12.9173 29.4733 12.9586 29.636 13.0208Z" fill="url(#paint0_radial_1140_4190)"/>
<path d="M19.0398 33.3164C25.3186 33.3164 30.4086 28.1332 30.4086 21.7395C30.4086 15.3458 25.3186 10.1626 19.0398 10.1626C12.7611 10.1626 7.67114 15.3458 7.67114 21.7395C7.67114 28.1332 12.7611 33.3164 19.0398 33.3164Z" fill="url(#paint1_radial_1140_4190)"/>
<path opacity="0.6" d="M31.0592 10.1627C29.5136 8.50586 28.212 8.07095 26.646 7.71889C25.4257 7.42894 25.7511 6.7248 27.2357 6.86977C26.5239 6.62125 25.8528 6.55912 25.3647 6.66267C24.3885 6.86977 24.1038 8.38161 24.3478 8.96149C24.4495 9.1893 24.6732 9.52067 24.9782 9.89345C24.4292 10.2662 23.9614 10.5355 23.575 10.7426C23.758 10.8254 23.9817 10.9289 24.2461 11.0739C24.9376 11.4467 25.6901 12.068 25.6901 12.068C24.5512 11.0739 24.7952 10.6183 26.3612 9.49994C26.8493 9.14788 27.7442 9.1893 28.578 9.62423C29.4118 10.0591 30.3881 11.1567 30.3881 11.1567L29.4525 12.9792C29.5136 12.9999 29.5746 13.0207 29.6356 13.0414C30.2254 13.2071 30.6931 13.1656 31.0592 13.0207C31.4863 12.7514 32.6049 11.8402 31.0592 10.1627Z" fill="#A98698"/>
<path d="M26.6259 8.71316C27.0326 8.87884 27.5614 9.16878 28.2122 9.60372C28.9851 10.1214 29.6562 10.7013 30.0832 11.157C29.3714 12.1096 28.9037 13.4143 28.6189 14.3256C28.7613 14.5327 28.9241 14.7398 29.0664 14.9469C29.2087 14.4291 29.4528 13.6628 29.7782 12.8966C29.8596 12.9173 29.9612 12.9173 30.0629 12.9173C30.307 12.9173 30.5917 12.8759 30.8154 12.6895C30.9781 12.5652 31.1612 12.3374 31.1408 11.9232C31.1408 11.5298 30.8357 11.0327 30.2053 10.4321C29.7579 9.99716 29.1477 9.52082 28.5376 9.08594C26.7886 7.90547 25.5683 7.57411 25.0192 8.13328C24.6532 8.50606 24.6938 8.96169 24.8158 9.29305C24.165 9.72794 23.6159 10.0386 23.2499 10.2457C23.4939 10.3286 23.7176 10.4321 23.9617 10.5356C24.6125 10.1836 25.548 9.583 26.6259 8.71316ZM30.4697 11.6747C30.5307 11.7783 30.551 11.8818 30.551 11.9439C30.551 12.1303 30.49 12.1924 30.4494 12.2339C30.368 12.296 30.2053 12.3374 30.0629 12.3374C30.185 12.0889 30.3274 11.8818 30.4697 11.6747ZM25.4463 8.5889C25.5073 8.52677 25.67 8.48535 25.9344 8.52677C25.731 8.69245 25.5277 8.83742 25.3243 8.98239C25.304 8.83742 25.3243 8.69245 25.4463 8.5889Z" fill="#5E12A0"/>
<path d="M19.0399 9.47949C12.3895 9.47949 7 14.9677 7 21.7398C7 28.5121 12.3895 34.0002 19.0399 34.0002C25.6902 34.0002 31.0797 28.5121 31.0797 21.7398C31.0797 14.9677 25.6699 9.47949 19.0399 9.47949ZM19.0399 33.3167C12.7555 33.3167 7.67114 28.1393 7.67114 21.7398C7.67114 15.3405 12.7555 10.163 19.0399 10.163C25.3241 10.163 30.4085 15.3405 30.4085 21.7398C30.4085 28.1393 25.3038 33.3167 19.0399 33.3167Z" fill="#5E12A0"/>
<path opacity="0.6" d="M19.0398 33.3164C25.3186 33.3164 30.4086 28.1332 30.4086 21.7395C30.4086 15.3458 25.3186 10.1626 19.0398 10.1626C12.7611 10.1626 7.67114 15.3458 7.67114 21.7395C7.67114 28.1332 12.7611 33.3164 19.0398 33.3164Z" fill="url(#paint2_linear_1140_4190)"/>
<path opacity="0.6" d="M18.9584 31.9084C12.7554 30.8936 8.54554 24.9499 9.5624 18.6333C10.0098 15.8374 11.3928 13.4558 13.3452 11.7368C10.4979 13.4143 8.38284 16.3344 7.81339 19.8966C6.81684 26.2131 11.0267 32.157 17.2093 33.1718C20.6667 33.7516 24.0021 32.654 26.4629 30.5001C24.2868 31.7842 21.6429 32.3433 18.9584 31.9084Z" fill="#A98698"/>
<path opacity="0.6" d="M20.8499 10.3284C17.9823 9.85201 15.1961 10.5147 12.9183 11.9852C12.8776 12.0266 12.8369 12.068 12.8369 12.068C13.7114 11.5295 14.9927 11.0532 14.9927 11.0532C11.698 13 10.6812 15.2159 10.6812 15.2159C11.9624 12.6893 15.7249 10.9083 18.6738 10.784C21.6228 10.6598 23.5548 11.5503 25.914 13.4763C28.2731 15.423 29.6968 19.3994 29.5544 22.5473C29.4324 25.6952 27.8053 28.2426 27.8053 28.2426C28.9239 26.7722 29.5951 25.6952 30.0221 24.5976C30.1035 24.2662 30.1849 23.9349 30.2256 23.5828C31.2424 17.287 27.0528 11.3432 20.8499 10.3284Z" fill="url(#paint3_linear_1140_4190)"/>
<path d="M29.839 21.6357C29.839 27.7038 24.9987 32.6328 19.0398 32.6328C13.0809 32.6328 8.22021 27.7038 8.22021 21.6357H29.839Z" fill="url(#paint4_linear_1140_4190)"/>
<g opacity="0.6">
<path opacity="0.6" d="M28.9844 21.6357C28.9844 27.5588 24.3882 32.405 18.6123 32.6328C18.7547 32.6328 18.897 32.6328 19.0394 32.6328C24.9983 32.6328 29.8386 27.7038 29.8386 21.6357H28.9844Z" fill="url(#paint5_linear_1140_4190)"/>
</g>
<g opacity="0.7">
<path opacity="0.7" d="M9.74554 21.6357H8.22021C8.22021 27.7038 13.0606 32.6328 19.0194 32.6328C19.2839 32.6328 19.5279 32.6328 19.7719 32.6121C14.1791 32.1979 9.74554 27.4346 9.74554 21.6357Z" fill="url(#paint6_linear_1140_4190)"/>
</g>
<path d="M29.8187 21.7394C29.8187 20.4761 27.6629 19.7513 24.7953 19.5028C22.7209 19.337 20.6261 19.5442 18.2263 20.2897C16.1518 20.911 14.2808 20.8075 12.9182 20.6418C9.88787 20.2897 8.22021 20.2483 8.22021 21.7394C8.22021 23.8933 12.5317 26.5856 18.9991 25.6536C22.2735 25.1773 23.9615 24.204 25.8936 23.5412C27.9884 22.837 29.8187 22.8578 29.8187 21.7394Z" fill="url(#paint7_linear_1140_4190)"/>
<path d="M22.5787 16.5207C23.5895 16.5207 24.409 15.6863 24.409 14.6569C24.409 13.6275 23.5895 12.793 22.5787 12.793C21.5678 12.793 20.7483 13.6275 20.7483 14.6569C20.7483 15.6863 21.5678 16.5207 22.5787 16.5207Z" fill="white"/>
<path d="M25.568 17.9084C25.9948 17.9084 26.3408 17.5561 26.3408 17.1214C26.3408 16.6868 25.9948 16.3345 25.568 16.3345C25.1412 16.3345 24.7952 16.6868 24.7952 17.1214C24.7952 17.5561 25.1412 17.9084 25.568 17.9084Z" fill="white"/>
<g opacity="0.6">
<path opacity="0.6" d="M28.334 13.1654C28.3137 13.1654 28.2933 13.1654 28.2933 13.1654C28.1713 13.1447 28.09 13.0204 28.1103 12.8754C28.2933 11.9228 29.0661 11.0115 29.1068 10.9701C29.1882 10.8666 29.3509 10.8666 29.4323 10.9494C29.5339 11.0322 29.5339 11.1979 29.4526 11.2808C29.4323 11.3015 28.7204 12.1506 28.5577 12.979C28.5374 13.1033 28.4357 13.1654 28.334 13.1654Z" fill="url(#paint8_linear_1140_4190)"/>
</g>
<path opacity="0.2" d="M18.2887 30.3756C18.6032 30.3756 18.8581 30.1159 18.8581 29.7957C18.8581 29.4754 18.6032 29.2158 18.2887 29.2158C17.9742 29.2158 17.7192 29.4754 17.7192 29.7957C17.7192 30.1159 17.9742 30.3756 18.2887 30.3756Z" fill="white"/>
<g opacity="0.4">
<path opacity="0.6" d="M17.9619 30.1693C17.7382 29.9414 17.7382 29.5686 17.9619 29.3409C18.0026 29.2994 18.0433 29.2788 18.0839 29.2373C18.0026 29.258 17.9416 29.2994 17.8806 29.3616C17.6568 29.5894 17.6568 29.9621 17.8806 30.19C18.0636 30.3764 18.3483 30.4178 18.5721 30.2935C18.3686 30.3764 18.1246 30.3349 17.9619 30.1693Z" fill="url(#paint9_linear_1140_4190)"/>
</g>
<path opacity="0.3" d="M18.4907 29.6298C18.5581 29.6298 18.6128 29.5743 18.6128 29.5056C18.6128 29.437 18.5581 29.3813 18.4907 29.3813C18.4233 29.3813 18.3687 29.437 18.3687 29.5056C18.3687 29.5743 18.4233 29.6298 18.4907 29.6298Z" fill="white"/>
<path opacity="0.2" d="M21.2579 30.0855C21.5724 30.0855 21.8273 29.8259 21.8273 29.5057C21.8273 29.1854 21.5724 28.9258 21.2579 28.9258C20.9434 28.9258 20.6885 29.1854 20.6885 29.5057C20.6885 29.8259 20.9434 30.0855 21.2579 30.0855Z" fill="white"/>
<g opacity="0.4">
<path opacity="0.6" d="M20.9312 29.8792C20.7075 29.6514 20.7075 29.2786 20.9312 29.0508C20.9719 29.0094 21.0126 28.9887 21.0533 28.9473C20.9719 28.968 20.9109 29.0094 20.8499 29.0715C20.6262 29.2993 20.6262 29.6721 20.8499 29.9C21.033 30.0863 21.3177 30.1277 21.5413 30.0035C21.338 30.0863 21.094 30.0449 20.9312 29.8792Z" fill="url(#paint10_linear_1140_4190)"/>
</g>
<path opacity="0.3" d="M21.4599 29.3404C21.5273 29.3404 21.5819 29.2847 21.5819 29.2161C21.5819 29.1475 21.5273 29.0918 21.4599 29.0918C21.3925 29.0918 21.3379 29.1475 21.3379 29.2161C21.3379 29.2847 21.3925 29.3404 21.4599 29.3404Z" fill="white"/>
<path opacity="0.2" d="M19.7925 31.4319C20.0284 31.4319 20.2196 31.2372 20.2196 30.997C20.2196 30.7568 20.0284 30.562 19.7925 30.562C19.5566 30.562 19.3654 30.7568 19.3654 30.997C19.3654 31.2372 19.5566 31.4319 19.7925 31.4319Z" fill="white"/>
<g opacity="0.4">
<path opacity="0.6" d="M19.5484 31.267C19.3857 31.1013 19.3857 30.8113 19.5484 30.6457C19.5687 30.6249 19.6094 30.6042 19.6297 30.5835C19.5687 30.6042 19.528 30.6457 19.4874 30.6871C19.3247 30.8527 19.3247 31.1427 19.4874 31.3083C19.6297 31.4533 19.8331 31.4741 20.0162 31.3705C19.8535 31.4326 19.6704 31.3912 19.5484 31.267Z" fill="url(#paint11_linear_1140_4190)"/>
</g>
<path opacity="0.3" d="M19.9347 30.8522C19.9795 30.8522 20.016 30.8151 20.016 30.7694C20.016 30.7236 19.9795 30.6865 19.9347 30.6865C19.8897 30.6865 19.8533 30.7236 19.8533 30.7694C19.8533 30.8151 19.8897 30.8522 19.9347 30.8522Z" fill="white"/>
<path opacity="0.2" d="M22.4157 31.1212C22.6516 31.1212 22.8428 30.9266 22.8428 30.6864C22.8428 30.4462 22.6516 30.2515 22.4157 30.2515C22.1798 30.2515 21.9886 30.4462 21.9886 30.6864C21.9886 30.9266 22.1798 31.1212 22.4157 31.1212Z" fill="white"/>
<g opacity="0.4">
<path opacity="0.6" d="M22.1721 30.9564C22.0093 30.7907 22.0093 30.5007 22.1721 30.3351C22.1924 30.3143 22.2331 30.2937 22.2534 30.2729C22.1924 30.2937 22.1517 30.3351 22.1111 30.3765C21.9483 30.5422 21.9483 30.8321 22.1111 30.9978C22.2534 31.1428 22.4567 31.1635 22.6398 31.0599C22.4771 31.1221 22.2941 31.0806 22.1721 30.9564Z" fill="url(#paint12_linear_1140_4190)"/>
</g>
<path opacity="0.3" d="M22.5584 30.5417C22.6033 30.5417 22.6398 30.5046 22.6398 30.4588C22.6398 30.4131 22.6033 30.376 22.5584 30.376C22.5135 30.376 22.4771 30.4131 22.4771 30.4588C22.4771 30.5046 22.5135 30.5417 22.5584 30.5417Z" fill="white"/>
<path opacity="0.2" d="M15.8674 30.1686C16.3841 30.1686 16.8029 29.742 16.8029 29.2159C16.8029 28.6897 16.3841 28.2632 15.8674 28.2632C15.3507 28.2632 14.9319 28.6897 14.9319 29.2159C14.9319 29.742 15.3507 30.1686 15.8674 30.1686Z" fill="white"/>
<g opacity="0.4">
<path opacity="0.6" d="M15.3391 29.8168C14.973 29.444 14.973 28.8434 15.3391 28.4706C15.4001 28.4085 15.4611 28.3671 15.5425 28.3257C15.4205 28.3671 15.3188 28.45 15.217 28.5328C14.851 28.9056 14.851 29.5061 15.217 29.8789C15.5222 30.1896 15.9899 30.2517 16.356 30.0239C16.0102 30.1689 15.6035 30.1068 15.3391 29.8168Z" fill="url(#paint13_linear_1140_4190)"/>
</g>
<path opacity="0.3" d="M16.1926 28.9259C16.3049 28.9259 16.396 28.8332 16.396 28.7188C16.396 28.6044 16.3049 28.5117 16.1926 28.5117C16.0803 28.5117 15.9893 28.6044 15.9893 28.7188C15.9893 28.8332 16.0803 28.9259 16.1926 28.9259Z" fill="white"/>
<path opacity="0.2" d="M24.2264 27.8286C24.743 27.8286 25.162 27.4021 25.162 26.876C25.162 26.3499 24.743 25.9233 24.2264 25.9233C23.7097 25.9233 23.2909 26.3499 23.2909 26.876C23.2909 27.4021 23.7097 27.8286 24.2264 27.8286Z" fill="white"/>
<g opacity="0.4">
<path opacity="0.6" d="M23.6768 27.4765C23.3108 27.1037 23.3108 26.5031 23.6768 26.1304C23.7378 26.0682 23.7989 26.0268 23.8802 25.9854C23.7582 26.0268 23.6565 26.1096 23.5548 26.1925C23.1888 26.5653 23.1888 27.1659 23.5548 27.5387C23.8599 27.8493 24.3276 27.9114 24.6938 27.6836C24.348 27.8285 23.9616 27.7664 23.6768 27.4765Z" fill="url(#paint14_linear_1140_4190)"/>
</g>
<path opacity="0.3" d="M24.5513 26.5856C24.6637 26.5856 24.7547 26.4929 24.7547 26.3785C24.7547 26.2641 24.6637 26.1714 24.5513 26.1714C24.439 26.1714 24.3479 26.2641 24.3479 26.3785C24.3479 26.4929 24.439 26.5856 24.5513 26.5856Z" fill="white"/>
<defs>
<radialGradient id="paint0_radial_1140_4190" cx="0" cy="0" r="1" gradientUnits="userSpaceOnUse" gradientTransform="translate(31.6242 9.8107) scale(9.08977 9.25626)">
<stop stop-color="#FFEAFF" stop-opacity="0.6"/>
<stop offset="0.6807" stop-color="#A087C9"/>
<stop offset="1" stop-color="#10002F"/>
</radialGradient>
<radialGradient id="paint1_radial_1140_4190" cx="0" cy="0" r="1" gradientUnits="userSpaceOnUse" gradientTransform="translate(26.5669 13.7581) scale(22.2393 22.6466)">
<stop stop-color="#FFEAFF" stop-opacity="0.6"/>
<stop offset="0.6807" stop-color="#A087C9"/>
<stop offset="1" stop-color="#10002F"/>
</radialGradient>
<linearGradient id="paint2_linear_1140_4190" x1="17.2162" y1="33.1522" x2="20.9833" y2="10.3292" gradientUnits="userSpaceOnUse">
<stop stop-color="#81FFFF"/>
<stop offset="0.6202" stop-color="white" stop-opacity="0"/>
</linearGradient>
<linearGradient id="paint3_linear_1140_4190" x1="27.0519" y1="13.8774" x2="17.4953" y2="22.4881" gradientUnits="userSpaceOnUse">
<stop offset="0.2888" stop-color="white"/>
<stop offset="0.7796" stop-color="white" stop-opacity="0"/>
</linearGradient>
<linearGradient id="paint4_linear_1140_4190" x1="8.22936" y1="27.1279" x2="29.8338" y2="27.1279" gradientUnits="userSpaceOnUse">
<stop stop-color="#0002E9"/>
<stop offset="0.9952" stop-color="#FF00C7"/>
</linearGradient>
<linearGradient id="paint5_linear_1140_4190" x1="30.8561" y1="22.6008" x2="18.8957" y2="33.7006" gradientUnits="userSpaceOnUse">
<stop offset="0.2888" stop-color="white"/>
<stop offset="0.7796" stop-color="white" stop-opacity="0"/>
</linearGradient>
<linearGradient id="paint6_linear_1140_4190" x1="8.22936" y1="27.1279" x2="19.7877" y2="27.1279" gradientUnits="userSpaceOnUse">
<stop stop-color="#000292"/>
<stop offset="0.9952" stop-color="#7D00C7"/>
</linearGradient>
<linearGradient id="paint7_linear_1140_4190" x1="8.24386" y1="22.653" x2="29.8193" y2="22.653" gradientUnits="userSpaceOnUse">
<stop stop-color="#000292"/>
<stop offset="0.9952" stop-color="#BE00C7"/>
</linearGradient>
<linearGradient id="paint8_linear_1140_4190" x1="29.4653" y1="10.8692" x2="27.8735" y2="13.4094" gradientUnits="userSpaceOnUse">
<stop offset="0.2888" stop-color="white"/>
<stop offset="0.7796" stop-color="white" stop-opacity="0"/>
</linearGradient>
<linearGradient id="paint9_linear_1140_4190" x1="17.7122" y1="29.8143" x2="18.5727" y2="29.8143" gradientUnits="userSpaceOnUse">
<stop offset="0.2888" stop-color="white"/>
<stop offset="0.7796" stop-color="white" stop-opacity="0"/>
</linearGradient>
<linearGradient id="paint10_linear_1140_4190" x1="20.6795" y1="29.5202" x2="21.5399" y2="29.5202" gradientUnits="userSpaceOnUse">
<stop offset="0.2888" stop-color="white"/>
<stop offset="0.7796" stop-color="white" stop-opacity="0"/>
</linearGradient>
<linearGradient id="paint11_linear_1140_4190" x1="19.3627" y1="31.0027" x2="20.0087" y2="31.0027" gradientUnits="userSpaceOnUse">
<stop offset="0.2888" stop-color="white"/>
<stop offset="0.7796" stop-color="white" stop-opacity="0"/>
</linearGradient>
<linearGradient id="paint12_linear_1140_4190" x1="21.9776" y1="30.6913" x2="22.6235" y2="30.6913" gradientUnits="userSpaceOnUse">
<stop offset="0.2888" stop-color="white"/>
<stop offset="0.7796" stop-color="white" stop-opacity="0"/>
</linearGradient>
<linearGradient id="paint13_linear_1140_4190" x1="14.9332" y1="29.2405" x2="16.3384" y2="29.2405" gradientUnits="userSpaceOnUse">
<stop offset="0.2888" stop-color="white"/>
<stop offset="0.7796" stop-color="white" stop-opacity="0"/>
</linearGradient>
<linearGradient id="paint14_linear_1140_4190" x1="23.2787" y1="26.8995" x2="24.6839" y2="26.8995" gradientUnits="userSpaceOnUse">
<stop offset="0.2888" stop-color="white"/>
<stop offset="0.7796" stop-color="white" stop-opacity="0"/>
</linearGradient>
</defs>
</svg>

