<svg width="40" height="40" viewBox="0 0 40 40" fill="none" xmlns="http://www.w3.org/2000/svg">
<g clip-path="url(#clip0_2320_2234)">
<path fill-rule="evenodd" clip-rule="evenodd" d="M20 38.2222C30.0638 38.2222 38.2222 30.0638 38.2222 20C38.2222 9.93616 30.0638 1.77778 20 1.77778C9.93616 1.77778 1.77778 9.93616 1.77778 20C1.77778 30.0638 9.93616 38.2222 20 38.2222ZM40 20C40 31.0458 31.0458 40 20 40C8.95431 40 0 31.0458 0 20C0 8.95431 8.95431 0 20 0C31.0458 0 40 8.95431 40 20Z" fill="white"/>
<path d="M23.7089 4.99316L24.5156 16.1954L35.4178 18.8887L25.0133 23.1176L25.82 34.3198L18.5845 25.7309L8.18002 29.9621L14.1111 20.4243L6.87335 11.8354L17.7756 14.5309L23.7089 4.99316Z" fill="white"/>
</g>
<defs>
<clipPath id="clip0_2320_2234">
<rect width="40" height="40" fill="white"/>
</clipPath>
</defs>
</svg>
