<svg width="24" height="24" viewBox="0 0 18 14" fill="none" xmlns="http://www.w3.org/2000/svg">
<path d="M2.33332 13.6667C1.87499 13.6667 1.48263 13.5035 1.15624 13.1771C0.829851 12.8507 0.666656 12.4583 0.666656 12V2.00001C0.666656 1.54168 0.829851 1.14932 1.15624 0.822927C1.48263 0.496538 1.87499 0.333344 2.33332 0.333344H15.6667C16.125 0.333344 16.5174 0.496538 16.8437 0.822927C17.1701 1.14932 17.3333 1.54168 17.3333 2.00001V12C17.3333 12.4583 17.1701 12.8507 16.8437 13.1771C16.5174 13.5035 16.125 13.6667 15.6667 13.6667H2.33332ZM7.33332 8.66668H4.83332C4.59721 8.66668 4.3993 8.74654 4.23957 8.90626C4.07985 9.06598 3.99999 9.2639 3.99999 9.50001C3.99999 9.73612 4.07985 9.93404 4.23957 10.0938C4.3993 10.2535 4.59721 10.3333 4.83332 10.3333H5.66666C5.66666 10.5695 5.74652 10.7674 5.90624 10.9271C6.06596 11.0868 6.26388 11.1667 6.49999 11.1667C6.7361 11.1667 6.93402 11.0868 7.09374 10.9271C7.25346 10.7674 7.33332 10.5695 7.33332 10.3333H8.16666C8.40277 10.3333 8.60068 10.2535 8.76041 10.0938C8.92013 9.93404 8.99999 9.73612 8.99999 9.50001V7.00001C8.99999 6.7639 8.92013 6.56598 8.76041 6.40626C8.60068 6.24654 8.40277 6.16668 8.16666 6.16668H5.66666V5.33334H8.16666C8.40277 5.33334 8.60068 5.25348 8.76041 5.09376C8.92013 4.93404 8.99999 4.73612 8.99999 4.50001C8.99999 4.2639 8.92013 4.06598 8.76041 3.90626C8.60068 3.74654 8.40277 3.66668 8.16666 3.66668H7.33332C7.33332 3.43057 7.25346 3.23265 7.09374 3.07293C6.93402 2.9132 6.7361 2.83334 6.49999 2.83334C6.27777 2.83334 6.12152 2.93404 6.03124 3.13543C5.94096 3.33682 5.81943 3.5139 5.66666 3.66668H4.83332C4.59721 3.66668 4.3993 3.74654 4.23957 3.90626C4.07985 4.06598 3.99999 4.2639 3.99999 4.50001V7.00001C3.99999 7.23612 4.07985 7.43404 4.23957 7.59376C4.3993 7.75348 4.59721 7.83334 4.83332 7.83334H7.33332V8.66668ZM12.4792 10.3958L13.6458 9.22918C13.7153 9.15973 13.7326 9.08334 13.6979 9.00001C13.6632 8.91668 13.5972 8.87501 13.5 8.87501H11.1667C11.0694 8.87501 11.0035 8.91668 10.9687 9.00001C10.934 9.08334 10.9514 9.15973 11.0208 9.22918L12.1875 10.3958C12.2292 10.4375 12.2778 10.4583 12.3333 10.4583C12.3889 10.4583 12.4375 10.4375 12.4792 10.3958ZM11.1667 5.33334H13.5C13.5972 5.33334 13.6632 5.29168 13.6979 5.20834C13.7326 5.12501 13.7153 5.04862 13.6458 4.97918L12.4792 3.81251C12.4375 3.77084 12.3889 3.75001 12.3333 3.75001C12.2778 3.75001 12.2292 3.77084 12.1875 3.81251L11.0208 4.97918C10.9514 5.04862 10.934 5.12501 10.9687 5.20834C11.0035 5.29168 11.0694 5.33334 11.1667 5.33334Z" fill="#FF707E"/>
</svg>
