<svg width="24" height="24" viewBox="0 0 24 24" fill="none" xmlns="http://www.w3.org/2000/svg">
<path d="M20.48 3.29414H7.31002L9.31002 5.29414H20.48V16.4641L22.24 18.2241C22.39 17.9441 22.48 17.6341 22.48 17.2941V5.29414C22.48 4.19414 21.58 3.29414 20.48 3.29414Z" fill="#3ACF92"/>
<path d="M18.48 9.29414H13.31L15.31 11.2941H18.48V9.29414Z" fill="#3ACF92"/>
<path d="M1.52002 3.16414L2.72002 4.36414C2.57002 4.64414 2.48002 4.95414 2.48002 5.29414V17.2941C2.48002 18.3941 3.38002 19.2941 4.48002 19.2941H17.65L20.61 22.2541L22.02 20.8441L2.93002 1.74414L1.52002 3.16414ZM4.48002 6.12414L7.65002 9.29414H6.48002V11.2941H8.48002V10.1241L11.65 13.2941H6.48002V15.2941H13.65L15.65 17.2941H4.48002V6.12414Z" fill="#3ACF92"/>
</svg>
