<svg width="24" height="24" viewBox="0 0 24 24" fill="none" xmlns="http://www.w3.org/2000/svg">
<path d="M12.8551 15.67C12.9951 15.31 12.9051 14.9 12.6251 14.62L10.5351 12.56L10.5651 12.53C12.3051 10.59 13.5451 8.36 14.2751 6H16.2151C16.7551 6 17.2051 5.55 17.2051 5.01V4.99C17.2051 4.45 16.7551 4 16.2151 4H10.2051V3C10.2051 2.45 9.75508 2 9.20508 2C8.65508 2 8.20508 2.45 8.20508 3V4H2.19508C1.65508 4 1.20508 4.45 1.20508 4.99C1.20508 5.54 1.65508 5.98 2.19508 5.98H12.3751C11.7051 7.92 10.6451 9.75 9.20508 11.35C8.39508 10.46 7.71508 9.49 7.14508 8.47C6.98508 8.18 6.69508 8 6.36508 8C5.67508 8 5.23508 8.75 5.57508 9.35C6.20508 10.48 6.97508 11.56 7.87508 12.56L3.50508 16.87C3.10508 17.26 3.10508 17.9 3.50508 18.29C3.89508 18.68 4.52508 18.68 4.92508 18.29L9.20508 14L11.2251 16.02C11.7351 16.53 12.6051 16.34 12.8551 15.67ZM17.7051 10C17.1051 10 16.5651 10.37 16.3551 10.94L12.6851 20.74C12.4451 21.35 12.9051 22 13.5551 22C13.9451 22 14.2951 21.76 14.4351 21.39L15.3251 19H20.0751L20.9751 21.39C21.1151 21.75 21.4651 22 21.8551 22C22.5051 22 22.9651 21.35 22.7351 20.74L19.0651 10.94C18.8451 10.37 18.3051 10 17.7051 10ZM16.0851 17L17.7051 12.67L19.3251 17H16.0851Z" fill="#409CFF"/>
</svg>

