<svg width="20" height="20" viewBox="0 0 20 20" fill="none" xmlns="http://www.w3.org/2000/svg">
<circle cx="10" cy="10" r="9" fill="#1F7F58" stroke="#212121" stroke-width="2"/>
<path d="M10.5112 5.22893L7.54034 8.087C7.34157 8.27788 7.22875 8.54098 7.22875 8.81441L7.22875 13.9682C7.22875 14.5357 7.71226 15 8.30321 15L13.1329 15C13.5627 15 13.9495 14.7524 14.116 14.3758L15.8674 10.4498C16.3241 9.42833 15.5451 8.29335 14.39 8.29335L11.3547 8.29335L11.865 5.93055C11.9188 5.6726 11.8382 5.4095 11.6448 5.22377C11.3278 4.92455 10.8228 4.92455 10.5112 5.22893ZM5.07446 15C5.66541 15 6.14892 14.5357 6.14892 13.9682L6.14892 9.84104C6.14892 9.27356 5.66541 8.80925 5.07446 8.80925C4.48351 8.80925 4 9.27356 4 9.84104L4 13.9682C4 14.5357 4.48351 15 5.07446 15Z" fill="black"/>
</svg>
