<svg width="12" height="14" viewBox="0 0 12 14" fill="none" xmlns="http://www.w3.org/2000/svg">
<path d="M4 10.9999C3.63333 10.9999 3.31944 10.8694 3.05833 10.6083C2.79722 10.3471 2.66667 10.0333 2.66667 9.66659V1.66659C2.66667 1.29992 2.79722 0.98603 3.05833 0.724919C3.31944 0.463808 3.63333 0.333252 4 0.333252H10C10.3667 0.333252 10.6806 0.463808 10.9417 0.724919C11.2028 0.98603 11.3333 1.29992 11.3333 1.66659V9.66659C11.3333 10.0333 11.2028 10.3471 10.9417 10.6083C10.6806 10.8694 10.3667 10.9999 10 10.9999H4ZM4 9.66659H10V1.66659H4V9.66659ZM1.33333 13.6666C0.966667 13.6666 0.652778 13.536 0.391667 13.2749C0.130556 13.0138 0 12.6999 0 12.3333V3.66659C0 3.4777 0.0638889 3.31936 0.191667 3.19159C0.319444 3.06381 0.477778 2.99992 0.666667 2.99992C0.855555 2.99992 1.01389 3.06381 1.14167 3.19159C1.26944 3.31936 1.33333 3.4777 1.33333 3.66659V12.3333H8C8.18889 12.3333 8.34722 12.3971 8.475 12.5249C8.60278 12.6527 8.66667 12.811 8.66667 12.9999C8.66667 13.1888 8.60278 13.3471 8.475 13.4749C8.34722 13.6027 8.18889 13.6666 8 13.6666H1.33333Z" fill="#70B7FF"/>
</svg>
