<svg width="64" height="64" viewBox="0 0 64 64" fill="none" xmlns="http://www.w3.org/2000/svg">
<rect width="64" height="64" rx="32" fill="#EEEDFC"/>
<path d="M45.3333 32.0001C45.3333 24.6401 39.36 18.6667 32 18.6667C24.64 18.6667 18.6666 24.6401 18.6666 32.0001C18.6666 33.7734 19.0133 35.4801 19.6533 37.0267L25.8 30.8667C26.2933 30.3734 27.0666 30.3467 27.6 30.7867L31.0666 33.7067L35.44 29.3334H34.6666C33.9333 29.3334 33.3333 28.7334 33.3333 28.0001C33.3333 27.2667 33.9333 26.6667 34.6666 26.6667H38.6666C39.4 26.6667 40 27.2667 40 28.0001V32.0001C40 32.7334 39.4 33.3334 38.6666 33.3334C37.9333 33.3334 37.3333 32.7334 37.3333 32.0001V31.2267L32.08 36.4667C31.5866 36.9601 30.8 36.9867 30.28 36.5334L26.8266 33.6134L20.96 39.4801C23.36 43.0134 27.4133 45.3334 32 45.3334H42.6666C44.1333 45.3334 45.3333 44.1334 45.3333 42.6667V32.0001ZM42 43.3334C41.2666 43.3334 40.6666 42.7334 40.6666 42.0001C40.6666 41.2667 41.2666 40.6667 42 40.6667C42.7333 40.6667 43.3333 41.2667 43.3333 42.0001C43.3333 42.7334 42.7333 43.3334 42 43.3334Z" fill="#8583EC"/>
</svg>
