<svg width="40" height="40" viewBox="0 0 40 40" fill="none" xmlns="http://www.w3.org/2000/svg">
<path d="M0 20C0 8.95431 8.95431 0 20 0C31.0457 0 40 8.95431 40 20C40 31.0457 31.0457 40 20 40C8.95431 40 0 31.0457 0 20Z" fill="#F4F4F4"/>
<path d="M28.6833 17.27L28.6933 17.21C28.8533 16.59 28.3933 16 27.7633 16H25.0033L25.7033 13.21C25.8533 12.59 25.3933 12 24.7633 12C24.3133 12 23.9333 12.3 23.8233 12.73L23.0033 16H19.0033L19.7033 13.21C19.8533 12.59 19.3933 12 18.7633 12C18.3133 12 17.9333 12.3 17.8233 12.73L17.0033 16H13.7633C13.3133 16 12.9233 16.3 12.8233 16.73L12.8033 16.79C12.6533 17.41 13.1133 18 13.7433 18H16.5033L15.5033 22H12.2633C11.8133 22 11.4333 22.3 11.3233 22.73L11.3033 22.79C11.1533 23.41 11.6133 24 12.2433 24H15.0033L14.3033 26.79C14.1533 27.41 14.6133 28 15.2433 28C15.6933 28 16.0733 27.7 16.1833 27.27L17.0033 24H21.0033L20.3033 26.79C20.1533 27.41 20.6133 28 21.2433 28C21.6933 28 22.0733 27.7 22.1833 27.27L23.0033 24H26.2433C26.6933 24 27.0733 23.7 27.1833 23.27L27.1933 23.21C27.3433 22.6 26.8833 22 26.2533 22H23.5033L24.5033 18H27.7433C28.1933 18 28.5833 17.7 28.6833 17.27ZM21.5033 22H17.5033L18.5033 18H22.5033L21.5033 22Z" fill="#696969"/>
</svg>
