<svg width="64" height="64" viewBox="0 0 64 64" fill="none" xmlns="http://www.w3.org/2000/svg">
<rect width="64" height="64" rx="32" fill="#FFF7EB"/>
<path d="M31.9867 18.6665C24.6267 18.6665 18.6667 24.6398 18.6667 31.9998C18.6667 39.3598 24.6267 45.3332 31.9867 45.3332C39.36 45.3332 45.3333 39.3598 45.3333 31.9998C45.3333 24.6398 39.36 18.6665 31.9867 18.6665ZM37.3333 37.3332C36.8133 37.8532 35.9733 37.8532 35.4533 37.3332L31.0667 32.9465C30.8133 32.6932 30.6667 32.3598 30.6667 31.9998V26.6665C30.6667 25.9332 31.2667 25.3332 32 25.3332C32.7333 25.3332 33.3333 25.9332 33.3333 26.6665V31.4532L37.3333 35.4532C37.8533 35.9732 37.8533 36.8132 37.3333 37.3332Z" fill="#D17F00"/>
</svg>
