<svg width="20" height="20" viewBox="0 0 20 20" fill="none" xmlns="http://www.w3.org/2000/svg">
<circle cx="10" cy="10" r="9" fill="#8583EC" stroke="#212121" stroke-width="2"/>
<path d="M9.48878 15.7711L12.4597 12.913C12.6584 12.7221 12.7712 12.459 12.7712 12.1856V7.03179C12.7712 6.46431 12.2877 6 11.6968 6L6.86709 6C6.43731 6 6.05051 6.24763 5.88396 6.62423L4.1326 10.5502C3.67595 11.5717 4.45493 12.7066 5.60998 12.7066H8.64533L8.13496 15.0694C8.08123 15.3274 8.16182 15.5905 8.35522 15.7762C8.67219 16.0754 9.17718 16.0754 9.48878 15.7711ZM14.9255 6C14.3346 6 13.8511 6.46431 13.8511 7.03179V11.159C13.8511 11.7264 14.3346 12.1907 14.9255 12.1907C15.5165 12.1907 16 11.7264 16 11.159V7.03179C16 6.46431 15.5165 6 14.9255 6Z" fill="black"/>
</svg>
