<svg width="96" height="96" viewBox="0 0 96 96" fill="none" xmlns="http://www.w3.org/2000/svg">
<mask id="mask0" mask-type="alpha" maskUnits="userSpaceOnUse" x="0" y="0" width="96" height="96">
<path fill-rule="evenodd" clip-rule="evenodd" d="M96 48C96 21.4903 74.5097 0 48 0C21.4903 0 0 21.4903 0 48C0 74.5097 21.4903 96 48 96C74.5097 96 96 74.5097 96 48ZM69 88C79.4934 88 88 79.4934 88 69C88 58.5066 79.4934 50 69 50C58.5066 50 50 58.5066 50 69C50 79.4934 58.5066 88 69 88Z" fill="#C4C4C4"/>
</mask>
<g mask="url(#mask0)">
<path d="M48 96C74.5097 96 96 74.5097 96 48C96 21.4903 74.5097 0 48 0C21.4903 0 0 21.4903 0 48C0 74.5097 21.4903 96 48 96Z" fill="url(#paint0_linear)"/>
<path d="M69.0057 67.1259L52.7748 27.8847C51.8593 25.8558 50.4985 24.8661 48.7047 24.8661H47.2696C45.4758 24.8661 44.115 25.8558 43.1995 27.8847L36.1356 44.9816H30.7913C29.1954 44.9939 27.8964 46.2805 27.8841 47.8888V47.9259C27.8964 49.5218 29.1954 50.8207 30.7913 50.8331H33.6614L26.9191 67.1259C26.7954 67.4847 26.7212 67.8558 26.7212 68.2393C26.7212 69.1548 27.0057 69.8723 27.5129 70.429C28.0202 70.9857 28.7501 71.2579 29.6655 71.2579C30.2717 71.2455 30.8531 71.0599 31.3356 70.7012C31.8552 70.3424 32.214 69.8228 32.4985 69.229L39.9212 50.8207H45.0676C46.6635 50.8084 47.9624 49.5218 47.9748 47.9135V47.8393C47.9624 46.2434 46.6635 44.9445 45.0676 44.9321H42.3212L47.9872 30.8166L63.4263 69.2166C63.7109 69.8104 64.0696 70.33 64.5892 70.6888C65.0717 71.0475 65.6655 71.2331 66.2593 71.2455C67.1748 71.2455 67.8923 70.9733 68.4119 70.4166C68.9315 69.8599 69.2037 69.1424 69.2037 68.2269C69.216 67.8558 69.1542 67.4723 69.0057 67.1259Z" fill="white"/>
</g>
<path d="M69 85C77.8366 85 85 77.8366 85 69C85 60.1634 77.8366 53 69 53C60.1634 53 53 60.1634 53 69C53 77.8366 60.1634 85 69 85Z" fill="#627EEA"/>
<path d="M69.498 57V65.87L76.995 69.22L69.498 57Z" fill="white" fill-opacity="0.602"/>
<path d="M69.498 57L62 69.22L69.498 65.87V57Z" fill="white"/>
<path d="M69.498 74.968V80.995L77 70.616L69.498 74.968Z" fill="white" fill-opacity="0.602"/>
<path d="M69.498 80.995V74.967L62 70.616L69.498 80.995Z" fill="white"/>
<path d="M69.498 73.573L76.995 69.22L69.498 65.872V73.573Z" fill="white" fill-opacity="0.2"/>
<path d="M62 69.22L69.498 73.573V65.872L62 69.22Z" fill="white" fill-opacity="0.602"/>
<defs>
<linearGradient id="paint0_linear" x1="83.7881" y1="17.887" x2="12.3641" y2="77.983" gradientUnits="userSpaceOnUse">
<stop stop-color="#B6509E"/>
<stop offset="1" stop-color="#2EBAC6"/>
</linearGradient>
</defs>
</svg>
