<svg width="96" height="96" viewBox="0 0 96 96" fill="none" xmlns="http://www.w3.org/2000/svg">
<mask id="mask0" mask-type="alpha" maskUnits="userSpaceOnUse" x="0" y="0" width="96" height="96">
<path fill-rule="evenodd" clip-rule="evenodd" d="M96 48C96 21.4903 74.5097 0 48 0C21.4903 0 0 21.4903 0 48C0 74.5097 21.4903 96 48 96C74.5097 96 96 74.5097 96 48ZM69 88C79.4934 88 88 79.4934 88 69C88 58.5066 79.4934 50 69 50C58.5066 50 50 58.5066 50 69C50 79.4934 58.5066 88 69 88Z" fill="#C4C4C4"/>
</mask>
<g mask="url(#mask0)">
<path d="M26.3189 47.6926C26.1141 51.2508 28.8532 54.2971 32.4114 54.5019C32.5394 54.5019 32.6674 54.5019 32.7954 54.5019C36.3793 54.5019 39.2719 51.6092 39.2464 48.0254C39.2464 44.4415 36.3537 41.5488 32.7698 41.5744C29.3396 41.5744 26.4981 44.2623 26.3189 47.6926Z" fill="#0033AD"/>
<path d="M2.20366 46.0287C1.0517 45.9519 0.0533451 46.8478 0.00214716 47.9998C-0.0490507 49.1517 0.821313 50.1501 1.97327 50.2013C3.12522 50.2781 4.09798 49.3821 4.17478 48.2302C4.25157 47.0782 3.35561 46.1055 2.20366 46.0287Z" fill="#0033AD"/>
<path d="M25.9084 10.1646C26.9323 9.65264 27.3419 8.37269 26.8299 7.34873C26.318 6.32477 25.038 5.91519 24.014 6.42717C22.9901 6.93915 22.5805 8.1935 23.0925 9.21746C23.6045 10.267 24.8588 10.7022 25.9084 10.1646C25.8828 10.1646 25.9084 10.1646 25.9084 10.1646Z" fill="#0033AD"/>
<path d="M32.4603 21.6074C34.0474 20.8138 34.6874 18.8683 33.8938 17.2812C33.1002 15.694 31.1547 15.0541 29.5676 15.8476C27.9805 16.6412 27.3405 18.5867 28.134 20.1738C28.9276 21.761 30.8731 22.401 32.4603 21.6074Z" fill="#0033AD"/>
<path d="M10.3948 29.4662C11.6236 30.2597 13.2619 29.927 14.0811 28.6982C14.8746 27.4695 14.5418 25.8311 13.3131 25.012C12.0843 24.2184 10.446 24.5512 9.62683 25.7799C8.80767 27.0087 9.16605 28.6726 10.3948 29.4662Z" fill="#0033AD"/>
<path d="M14.3129 44.8767C12.521 44.7743 11.0107 46.1311 10.9083 47.923C10.8059 49.7149 12.1626 51.2253 13.9545 51.3277C15.7465 51.4301 17.2568 50.0733 17.3592 48.2814C17.4616 46.5151 16.1049 44.9791 14.3129 44.8767Z" fill="#0033AD"/>
<path d="M10.7547 66.5592C9.44914 67.2247 8.91156 68.8119 9.57714 70.143C10.2427 71.4486 11.8298 71.9861 13.161 71.3206C14.4665 70.655 15.0041 69.0679 14.3385 67.7367C13.673 66.4312 12.0602 65.8936 10.7547 66.5592Z" fill="#0033AD"/>
<path d="M23.2961 38.1954C25.0624 39.3473 27.4175 38.8609 28.5439 37.0946C29.6958 35.3283 29.2094 32.9732 27.4431 31.8468C25.6768 30.6949 23.3217 31.1812 22.1953 32.9476C21.0434 34.6883 21.5297 37.0434 23.2961 38.1954Z" fill="#0033AD"/>
<path d="M63.1033 21.3513C64.588 22.3241 66.6103 21.9145 67.5831 20.4298C68.5559 18.945 68.1463 16.9227 66.6615 15.95C65.1768 14.9772 63.1545 15.3868 62.1817 16.8715C61.1834 18.3819 61.593 20.3786 63.1033 21.3513Z" fill="#0033AD"/>
<path d="M69.7093 9.95971C70.6821 10.5997 71.9621 10.3181 72.602 9.34533C73.242 8.37257 72.9604 7.09263 71.9877 6.45265C71.0149 5.81268 69.7349 6.09427 69.095 7.04143C68.4806 8.01419 68.7622 9.31974 69.7093 9.95971Z" fill="#0033AD"/>
<path d="M63.5896 41.5234C60.0314 41.3186 56.9595 44.0577 56.7803 47.6159C56.5755 51.1742 59.3146 54.2461 62.8729 54.4253C63.0009 54.4253 63.1288 54.4253 63.2312 54.4253C66.7895 54.4253 69.6822 51.5326 69.6822 47.9487C69.7078 44.5441 67.0199 41.7026 63.5896 41.5234Z" fill="#0033AD"/>
<path d="M34.5862 37.7347C35.687 39.9106 37.9141 41.293 40.3716 41.293C43.9298 41.293 46.8225 38.4003 46.8225 34.8164C46.8225 33.8181 46.5921 32.8197 46.1313 31.8981C44.5186 28.6983 40.6276 27.4183 37.4533 29.0311C34.2534 30.6694 32.9735 34.5604 34.5862 37.7347Z" fill="#0033AD"/>
<path d="M85.2466 29.4662C86.5522 28.8006 87.0642 27.1879 86.3986 25.8824C85.733 24.5768 84.1203 24.0648 82.8147 24.7304C81.5092 25.396 80.9972 26.9831 81.6372 28.2887C82.3284 29.5942 83.9155 30.1318 85.2466 29.4662Z" fill="#0033AD"/>
<path d="M68.8624 31.5142C66.9937 32.4613 66.2257 34.7396 67.1729 36.6084C68.1201 38.4771 70.3984 39.2451 72.2671 38.2979C74.1358 37.3507 74.9038 35.0724 73.9566 33.2037C73.0095 31.335 70.7312 30.5926 68.8624 31.5142Z" fill="#0033AD"/>
<path d="M47.7448 8.987C49.204 9.06379 50.4583 7.93744 50.5607 6.4783C50.6631 5.01916 49.5112 3.76481 48.052 3.66242C46.5929 3.58562 45.3385 4.68637 45.2361 6.14551C45.1593 7.63025 46.2857 8.8846 47.7448 8.987Z" fill="#0033AD"/>
<path d="M47.7165 25.7031C49.8156 25.8311 51.6075 24.2184 51.7099 22.1193C51.8379 20.0201 50.2252 18.2282 48.1261 18.1258C46.0269 17.9978 44.235 19.6106 44.1326 21.7097C44.0302 23.8088 45.6174 25.6007 47.7165 25.7031Z" fill="#0033AD"/>
<path d="M27.1367 64.5111C29.0054 63.564 29.7734 61.2857 28.8262 59.4169C27.8791 57.5482 25.6008 56.7802 23.7321 57.7274C21.8633 58.6746 21.0954 60.9529 22.0425 62.8216C22.9897 64.6903 25.268 65.4583 27.1367 64.5111Z" fill="#0033AD"/>
<path d="M50.1771 31.2582C48.2315 34.2532 49.0507 38.2467 52.0458 40.1922C55.0409 42.1377 59.0343 41.3186 60.9798 38.3235C62.9253 35.3284 62.1062 31.335 59.1111 29.3894C58.0615 28.6983 56.8328 28.3399 55.5784 28.3399C53.4025 28.3399 51.3802 29.4406 50.1771 31.2582Z" fill="#0033AD"/>
<path d="M61.4136 58.2906C59.8008 55.0908 55.9098 53.8108 52.7355 55.4236C49.5357 57.0363 48.2557 60.9273 49.8684 64.1016C51.4812 67.3015 55.3722 68.5814 58.5465 66.9687C61.7208 65.3816 63.0263 61.5417 61.4392 58.3418C61.4392 58.3162 61.4392 58.3162 61.4136 58.2906Z" fill="#0033AD"/>
<path d="M72.7038 57.8298C70.9375 56.6779 68.5824 57.1642 67.4561 58.9306C66.3041 60.6969 66.7905 63.052 68.5568 64.1784C70.3231 65.3303 72.6782 64.8439 73.8046 63.0776C74.9565 61.3369 74.4702 58.9818 72.7038 57.8298Z" fill="#0033AD"/>
<path d="M85.0941 48.1278C85.1965 46.3359 83.8397 44.8255 82.0478 44.7231C80.2559 44.6208 78.7455 45.9775 78.6431 47.7694C78.5407 49.5613 79.8975 51.0717 81.6894 51.1741C83.4557 51.2765 84.9917 49.8941 85.0941 48.1278Z" fill="#0033AD"/>
<path d="M94.0269 45.8239C92.8749 45.7471 91.8766 46.6431 91.8254 47.795C91.7742 48.947 92.6446 49.9453 93.7965 49.9965C94.9485 50.0733 95.9212 49.1774 95.998 48.0254C96.0492 46.8735 95.1788 45.9007 94.0269 45.8239Z" fill="#0033AD"/>
<path d="M85.6045 66.5591C84.3758 65.7655 82.7374 66.0983 81.9183 67.327C81.1247 68.5558 81.4575 70.1941 82.6862 71.0133C83.915 71.8069 85.5533 71.4741 86.3725 70.2453C87.1916 69.0166 86.8333 67.3526 85.6045 66.5591Z" fill="#0033AD"/>
<path d="M26.2659 86.0655C25.2931 85.4255 24.0132 85.7071 23.3732 86.6543C22.7332 87.627 23.0148 88.907 23.962 89.5469C24.9348 90.1869 26.2147 89.9053 26.8547 88.9582C27.5202 88.011 27.2387 86.7055 26.2659 86.0655Z" fill="#0033AD"/>
<path d="M70.0917 85.8607C69.0677 86.3727 68.6581 87.6526 69.1701 88.6766C69.6821 89.7005 70.962 90.1101 71.986 89.5982C73.01 89.0862 73.4195 87.8318 72.9076 86.8079C72.3956 85.7583 71.1412 85.3231 70.0917 85.8607C70.1173 85.8607 70.0917 85.8607 70.0917 85.8607Z" fill="#0033AD"/>
<path d="M45.8248 64.7671C47.7703 61.7721 46.9512 57.7786 43.9561 55.8075C40.961 53.862 36.9676 54.6811 34.9965 57.6762C33.0253 60.6713 33.8701 64.6647 36.8652 66.6359C37.9147 67.327 39.1435 67.6854 40.3978 67.6854C42.5993 67.711 44.6217 66.6103 45.8248 64.7671Z" fill="#0033AD"/>
<path d="M32.8966 74.674C31.4119 73.7012 29.3896 74.1108 28.4168 75.5956C27.444 77.0803 27.8536 79.1026 29.3384 80.0754C30.8231 81.0481 32.8454 80.6386 33.8182 79.1538C34.8165 77.6691 34.4069 75.6468 32.8966 74.674Z" fill="#0033AD"/>
<path d="M47.9746 87.0382C46.5154 86.9614 45.2611 88.0878 45.1587 89.5469C45.0563 91.0061 46.2082 92.2604 47.6674 92.3628C49.1265 92.4396 50.3809 91.3388 50.4833 89.8797C50.5601 88.395 49.4337 87.1406 47.9746 87.0382Z" fill="#0033AD"/>
<path d="M48.0015 70.3221C45.9024 70.1941 44.1105 71.8068 44.0081 73.9059C43.8801 76.005 45.4928 77.797 47.592 77.8994C49.6911 78.0017 51.483 76.4146 51.5854 74.3155C51.7134 72.242 50.1006 70.4245 48.0015 70.3221Z" fill="#0033AD"/>
<path d="M63.5381 74.4178C61.9509 75.237 61.3109 77.1825 62.1301 78.7697C62.9493 80.3568 64.8948 80.9968 66.4819 80.1776C68.0691 79.384 68.709 77.4385 67.9155 75.8514C67.0963 74.2642 65.1508 73.5987 63.5381 74.4178Z" fill="#0033AD"/>
</g>
<circle cx="69" cy="69" r="16" fill="#F3BA2F"/>
<g clip-path="url(#clip0)">
<path d="M65.4169 67.4436L68.8571 64.0034L72.299 67.4451L74.3007 65.4434L68.8571 60L63.4153 65.4418L65.4169 67.4435L65.4169 67.4436ZM60 68.8571L62.0018 66.855L64.0034 68.8567L62.0016 70.8584L60 68.8571ZM65.4169 70.2707L68.8571 73.7108L72.2989 70.2691L74.3017 72.2698L74.3007 72.2708L68.8571 77.7142L63.4153 72.2724L63.4125 72.2695L65.4171 70.2705L65.4169 70.2707ZM73.7108 68.8579L75.7126 66.8562L77.7142 68.8578L75.7125 70.8596L73.7108 68.8579Z" fill="white"/>
<path d="M70.8871 68.8558H70.888L68.857 66.8246L67.3557 68.3254L67.1832 68.4979L66.8275 68.8537L66.8247 68.8565L66.8275 68.8594L68.857 70.8891L70.8881 68.8579L70.8891 68.8568L70.8873 68.8558" fill="white"/>
</g>
<defs>
<clipPath id="clip0">
<rect width="17.7143" height="17.7142" fill="white" transform="translate(60 60)"/>
</clipPath>
</defs>
</svg>
