<svg width="96" height="96" viewBox="0 0 96 96" fill="none" xmlns="http://www.w3.org/2000/svg">
<mask id="mask0" mask-type="alpha" maskUnits="userSpaceOnUse" x="0" y="0" width="96" height="96">
<path fill-rule="evenodd" clip-rule="evenodd" d="M96 48C96 21.4903 74.5097 0 48 0C21.4903 0 0 21.4903 0 48C0 74.5097 21.4903 96 48 96C74.5097 96 96 74.5097 96 48ZM69 88C79.4934 88 88 79.4934 88 69C88 58.5066 79.4934 50 69 50C58.5066 50 50 58.5066 50 69C50 79.4934 58.5066 88 69 88Z" fill="#C4C4C4"/>
</mask>
<g mask="url(#mask0)">
<path d="M48 96C74.5097 96 96 74.5097 96 48C96 21.4903 74.5097 0 48 0C21.4903 0 0 21.4903 0 48C0 74.5097 21.4903 96 48 96Z" fill="#516AFF"/>
<path d="M56.4005 34.8003L64.8005 39.6003V15.6003L48.0005 7.20032L21.9005 21.9003V74.1003L48.0005 89.1003L73.8005 73.8003V48.0003L48.9005 33.0003L40.5005 37.2003L65.4005 51.9003L65.7005 69.6003L48.0005 79.5003L30.0005 69.3003V26.1003L48.0005 16.2003L56.4005 20.7003V34.8003Z" fill="white"/>
<path d="M47.1 49.2L52.8 46.2L59.1 50.1L40.5 60.6V39L47.1 42.9" fill="white"/>
</g>
<path d="M69 85C77.8366 85 85 77.8366 85 69C85 60.1634 77.8366 53 69 53C60.1634 53 53 60.1634 53 69C53 77.8366 60.1634 85 69 85Z" fill="#627EEA"/>
<path d="M69.498 57V65.87L76.995 69.22L69.498 57Z" fill="white" fill-opacity="0.602"/>
<path d="M69.498 57L62 69.22L69.498 65.87V57Z" fill="white"/>
<path d="M69.498 74.968V80.995L77 70.616L69.498 74.968Z" fill="white" fill-opacity="0.602"/>
<path d="M69.498 80.995V74.967L62 70.616L69.498 80.995Z" fill="white"/>
<path d="M69.498 73.573L76.995 69.22L69.498 65.872V73.573Z" fill="white" fill-opacity="0.2"/>
<path d="M62 69.22L69.498 73.573V65.872L62 69.22Z" fill="white" fill-opacity="0.602"/>
</svg>
