<svg width="96" height="96" viewBox="0 0 96 96" fill="none" xmlns="http://www.w3.org/2000/svg">
<mask id="mask0" mask-type="alpha" maskUnits="userSpaceOnUse" x="0" y="0" width="96" height="96">
<path fill-rule="evenodd" clip-rule="evenodd" d="M96 48C96 21.4903 74.5097 0 48 0C21.4903 0 0 21.4903 0 48C0 74.5097 21.4903 96 48 96C74.5097 96 96 74.5097 96 48ZM69 88C79.4934 88 88 79.4934 88 69C88 58.5066 79.4934 50 69 50C58.5066 50 50 58.5066 50 69C50 79.4934 58.5066 88 69 88Z" fill="#C4C4C4"/>
</mask>
<g mask="url(#mask0)">
<path d="M47.75 95.5C74.1216 95.5 95.5 74.1216 95.5 47.75C95.5 21.3784 74.1216 5.72205e-06 47.75 5.72205e-06C21.3784 5.72205e-06 0 21.3784 0 47.75C0 74.1216 21.3784 95.5 47.75 95.5Z" fill="#8DC351"/>
<path d="M63.2688 31.3359C60.8813 25.3672 55.2109 25.0688 48.3469 26.2625L45.9594 17.9063L40.8859 19.3984L43.2734 27.4563C42.0797 27.7547 40.5875 28.3516 39.0953 28.65L36.7078 20.2938L31.6344 21.7859L34.0219 30.1422C32.8281 30.4406 31.9328 30.7391 30.7391 31.0375L23.875 33.425L25.3672 38.7969C25.3672 38.7969 29.2469 37.6031 28.9484 37.6031C31.0375 37.0063 31.9328 37.9016 32.5297 39.0953L35.2156 48.6453C35.2156 48.6453 35.5141 48.6453 35.8125 48.6453L35.2156 48.9438L39.0953 62.3734C39.0953 62.9703 39.0953 64.1641 37.6031 64.7609L34.0219 65.9547L34.6188 72.2219L41.1844 70.4313C42.3781 70.1328 43.5719 69.8344 44.7656 69.5359L47.1531 77.8922L52.2266 76.4L49.8391 68.0438C51.3313 67.7453 52.525 67.4469 54.0172 66.85L56.4047 75.2063L61.4781 73.7141L59.0906 65.3578C67.4469 62.3734 72.8188 58.4938 71.3266 50.1375C70.1328 43.5719 66.2531 41.4828 60.8813 41.7813C63.8656 38.7969 65.0594 35.8125 63.2688 31.3359ZM61.4781 51.6297C63.2688 57.8969 52.2266 60.2844 48.6453 61.4781L45.3625 50.1375C48.9438 49.2422 59.3891 45.0641 61.4781 51.6297ZM54.3156 36.4094C56.1063 42.0797 46.8547 44.1688 43.8703 45.0641L40.8859 34.9172C43.8703 34.0219 52.8234 30.4406 54.3156 36.4094Z" fill="white"/>
</g>
<circle cx="69" cy="69" r="16" fill="#F3BA2F"/>
<g clip-path="url(#clip0)">
<path d="M65.4169 67.4436L68.8571 64.0034L72.299 67.4451L74.3007 65.4434L68.8571 60L63.4153 65.4418L65.4169 67.4435L65.4169 67.4436ZM60 68.8571L62.0018 66.855L64.0034 68.8567L62.0016 70.8584L60 68.8571ZM65.4169 70.2707L68.8571 73.7108L72.2989 70.2691L74.3017 72.2698L74.3007 72.2708L68.8571 77.7142L63.4153 72.2724L63.4125 72.2695L65.4171 70.2705L65.4169 70.2707ZM73.7108 68.8579L75.7126 66.8562L77.7142 68.8578L75.7125 70.8596L73.7108 68.8579Z" fill="white"/>
<path d="M70.8871 68.8558H70.888L68.857 66.8246L67.3557 68.3254L67.1832 68.4979L66.8275 68.8537L66.8247 68.8565L66.8275 68.8594L68.857 70.8891L70.8881 68.8579L70.8891 68.8568L70.8873 68.8558" fill="white"/>
</g>
<defs>
<clipPath id="clip0">
<rect width="17.7143" height="17.7142" fill="white" transform="translate(60 60)"/>
</clipPath>
</defs>
</svg>
