<svg width="96" height="96" viewBox="0 0 96 96" fill="none" xmlns="http://www.w3.org/2000/svg">
<mask id="mask0" mask-type="alpha" maskUnits="userSpaceOnUse" x="0" y="0" width="96" height="96">
<path fill-rule="evenodd" clip-rule="evenodd" d="M96 48C96 21.4903 74.5097 0 48 0C21.4903 0 0 21.4903 0 48C0 74.5097 21.4903 96 48 96C74.5097 96 96 74.5097 96 48ZM69 88C79.4934 88 88 79.4934 88 69C88 58.5066 79.4934 50 69 50C58.5066 50 50 58.5066 50 69C50 79.4934 58.5066 88 69 88Z" fill="#C4C4C4"/>
</mask>
<g mask="url(#mask0)">
<circle cx="48" cy="48" r="48" fill="#F3BA2F"/>
<g clip-path="url(#clip0)">
<path d="M37.2506 43.3309L47.5713 33.0101L57.8969 43.3353L63.9021 37.3302L47.5713 20.9999L31.2459 37.3253L37.2508 43.3304L37.2506 43.3309ZM21 47.5712L27.0053 41.5651L33.0102 47.57L27.0049 53.5753L21 47.5712ZM37.2506 51.8122L47.5713 62.1323L57.8967 51.8073L63.905 57.8093L63.9021 57.8125L47.5713 74.1426L31.2459 57.8171L31.2374 57.8086L37.2512 51.8116L37.2506 51.8122ZM62.1324 47.5738L68.1377 41.5684L74.1426 47.5734L68.1375 53.5787L62.1324 47.5738Z" fill="white"/>
<path d="M53.6614 47.5673H53.664L47.5709 41.4738L43.0671 45.9762L42.5497 46.4938L41.4826 47.5611L41.4741 47.5694L41.4826 47.5781L47.5709 53.6672L53.6644 47.5737L53.6674 47.5703L53.6619 47.5673" fill="white"/>
</g>
</g>
<circle cx="69" cy="69" r="16" fill="#F3BA2F"/>
<g clip-path="url(#clip1)">
<path d="M65.4169 67.4436L68.8571 64.0034L72.299 67.4451L74.3007 65.4434L68.8571 60L63.4153 65.4418L65.4169 67.4435L65.4169 67.4436ZM60 68.8571L62.0018 66.855L64.0034 68.8567L62.0016 70.8584L60 68.8571ZM65.4169 70.2707L68.8571 73.7108L72.2989 70.2691L74.3017 72.2698L74.3007 72.2708L68.8571 77.7142L63.4153 72.2724L63.4125 72.2695L65.4171 70.2705L65.4169 70.2707ZM73.7108 68.8579L75.7126 66.8562L77.7142 68.8578L75.7125 70.8596L73.7108 68.8579Z" fill="white"/>
<path d="M70.8871 68.8558H70.888L68.857 66.8246L67.3557 68.3254L67.1832 68.4979L66.8275 68.8537L66.8247 68.8565L66.8275 68.8594L68.857 70.8891L70.8881 68.8579L70.8891 68.8568L70.8873 68.8558" fill="white"/>
</g>
<defs>
<clipPath id="clip0">
<rect width="53.1429" height="53.1426" fill="white" transform="translate(21 20.9999)"/>
</clipPath>
<clipPath id="clip1">
<rect width="17.7143" height="17.7142" fill="white" transform="translate(60 60)"/>
</clipPath>
</defs>
</svg>
