<svg width="96" height="96" viewBox="0 0 96 96" fill="none" xmlns="http://www.w3.org/2000/svg">
<mask id="mask0" mask-type="alpha" maskUnits="userSpaceOnUse" x="0" y="0" width="96" height="96">
<path fill-rule="evenodd" clip-rule="evenodd" d="M96 48C96 21.4903 74.5097 0 48 0C21.4903 0 0 21.4903 0 48C0 74.5097 21.4903 96 48 96C74.5097 96 96 74.5097 96 48ZM69 88C79.4934 88 88 79.4934 88 69C88 58.5066 79.4934 50 69 50C58.5066 50 50 58.5066 50 69C50 79.4934 58.5066 88 69 88Z" fill="#C4C4C4"/>
</mask>
<g mask="url(#mask0)">
<circle cx="48" cy="48" r="48" fill="#2E1A4E"/>
<path fill-rule="evenodd" clip-rule="evenodd" d="M67.0425 35.0805C71.8229 39.8608 74.0219 45.2148 74.0219 52.0984C74.0219 65.4833 64.3019 74.7891 50.3752 74.7891H36.7353L28.8 66.8537V21.6H42.6948C50.1521 21.6 56.4302 24.277 60.7006 28.7705L67.0425 35.0805ZM36.321 28.7386H36.2254V30.3321L43.0135 37.0563V35.4311L36.321 28.7386ZM44.1608 35.208L37.6914 28.7386H36.7672L43.2366 35.208H44.1608ZM46.4234 35.208L39.954 28.7386H38.1376L44.6069 35.208H46.4234ZM42.7904 28.7386H40.4002L46.8696 35.208H49.2598L42.7904 28.7386ZM51.5862 35.2398L45.2443 28.898C44.5751 28.8024 43.9377 28.7705 43.2366 28.7386L49.706 35.208H50.3752C50.7894 35.208 51.2037 35.208 51.5862 35.2398ZM53.6258 35.4629L47.4432 29.2804C46.9015 29.1529 46.3278 29.0573 45.7542 28.9617L52.0642 35.2717C52.606 35.3036 53.1478 35.3992 53.6258 35.4629ZM55.4741 35.9091L49.4509 29.8859C49.0048 29.7266 48.5268 29.5672 48.0488 29.4397L54.1994 35.5904C54.6456 35.686 55.0599 35.7816 55.4741 35.9091ZM56.1753 36.1322C56.5895 36.3234 57.0357 36.5146 57.4182 36.7058L51.5543 30.842C51.1401 30.6189 50.6939 30.3958 50.2477 30.2046L56.1753 36.1322ZM36.2254 42.9202L37.3727 44.0675L37.1178 44.3225L36.2254 43.4301V60.1294H43.0135V37.5025L36.2254 30.842V32.4036L42.663 38.8092L42.408 39.0322L36.2254 32.8816V34.475L41.5794 39.8608L41.3563 40.1158L36.2254 34.953V36.5783L40.5277 40.9125L40.3046 41.1674L36.2254 37.0563V38.6817L39.476 41.9641L39.253 42.2192L36.2254 39.1597V40.8169L38.4244 43.0159L38.1694 43.2708L36.2254 41.2949V42.9202ZM56.9083 35.7498C55.8248 34.0607 54.3907 32.6267 52.6697 31.5112L56.9083 35.7498ZM66.4051 35.7179L63.8238 33.0728C65.5447 36.2915 66.6602 40.2751 66.6602 44.418C66.6602 44.8642 66.6601 45.3104 66.6282 45.7247L73.1295 52.2578V52.0984C73.1295 45.4378 70.9624 40.4026 66.4051 35.7179ZM43.9058 60.0975C53.1796 59.5876 59.171 53.5007 59.171 44.418C59.171 42.0598 58.7567 39.8927 57.9918 37.9806C56.0479 36.6421 53.817 36.1003 50.3752 36.1003H43.9058V60.0975ZM65.2897 52.6084L72.0459 59.3645C72.6834 57.2931 73.0657 55.0623 73.1295 52.704L66.5964 46.1708C66.4371 48.4654 65.9909 50.6006 65.2897 52.6084ZM71.9185 59.6832L65.1623 52.9271C64.5568 54.5205 63.7919 56.0183 62.8678 57.3568L69.7514 64.2404C70.6437 62.8383 71.3767 61.3085 71.9185 59.6832ZM66.9469 67.6823C67.9349 66.7262 68.7953 65.6427 69.5602 64.4954L62.7084 57.6436C61.9117 58.759 61.0193 59.8107 59.9995 60.7349L66.9469 67.6823ZM56.972 63.125L63.9512 70.1043C64.9392 69.4351 65.8634 68.7021 66.7238 67.9054L59.7765 60.958C58.916 61.7547 57.9918 62.4876 56.972 63.125ZM53.9126 64.8141L60.8919 71.7934C61.848 71.3472 62.7722 70.8373 63.6645 70.2955L56.6852 63.3163C55.8248 63.8899 54.9005 64.3679 53.9126 64.8141ZM50.917 65.9295L57.8644 72.8769C58.7885 72.6219 59.7127 72.2714 60.5732 71.9208L53.594 64.9415C52.7335 65.324 51.8411 65.6746 50.917 65.9295ZM48.0169 66.6307L54.9325 73.5462C55.8248 73.3868 56.6852 73.1955 57.5138 72.9725L50.5983 66.0569C49.7696 66.28 48.9092 66.4713 48.0169 66.6307ZM47.6026 66.6943C46.8377 66.8537 46.041 66.9493 45.2443 67.013L52.0961 73.833C52.9247 73.8011 53.7214 73.7055 54.5181 73.6099L47.6026 66.6943ZM49.4509 73.8967H50.3752C50.8214 73.8967 51.2356 73.8967 51.6499 73.8648L44.83 67.0449C44.1289 67.0768 43.4277 67.1087 42.6948 67.1087H42.663L49.4509 73.8967ZM30.3297 67.1087L37.1178 73.8967H37.5639L30.8077 67.1087H30.3297ZM31.2539 67.1087L38.0419 73.8967H38.6156L31.8275 67.1087H31.2539ZM32.2737 67.1087L39.0617 73.8967H39.7948L33.0067 67.1087H32.2737ZM33.4529 67.1087L40.2409 73.8967H41.1651L34.377 67.1087H33.4529ZM34.8232 67.1087L41.6112 73.8967H42.7266L35.9386 67.1087H34.8232ZM36.3848 67.1087L43.1728 73.8967H44.5113L37.7232 67.1087H36.3848ZM38.2013 67.1087L44.9893 73.8967H46.6146L39.8266 67.1087H38.2013ZM40.2727 67.1087L47.0608 73.8967H49.0048L42.1849 67.1087H40.2727Z" fill="#F4F1F3"/>
</g>
<path d="M69 85C77.8366 85 85 77.8366 85 69C85 60.1634 77.8366 53 69 53C60.1634 53 53 60.1634 53 69C53 77.8366 60.1634 85 69 85Z" fill="#627EEA"/>
<path d="M69.498 57V65.87L76.995 69.22L69.498 57Z" fill="white" fill-opacity="0.602"/>
<path d="M69.498 57L62 69.22L69.498 65.87V57Z" fill="white"/>
<path d="M69.498 74.968V80.995L77 70.616L69.498 74.968Z" fill="white" fill-opacity="0.602"/>
<path d="M69.498 80.995V74.967L62 70.616L69.498 80.995Z" fill="white"/>
<path d="M69.498 73.573L76.995 69.22L69.498 65.872V73.573Z" fill="white" fill-opacity="0.2"/>
<path d="M62 69.22L69.498 73.573V65.872L62 69.22Z" fill="white" fill-opacity="0.602"/>
</svg>
