<svg width="96" height="96" viewBox="0 0 96 96" fill="none" xmlns="http://www.w3.org/2000/svg">
<mask id="mask0" mask-type="alpha" maskUnits="userSpaceOnUse" x="0" y="0" width="96" height="96">
<path fill-rule="evenodd" clip-rule="evenodd" d="M96 48C96 21.4903 74.5097 0 48 0C21.4903 0 0 21.4903 0 48C0 74.5097 21.4903 96 48 96C74.5097 96 96 74.5097 96 48ZM69 88C79.4934 88 88 79.4934 88 69C88 58.5066 79.4934 50 69 50C58.5066 50 50 58.5066 50 69C50 79.4934 58.5066 88 69 88Z" fill="#C4C4C4"/>
</mask>
<g mask="url(#mask0)">
<path d="M43.5836 48.0032L78.639 68.0829C78.9207 68.2523 79.2424 68.3435 79.5711 68.3473C79.8998 68.3511 80.2235 68.2673 80.5091 68.1046C80.7946 67.9418 81.0317 67.7059 81.1959 67.4212C81.3601 67.1364 81.4455 66.8131 81.4434 66.4844V29.494C81.4475 29.1648 81.3631 28.8405 81.1989 28.555C81.0348 28.2696 80.7969 28.0336 80.5102 27.8716C80.2235 27.7096 79.8986 27.6277 79.5694 27.6343C79.2402 27.641 78.9188 27.7361 78.639 27.9095L43.5836 48.0032Z" fill="#31CB9E"/>
<path d="M77.8902 19.0202L53.9263 1.39435C53.6782 1.20387 53.387 1.07734 53.0785 1.02593C52.7699 0.97452 52.4534 0.999806 52.1569 1.09956C51.8605 1.19931 51.5931 1.37047 51.3783 1.59794C51.1636 1.82541 51.0081 2.10221 50.9256 2.40395L42.1758 41.6659L77.6798 22.0349C77.95 21.896 78.1797 21.6897 78.3469 21.436C78.514 21.1823 78.613 20.8899 78.6341 20.5868C78.6553 20.2837 78.5979 19.9803 78.4676 19.7059C78.3373 19.4315 78.1384 19.1953 77.8902 19.0202Z" fill="#31CB9E"/>
<path d="M53.8983 94.5968L77.8902 76.971C78.1417 76.7942 78.3437 76.5557 78.4766 76.2785C78.6095 76.0012 78.669 75.6944 78.6493 75.3876C78.6295 75.0807 78.5313 74.784 78.364 74.526C78.1967 74.2681 77.966 74.0574 77.6938 73.9142L42.1758 54.2832L50.9256 93.5452C50.9982 93.8502 51.1454 94.1325 51.354 94.3666C51.5627 94.6006 51.8262 94.7792 52.1209 94.8863C52.4157 94.9933 52.7324 95.0255 53.0426 94.9798C53.3528 94.9342 53.6469 94.8122 53.8983 94.6249" fill="#31CB9E"/>
<path d="M34.4647 47.274L43.5791 4.64675C43.6487 4.29351 43.6114 3.92753 43.4718 3.59566C43.3322 3.26379 43.0967 2.98113 42.7955 2.78386C42.4943 2.58659 42.1411 2.48368 41.7811 2.48831C41.4211 2.49294 41.0707 2.60489 40.7747 2.80985L17.4278 20.7161C16.8367 21.1697 16.3582 21.7536 16.0299 22.4225C15.7015 23.0914 15.5321 23.8271 15.5349 24.5722V70.0039C15.5234 70.7585 15.6886 71.5053 16.0173 72.1846C16.346 72.8639 16.829 73.4568 17.4278 73.9161L40.6625 91.7663C40.9585 91.9712 41.309 92.0832 41.669 92.0878C42.029 92.0924 42.3822 91.9895 42.6833 91.7923C42.9845 91.595 43.22 91.3123 43.3596 90.9805C43.4992 90.6486 43.5366 90.2826 43.467 89.9294L34.4647 47.274Z" fill="#31CB9E"/>
</g>
<path d="M69 85C77.8366 85 85 77.8366 85 69C85 60.1634 77.8366 53 69 53C60.1634 53 53 60.1634 53 69C53 77.8366 60.1634 85 69 85Z" fill="#627EEA"/>
<path d="M69.498 57V65.87L76.995 69.22L69.498 57Z" fill="white" fill-opacity="0.602"/>
<path d="M69.498 57L62 69.22L69.498 65.87V57Z" fill="white"/>
<path d="M69.498 74.968V80.995L77 70.616L69.498 74.968Z" fill="white" fill-opacity="0.602"/>
<path d="M69.498 80.995V74.967L62 70.616L69.498 80.995Z" fill="white"/>
<path d="M69.498 73.573L76.995 69.22L69.498 65.872V73.573Z" fill="white" fill-opacity="0.2"/>
<path d="M62 69.22L69.498 73.573V65.872L62 69.22Z" fill="white" fill-opacity="0.602"/>
</svg>
