<svg width="96" height="96" viewBox="0 0 96 96" fill="none" xmlns="http://www.w3.org/2000/svg">
<mask id="mask0" mask-type="alpha" maskUnits="userSpaceOnUse" x="0" y="0" width="96" height="96">
<path fill-rule="evenodd" clip-rule="evenodd" d="M96 48C96 21.4903 74.5097 0 48 0C21.4903 0 0 21.4903 0 48C0 74.5097 21.4903 96 48 96C74.5097 96 96 74.5097 96 48ZM69 88C79.4934 88 88 79.4934 88 69C88 58.5066 79.4934 50 69 50C58.5066 50 50 58.5066 50 69C50 79.4934 58.5066 88 69 88Z" fill="#C4C4C4"/>
</mask>
<g mask="url(#mask0)">
<path d="M48 96C74.5097 96 96 74.5097 96 48C96 21.4903 74.5097 0 48 0C21.4903 0 0 21.4903 0 48C0 74.5097 21.4903 96 48 96Z" fill="url(#paint0_linear)"/>
<path d="M26.9994 27.9L32.0994 25.2L32.6994 26.4L51.2994 15.6L50.0994 14.7L48.5994 13.8L47.9994 13.5L17.3994 31.2V31.8L26.0994 27L26.9994 27.9ZM26.9994 39.3L41.6994 30.6L42.2994 31.8L61.1994 21L59.6994 20.1L58.1994 19.5L57.5994 19.2L17.3994 42.3V42.9L26.0994 38.1L26.9994 39.3ZM26.9994 44.7L46.4994 33.6L47.0994 34.5L65.9994 23.7L64.4994 23.1L62.9994 22.2L62.3994 21.9L17.3994 47.7V48.6L26.0994 43.5L26.9994 44.7ZM26.9994 50.1L51.2994 36.3L51.8994 37.2L70.7994 26.7L69.2994 25.8L67.7994 24.9L67.1994 24.6L17.3994 53.4V54L26.0994 49.2L26.9994 50.1ZM26.9994 55.8L56.0994 39L56.6994 40.2L75.5994 29.4L74.0994 28.5L72.8994 27.9L71.9994 27.3L17.3994 58.8V59.7L26.0994 54.6L26.9994 55.8ZM77.3994 30.6L76.7994 30L17.3994 64.5V65.1L26.0994 60.3L26.9994 61.5L56.0994 44.4L56.6994 45.6L78.5994 33.3V31.2L77.3994 30.6ZM21.2994 68.7L26.0994 65.7L26.6994 66.9L56.0994 50.1L56.6994 51.3L78.5994 38.7V34.8L20.3994 68.1L21.2994 68.7ZM56.0994 55.8L56.6994 57L78.5994 44.1V40.2L25.1994 71.1L26.0994 71.4L30.8994 68.4L31.7994 69.6L56.0994 55.8ZM30.8994 74.1L35.9994 71.4L36.5994 72.6L56.0994 61.2L56.6994 62.4L78.5994 49.8V45.9L29.9994 73.8L30.8994 74.1ZM35.6994 76.8L40.7994 74.1L41.3994 75.3L56.0994 66.9L56.6994 68.1L78.5994 55.5V51.3L34.7994 76.5L35.6994 76.8ZM39.5994 79.2L40.4994 79.8L45.5994 76.8L46.1994 78L56.0994 72.3L56.6994 73.5L78.5994 60.9V57L39.5994 79.2ZM45.2994 82.5L50.0994 79.5L50.9994 80.7L56.0994 78L56.6994 79.2L78.5994 66.6V62.4L44.6994 82.2L45.2994 82.5ZM56.3994 18.3L54.8994 17.4L53.3994 16.8L52.7994 16.2L17.3994 36.6V37.5L26.0994 32.4L26.9994 33.6L36.8994 27.9L37.4994 29.1L56.3994 18.3Z" fill="white"/>
</g>
<path d="M69 85C77.8366 85 85 77.8366 85 69C85 60.1634 77.8366 53 69 53C60.1634 53 53 60.1634 53 69C53 77.8366 60.1634 85 69 85Z" fill="#627EEA"/>
<path d="M69.498 57V65.87L76.995 69.22L69.498 57Z" fill="white" fill-opacity="0.602"/>
<path d="M69.498 57L62 69.22L69.498 65.87V57Z" fill="white"/>
<path d="M69.498 74.968V80.995L77 70.616L69.498 74.968Z" fill="white" fill-opacity="0.602"/>
<path d="M69.498 80.995V74.967L62 70.616L69.498 80.995Z" fill="white"/>
<path d="M69.498 73.573L76.995 69.22L69.498 65.872V73.573Z" fill="white" fill-opacity="0.2"/>
<path d="M62 69.22L69.498 73.573V65.872L62 69.22Z" fill="white" fill-opacity="0.602"/>
<defs>
<linearGradient id="paint0_linear" x1="0" y1="48" x2="96" y2="48" gradientUnits="userSpaceOnUse">
<stop stop-color="#001C3A"/>
<stop offset="0.6" stop-color="#001E3D"/>
<stop offset="0.7" stop-color="#001F3F"/>
<stop offset="1" stop-color="#002042"/>
</linearGradient>
</defs>
</svg>
