<svg width="96" height="96" viewBox="0 0 96 96" fill="none" xmlns="http://www.w3.org/2000/svg">
<mask id="mask0" mask-type="alpha" maskUnits="userSpaceOnUse" x="0" y="0" width="96" height="96">
<path fill-rule="evenodd" clip-rule="evenodd" d="M96 48C96 21.4903 74.5097 0 48 0C21.4903 0 0 21.4903 0 48C0 74.5097 21.4903 96 48 96C74.5097 96 96 74.5097 96 48ZM69 88C79.4934 88 88 79.4934 88 69C88 58.5066 79.4934 50 69 50C58.5066 50 50 58.5066 50 69C50 79.4934 58.5066 88 69 88Z" fill="#C4C4C4"/>
</mask>
<g mask="url(#mask0)">
<path fill-rule="evenodd" clip-rule="evenodd" d="M48 96C74.4384 96 96 74.4384 96 48C96 21.5664 74.4384 0 48 0C21.5664 0 8.01091e-07 21.5664 8.01091e-07 48C-0.0047992 74.4384 21.5616 96 48 96Z" fill="black"/>
<path fill-rule="evenodd" clip-rule="evenodd" d="M35.6801 23.1266H42.5921C42.8561 23.1266 43.0673 23.3426 43.0673 23.6066V33.7058C43.0673 33.9746 43.2833 34.1858 43.5473 34.1858H52.4225C52.6865 34.1858 52.9025 33.9746 52.9025 33.7058V23.6066C52.9025 23.3426 53.1137 23.1266 53.3825 23.1266H60.2897C60.5537 23.1266 60.7697 23.3426 60.7697 23.6066V33.7058C60.7697 33.9746 60.9809 34.1858 61.2497 34.1858H69.6977C69.9665 34.1858 70.1777 34.4018 70.1777 34.6658V41.5586C70.1777 41.8274 69.9665 42.0386 69.6977 42.0386H61.2497C60.9809 42.0386 60.7697 42.2546 60.7697 42.5186V53.2466C60.7697 53.5106 60.9809 53.7266 61.2497 53.7266H69.6977C69.9665 53.7266 70.1777 53.9378 70.1777 54.2066V61.0994C70.1777 61.3634 69.9665 61.5794 69.6977 61.5794H61.2497C60.9809 61.5794 60.7697 61.7954 60.7697 62.0594V72.1586C60.7697 72.4226 60.5537 72.6386 60.2897 72.6386H53.3825C53.1137 72.6386 52.9025 72.4226 52.9025 72.1586V62.0594C52.9025 61.7906 52.6865 61.5794 52.4225 61.5794H43.5521C43.2881 61.5794 43.0721 61.7954 43.0721 62.0594V72.1586C43.0721 72.4226 42.8609 72.6386 42.5969 72.6386H35.6849C35.4209 72.6386 35.2049 72.4226 35.2049 72.1586V62.0594C35.2049 61.7906 34.9937 61.5794 34.7249 61.5794H26.2769C26.0081 61.5794 25.7969 61.3634 25.7969 61.0994V54.2066C25.7969 53.9378 26.0081 53.7266 26.2769 53.7266H34.7249C34.9937 53.7266 35.2049 53.5106 35.2049 53.2466V42.5186C35.2049 42.2546 34.9937 42.0386 34.7249 42.0386H26.2769C26.0081 42.0386 25.7969 41.8274 25.7969 41.5586V34.6658C25.7969 34.4018 26.0081 34.1858 26.2769 34.1858H34.7249C34.9937 34.1858 35.2049 33.9746 35.2049 33.7058V23.6066C35.1953 23.3426 35.4161 23.1266 35.6801 23.1266ZM52.9073 53.2514V42.5186C52.9073 42.2546 52.6913 42.0386 52.4273 42.0386H43.5521C43.2881 42.0386 43.0721 42.2546 43.0721 42.5186V53.2466C43.0721 53.5106 43.2881 53.7266 43.5521 53.7266H52.4273C52.6913 53.7314 52.9073 53.5106 52.9073 53.2514Z" fill="white"/>
</g>
<path d="M69 85C77.8366 85 85 77.8366 85 69C85 60.1634 77.8366 53 69 53C60.1634 53 53 60.1634 53 69C53 77.8366 60.1634 85 69 85Z" fill="#627EEA"/>
<path d="M69.498 57V65.87L76.995 69.22L69.498 57Z" fill="white" fill-opacity="0.602"/>
<path d="M69.498 57L62 69.22L69.498 65.87V57Z" fill="white"/>
<path d="M69.498 74.968V80.995L77 70.616L69.498 74.968Z" fill="white" fill-opacity="0.602"/>
<path d="M69.498 80.995V74.967L62 70.616L69.498 80.995Z" fill="white"/>
<path d="M69.498 73.573L76.995 69.22L69.498 65.872V73.573Z" fill="white" fill-opacity="0.2"/>
<path d="M62 69.22L69.498 73.573V65.872L62 69.22Z" fill="white" fill-opacity="0.602"/>
</svg>
