<svg width="96" height="96" viewBox="0 0 96 96" fill="none" xmlns="http://www.w3.org/2000/svg">
<mask id="mask0" mask-type="alpha" maskUnits="userSpaceOnUse" x="0" y="0" width="96" height="96">
<path fill-rule="evenodd" clip-rule="evenodd" d="M96 48C96 21.4903 74.5097 0 48 0C21.4903 0 0 21.4903 0 48C0 74.5097 21.4903 96 48 96C74.5097 96 96 74.5097 96 48ZM69 88C79.4934 88 88 79.4934 88 69C88 58.5066 79.4934 50 69 50C58.5066 50 50 58.5066 50 69C50 79.4934 58.5066 88 69 88Z" fill="#C4C4C4"/>
</mask>
<g mask="url(#mask0)">
<path d="M20.4427 9.97455L93.6391 59.9528L75.5368 86.7128L2.34033 36.341L20.4427 9.97455Z" fill="url(#paint0_linear)"/>
<path d="M93.6387 59.9528C87.3422 69.004 66.0916 65.4622 46.0217 51.2951C25.5581 37.5216 14.5393 19.0257 20.4422 9.97456C26.7387 0.923384 47.9893 4.46515 68.0593 18.6322C88.5228 32.0122 99.5416 50.9016 93.6387 59.9528Z" fill="url(#paint1_linear)"/>
<path d="M75.5367 86.3193C69.2402 95.3705 47.9896 91.8287 27.9196 77.6616C7.84961 63.4946 -3.56274 45.3922 2.73373 35.9475C9.0302 26.8963 30.2808 30.4381 50.3508 44.6052C70.4208 58.7722 81.4396 77.2681 75.5367 86.3193Z" fill="url(#paint2_linear)"/>
<path d="M93.6389 59.9528L75.5365 86.7127C69.24 95.7639 47.9895 91.8286 27.9195 78.0551C23.9842 75.3004 20.4424 72.5457 16.9006 69.3975C19.6553 69.0039 23.1971 67.4298 26.7389 63.4945C33.0353 56.8045 36.1836 55.2304 38.9383 55.6239C41.693 55.6239 44.8412 58.3786 49.9571 65.0686C55.073 71.7586 62.1565 73.7263 66.4853 70.1845C66.8789 69.791 67.2724 69.791 67.6659 69.3975C71.2077 66.6428 72.3883 65.4622 79.0783 52.8692C80.6524 49.721 86.1618 44.6051 93.6389 46.9663C95.6065 52.0822 95.6065 56.411 93.6389 59.9528Z" fill="#0E0F23"/>
<path fill-rule="evenodd" clip-rule="evenodd" d="M90.884 58.3786C85.3746 66.2492 66.0916 62.3139 47.5957 49.3275C28.7063 36.341 17.6875 19.8128 23.1969 11.9422C28.7063 4.07159 47.9893 8.00688 66.4852 20.9934C84.981 33.9798 95.9998 50.508 90.884 58.3786ZM73.5687 46.5728C70.814 50.508 61.3693 48.5404 51.9246 42.2439C42.8734 35.9475 37.364 27.6833 40.1187 23.7481C42.8734 19.8128 52.3181 21.7804 61.7628 28.0769C70.814 34.3733 76.3234 42.6375 73.5687 46.5728Z" fill="white"/>
<path d="M18.8688 19.0257C18.8688 18.6322 18.4753 18.2387 18.0817 18.6322C17.6882 19.0257 17.2947 19.0257 17.2947 19.4193C17.6882 20.5999 18.0817 21.3869 18.0817 22.174C18.0817 22.5675 18.4753 22.961 18.8688 22.5675C19.2623 22.5675 19.6559 22.174 19.2623 21.7805C19.2623 20.9934 19.2623 20.2063 18.8688 19.0257Z" fill="white"/>
<path d="M20.8359 25.3222C20.8359 24.9286 20.4423 24.5351 20.0488 24.9286C19.6553 25.3222 19.6553 25.3222 19.6553 25.7157C23.9841 35.5539 33.0353 46.1792 44.8411 54.0498C45.2347 54.4433 45.6282 54.0498 46.0217 54.0498C46.4153 53.6563 46.0217 53.2628 46.0217 52.8692C33.8223 44.9986 25.1647 34.7669 20.8359 25.3222Z" fill="white"/>
<path d="M68.4536 63.8881C68.06 63.8881 67.6665 63.8881 67.6665 64.2816C67.6665 64.6751 67.6665 65.0686 68.06 65.0686C69.2406 65.4622 70.8147 65.8557 71.9953 66.2492C72.3889 66.2492 72.7824 66.2492 72.7824 65.8557C72.7824 65.4622 72.7824 65.0686 72.3889 65.0686C71.2083 64.6751 69.6342 64.2816 68.4536 63.8881Z" fill="white"/>
<path d="M75.5363 65.4622C75.1428 65.4622 74.7493 65.8557 74.7493 66.2493C74.7493 66.6428 75.1428 67.0363 75.5363 67.0363C78.6846 67.4299 82.2263 67.8234 84.981 67.4299C85.3746 67.4299 85.7681 67.0363 85.7681 66.6428C85.7681 66.2493 85.3746 65.8557 84.981 65.8557C81.8328 66.2493 78.6846 65.8557 75.5363 65.4622Z" fill="white"/>
</g>
<path d="M69 85C77.8366 85 85 77.8366 85 69C85 60.1634 77.8366 53 69 53C60.1634 53 53 60.1634 53 69C53 77.8366 60.1634 85 69 85Z" fill="#627EEA"/>
<path d="M69.498 57V65.87L76.995 69.22L69.498 57Z" fill="white" fill-opacity="0.602"/>
<path d="M69.498 57L62 69.22L69.498 65.87V57Z" fill="white"/>
<path d="M69.498 74.968V80.995L77 70.616L69.498 74.968Z" fill="white" fill-opacity="0.602"/>
<path d="M69.498 80.995V74.967L62 70.616L69.498 80.995Z" fill="white"/>
<path d="M69.498 73.573L76.995 69.22L69.498 65.872V73.573Z" fill="white" fill-opacity="0.2"/>
<path d="M62 69.22L69.498 73.573V65.872L62 69.22Z" fill="white" fill-opacity="0.602"/>
<defs>
<linearGradient id="paint0_linear" x1="34.7837" y1="2.86859" x2="49.2994" y2="52.7138" gradientUnits="userSpaceOnUse">
<stop stop-color="#03B8FF"/>
<stop offset="1" stop-color="#FA52A0"/>
</linearGradient>
<linearGradient id="paint1_linear" x1="46.7371" y1="-0.612955" x2="61.2532" y2="49.2327" gradientUnits="userSpaceOnUse">
<stop stop-color="#03B8FF"/>
<stop offset="1" stop-color="#FA52A0"/>
</linearGradient>
<linearGradient id="paint2_linear" x1="22.8667" y1="6.33876" x2="37.3828" y2="56.1844" gradientUnits="userSpaceOnUse">
<stop stop-color="#03B8FF"/>
<stop offset="1" stop-color="#FA52A0"/>
</linearGradient>
</defs>
</svg>
