<svg width="96" height="96" viewBox="0 0 96 96" fill="none" xmlns="http://www.w3.org/2000/svg">
<mask id="mask0" mask-type="alpha" maskUnits="userSpaceOnUse" x="0" y="0" width="96" height="96">
<path fill-rule="evenodd" clip-rule="evenodd" d="M96 48C96 21.4903 74.5097 0 48 0C21.4903 0 0 21.4903 0 48C0 74.5097 21.4903 96 48 96C74.5097 96 96 74.5097 96 48ZM69 88C79.4934 88 88 79.4934 88 69C88 58.5066 79.4934 50 69 50C58.5066 50 50 58.5066 50 69C50 79.4934 58.5066 88 69 88Z" fill="#C4C4C4"/>
</mask>
<g mask="url(#mask0)">
<path d="M92.9368 37.9919C89.0813 34.432 83.7479 28.9958 79.404 25.1403L79.147 24.9604C78.7193 24.617 78.2371 24.3477 77.7205 24.1636C67.2464 22.2102 18.5003 13.0984 17.5493 13.214C17.2828 13.2514 17.0281 13.348 16.8039 13.4968L16.5597 13.6896C16.259 13.9949 16.0307 14.3638 15.8914 14.7691L15.8271 14.9362V15.8486V15.99C21.3148 31.2705 42.9826 81.3275 47.2493 93.0739C47.5063 93.8707 47.9947 95.3872 48.9072 95.4643H49.1128C49.6012 95.4643 51.6831 92.7141 51.6831 92.7141C51.6831 92.7141 88.9014 47.5792 92.6669 42.7727C93.1543 42.1807 93.5846 41.5438 93.952 40.8707C94.0458 40.344 94.0016 39.802 93.8237 39.2975C93.6457 38.793 93.3402 38.3432 92.9368 37.9919ZM61.2319 43.2482L77.1164 30.0753L86.4338 38.6602L61.2319 43.2482ZM55.0631 42.3872L27.7149 19.974L71.9629 28.1348L55.0631 42.3872ZM57.5306 48.2604L85.5214 43.7494L53.5209 82.3042L57.5306 48.2604ZM24.0008 22.2102L52.7755 46.6282L48.6116 82.3299L24.0008 22.2102Z" fill="#FF060A"/>
</g>
<circle cx="69" cy="69" r="16" fill="#F3BA2F"/>
<g clip-path="url(#clip0)">
<path d="M65.4169 67.4436L68.8571 64.0034L72.299 67.4451L74.3007 65.4434L68.8571 60L63.4153 65.4418L65.4169 67.4435L65.4169 67.4436ZM60 68.8571L62.0018 66.855L64.0034 68.8567L62.0016 70.8584L60 68.8571ZM65.4169 70.2707L68.8571 73.7108L72.2989 70.2691L74.3017 72.2698L74.3007 72.2708L68.8571 77.7142L63.4153 72.2724L63.4125 72.2695L65.4171 70.2705L65.4169 70.2707ZM73.7108 68.8579L75.7126 66.8562L77.7142 68.8578L75.7125 70.8596L73.7108 68.8579Z" fill="white"/>
<path d="M70.8871 68.8558H70.888L68.857 66.8246L67.3557 68.3254L67.1832 68.4979L66.8275 68.8537L66.8247 68.8565L66.8275 68.8594L68.857 70.8891L70.8881 68.8579L70.8891 68.8568L70.8873 68.8558" fill="white"/>
</g>
<defs>
<clipPath id="clip0">
<rect width="17.7143" height="17.7142" fill="white" transform="translate(60 60)"/>
</clipPath>
</defs>
</svg>
