<svg width="16" height="14" viewBox="0 0 16 14" fill="none" xmlns="http://www.w3.org/2000/svg">
<path d="M15.3333 2C15.3333 2.36667 15.0333 2.66667 14.6667 2.66667H14V3.33333C14 3.7 13.7 4 13.3333 4C12.9667 4 12.6667 3.7 12.6667 3.33333V2.66667H12C11.6333 2.66667 11.3333 2.36667 11.3333 2C11.3333 1.63333 11.6333 1.33333 12 1.33333H12.6667V0.666667C12.6667 0.3 12.9667 0 13.3333 0C13.7 0 14 0.3 14 0.666667V1.33333H14.6667C15.0333 1.33333 15.3333 1.63333 15.3333 2ZM13.68 5.3C13.8867 5.94 14 6.62667 14 7.33333C14 11.0133 11.0133 14 7.33332 14C3.65332 14 0.666656 11.0133 0.666656 7.33333C0.666656 3.65333 3.65332 0.666667 7.33332 0.666667C8.33332 0.666667 9.27999 0.893333 10.1333 1.29333C10.0533 1.51333 9.99999 1.74667 9.99999 2C9.99999 2.9 10.6 3.66667 11.42 3.91333C11.6667 4.73333 12.4333 5.33333 13.3333 5.33333C13.4533 5.33333 13.5667 5.32 13.68 5.3ZM3.99999 5.66667C3.99999 6.22 4.44666 6.66667 4.99999 6.66667C5.55332 6.66667 5.99999 6.22 5.99999 5.66667C5.99999 5.11333 5.55332 4.66667 4.99999 4.66667C4.44666 4.66667 3.99999 5.11333 3.99999 5.66667ZM10.2067 8.66667H4.45999C4.20666 8.66667 4.03999 8.94667 4.16666 9.16667C4.79999 10.26 5.97999 11 7.33332 11C8.68666 11 9.86666 10.26 10.5 9.16667C10.6267 8.94667 10.4667 8.66667 10.2067 8.66667ZM10.6667 5.66667C10.6667 5.11333 10.22 4.66667 9.66666 4.66667C9.11332 4.66667 8.66666 5.11333 8.66666 5.66667C8.66666 6.22 9.11332 6.66667 9.66666 6.66667C10.22 6.66667 10.6667 6.22 10.6667 5.66667Z" fill="#D6D6D6"/>
</svg>
