<svg width="140" height="140" viewBox="0 0 140 140" fill="none" xmlns="http://www.w3.org/2000/svg">
<g clip-path="url(#clip0_5774_58033)">
<path d="M70 46.6667L52.5 56.875V77.2917L70 87.5L87.5 77.2917V56.875L70 46.6667ZM78.8492 58.5667L69.9242 63.77L61.075 58.6075L70 53.4042L78.8492 58.5667ZM58.275 63.7117L66.9317 68.7633V78.9717L58.275 73.9258V63.7117ZM72.7067 79.1875V68.88L81.725 63.6183V73.9258L72.7067 79.1875ZM17.5 0L0 10.2083V30.625L17.5 40.8333L35 30.625V10.2083L17.5 0ZM26.3492 11.9L17.4242 17.1033L8.575 11.9408L17.5 6.7375L26.3492 11.9ZM5.775 17.0392L14.4317 22.0908V32.2992L5.775 27.265V17.0392ZM20.2067 32.515V22.2133L29.225 16.9517V27.2592L20.2067 32.515ZM17.5 99.1667L0 109.375V129.792L17.5 140L35 129.792V109.375L17.5 99.1667ZM26.3492 111.067L17.4242 116.27L8.575 111.108L17.5 105.904L26.3492 111.067ZM5.775 116.212L14.4317 121.263V131.472L5.775 126.432V116.212ZM20.2067 131.688V121.38L29.225 116.118V126.426L20.2067 131.688ZM122.5 0L105 10.2083V30.625L122.5 40.8333L140 30.625V10.2083L122.5 0ZM131.349 11.9L122.424 17.1033L113.575 11.9408L122.5 6.7375L131.349 11.9ZM110.775 17.045L119.432 22.0967V32.305L110.775 27.2592V17.045ZM125.207 32.5208V22.2133L134.225 16.9517V27.2592L125.207 32.5208ZM122.5 99.1667L105 109.375V129.792L122.5 140L140 129.792V109.375L122.5 99.1667ZM131.349 111.067L122.424 116.27L113.575 111.108L122.5 105.904L131.349 111.067ZM110.775 116.212L119.432 121.263V131.472L110.775 126.426V116.212ZM125.207 131.688V121.38L134.225 116.118V126.426L125.207 131.688ZM52.5 17.5H87.5V23.3333H52.5V17.5ZM52.5 116.667H87.5V122.5H52.5V116.667ZM20.4167 52.5V87.5H14.5833V52.5H20.4167ZM42.5425 51.4967L30.17 39.1242L34.2942 35L46.6667 47.3667L42.5425 51.4967ZM93.3333 48.3758L105.706 36.0033L109.83 40.1275L97.4575 52.5L93.3333 48.3758ZM47.4133 86.7942L35.0408 99.1667L30.9167 95.0425L43.2892 82.67L47.4133 86.7942ZM98.4608 82.4192L110.833 94.7917L106.709 98.9158L94.3367 86.5433L98.4608 82.4192ZM125.417 52.5V87.5H119.583V52.5H125.417Z" fill="#9E9E9E"/>
</g>
<defs>
<clipPath id="clip0_5774_58033">
<rect width="140" height="140" fill="white"/>
</clipPath>
</defs>
</svg>
