<svg width="24" height="24" viewBox="0 0 24 24" fill="none" xmlns="http://www.w3.org/2000/svg">
<path d="M13.5 3.04506V9.96506H21.5C21.5 5.93506 18.52 2.59506 14.64 2.04506C14.04 1.95506 13.5 2.43506 13.5 3.04506ZM19.82 15.8551C20.87 14.5051 21.5 12.8051 21.5 10.9651H6.94L6.26 9.53506C6.1 9.18506 5.74 8.96506 5.36 8.96506H3.5C2.95 8.96506 2.5 9.41506 2.5 9.96506C2.5 10.5151 2.95 10.9651 3.5 10.9651H4.72C4.72 10.9651 6.61 15.0351 6.84 15.3851C5.51 16.0951 4.7 17.6551 5.1 19.3251C5.4 20.5851 6.44 21.5951 7.7 21.8751C9.8 22.3351 11.68 20.9151 11.95 18.9651H14.03C14.3 20.9051 16.17 22.3251 18.25 21.8851C19.52 21.6151 20.56 20.6151 20.88 19.3551C21.23 17.9651 20.74 16.6751 19.82 15.8551ZM8.5 19.9651C7.67 19.9651 7 19.2951 7 18.4651C7 17.6351 7.67 16.9651 8.5 16.9651C9.33 16.9651 10 17.6351 10 18.4651C10 19.2951 9.33 19.9651 8.5 19.9651ZM17.5 19.9651C16.67 19.9651 16 19.2951 16 18.4651C16 17.6351 16.67 16.9651 17.5 16.9651C18.33 16.9651 19 17.6351 19 18.4651C19 19.2951 18.33 19.9651 17.5 19.9651Z" fill="#B558E4"/>
</svg>
