<svg width="16" height="14" viewBox="0 0 16 14" fill="none" xmlns="http://www.w3.org/2000/svg">
<path d="M15.3333 7L13.7066 5.14L13.9333 2.68L11.5266 2.13333L10.2666 0L7.99996 0.973333L5.73329 0L4.47329 2.12667L2.06663 2.66667L2.29329 5.13333L0.666626 7L2.29329 8.86L2.06663 11.3267L4.47329 11.8733L5.73329 14L7.99996 13.02L10.2666 13.9933L11.5266 11.8667L13.9333 11.32L13.7066 8.86L15.3333 7ZM6.25329 9.67333L4.66663 8.07333C4.40663 7.81333 4.40663 7.39333 4.66663 7.13333L4.71329 7.08667C4.97329 6.82667 5.39996 6.82667 5.65996 7.08667L6.73329 8.16667L10.1666 4.72667C10.4266 4.46667 10.8533 4.46667 11.1133 4.72667L11.16 4.77333C11.42 5.03333 11.42 5.45333 11.16 5.71333L7.21329 9.67333C6.93996 9.93333 6.51996 9.93333 6.25329 9.67333Z" fill="#224874"/>
</svg>
