<svg width="56" height="56" viewBox="0 0 56 56" fill="none" xmlns="http://www.w3.org/2000/svg">
<rect width="56" height="56" rx="28" fill="#383838"/>
<path d="M33 23H30C29.45 23 29 23.45 29 24C29 24.55 29.45 25 30 25H33C34.65 25 36 26.35 36 28C36 29.65 34.65 31 33 31H30C29.45 31 29 31.45 29 32C29 32.55 29.45 33 30 33H33C35.76 33 38 30.76 38 28C38 25.24 35.76 23 33 23ZM24 28C24 28.55 24.45 29 25 29H31C31.55 29 32 28.55 32 28C32 27.45 31.55 27 31 27H25C24.45 27 24 27.45 24 28ZM26 31H23C21.35 31 20 29.65 20 28C20 26.35 21.35 25 23 25H26C26.55 25 27 24.55 27 24C27 23.45 26.55 23 26 23H23C20.24 23 18 25.24 18 28C18 30.76 20.24 33 23 33H26C26.55 33 27 32.55 27 32C27 31.45 26.55 31 26 31Z" fill="#D6D6D6"/>
</svg>
