<svg width="13" height="14" viewBox="0 0 13 14" fill="none" xmlns="http://www.w3.org/2000/svg">
<path d="M8.8335 12.3334H2.16683V3.66671C2.16683 3.30004 1.86683 3.00004 1.50016 3.00004C1.1335 3.00004 0.833496 3.30004 0.833496 3.66671V12.3334C0.833496 13.0667 1.4335 13.6667 2.16683 13.6667H8.8335C9.20016 13.6667 9.50016 13.3667 9.50016 13C9.50016 12.6334 9.20016 12.3334 8.8335 12.3334ZM12.1668 9.66671V1.66671C12.1668 0.933374 11.5668 0.333374 10.8335 0.333374H4.8335C4.10016 0.333374 3.50016 0.933374 3.50016 1.66671V9.66671C3.50016 10.4 4.10016 11 4.8335 11H10.8335C11.5668 11 12.1668 10.4 12.1668 9.66671ZM10.8335 9.66671H4.8335V1.66671H10.8335V9.66671Z" fill="#696969"/>
</svg>
