<svg width="20" height="12" viewBox="0 0 20 12" fill="none" xmlns="http://www.w3.org/2000/svg">
<path d="M6.7 9.9007L2.8 6.0007L6.7 2.1007C7.09 1.7107 7.09 1.0907 6.7 0.700703C6.31 0.310703 5.69 0.310703 5.3 0.700703L0.709996 5.2907C0.319996 5.6807 0.319996 6.3107 0.709996 6.7007L5.3 11.3007C5.69 11.6907 6.31 11.6907 6.7 11.3007C7.09 10.9107 7.09 10.2907 6.7 9.9007ZM13.3 9.9007L17.2 6.0007L13.3 2.1007C12.91 1.7107 12.91 1.0907 13.3 0.700703C13.69 0.310703 14.31 0.310703 14.7 0.700703L19.29 5.2907C19.68 5.6807 19.68 6.3107 19.29 6.7007L14.7 11.3007C14.31 11.6907 13.69 11.6907 13.3 11.3007C12.91 10.9107 12.91 10.2907 13.3 9.9007Z" fill="#D6D6D6"/>
</svg>
