<svg width="18" height="21" viewBox="0 0 18 21" fill="none" xmlns="http://www.w3.org/2000/svg">
<path d="M6.1 10.8004C7.09414 10.8004 7.9 9.99453 7.9 9.00039C7.9 8.00628 7.09414 7.20039 6.1 7.20039C5.10589 7.20039 4.3 8.00628 4.3 9.00039C4.3 9.99453 5.10589 10.8004 6.1 10.8004ZM17.35 5.85039L8.8 0.900391L0.25 5.85039V15.7504L8.8 20.7004L17.35 15.7504V5.85039ZM8.8 2.98029L15.55 6.88819V13.0808L11.4441 10.6173L4.27002 15.9979L2.05 14.7126V6.88819L8.8 2.98029ZM8.8 18.6205L5.96309 16.9781L11.5559 12.7835L15.1536 14.9421L8.8 18.6205Z" fill="#4F4F4F"/>
</svg>
