<svg width="20" height="24" viewBox="0 0 20 24" fill="none" xmlns="http://www.w3.org/2000/svg">
<path fill-rule="evenodd" clip-rule="evenodd" d="M7.39657 0.292893C7.00605 -0.097631 6.37289 -0.097631 5.98236 0.292893C4.16236 2.11289 3.1399 4.58134 3.1399 7.15521C3.1399 9.72908 4.16236 12.1975 5.98236 14.0175C5.99721 14.0324 6.01209 14.0472 6.02702 14.0619L0.180362 22.4271C-0.0331778 22.7327 -0.0590679 23.1316 0.113192 23.4621C0.285452 23.7927 0.627262 24 1 24H13.6752C14.048 24 14.3898 23.7927 14.562 23.4621C14.7343 23.1316 14.7084 22.7327 14.4949 22.4271L10.3818 16.5423C11.1791 16.7515 12.0063 16.86 12.8447 16.86C15.4186 16.86 17.887 15.8375 19.707 14.0175C20.0975 13.627 20.0975 12.9938 19.707 12.6033L15.5935 8.4898L16.5501 4.66249C16.6353 4.32173 16.5354 3.96126 16.287 3.7129C16.0387 3.46453 15.6782 3.36468 15.3375 3.44985L11.5101 4.40647L7.39657 0.292893ZM6.73553 2.46027L10.4963 6.22101L13.7789 9.50366L17.5396 13.2644C16.2007 14.2934 14.5519 14.86 12.8447 14.86C10.8012 14.86 8.8415 14.0482 7.39657 12.6033C5.95165 11.1584 5.1399 9.19865 5.1399 7.15521C5.1399 5.44802 5.70648 3.79924 6.73553 2.46027ZM7.33762 15.6779L11.7563 22H2.91897L7.33762 15.6779Z" fill="#696969"/>
</svg>
