<svg width="24" height="24" viewBox="0 0 24 24" fill="none" xmlns="http://www.w3.org/2000/svg">
<path d="M13.9338 9.5C13.9338 10.05 13.4838 10.5 12.9338 10.5H3.93384C3.38384 10.5 2.93384 10.05 2.93384 9.5C2.93384 8.95 3.38384 8.5 3.93384 8.5H12.9338C13.4838 8.5 13.9338 8.95 13.9338 9.5ZM2.93384 5.5C2.93384 6.05 3.38384 6.5 3.93384 6.5H12.9338C13.4838 6.5 13.9338 6.05 13.9338 5.5C13.9338 4.95 13.4838 4.5 12.9338 4.5H3.93384C3.38384 4.5 2.93384 4.95 2.93384 5.5ZM9.93384 13.5C9.93384 12.95 9.48384 12.5 8.93384 12.5H3.93384C3.38384 12.5 2.93384 12.95 2.93384 13.5C2.93384 14.05 3.38384 14.5 3.93384 14.5H8.93384C9.48384 14.5 9.93384 14.05 9.93384 13.5ZM17.9438 11.37L18.6538 10.66C19.0438 10.27 19.6738 10.27 20.0638 10.66L20.7738 11.37C21.1638 11.76 21.1638 12.39 20.7738 12.78L20.0638 13.49L17.9438 11.37ZM17.2338 12.08L12.0738 17.24C11.9838 17.33 11.9338 17.45 11.9338 17.59V19C11.9338 19.28 12.1538 19.5 12.4338 19.5H13.8438C13.9738 19.5 14.1038 19.45 14.1938 19.35L19.3538 14.19L17.2338 12.08Z" fill="#9E9E9E"/>
</svg>

