<svg width="28" height="28" viewBox="0 0 28 28" fill="none" xmlns="http://www.w3.org/2000/svg">
<rect width="28" height="28" rx="14" fill="#3D9EFF"/>
<path d="M12.5415 16.3333V11.6667C12.5415 11.025 13.0606 10.5 13.7081 10.5H18.9581V9.91667C18.9581 9.275 18.4331 8.75 17.7915 8.75H9.6248C8.9773 8.75 8.45813 9.275 8.45813 9.91667V18.0833C8.45813 18.725 8.9773 19.25 9.6248 19.25H17.7915C18.4331 19.25 18.9581 18.725 18.9581 18.0833V17.5H13.7081C13.0606 17.5 12.5415 16.975 12.5415 16.3333ZM14.2915 11.6667C13.9706 11.6667 13.7081 11.9292 13.7081 12.25V15.75C13.7081 16.0708 13.9706 16.3333 14.2915 16.3333H19.5415V11.6667H14.2915ZM16.0415 14.875C15.5573 14.875 15.1665 14.4842 15.1665 14C15.1665 13.5158 15.5573 13.125 16.0415 13.125C16.5256 13.125 16.9165 13.5158 16.9165 14C16.9165 14.4842 16.5256 14.875 16.0415 14.875Z" fill="white"/>
</svg>
