<svg xmlns="http://www.w3.org/2000/svg" width="20" height="20" viewBox="0 0 20 20" fill="none"><path d="M10.0003 1.66666C5.40033 1.66666 1.66699 5.39999 1.66699 9.99999C1.66699 14.6 5.40033 18.3333 10.0003 18.3333C14.6003 18.3333 18.3337 14.6 18.3337 9.99999C18.3337 5.39999 14.6003 1.66666 10.0003 1.66666ZM10.0003 10.8333C9.54199 10.8333 9.16699 10.4583 9.16699 9.99999V6.66666C9.16699 6.20832 9.54199 5.83332 10.0003 5.83332C10.4587 5.83332 10.8337 6.20832 10.8337 6.66666V9.99999C10.8337 10.4583 10.4587 10.8333 10.0003 10.8333ZM10.8337 14.1667H9.16699V12.5H10.8337V14.1667Z" fill="#FF707E"></path></svg>