<svg width="14" height="14" viewBox="0 0 14 14" fill="none" xmlns="http://www.w3.org/2000/svg">
<path d="M6.21665 13.6666C5.91665 13.6666 5.65832 13.5666 5.44165 13.3666C5.22499 13.1666 5.09443 12.9222 5.04999 12.6333L4.89999 11.5333C4.75554 11.4778 4.61943 11.4111 4.49165 11.3333C4.36388 11.2555 4.23888 11.1722 4.11665 11.0833L3.08332 11.5166C2.80554 11.6389 2.52776 11.65 2.24999 11.55C1.97221 11.45 1.75554 11.2722 1.59999 11.0166L0.816654 9.64998C0.661098 9.39442 0.616654 9.1222 0.68332 8.83331C0.749987 8.54442 0.899987 8.30554 1.13332 8.11665L2.01665 7.44998C2.00554 7.3722 1.99999 7.2972 1.99999 7.22498V6.77498C1.99999 6.70276 2.00554 6.62776 2.01665 6.54998L1.13332 5.88331C0.899987 5.69442 0.749987 5.45554 0.68332 5.16665C0.616654 4.87776 0.661098 4.60554 0.816654 4.34998L1.59999 2.98331C1.75554 2.72776 1.97221 2.54998 2.24999 2.44998C2.52776 2.34998 2.80554 2.36109 3.08332 2.48331L4.11665 2.91665C4.23888 2.82776 4.36665 2.74442 4.49999 2.66665C4.63332 2.58887 4.76665 2.5222 4.89999 2.46665L5.04999 1.36665C5.09443 1.07776 5.22499 0.833313 5.44165 0.633313C5.65832 0.433313 5.91665 0.333313 6.21665 0.333313H7.78332C8.08332 0.333313 8.34165 0.433313 8.55832 0.633313C8.77499 0.833313 8.90554 1.07776 8.94999 1.36665L9.09999 2.46665C9.24443 2.5222 9.38054 2.58887 9.50832 2.66665C9.6361 2.74442 9.7611 2.82776 9.88332 2.91665L10.9167 2.48331C11.1944 2.36109 11.4722 2.34998 11.75 2.44998C12.0278 2.54998 12.2444 2.72776 12.4 2.98331L13.1833 4.34998C13.3389 4.60554 13.3833 4.87776 13.3167 5.16665C13.25 5.45554 13.1 5.69442 12.8667 5.88331L11.9833 6.54998C11.9944 6.62776 12 6.70276 12 6.77498V7.22498C12 7.2972 11.9889 7.3722 11.9667 7.44998L12.85 8.11665C13.0833 8.30554 13.2333 8.54442 13.3 8.83331C13.3667 9.1222 13.3222 9.39442 13.1667 9.64998L12.3667 11.0166C12.2111 11.2722 11.9944 11.45 11.7167 11.55C11.4389 11.65 11.1611 11.6389 10.8833 11.5166L9.88332 11.0833C9.7611 11.1722 9.63332 11.2555 9.49999 11.3333C9.36665 11.4111 9.23332 11.4778 9.09999 11.5333L8.94999 12.6333C8.90554 12.9222 8.77499 13.1666 8.55832 13.3666C8.34165 13.5666 8.08332 13.6666 7.78332 13.6666H6.21665ZM7.03332 9.33331C7.67776 9.33331 8.22777 9.10554 8.68332 8.64998C9.13888 8.19442 9.36665 7.64442 9.36665 6.99998C9.36665 6.35554 9.13888 5.80554 8.68332 5.34998C8.22777 4.89442 7.67776 4.66665 7.03332 4.66665C6.37776 4.66665 5.82499 4.89442 5.37499 5.34998C4.92499 5.80554 4.69999 6.35554 4.69999 6.99998C4.69999 7.64442 4.92499 8.19442 5.37499 8.64998C5.82499 9.10554 6.37776 9.33331 7.03332 9.33331Z" fill="white"/>
</svg>
