<svg width="15" height="14" viewBox="0 0 15 14" fill="none" xmlns="http://www.w3.org/2000/svg">
<path d="M7.49331 0.333008C3.81331 0.333008 0.833313 3.31967 0.833313 6.99967C0.833313 10.6797 3.81331 13.6663 7.49331 13.6663C11.18 13.6663 14.1666 10.6797 14.1666 6.99967C14.1666 3.31967 11.18 0.333008 7.49331 0.333008ZM12.1133 4.33301H10.1466C9.93331 3.49967 9.62665 2.69967 9.22665 1.95967C10.4533 2.37967 11.4733 3.23301 12.1133 4.33301ZM7.49998 1.69301C8.05331 2.49301 8.48665 3.37967 8.77331 4.33301H6.22665C6.51331 3.37967 6.94665 2.49301 7.49998 1.69301ZM2.33998 8.33301C2.23331 7.90634 2.16665 7.45967 2.16665 6.99967C2.16665 6.53967 2.23331 6.09301 2.33998 5.66634H4.59331C4.53998 6.10634 4.49998 6.54634 4.49998 6.99967C4.49998 7.45301 4.53998 7.89301 4.59331 8.33301H2.33998ZM2.88665 9.66634H4.85331C5.06665 10.4997 5.37331 11.2997 5.77331 12.0397C4.54665 11.6197 3.52665 10.773 2.88665 9.66634ZM4.85331 4.33301H2.88665C3.52665 3.22634 4.54665 2.37967 5.77331 1.95967C5.37331 2.69967 5.06665 3.49967 4.85331 4.33301ZM7.49998 12.3063C6.94665 11.5063 6.51331 10.6197 6.22665 9.66634H8.77331C8.48665 10.6197 8.05331 11.5063 7.49998 12.3063ZM9.05998 8.33301H5.93998C5.87998 7.89301 5.83331 7.45301 5.83331 6.99967C5.83331 6.54634 5.87998 6.09967 5.93998 5.66634H9.05998C9.11998 6.09967 9.16665 6.54634 9.16665 6.99967C9.16665 7.45301 9.11998 7.89301 9.05998 8.33301ZM9.22665 12.0397C9.62665 11.2997 9.93331 10.4997 10.1466 9.66634H12.1133C11.4733 10.7663 10.4533 11.6197 9.22665 12.0397ZM10.4066 8.33301C10.46 7.89301 10.5 7.45301 10.5 6.99967C10.5 6.54634 10.46 6.10634 10.4066 5.66634H12.66C12.7666 6.09301 12.8333 6.53967 12.8333 6.99967C12.8333 7.45967 12.7666 7.90634 12.66 8.33301H10.4066Z" fill="#29A874"/>
</svg>
