<svg width="41" height="40" viewBox="0 0 41 40" fill="none" xmlns="http://www.w3.org/2000/svg">
<rect x="0.5" width="40" height="40" rx="20" fill="#29A874"/>
<path d="M20.5 12.5C15.5 12.5 11.23 15.61 9.5 20C11.23 24.39 15.5 27.5 20.5 27.5C25.5 27.5 29.77 24.39 31.5 20C29.77 15.61 25.5 12.5 20.5 12.5ZM20.5 25C17.74 25 15.5 22.76 15.5 20C15.5 17.24 17.74 15 20.5 15C23.26 15 25.5 17.24 25.5 20C25.5 22.76 23.26 25 20.5 25ZM20.5 17C18.84 17 17.5 18.34 17.5 20C17.5 21.66 18.84 23 20.5 23C22.16 23 23.5 21.66 23.5 20C23.5 18.34 22.16 17 20.5 17Z" fill="white"/>
</svg>
