<svg width="28" height="28" viewBox="0 0 28 28" fill="none" xmlns="http://www.w3.org/2000/svg">
<path d="M12.8333 21H15.1666V18.6667H12.8333V21ZM13.9999 2.33337C7.55992 2.33337 2.33325 7.56004 2.33325 14C2.33325 20.44 7.55992 25.6667 13.9999 25.6667C20.4399 25.6667 25.6666 20.44 25.6666 14C25.6666 7.56004 20.4399 2.33337 13.9999 2.33337ZM13.9999 23.3334C8.85492 23.3334 4.66659 19.145 4.66659 14C4.66659 8.85504 8.85492 4.66671 13.9999 4.66671C19.1449 4.66671 23.3333 8.85504 23.3333 14C23.3333 19.145 19.1449 23.3334 13.9999 23.3334ZM13.9999 7.00004C11.4216 7.00004 9.33325 9.08837 9.33325 11.6667H11.6666C11.6666 10.3834 12.7166 9.33337 13.9999 9.33337C15.2833 9.33337 16.3333 10.3834 16.3333 11.6667C16.3333 14 12.8333 13.7084 12.8333 17.5H15.1666C15.1666 14.875 18.6666 14.5834 18.6666 11.6667C18.6666 9.08837 16.5783 7.00004 13.9999 7.00004Z" fill="#858585"/>
</svg>
