<svg width="18" height="18" viewBox="0 0 18 18" fill="none" xmlns="http://www.w3.org/2000/svg">
<path d="M9.00008 0.666687C4.40008 0.666687 0.666748 4.40002 0.666748 9.00002C0.666748 13.6 4.40008 17.3334 9.00008 17.3334C13.6001 17.3334 17.3334 13.6 17.3334 9.00002C17.3334 4.40002 13.6001 0.666687 9.00008 0.666687ZM9.83342 14.8334H8.16675V13.1667H9.83342V14.8334ZM11.5584 8.37502L10.8084 9.14169C10.3917 9.56669 10.0917 9.95002 9.94175 10.55C9.87508 10.8167 9.83342 11.1167 9.83342 11.5H8.16675V11.0834C8.16675 10.7 8.23342 10.3334 8.35008 9.99169C8.51675 9.50835 8.79175 9.07502 9.14175 8.72502L10.1751 7.67502C10.5584 7.30835 10.7417 6.75835 10.6334 6.17502C10.5251 5.57502 10.0584 5.06669 9.47508 4.90002C8.55008 4.64169 7.69175 5.16669 7.41675 5.95835C7.31675 6.26669 7.05841 6.50002 6.73341 6.50002H6.48341C6.00008 6.50002 5.66675 6.03335 5.80008 5.56669C6.15841 4.34169 7.20008 3.40835 8.49175 3.20835C9.75842 3.00835 10.9667 3.66669 11.7167 4.70835C12.7001 6.06669 12.4084 7.52502 11.5584 8.37502Z" fill="#9E9E9E"/>
</svg>
