<svg width="20" height="18" viewBox="0 0 20 18" fill="none" xmlns="http://www.w3.org/2000/svg">
<path fill-rule="evenodd" clip-rule="evenodd" d="M7.81012 5.32635L3.84057 12.1204C3.63816 12.0722 3.42611 12.0433 3.21407 12.0433C1.66226 12.0433 0.399608 13.3059 0.399608 14.8577C0.399608 14.9302 0.402358 15.002 0.407764 15.0731C0.417695 15.5443 0.543403 16.02 0.796251 16.458C1.59625 17.8436 3.36056 18.3164 4.7462 17.5164C5.40563 17.1356 5.84889 16.5347 6.05868 15.8571L14.0067 15.8982C14.0662 16.0976 14.1472 16.2957 14.2532 16.4794C15.0291 17.8233 16.7539 18.2854 18.0978 17.5095C18.626 17.2046 19.018 16.753 19.2522 16.2356C19.4738 15.8263 19.5996 15.357 19.5996 14.8577C19.5996 13.2577 18.308 11.9662 16.708 11.9662C16.4767 11.9662 16.255 12.0047 16.0333 12.0529L12.103 5.31115C12.4841 4.88476 12.725 4.35889 12.8062 3.80579C12.8367 3.63918 12.8526 3.46738 12.8526 3.29147C12.8526 1.69147 11.5611 0.399902 9.96105 0.399902C8.53321 0.399902 7.35099 1.42849 7.11312 2.78695C6.97051 3.46035 7.0672 4.18706 7.43944 4.83178C7.54448 5.01373 7.67309 5.17289 7.81012 5.32635ZM10.6845 6.17995L14.5972 12.8915C14.254 13.2622 14.0036 13.716 13.888 14.2216L6.06681 14.1941C5.99771 13.978 5.92025 13.7667 5.80459 13.5664C5.68893 13.3661 5.5447 13.1934 5.39212 13.0255L9.29619 6.19718C9.74982 6.30022 10.2251 6.29981 10.6845 6.17995ZM17.6602 15.0077C17.5876 15.4673 17.1872 15.8216 16.708 15.8216C16.2075 15.8216 15.7929 15.4349 15.7482 14.9455C15.7908 14.6653 15.9553 14.406 16.2183 14.2541C16.6774 13.989 17.2699 14.1478 17.535 14.6069C17.6081 14.7336 17.649 14.8704 17.6602 15.0077ZM9.00417 3.17563C8.99957 3.21363 8.9972 3.25228 8.9972 3.29147C8.9972 3.82159 9.43093 4.25532 9.96105 4.25532C10.4114 4.25532 10.7921 3.94237 10.8966 3.52323C10.9267 3.31622 10.8904 3.09822 10.7783 2.90407C10.5133 2.44497 9.92078 2.28622 9.46168 2.55128C9.21976 2.69095 9.06123 2.92155 9.00417 3.17563ZM2.45301 15.4714C2.20592 15.0157 2.36692 14.4382 2.81849 14.1775C3.22743 13.9414 3.7422 14.0415 4.03713 14.3907C4.11449 14.5293 4.15864 14.6886 4.15864 14.8577C4.15864 15.3879 3.72491 15.8216 3.19479 15.8216C2.8973 15.8216 2.63017 15.685 2.45301 15.4714Z" fill="white"/>
</svg>
