<svg width="134" height="134" viewBox="0 0 134 134" fill="none" xmlns="http://www.w3.org/2000/svg">
<circle cx="67" cy="67" r="67" fill="#A82940" fill-opacity="0.2"/>
<circle cx="66.9997" cy="66.9999" r="44.6667" fill="#A82940" fill-opacity="0.4"/>
<circle cx="67.0003" cy="67.0001" r="22.3333" fill="#A82940"/>
<path d="M77.6486 61.4912L71.7086 55.5512C71.4793 55.3344 71.1758 55.2136 70.8602 55.2136C70.5447 55.2136 70.2411 55.3344 70.0118 55.5512L56.5034 69.0608C56.2784 69.2859 56.1521 69.591 56.1521 69.9092C56.1521 70.2274 56.2784 70.5326 56.5034 70.7576L55.2302 72.0296C54.4425 72.8173 54 73.8857 54 74.9996C54 76.1136 54.4425 77.1819 55.2302 77.9696C56.0179 78.7573 57.0862 79.1998 58.2002 79.1998C59.3142 79.1998 60.3825 78.7573 61.1702 77.9696L62.4422 76.6964C62.6672 76.9214 62.9724 77.0478 63.2906 77.0478C63.6088 77.0478 63.914 76.9214 64.139 76.6964L77.6486 63.188C77.8736 62.963 78 62.6578 78 62.3396C78 62.0214 77.8736 61.7163 77.6486 61.4912ZM70.8602 58.0964L72.1334 59.3696L69.3182 62.1848L68.0402 60.9128L70.8602 58.0964ZM59.4734 76.2728C59.1302 76.5999 58.6743 76.7823 58.2002 76.7823C57.7261 76.7823 57.2702 76.5999 56.927 76.2728C56.7597 76.1057 56.6271 75.9072 56.5365 75.6887C56.446 75.4703 56.3994 75.2361 56.3994 74.9996C56.3994 74.7632 56.446 74.529 56.5365 74.3105C56.6271 74.0921 56.7597 73.8936 56.927 73.7264L58.2002 72.4544L60.7454 74.9996L59.4734 76.2728ZM72.287 65.1596L71.015 63.8864L73.8302 61.0712L75.1034 62.3396L72.287 65.1596Z" fill="#F4F4F4"/>
<rect x="66" y="53.9995" width="13.4" height="13.4" rx="6.7" fill="#70000B"/>
<g clip-path="url(#clip0_6014_12669)">
<path fill-rule="evenodd" clip-rule="evenodd" d="M72.6326 66.2913C74.3024 66.2913 75.8025 65.5651 76.8343 64.4112C76.3543 63.9941 75.631 63.9687 75.12 64.3811L75.0224 64.4598C74.0867 65.2148 72.7234 65.1033 71.9229 64.2064C71.4863 63.7172 70.7385 63.6672 70.2407 64.094L69.1152 65.0589C70.0792 65.8302 71.3021 66.2913 72.6326 66.2913ZM74.4596 63.5627C75.3508 62.8436 76.6034 62.8694 77.4605 63.5639C77.9728 62.7151 78.2675 61.7202 78.2675 60.6564C78.2675 59.4744 77.9036 58.3774 77.2817 57.4713C76.8807 57.3859 76.4462 57.4857 76.1163 57.778L76.0224 57.8612C75.1226 58.6585 73.7556 58.6101 72.9145 57.7511C72.4558 57.2825 71.7065 57.2672 71.229 57.7164L69.9192 58.9487L69.1986 58.1828L70.5084 56.9506C71.403 56.1089 72.8066 56.1377 73.6659 57.0154C74.1149 57.474 74.8446 57.4998 75.325 57.0742L75.4189 56.991C75.7104 56.7326 76.0478 56.5584 76.401 56.4668C75.4026 55.5683 74.0815 55.0215 72.6326 55.0215C69.7721 55.0215 67.4095 57.1529 67.0462 59.9142C67.915 59.4973 68.9867 59.6577 69.6951 60.3832C70.1424 60.8412 70.8625 60.8895 71.3669 60.4954L72.0992 59.9233C73.0196 59.2043 74.3207 59.2391 75.2013 60.0063L76.6271 61.2485L75.9363 62.0413L74.5106 60.7992C74.0098 60.3629 73.27 60.3431 72.7466 60.7519L72.0143 61.3241C71.0875 62.0481 69.7645 61.9593 68.9428 61.1179C68.465 60.6286 67.6836 60.6115 67.1848 61.0795L67.0264 61.2282C67.145 62.4051 67.6257 63.4752 68.3555 64.3252L69.5563 63.2957C70.4888 62.4962 71.8895 62.5898 72.7074 63.5062C73.1348 63.985 73.8626 64.0445 74.362 63.6415L74.4596 63.5627Z" fill="white"/>
</g>
<defs>
<clipPath id="clip0_6014_12669">
<rect width="11.2412" height="11.2698" fill="white" transform="translate(67.0264 55.0212)"/>
</clipPath>
</defs>
</svg>
