<svg width="134" height="134" viewBox="0 0 134 134" fill="none" xmlns="http://www.w3.org/2000/svg">
<circle cx="67" cy="67" r="67" fill="#3ACF92" fill-opacity="0.2"/>
<circle cx="67.0002" cy="66.9999" r="44.6667" fill="#3ACF92" fill-opacity="0.4"/>
<circle cx="66.9998" cy="67.0001" r="22.3333" fill="#29A874"/>
<path d="M77.6486 61.2774L71.7086 55.3374C71.4793 55.1206 71.1758 54.9998 70.8602 54.9998C70.5447 54.9998 70.2411 55.1206 70.0118 55.3374L56.5034 68.847C56.2784 69.072 56.1521 69.3772 56.1521 69.6954C56.1521 70.0136 56.2784 70.3187 56.5034 70.5438L55.2302 71.8158C54.4425 72.6035 54 73.6718 54 74.7858C54 75.8997 54.4425 76.9681 55.2302 77.7558C56.0179 78.5435 57.0862 78.986 58.2002 78.986C59.3142 78.986 60.3825 78.5435 61.1702 77.7558L62.4422 76.4826C62.6672 76.7075 62.9724 76.8339 63.2906 76.8339C63.6088 76.8339 63.914 76.7075 64.139 76.4826L77.6486 62.9742C77.8736 62.7491 78 62.444 78 62.1258C78 61.8076 77.8736 61.5024 77.6486 61.2774ZM70.8602 57.8826L72.1334 59.1558L69.3182 61.971L68.0402 60.699L70.8602 57.8826ZM59.4734 76.059C59.1302 76.386 58.6743 76.5685 58.2002 76.5685C57.7261 76.5685 57.2702 76.386 56.927 76.059C56.7597 75.8918 56.6271 75.6933 56.5365 75.4749C56.446 75.2564 56.3994 75.0222 56.3994 74.7858C56.3994 74.5493 56.446 74.3151 56.5365 74.0967C56.6271 73.8782 56.7597 73.6797 56.927 73.5126L58.2002 72.2406L60.7454 74.7858L59.4734 76.059ZM72.287 64.9458L71.015 63.6726L73.8302 60.8574L75.1034 62.1258L72.287 64.9458Z" fill="#F4F4F4"/>
</svg>
