<svg width="28" height="28" viewBox="0 0 28 28" fill="none" xmlns="http://www.w3.org/2000/svg">
<path d="M17.5058 11.0835H10.5058C9.86411 11.0835 9.33911 11.6085 9.33911 12.2502V26.2502C9.33911 26.8918 9.86411 27.4168 10.5058 27.4168H17.5058C18.1474 27.4168 18.6724 26.8918 18.6724 26.2502V12.2502C18.6724 11.6085 18.1474 11.0835 17.5058 11.0835ZM14.0058 17.2085C13.2008 17.2085 12.5474 16.5552 12.5474 15.7502C12.5474 14.9452 13.2008 14.2918 14.0058 14.2918C14.8108 14.2918 15.4641 14.9452 15.4641 15.7502C15.4641 16.5552 14.8108 17.2085 14.0058 17.2085Z" fill="#D6D6D6"/>
<path d="M9.12911 8.54016C9.53744 8.9485 10.1791 8.9835 10.6458 8.65683C11.5908 7.98016 12.7574 7.5835 14.0058 7.5835C15.2541 7.5835 16.4208 7.98016 17.3658 8.64516C17.8324 8.97183 18.4741 8.9485 18.8824 8.54016C19.3841 8.0385 19.3374 7.1985 18.7774 6.79016C17.4358 5.82183 15.7908 5.25016 14.0058 5.25016C12.2208 5.25016 10.5758 5.82183 9.23411 6.79016C8.66244 7.1985 8.62744 8.0385 9.12911 8.54016Z" fill="#D6D6D6"/>
<path d="M14.0058 0.583496C10.9258 0.583496 8.10244 1.6685 5.89744 3.46516C5.36078 3.9085 5.31411 4.7135 5.80411 5.2035C6.22411 5.6235 6.88911 5.6585 7.34411 5.28516C9.15244 3.81516 11.4741 2.91683 14.0058 2.91683C16.5374 2.91683 18.8591 3.81516 20.6558 5.29683C21.1108 5.67016 21.7758 5.63516 22.1958 5.21516C22.6858 4.72516 22.6391 3.92016 22.1024 3.47683C19.9091 1.6685 17.0858 0.583496 14.0058 0.583496Z" fill="#D6D6D6"/>
</svg>

