<svg width="20" height="20" viewBox="0 0 20 20" fill="none" xmlns="http://www.w3.org/2000/svg">
<path d="M10.0002 5.83301C7.70016 5.83301 5.8335 7.69967 5.8335 9.99967C5.8335 12.2997 7.70016 14.1663 10.0002 14.1663C12.3002 14.1663 14.1668 12.2997 14.1668 9.99967C14.1668 7.69967 12.3002 5.83301 10.0002 5.83301ZM1.66683 10.833H3.3335C3.79183 10.833 4.16683 10.458 4.16683 9.99967C4.16683 9.54134 3.79183 9.16634 3.3335 9.16634H1.66683C1.2085 9.16634 0.833496 9.54134 0.833496 9.99967C0.833496 10.458 1.2085 10.833 1.66683 10.833ZM16.6668 10.833H18.3335C18.7918 10.833 19.1668 10.458 19.1668 9.99967C19.1668 9.54134 18.7918 9.16634 18.3335 9.16634H16.6668C16.2085 9.16634 15.8335 9.54134 15.8335 9.99967C15.8335 10.458 16.2085 10.833 16.6668 10.833ZM9.16683 1.66634V3.33301C9.16683 3.79134 9.54183 4.16634 10.0002 4.16634C10.4585 4.16634 10.8335 3.79134 10.8335 3.33301V1.66634C10.8335 1.20801 10.4585 0.833008 10.0002 0.833008C9.54183 0.833008 9.16683 1.20801 9.16683 1.66634ZM9.16683 16.6663V18.333C9.16683 18.7913 9.54183 19.1663 10.0002 19.1663C10.4585 19.1663 10.8335 18.7913 10.8335 18.333V16.6663C10.8335 16.208 10.4585 15.833 10.0002 15.833C9.54183 15.833 9.16683 16.208 9.16683 16.6663ZM4.99183 3.81634C4.66683 3.49134 4.1335 3.49134 3.81683 3.81634C3.49183 4.14134 3.49183 4.67467 3.81683 4.99134L4.70016 5.87467C5.02516 6.19967 5.5585 6.19967 5.87516 5.87467C6.19183 5.54967 6.20016 5.01634 5.87516 4.69967L4.99183 3.81634ZM15.3002 14.1247C14.9752 13.7997 14.4418 13.7997 14.1252 14.1247C13.8002 14.4497 13.8002 14.983 14.1252 15.2997L15.0085 16.183C15.3335 16.508 15.8668 16.508 16.1835 16.183C16.5085 15.858 16.5085 15.3247 16.1835 15.008L15.3002 14.1247ZM16.1835 4.99134C16.5085 4.66634 16.5085 4.13301 16.1835 3.81634C15.8585 3.49134 15.3252 3.49134 15.0085 3.81634L14.1252 4.69967C13.8002 5.02467 13.8002 5.55801 14.1252 5.87467C14.4502 6.19134 14.9835 6.19967 15.3002 5.87467L16.1835 4.99134ZM5.87516 15.2997C6.20016 14.9747 6.20016 14.4413 5.87516 14.1247C5.55016 13.7997 5.01683 13.7997 4.70016 14.1247L3.81683 15.008C3.49183 15.333 3.49183 15.8663 3.81683 16.183C4.14183 16.4997 4.67516 16.508 4.99183 16.183L5.87516 15.2997Z" fill="#D6D6D6"/>
</svg>

