<svg width="40" height="40" viewBox="0 0 40 40" fill="none" xmlns="http://www.w3.org/2000/svg">
<path d="M30 14.1667H28.3333V10.8333C28.3333 6.23333 24.6 2.5 20 2.5C15.4 2.5 11.6667 6.23333 11.6667 10.8333V14.1667H9.99999C8.16666 14.1667 6.66666 15.6667 6.66666 17.5V34.1667C6.66666 36 8.16666 37.5 9.99999 37.5H30C31.8333 37.5 33.3333 36 33.3333 34.1667V17.5C33.3333 15.6667 31.8333 14.1667 30 14.1667ZM20 29.1667C18.1667 29.1667 16.6667 27.6667 16.6667 25.8333C16.6667 24 18.1667 22.5 20 22.5C21.8333 22.5 23.3333 24 23.3333 25.8333C23.3333 27.6667 21.8333 29.1667 20 29.1667ZM15 14.1667V10.8333C15 8.06667 17.2333 5.83333 20 5.83333C22.7667 5.83333 25 8.06667 25 10.8333V14.1667H15Z" fill="white"/>
</svg>

