<svg width="11" height="14" viewBox="0 0 11 14" fill="none" xmlns="http://www.w3.org/2000/svg">
<path d="M9.5 4.66667H8.83333V3.33333C8.83333 1.49333 7.34 0 5.5 0C3.66 0 2.16667 1.49333 2.16667 3.33333V4.66667H1.5C0.766668 4.66667 0.166668 5.26667 0.166668 6V12.6667C0.166668 13.4 0.766668 14 1.5 14H9.5C10.2333 14 10.8333 13.4 10.8333 12.6667V6C10.8333 5.26667 10.2333 4.66667 9.5 4.66667ZM5.5 10.6667C4.76667 10.6667 4.16667 10.0667 4.16667 9.33333C4.16667 8.6 4.76667 8 5.5 8C6.23333 8 6.83333 8.6 6.83333 9.33333C6.83333 10.0667 6.23333 10.6667 5.5 10.6667ZM3.5 4.66667V3.33333C3.5 2.22667 4.39333 1.33333 5.5 1.33333C6.60667 1.33333 7.5 2.22667 7.5 3.33333V4.66667H3.5Z" fill="#3ACF92"/>
</svg>
