<svg width="26" height="27" viewBox="0 0 26 27" fill="none" xmlns="http://www.w3.org/2000/svg">
<path d="M20.1214 20.2769C24.0486 16.3497 24.0486 9.9824 20.1214 6.05518C18.5701 4.50389 16.6381 3.56538 14.6261 3.23964C13.8527 3.11442 13.223 2.48544 13.223 1.70195C13.223 0.897485 13.8843 0.24098 14.6821 0.344404C17.414 0.698566 20.0545 1.92493 22.1531 4.02351C27.2024 9.07279 27.2024 17.2593 22.1531 22.3086C17.1038 27.3578 8.91729 27.3578 3.86801 22.3086C0.796344 19.2369 -0.490981 14.8949 0.315378 10.7095C0.465478 9.93046 1.21874 9.42056 1.99783 9.57066C2.77692 9.72076 3.28681 10.474 3.13671 11.2531C2.50887 14.5119 3.50944 17.8866 5.89968 20.2769C9.8269 24.2041 16.1942 24.2041 20.1214 20.2769Z" fill="#4F4F4F"/>
</svg>
