<svg width="20" height="20" viewBox="0 0 20 20" fill="none" xmlns="http://www.w3.org/2000/svg">
<mask id="mask0_0_8" style="mask-type:alpha" maskUnits="userSpaceOnUse" x="0" y="0" width="20" height="20">
<rect width="20" height="20" fill="#D9D9D9"/>
</mask>
<g mask="url(#mask0_0_8)">
<path d="M10 14.1667C9.54167 14.1667 9.14931 14.0035 8.82292 13.6771C8.49653 13.3507 8.33333 12.9583 8.33333 12.5C8.33333 12.0417 8.49653 11.6493 8.82292 11.3229C9.14931 10.9965 9.54167 10.8333 10 10.8333C10.4583 10.8333 10.8507 10.9965 11.1771 11.3229C11.5035 11.6493 11.6667 12.0417 11.6667 12.5C11.6667 12.9583 11.5035 13.3507 11.1771 13.6771C10.8507 14.0035 10.4583 14.1667 10 14.1667ZM7.5 20V17C6.43055 16.6389 5.63542 16.0417 5.11458 15.2083C4.59375 14.375 4.28472 13.4306 4.1875 12.375C4.15972 12.1667 4.23264 11.9965 4.40625 11.8646C4.57986 11.7326 4.77778 11.6667 5 11.6667C5.22222 11.6667 5.41667 11.7361 5.58333 11.875C5.75 12.0139 5.84722 12.1875 5.875 12.3958C5.98611 13.5625 6.39236 14.4271 7.09375 14.9896C7.79514 15.5521 8.76389 15.8333 10 15.8333C11.2222 15.8333 12.1806 15.5521 12.875 14.9896C13.5694 14.4271 13.9861 13.5833 14.125 12.4583C14.1528 12.2222 14.2465 12.0312 14.4062 11.8854C14.566 11.7396 14.7639 11.6667 15 11.6667C15.2361 11.6667 15.434 11.7431 15.5937 11.8958C15.7535 12.0486 15.8194 12.2361 15.7917 12.4583C15.6944 13.5 15.3854 14.4271 14.8646 15.2396C14.3437 16.0521 13.5556 16.6389 12.5 17V20H7.5ZM3.95833 10.375L2.5 6.91667C2.43056 6.95833 2.3125 7.03125 2.14583 7.13542C1.97917 7.23958 1.81944 7.29167 1.66667 7.29167C1.43056 7.29167 1.23264 7.21181 1.07292 7.05208C0.913194 6.89236 0.833333 6.69444 0.833333 6.45833V3.54167C0.833333 2.55556 1.72917 1.71875 3.52083 1.03125C5.3125 0.34375 7.47222 -1.49012e-07 10 -1.49012e-07C12.5278 -1.49012e-07 14.6875 0.34375 16.4792 1.03125C18.2708 1.71875 19.1667 2.55556 19.1667 3.54167V6.45833C19.1667 6.69444 19.0868 6.89236 18.9271 7.05208C18.7674 7.21181 18.5694 7.29167 18.3333 7.29167C18.1806 7.29167 18.0208 7.23958 17.8542 7.13542C17.6875 7.03125 17.5694 6.95833 17.5 6.91667L16.0417 10.3333C15.9722 10.4861 15.8715 10.6076 15.7396 10.6979C15.6076 10.7882 15.4583 10.8333 15.2917 10.8333H14.8125C14.6181 10.8333 14.4479 10.7778 14.3021 10.6667C14.1562 10.5556 14.0625 10.4028 14.0208 10.2083L12.9167 5.60417C12.4583 5.53472 11.9861 5.48611 11.5 5.45833C11.0139 5.43056 10.5139 5.41667 10 5.41667C9.48611 5.41667 8.98611 5.43056 8.5 5.45833C8.01389 5.48611 7.54167 5.53472 7.08333 5.60417L5.97917 10.25C5.9375 10.4306 5.84722 10.5729 5.70833 10.6771C5.56944 10.7812 5.40972 10.8333 5.22917 10.8333H4.66667C4.51389 10.8333 4.375 10.7951 4.25 10.7187C4.125 10.6424 4.02778 10.5278 3.95833 10.375ZM4.89583 9.375L5.75 5.8125C5.36111 5.89583 4.99306 5.98611 4.64583 6.08333C4.29861 6.18056 3.96528 6.29167 3.64583 6.41667L4.89583 9.375ZM15.1042 9.35417L16.3542 6.41667C16.0347 6.29167 15.7014 6.18056 15.3542 6.08333C15.0069 5.98611 14.6389 5.89583 14.25 5.8125L15.1042 9.35417Z" fill="#4CAF50"/>
</g>
</svg>
