<svg width="14" height="18" viewBox="0 0 14 18" fill="none" xmlns="http://www.w3.org/2000/svg">
<path d="M0.333374 12.3337V15.667C0.333374 16.5837 1.08337 17.3337 2.00004 17.3337H12C12.9167 17.3337 13.6667 16.5837 13.6667 15.667V12.3337C13.6667 11.417 12.9167 10.667 12 10.667H2.00004C1.08337 10.667 0.333374 11.417 0.333374 12.3337ZM11.1667 14.0003H2.83337C2.37504 14.0003 2.00004 13.6253 2.00004 13.167C2.00004 12.7087 2.37504 12.3337 2.83337 12.3337H11.1667C11.625 12.3337 12 12.7087 12 13.167C12 13.6253 11.625 14.0003 11.1667 14.0003ZM7.00004 0.666992C4.95004 0.666992 3.23337 2.15866 2.89171 4.10866C2.82504 4.54199 2.94171 4.98366 3.19171 5.33366L6.32504 9.71699C6.65837 10.1837 7.35004 10.1837 7.68337 9.71699L10.8167 5.33366C11.0667 4.98366 11.1834 4.54199 11.1084 4.10866C10.7667 2.15866 9.05004 0.666992 7.00004 0.666992Z" fill="#9E9E9E"/>
</svg>
