<svg width="28" height="28" viewBox="0 0 28 28" fill="none" xmlns="http://www.w3.org/2000/svg">
<path d="M0 14C0 6.26801 6.26801 0 14 0C21.732 0 28 6.26801 28 14C28 21.732 21.732 28 14 28C6.26801 28 0 21.732 0 14Z" fill="#FF707E"/>
<path d="M15.5192 7.7002H9.1002C8.3302 7.7002 7.7002 8.3302 7.7002 9.1002V18.9002C7.7002 19.6702 8.3302 20.3002 9.1002 20.3002H18.9002C19.6702 20.3002 20.3002 19.6702 20.3002 18.9002V12.4812C20.3002 12.1102 20.1532 11.7532 19.8872 11.4942L16.5062 8.1132C16.2472 7.8472 15.8902 7.7002 15.5192 7.7002ZM11.2002 16.1002H16.8002C17.1852 16.1002 17.5002 16.4152 17.5002 16.8002C17.5002 17.1852 17.1852 17.5002 16.8002 17.5002H11.2002C10.8152 17.5002 10.5002 17.1852 10.5002 16.8002C10.5002 16.4152 10.8152 16.1002 11.2002 16.1002ZM11.2002 13.3002H16.8002C17.1852 13.3002 17.5002 13.6152 17.5002 14.0002C17.5002 14.3852 17.1852 14.7002 16.8002 14.7002H11.2002C10.8152 14.7002 10.5002 14.3852 10.5002 14.0002C10.5002 13.6152 10.8152 13.3002 11.2002 13.3002ZM11.2002 10.5002H14.7002C15.0852 10.5002 15.4002 10.8152 15.4002 11.2002C15.4002 11.5852 15.0852 11.9002 14.7002 11.9002H11.2002C10.8152 11.9002 10.5002 11.5852 10.5002 11.2002C10.5002 10.8152 10.8152 10.5002 11.2002 10.5002Z" fill="white"/>
</svg>

