<svg width="28" height="28" viewBox="0 0 28 28" fill="none" xmlns="http://www.w3.org/2000/svg">
<path d="M14 2.33337C7.55999 2.33337 2.33333 7.56004 2.33333 14C2.33333 20.44 7.55999 25.6667 14 25.6667C20.44 25.6667 25.6667 20.44 25.6667 14C25.6667 7.56004 20.44 2.33337 14 2.33337ZM18.6667 15.1667H15.1667V18.6667C15.1667 19.3084 14.6417 19.8334 14 19.8334C13.3583 19.8334 12.8333 19.3084 12.8333 18.6667V15.1667H9.33333C8.69166 15.1667 8.16666 14.6417 8.16666 14C8.16666 13.3584 8.69166 12.8334 9.33333 12.8334H12.8333V9.33337C12.8333 8.69171 13.3583 8.16671 14 8.16671C14.6417 8.16671 15.1667 8.69171 15.1667 9.33337V12.8334H18.6667C19.3083 12.8334 19.8333 13.3584 19.8333 14C19.8333 14.6417 19.3083 15.1667 18.6667 15.1667Z" fill="#D6D6D6"/>
</svg>
