<svg width="18" height="18" viewBox="0 0 18 18" fill="none" xmlns="http://www.w3.org/2000/svg">
<path d="M0.666687 8.99996C0.666687 6.7482 1.5598 4.70501 3.01112 3.20534C3.17273 3.03835 3.44447 3.15753 3.44447 3.38991V11.4104C3.44447 11.6132 3.60895 11.7777 3.81185 11.7777H5.80559C5.94444 11.7893 6.22226 11.8889 6.22226 12.1944V14.1881C6.22226 14.391 6.38671 14.5555 6.58963 14.5555H11.4104C11.6134 14.5555 11.7778 14.391 11.7778 14.1881V12.1944C11.7778 11.8889 12.0556 11.7893 12.1944 11.7777H14.1882C14.3911 11.7777 14.5556 11.6132 14.5556 11.4104V9.36729C14.5556 9.16446 14.3911 8.99996 14.1882 8.99996H12.1452C11.9423 8.99996 11.7778 9.16446 11.7778 9.36729V11.3613C11.7777 11.6667 11.4999 11.7661 11.3612 11.7777H6.63893C6.50007 11.7661 6.22235 11.6667 6.22226 11.3613V1.48203C6.22226 1.27427 6.32537 1.10065 6.61288 1.01385C6.61655 1.01274 6.65625 1.00074 6.65625 1.00074C7.39969 0.783268 8.18627 0.666626 9.00002 0.666626C13.6024 0.666626 17.3334 4.39759 17.3334 8.99996C17.3334 13.6023 13.6024 17.3333 9.00002 17.3333C4.39764 17.3333 0.666687 13.6023 0.666687 8.99996Z" fill="#3ACF92"/>
</svg>
