<svg width="20" height="20" viewBox="0 0 20 20" fill="none" xmlns="http://www.w3.org/2000/svg">
<path d="M13.3138 12.0598H12.6555L12.4221 11.8348C13.4221 10.6681 13.9388 9.07643 13.6555 7.38477C13.2638 5.0681 11.3305 3.2181 8.99713 2.93477C5.47213 2.50143 2.50546 5.4681 2.93879 8.9931C3.22213 11.3264 5.07213 13.2598 7.38879 13.6514C9.08046 13.9348 10.6721 13.4181 11.8388 12.4181L12.0638 12.6514V13.3098L15.6055 16.8514C15.9471 17.1931 16.5055 17.1931 16.8471 16.8514C17.1888 16.5098 17.1888 15.9514 16.8471 15.6098L13.3138 12.0598ZM8.31379 12.0598C6.23879 12.0598 4.56379 10.3848 4.56379 8.30977C4.56379 6.23477 6.23879 4.55977 8.31379 4.55977C10.3888 4.55977 12.0638 6.23477 12.0638 8.30977C12.0638 10.3848 10.3888 12.0598 8.31379 12.0598Z" fill="#9E9E9E"/>
</svg>
