<svg width="22" height="20" viewBox="0 0 22 20" fill="none" xmlns="http://www.w3.org/2000/svg">
<path d="M20.408 9.41391L11.578 0.583906C11.208 0.213906 10.698 0.00390625 10.168 0.00390625H2.99805C1.89805 0.00390625 0.998047 0.903906 0.998047 2.00391V9.17391C0.998047 9.70391 1.20805 10.2139 1.58805 10.5839L10.418 19.4139C11.198 20.1939 12.468 20.1939 13.248 19.4139L20.418 12.2439C21.198 11.4639 21.198 10.2039 20.408 9.41391ZM11.828 18.0039L2.99805 9.17391V2.00391H10.168L18.998 10.8339L11.828 18.0039Z" fill="#4F4F4F"/>
<path d="M5.49805 6.00391C6.32647 6.00391 6.99805 5.33233 6.99805 4.50391C6.99805 3.67548 6.32647 3.00391 5.49805 3.00391C4.66962 3.00391 3.99805 3.67548 3.99805 4.50391C3.99805 5.33233 4.66962 6.00391 5.49805 6.00391Z" fill="#4F4F4F"/>
</svg>
