<svg width="16" height="16" viewBox="0 0 16 16" fill="none" xmlns="http://www.w3.org/2000/svg">
<path d="M8 15.5C7.76389 15.5 7.56597 15.4201 7.40625 15.2604C7.24653 15.1007 7.16667 14.9028 7.16667 14.6667V11.3333C7.16667 11.0972 7.24653 10.8993 7.40625 10.7396C7.56597 10.5799 7.76389 10.5 8 10.5C8.23611 10.5 8.43403 10.5799 8.59375 10.7396C8.75347 10.8993 8.83333 11.0972 8.83333 11.3333V12.1667H14.6667C14.9028 12.1667 15.1007 12.2465 15.2604 12.4062C15.4201 12.566 15.5 12.7639 15.5 13C15.5 13.2361 15.4201 13.434 15.2604 13.5938C15.1007 13.7535 14.9028 13.8333 14.6667 13.8333H8.83333V14.6667C8.83333 14.9028 8.75347 15.1007 8.59375 15.2604C8.43403 15.4201 8.23611 15.5 8 15.5ZM1.33333 13.8333C1.09722 13.8333 0.899306 13.7535 0.739583 13.5938C0.579861 13.434 0.5 13.2361 0.5 13C0.5 12.7639 0.579861 12.566 0.739583 12.4062C0.899306 12.2465 1.09722 12.1667 1.33333 12.1667H4.66667C4.90278 12.1667 5.10069 12.2465 5.26042 12.4062C5.42014 12.566 5.5 12.7639 5.5 13C5.5 13.2361 5.42014 13.434 5.26042 13.5938C5.10069 13.7535 4.90278 13.8333 4.66667 13.8333H1.33333ZM4.66667 10.5C4.43056 10.5 4.23264 10.4201 4.07292 10.2604C3.91319 10.1007 3.83333 9.90278 3.83333 9.66667V8.83333H1.33333C1.09722 8.83333 0.899306 8.75347 0.739583 8.59375C0.579861 8.43403 0.5 8.23611 0.5 8C0.5 7.76389 0.579861 7.56597 0.739583 7.40625C0.899306 7.24653 1.09722 7.16667 1.33333 7.16667H3.83333V6.33333C3.83333 6.09722 3.91319 5.89931 4.07292 5.73958C4.23264 5.57986 4.43056 5.5 4.66667 5.5C4.90278 5.5 5.10069 5.57986 5.26042 5.73958C5.42014 5.89931 5.5 6.09722 5.5 6.33333V9.66667C5.5 9.90278 5.42014 10.1007 5.26042 10.2604C5.10069 10.4201 4.90278 10.5 4.66667 10.5ZM8 8.83333C7.76389 8.83333 7.56597 8.75347 7.40625 8.59375C7.24653 8.43403 7.16667 8.23611 7.16667 8C7.16667 7.76389 7.24653 7.56597 7.40625 7.40625C7.56597 7.24653 7.76389 7.16667 8 7.16667H14.6667C14.9028 7.16667 15.1007 7.24653 15.2604 7.40625C15.4201 7.56597 15.5 7.76389 15.5 8C15.5 8.23611 15.4201 8.43403 15.2604 8.59375C15.1007 8.75347 14.9028 8.83333 14.6667 8.83333H8ZM11.3333 5.5C11.0972 5.5 10.8993 5.42014 10.7396 5.26042C10.5799 5.10069 10.5 4.90278 10.5 4.66667V1.33333C10.5 1.09722 10.5799 0.899306 10.7396 0.739583C10.8993 0.579861 11.0972 0.5 11.3333 0.5C11.5694 0.5 11.7674 0.579861 11.9271 0.739583C12.0868 0.899306 12.1667 1.09722 12.1667 1.33333V2.16667H14.6667C14.9028 2.16667 15.1007 2.24653 15.2604 2.40625C15.4201 2.56597 15.5 2.76389 15.5 3C15.5 3.23611 15.4201 3.43403 15.2604 3.59375C15.1007 3.75347 14.9028 3.83333 14.6667 3.83333H12.1667V4.66667C12.1667 4.90278 12.0868 5.10069 11.9271 5.26042C11.7674 5.42014 11.5694 5.5 11.3333 5.5ZM1.33333 3.83333C1.09722 3.83333 0.899306 3.75347 0.739583 3.59375C0.579861 3.43403 0.5 3.23611 0.5 3C0.5 2.76389 0.579861 2.56597 0.739583 2.40625C0.899306 2.24653 1.09722 2.16667 1.33333 2.16667H8C8.23611 2.16667 8.43403 2.24653 8.59375 2.40625C8.75347 2.56597 8.83333 2.76389 8.83333 3C8.83333 3.23611 8.75347 3.43403 8.59375 3.59375C8.43403 3.75347 8.23611 3.83333 8 3.83333H1.33333Z" fill="white"/>
</svg>
