<svg width="24" height="24" viewBox="0 0 24 24" fill="none" xmlns="http://www.w3.org/2000/svg">
<rect x="0.5" y="0.5" width="23" height="23" rx="11.5" fill="#212121"/>
<path d="M16.0637 8.82464H14.7303C14.3637 8.82464 14.0637 9.12464 14.0637 9.4913V10.8246C14.0637 11.1913 14.3637 11.4913 14.7303 11.4913V12.8246H12.7303V7.4913H13.397C13.6703 7.4913 13.8303 7.17797 13.6637 6.95797L12.3303 5.17797C12.197 4.99797 11.9303 4.99797 11.797 5.17797L10.4637 6.95797C10.297 7.17797 10.457 7.4913 10.7303 7.4913H11.397V12.8246H9.39701V11.4446C9.95034 11.1513 10.317 10.538 10.157 9.82464C10.0437 9.3113 9.64367 8.8913 9.14367 8.7513C8.16367 8.47797 7.26367 9.21797 7.26367 10.158C7.26367 10.7246 7.59701 11.198 8.06367 11.4446V12.8246C8.06367 13.558 8.66367 14.158 9.39701 14.158H11.397V16.1913C10.8237 16.4913 10.4703 17.138 10.6437 17.8513C10.7637 18.3513 11.1703 18.7713 11.6703 18.9046C12.6437 19.1646 13.537 18.438 13.537 17.4913C13.537 16.9246 13.2103 16.438 12.737 16.1913V14.158H14.737C15.4703 14.158 16.0703 13.558 16.0703 12.8246V11.4913C16.437 11.4913 16.737 11.1913 16.737 10.8246V9.4913C16.7303 9.12464 16.4303 8.82464 16.0637 8.82464Z" fill="#3ACF92"/>
<rect x="0.5" y="0.5" width="23" height="23" rx="11.5" stroke="#3ACF92"/>
</svg>
