<svg width="42" height="42" viewBox="0 0 42 42" fill="none" xmlns="http://www.w3.org/2000/svg">
<path d="M1 21C1 9.95431 9.95431 1 21 1C32.0457 1 41 9.95431 41 21C41 32.0457 32.0457 41 21 41C9.95431 41 1 32.0457 1 21Z" fill="#4F4F4F"/>
<path d="M20.19 10.2662L13.19 13.3762C12.47 13.6962 12 14.4163 12 15.2063V19.9062C12 25.4563 15.84 30.6462 21 31.9062C26.16 30.6462 30 25.4563 30 19.9062V15.2063C30 14.4163 29.53 13.6962 28.81 13.3762L21.81 10.2662C21.3 10.0362 20.7 10.0362 20.19 10.2662ZM18.29 25.1963L15.7 22.6062C15.31 22.2162 15.31 21.5863 15.7 21.1962C16.09 20.8062 16.72 20.8062 17.11 21.1962L19 23.0763L24.88 17.1962C25.27 16.8063 25.9 16.8063 26.29 17.1962C26.68 17.5862 26.68 18.2162 26.29 18.6062L19.7 25.1963C19.32 25.5863 18.68 25.5863 18.29 25.1963Z" fill="#9E9E9E"/>
<path d="M21 40C10.5066 40 2 31.4934 2 21H0C0 32.598 9.40202 42 21 42V40ZM40 21C40 31.4934 31.4934 40 21 40V42C32.598 42 42 32.598 42 21H40ZM21 2C31.4934 2 40 10.5066 40 21H42C42 9.40202 32.598 0 21 0V2ZM21 0C9.40202 0 0 9.40202 0 21H2C2 10.5066 10.5066 2 21 2V0Z" fill="white" fill-opacity="0.2"/>
</svg>

