<svg width="48" height="48" viewBox="0 0 48 48" fill="none" xmlns="http://www.w3.org/2000/svg">
<path d="M24 11.9501C31.58 11.9501 38.34 16.2101 41.64 22.9501C40.46 25.3901 38.8 27.4901 36.82 29.1901L39.64 32.0101C42.42 29.5501 44.62 26.4701 46 22.9501C42.54 14.1701 34 7.9501 24 7.9501C21.46 7.9501 19.02 8.3501 16.72 9.0901L20.02 12.3901C21.32 12.1301 22.64 11.9501 24 11.9501ZM21.86 14.2301L26 18.3701C27.14 18.8701 28.06 19.7901 28.56 20.9301L32.7 25.0701C32.86 24.3901 32.98 23.6701 32.98 22.9301C33 17.9701 28.96 13.9501 24 13.9501C23.26 13.9501 22.56 14.0501 21.86 14.2301ZM4.02 7.6901L9.38 13.0501C6.12 15.6101 3.54 19.0101 2 22.9501C5.46 31.7301 14 37.9501 24 37.9501C27.04 37.9501 29.96 37.3701 32.64 36.3101L39.48 43.1501L42.3 40.3301L6.84 4.8501L4.02 7.6901ZM19.02 22.6901L24.24 27.9101C24.16 27.9301 24.08 27.9501 24 27.9501C21.24 27.9501 19 25.7101 19 22.9501C19 22.8501 19.02 22.7901 19.02 22.6901ZM12.22 15.8901L15.72 19.3901C15.26 20.4901 15 21.6901 15 22.9501C15 27.9101 19.04 31.9501 24 31.9501C25.26 31.9501 26.46 31.6901 27.54 31.2301L29.5 33.1901C27.74 33.6701 25.9 33.9501 24 33.9501C16.42 33.9501 9.66 29.6901 6.36 22.9501C7.76 20.0901 9.8 17.7301 12.22 15.8901Z" fill="white"/>
</svg>
