<svg width="16" height="16" viewBox="0 0 16 16" fill="none" xmlns="http://www.w3.org/2000/svg">
<path d="M5.91671 11.3333V4.66667C5.91671 3.75 6.65837 3 7.58337 3H15.0834V2.16667C15.0834 1.25 14.3334 0.5 13.4167 0.5H1.75004C0.825041 0.5 0.083374 1.25 0.083374 2.16667V13.8333C0.083374 14.75 0.825041 15.5 1.75004 15.5H13.4167C14.3334 15.5 15.0834 14.75 15.0834 13.8333V13H7.58337C6.65837 13 5.91671 12.25 5.91671 11.3333ZM8.41671 4.66667C7.95837 4.66667 7.58337 5.04167 7.58337 5.5V10.5C7.58337 10.9583 7.95837 11.3333 8.41671 11.3333H15.9167V4.66667H8.41671ZM10.9167 9.25C10.225 9.25 9.66671 8.69167 9.66671 8C9.66671 7.30833 10.225 6.75 10.9167 6.75C11.6084 6.75 12.1667 7.30833 12.1667 8C12.1667 8.69167 11.6084 9.25 10.9167 9.25Z" fill="#9E9E9E"/>
</svg>
