<svg width="20" height="20" viewBox="0 0 20 20" fill="none" xmlns="http://www.w3.org/2000/svg">
<path d="M7.91668 13.3333V6.66667C7.91668 5.75 8.65834 5 9.58334 5H17.0833V4.16667C17.0833 3.25 16.3333 2.5 15.4167 2.5H3.75001C2.82501 2.5 2.08334 3.25 2.08334 4.16667V15.8333C2.08334 16.75 2.82501 17.5 3.75001 17.5H15.4167C16.3333 17.5 17.0833 16.75 17.0833 15.8333V15H9.58334C8.65834 15 7.91668 14.25 7.91668 13.3333ZM10.4167 6.66667C9.95834 6.66667 9.58334 7.04167 9.58334 7.5V12.5C9.58334 12.9583 9.95834 13.3333 10.4167 13.3333H17.9167V6.66667H10.4167ZM12.9167 11.25C12.225 11.25 11.6667 10.6917 11.6667 10C11.6667 9.30833 12.225 8.75 12.9167 8.75C13.6083 8.75 14.1667 9.30833 14.1667 10C14.1667 10.6917 13.6083 11.25 12.9167 11.25Z" fill="#0AB8FF"/>
</svg>
