<svg width="64" height="64" viewBox="0 0 64 64" fill="none" xmlns="http://www.w3.org/2000/svg">
<rect width="64" height="64" rx="32" fill="#29A874"/>
<path d="M38.12 28.667H36V22.0003C36 21.267 35.4 20.667 34.6667 20.667H29.3333C28.6 20.667 28 21.267 28 22.0003V28.667H25.88C24.6933 28.667 24.0933 30.107 24.9333 30.947L31.0533 37.067C31.5733 37.587 32.4133 37.587 32.9333 37.067L39.0533 30.947C39.8933 30.107 39.3067 28.667 38.12 28.667ZM22.6667 42.0003C22.6667 42.7337 23.2667 43.3337 24 43.3337H40C40.7333 43.3337 41.3333 42.7337 41.3333 42.0003C41.3333 41.267 40.7333 40.667 40 40.667H24C23.2667 40.667 22.6667 41.267 22.6667 42.0003Z" fill="white"/>
</svg>
