<svg width="64" height="64" viewBox="0 0 64 64" fill="none" xmlns="http://www.w3.org/2000/svg">
<rect width="64" height="64" rx="32" fill="#29A874"/>
<path d="M32 18.667C24.64 18.667 18.6667 24.6403 18.6667 32.0003C18.6667 39.3603 24.64 45.3337 32 45.3337C39.36 45.3337 45.3333 39.3603 45.3333 32.0003C45.3333 24.6403 39.36 18.667 32 18.667ZM28.3867 37.7203L23.6 32.9337C23.08 32.4137 23.08 31.5737 23.6 31.0537C24.12 30.5337 24.96 30.5337 25.48 31.0537L29.3333 34.8937L38.5067 25.7203C39.0267 25.2003 39.8667 25.2003 40.3867 25.7203C40.9067 26.2403 40.9067 27.0803 40.3867 27.6003L30.2667 37.7203C29.76 38.2403 28.9067 38.2403 28.3867 37.7203Z" fill="white"/>
</svg>
