<svg width="20" height="20" viewBox="0 0 20 20" fill="none" xmlns="http://www.w3.org/2000/svg">
<rect x="1" y="1" width="18" height="18" rx="9" fill="#FF3D50"/>
<path d="M9 12.1478H11C11.275 12.1478 11.5 11.9228 11.5 11.6478V9.14781H12.295C12.74 9.14781 12.965 8.60781 12.65 8.29281L10.355 5.99781C10.16 5.80281 9.845 5.80281 9.65 5.99781L7.355 8.29281C7.04 8.60781 7.26 9.14781 7.705 9.14781H8.5V11.6478C8.5 11.9228 8.725 12.1478 9 12.1478ZM7 13.1478H13C13.275 13.1478 13.5 13.3728 13.5 13.6478C13.5 13.9228 13.275 14.1478 13 14.1478H7C6.725 14.1478 6.5 13.9228 6.5 13.6478C6.5 13.3728 6.725 13.1478 7 13.1478Z" fill="white"/>
<rect x="1" y="1" width="18" height="18" rx="9" stroke="white" stroke-width="2"/>
</svg>
