<svg xmlns="http://www.w3.org/2000/svg" width="100" height="100" viewBox="0 0 100 100" fill="none">
<path d="M46.3232 16.4519C48.3095 14.317 51.6905 14.317 53.6768 16.4519C55.1506 18.0361 57.4735 18.4982 59.4414 17.5986C62.0935 16.3863 65.2171 17.6801 66.2352 20.4127C66.9906 22.4403 68.9598 23.7561 71.1222 23.6781C74.0364 23.573 76.427 25.9636 76.3219 28.8778C76.2439 31.0402 77.5597 33.0094 79.5873 33.7648C82.3199 34.7829 83.6137 37.9065 82.4014 40.5586C81.5018 42.5265 81.9639 44.8494 83.548 46.3232C85.683 48.3095 85.683 51.6905 83.548 53.6768C81.9639 55.1506 81.5018 57.4735 82.4014 59.4414C83.6137 62.0935 82.3199 65.2171 79.5873 66.2352C77.5597 66.9906 76.2439 68.9598 76.3219 71.1222C76.427 74.0364 74.0364 76.427 71.1222 76.3219C68.9598 76.2439 66.9906 77.5597 66.2352 79.5873C65.2171 82.3199 62.0935 83.6137 59.4414 82.4014C57.4735 81.5018 55.1506 81.9639 53.6768 83.548C51.6905 85.683 48.3095 85.683 46.3232 83.548C44.8494 81.9639 42.5265 81.5018 40.5586 82.4014C37.9065 83.6137 34.7829 82.3199 33.7648 79.5873C33.0094 77.5597 31.0402 76.2439 28.8778 76.3219C25.9636 76.427 23.573 74.0364 23.6781 71.1222C23.7561 68.9598 22.4403 66.9906 20.4127 66.2352C17.6801 65.2171 16.3863 62.0935 17.5986 59.4414C18.4982 57.4735 18.0361 55.1506 16.4519 53.6768C14.317 51.6905 14.317 48.3095 16.4519 46.3232C18.0361 44.8494 18.4982 42.5265 17.5986 40.5586C16.3863 37.9065 17.6801 34.7829 20.4127 33.7648C22.4403 33.0094 23.7561 31.0402 23.6781 28.8778C23.573 25.9636 25.9636 23.573 28.8778 23.6781C31.0402 23.7561 33.0094 22.4403 33.7648 20.4127C34.7829 17.6801 37.9065 16.3863 40.5586 17.5986C42.5265 18.4982 44.8494 18.0361 46.3232 16.4519Z" fill="#29A874"/>
<path d="M37.2608 48.8422L44.9761 56.7725L62.7392 38.5143C63.3971 37.8381 64.2344 37.5 65.2512 37.5C66.2679 37.5 67.1053 37.8381 67.7632 38.5143C68.421 39.1906 68.75 40.0512 68.75 41.0963C68.75 42.1414 68.421 43.002 67.7632 43.6783L47.488 64.5184C46.7703 65.2561 45.933 65.625 44.9761 65.625C44.0191 65.625 43.1818 65.2561 42.4641 64.5184L32.2368 54.0061C31.5789 53.3299 31.25 52.4693 31.25 51.4242C31.25 50.3791 31.5789 49.5184 32.2368 48.8422C32.8947 48.166 33.7321 47.8279 34.7488 47.8279C35.7655 47.8279 36.6029 48.166 37.2608 48.8422Z" fill="white"/>
</svg>