<svg width="20" height="20" viewBox="0 0 20 20" fill="none" xmlns="http://www.w3.org/2000/svg">
<rect x="1" y="1" width="18" height="18" rx="9" fill="#1E1CB5"/>
<path d="M15 10C15 7.24 12.76 5 10 5C7.24 5 5 7.24 5 10C5 12.76 7.24 15 10 15C12.76 15 15 12.76 15 10ZM11.5 7.25L13.075 8.825C13.175 8.925 13.175 9.08 13.075 9.18L11.5 10.75V9.5H9.5V8.5H11.5V7.25ZM8.5 12.75L6.925 11.175C6.825 11.075 6.825 10.92 6.925 10.82L8.5 9.25V10.5H10.5V11.5H8.5V12.75Z" fill="white"/>
<rect x="1" y="1" width="18" height="18" rx="9" stroke="white" stroke-width="2"/>
</svg>
