<svg width="65" height="64" viewBox="0 0 65 64" fill="none" xmlns="http://www.w3.org/2000/svg">
<rect x="0.5" width="64" height="64" rx="32" fill="#EEEDFC"/>
<path d="M45.8332 31.9993C45.8332 24.6393 39.8598 18.666 32.4998 18.666C25.1398 18.666 19.1665 24.6393 19.1665 31.9993C19.1665 39.3594 25.1398 45.3327 32.4998 45.3327C39.8598 45.3327 45.8332 39.3594 45.8332 31.9993ZM36.4998 24.666L40.6998 28.866C40.9665 29.1327 40.9665 29.546 40.6998 29.8127L36.4998 33.9993V30.666H31.1665V27.9993H36.4998V24.666ZM28.4998 39.3327L24.2998 35.1327C24.0332 34.866 24.0332 34.4527 24.2998 34.186L28.4998 29.9993V33.3327H33.8332V35.9993H28.4998V39.3327Z" fill="#1E1CB5"/>
</svg>
