<svg width="40" height="40" viewBox="0 0 40 40" fill="none" xmlns="http://www.w3.org/2000/svg">
<path d="M0 20C0 8.95431 8.95431 0 20 0C31.0457 0 40 8.95431 40 20C40 31.0457 31.0457 40 20 40C8.95431 40 0 31.0457 0 20Z" fill="#FFDFAD"/>
<path d="M20 10C14.48 10 10 14.48 10 20C10 25.52 14.48 30 20 30C25.52 30 30 25.52 30 20C30 14.48 25.52 10 20 10ZM20.88 25.76V26.12C20.88 26.6 20.49 27 20 27C19.52 27 19.12 26.61 19.12 26.12V25.7C18.49 25.55 17.19 25.09 16.43 23.6C16.2 23.16 16.42 22.61 16.88 22.42L16.95 22.39C17.36 22.22 17.82 22.39 18.03 22.78C18.35 23.39 18.98 24.15 20.15 24.15C21.08 24.15 22.13 23.67 22.13 22.54C22.13 21.58 21.43 21.08 19.85 20.51C18.75 20.12 16.5 19.48 16.5 17.2C16.5 17.1 16.51 14.8 19.12 14.24V13.88C19.12 13.39 19.52 13 20 13C20.48 13 20.88 13.39 20.88 13.88V14.25C21.95 14.44 22.63 15.01 23.04 15.55C23.38 15.99 23.2 16.63 22.68 16.85C22.32 17 21.9 16.88 21.66 16.57C21.38 16.19 20.88 15.8 20.06 15.8C19.36 15.8 18.25 16.17 18.25 17.19C18.25 18.14 19.11 18.5 20.89 19.09C23.29 19.92 23.9 21.14 23.9 22.54C23.9 25.17 21.4 25.67 20.88 25.76Z" fill="#9E6000"/>
</svg>
