
<svg width="72" height="72" viewBox="0 0 72 72" fill="none" xmlns="http://www.w3.org/2000/svg">
<path d="M32.3232 2.45195C34.3095 0.31699 37.6905 0.31699 39.6768 2.45195C41.1506 4.03612 43.4735 4.49816 45.4414 3.5986C48.0935 2.38628 51.2171 3.68011 52.2352 6.41268C52.9906 8.44029 54.9598 9.75607 57.1222 9.67807C60.0364 9.57296 62.427 11.9636 62.3219 14.8778C62.2439 17.0402 63.5597 19.0094 65.5873 19.7648C68.3199 20.7829 69.6137 23.9065 68.4014 26.5586C67.5018 28.5265 67.9639 30.8494 69.548 32.3232C71.683 34.3095 71.683 37.6905 69.548 39.6768C67.9639 41.1506 67.5018 43.4735 68.4014 45.4414C69.6137 48.0935 68.3199 51.2171 65.5873 52.2352C63.5597 52.9906 62.2439 54.9598 62.3219 57.1222C62.427 60.0364 60.0364 62.427 57.1222 62.3219C54.9598 62.2439 52.9906 63.5597 52.2352 65.5873C51.2171 68.3199 48.0935 69.6137 45.4414 68.4014C43.4735 67.5018 41.1506 67.9639 39.6768 69.548C37.6905 71.683 34.3095 71.683 32.3232 69.548C30.8494 67.9639 28.5265 67.5018 26.5586 68.4014C23.9065 69.6137 20.7829 68.3199 19.7648 65.5873C19.0094 63.5597 17.0402 62.2439 14.8778 62.3219C11.9636 62.427 9.57296 60.0364 9.67807 57.1222C9.75607 54.9598 8.44029 52.9906 6.41268 52.2352C3.68011 51.2171 2.38628 48.0935 3.5986 45.4414C4.49816 43.4735 4.03612 41.1506 2.45195 39.6768C0.31699 37.6905 0.31699 34.3095 2.45195 32.3232C4.03612 30.8494 4.49816 28.5265 3.5986 26.5586C2.38628 23.9065 3.68011 20.7829 6.41268 19.7648C8.44029 19.0094 9.75607 17.0402 9.67807 14.8778C9.57296 11.9636 11.9636 9.57296 14.8778 9.67807C17.0402 9.75607 19.0094 8.44029 19.7648 6.41268C20.7829 3.68011 23.9065 2.38628 26.5586 3.5986C28.5265 4.49816 30.8494 4.03612 32.3232 2.45195Z" fill="#FF707E"/>
<path fill-rule="evenodd" clip-rule="evenodd" d="M36 14.9062C37.7259 14.9062 39.125 16.3054 39.125 18.0312L39.125 41.4688C39.125 43.1946 37.7259 44.5937 36 44.5937C34.2741 44.5937 32.875 43.1946 32.875 41.4687L32.875 18.0312C32.875 16.3054 34.2741 14.9062 36 14.9062Z" fill="white"/>
<circle cx="36" cy="53.9688" r="3.125" fill="white"/>
</svg>
