<svg width="24" height="24" viewBox="0 0 24 24" fill="none" xmlns="http://www.w3.org/2000/svg">
<path d="M11.3 2.18829L5.3 4.43829C4.52 4.73829 4 5.47829 4 6.31829V11.0283C4 16.0783 7.41 20.7883 12 21.9383C16.59 20.7883 20 16.0783 20 11.0283V6.31829C20 5.48829 19.48 4.73829 18.7 4.44829L12.7 2.19829C12.25 2.01829 11.75 2.01829 11.3 2.18829ZM10.23 14.7583L8.11 12.6383C7.72 12.2483 7.72 11.6183 8.11 11.2283C8.5 10.8383 9.13 10.8383 9.52 11.2283L10.93 12.6383L14.47 9.09829C14.86 8.70829 15.49 8.70829 15.88 9.09829C16.27 9.48829 16.27 10.1183 15.88 10.5083L11.64 14.7483C11.26 15.1483 10.62 15.1483 10.23 14.7583Z" fill="#29A874"/>
</svg>

