<svg width="24" height="24" viewBox="0 0 24 24" fill="none" xmlns="http://www.w3.org/2000/svg">
<path d="M15.5806 18H5.58057V6H15.5806V7H17.5806V3C17.5806 1.9 16.6806 1 15.5806 1L5.58057 1.01C4.48057 1.01 3.58057 1.9 3.58057 3V21C3.58057 22.1 4.48057 23 5.58057 23H15.5806C16.6806 23 17.5806 22.1 17.5806 21V17H15.5806V18ZM19.5806 12C19.5806 11.87 19.5606 11.74 19.5406 11.61L20.1806 11.13C20.3806 10.98 20.4406 10.69 20.3106 10.47L19.7406 9.51C19.6106 9.3 19.3506 9.21 19.1206 9.31L18.4006 9.61C18.2006 9.46 17.9806 9.32 17.7506 9.22L17.6506 8.45C17.6206 8.2 17.4106 8.02 17.1606 8.01L16.0406 7.99C15.7806 7.99 15.5706 8.17 15.5406 8.43L15.4406 9.22C15.2006 9.32 14.9906 9.45 14.7906 9.61L14.0706 9.31C13.8406 9.21 13.5706 9.3 13.4506 9.51L12.8806 10.47C12.7506 10.69 12.8006 10.97 13.0106 11.13L13.6506 11.61C13.6006 11.74 13.5806 11.87 13.5806 12C13.5806 12.13 13.6006 12.25 13.6206 12.37L12.9806 12.86C12.7806 13.01 12.7206 13.29 12.8506 13.51L13.4106 14.48C13.5406 14.7 13.8006 14.79 14.0406 14.69L14.7706 14.38C14.9706 14.54 15.1906 14.68 15.4406 14.78L15.5406 15.55C15.5706 15.8 15.7806 15.99 16.0406 15.99H17.1606C17.4106 15.99 17.6206 15.8 17.6606 15.55L17.7606 14.78C18.0006 14.68 18.2206 14.54 18.4306 14.38L19.1606 14.69C19.3906 14.79 19.6606 14.7 19.7906 14.48L20.3506 13.51C20.4806 13.29 20.4206 13.01 20.2206 12.86L19.5806 12.37C19.5606 12.25 19.5806 12.13 19.5806 12ZM16.5806 13.5C15.7506 13.5 15.0806 12.83 15.0806 12C15.0806 11.17 15.7506 10.5 16.5806 10.5C17.4106 10.5 18.0806 11.17 18.0806 12C18.0806 12.83 17.4106 13.5 16.5806 13.5Z" fill="#9E9E9E"/>
</svg>
