<svg width="17" height="20" viewBox="0 0 17 20" fill="none" xmlns="http://www.w3.org/2000/svg">
<path d="M13.5904 10.6356C13.6039 9.86983 13.8091 9.11969 14.1873 8.45372C14.5654 7.78774 15.1045 7.22718 15.7552 6.82327C15.3371 6.23365 14.7889 5.74814 14.1531 5.40434C13.5173 5.06054 12.8109 4.86766 12.0886 4.84064C10.5467 4.67916 9.0521 5.76336 8.26536 5.76336C7.46405 5.76336 6.2548 4.85642 4.95085 4.88434C4.10912 4.9155 3.28947 5.16215 2.57033 5.6007C1.85119 6.03924 1.25663 6.65499 0.843534 7.38904C-0.932701 10.4644 0.391887 14.9845 2.09406 17.471C2.94394 18.6875 3.9395 20.0473 5.24102 19.9987C6.51583 19.9465 6.99176 19.1865 8.52882 19.1865C10.0525 19.1865 10.4993 20 11.8275 19.9684C13.1946 19.9465 14.0554 18.7458 14.8774 17.5159C15.4887 16.6486 15.9591 15.6902 16.2712 14.6761C15.4803 14.336 14.8055 13.7729 14.3295 13.0555C13.8534 12.3382 13.5966 11.4965 13.5904 10.6356ZM11.0821 3.20524C11.8268 2.31045 12.1935 1.16071 12.1044 0C10.9655 0.119273 9.91337 0.663318 9.15772 1.5237C8.41564 2.37492 8.03838 3.48401 8.10752 4.61117C9.24636 4.62331 10.3658 4.09396 11.0809 3.20645L11.0821 3.20524Z" fill="#3ACF92"/>
</svg>
