<svg width="32" height="32" viewBox="0 0 32 32" fill="none" xmlns="http://www.w3.org/2000/svg">
<path fill-rule="evenodd" clip-rule="evenodd" d="M13.5998 32C13.158 32 12.7998 31.6418 12.7998 31.2V29.6C12.7998 29.1582 13.158 28.8 13.5998 28.8L19.1998 28.8V31.2C19.1998 31.6418 18.8416 32 18.3998 32H13.5998ZM19.1998 25.6V28.8L21.5998 28.8C22.0416 28.8 22.3998 28.4418 22.3998 28V25.6H24.7998C25.2416 25.6 25.5998 25.2418 25.5998 24.8L25.5998 22.4H27.9998C28.4416 22.4 28.7998 22.0418 28.7998 21.6V16.8C28.7998 16.3582 28.4416 16 27.9998 16H25.5998V13.6C25.5998 13.1582 25.2416 12.8 24.7998 12.8H22.3998V10.4C22.3998 9.95817 22.0416 9.6 21.5998 9.6H19.1998V7.2C19.1998 6.75817 18.8416 6.4 18.3998 6.4H12.7998V3.2H18.3998C18.8416 3.2 19.1998 2.84183 19.1998 2.4V0.799999C19.1998 0.358171 18.8416 0 18.3998 0H13.5998C13.158 0 12.7998 0.358171 12.7998 0.799999V3.2H10.3998C9.95798 3.2 9.59981 3.55817 9.59981 4V6.4H7.19981C6.75798 6.4 6.39981 6.75817 6.39981 7.2V9.6H3.99981C3.55798 9.6 3.19981 9.95817 3.19981 10.4V15.2C3.19981 15.6418 3.55798 16 3.99981 16H6.39981V18.4C6.39981 18.8418 6.75798 19.2 7.19981 19.2H9.59981V21.6C9.59981 22.0418 9.95798 22.4 10.3998 22.4H12.7998V24.8C12.7998 25.2418 13.158 25.6 13.5998 25.6H19.1998ZM19.1998 22.4V25.6H22.3998V22.4H25.5998L25.5998 16H23.1998C22.758 16 22.3998 15.6418 22.3998 15.2V12.8H19.9998C19.558 12.8 19.1998 12.4418 19.1998 12V9.6H12.7998V6.4H9.59981V9.6H6.39981V16H8.79981C9.24163 16 9.59981 16.3582 9.59981 16.8V19.2H11.9998C12.4416 19.2 12.7998 19.5582 12.7998 20V22.4H19.1998ZM9.59981 9.6H12.7998V12C12.7998 12.4418 12.4416 12.8 11.9998 12.8H10.3998C9.95798 12.8 9.59981 12.4418 9.59981 12V9.6ZM19.1998 22.4H22.3998V20C22.3998 19.5582 22.0416 19.2 21.5998 19.2H19.9998C19.558 19.2 19.1998 19.5582 19.1998 20V22.4ZM17.5998 16.8C17.5998 17.2418 17.2416 17.6 16.7998 17.6H15.1998C14.758 17.6 14.3998 17.2418 14.3998 16.8V15.2C14.3998 14.7582 14.758 14.4 15.1998 14.4H16.7998C17.2416 14.4 17.5998 14.7582 17.5998 15.2V16.8Z" fill="#EEECDF"/>
</svg>
