<svg width="28" height="28" viewBox="0 0 28 28" fill="none" xmlns="http://www.w3.org/2000/svg">
<path d="M0 14C0 6.26801 6.26801 0 14 0C21.732 0 28 6.26801 28 14C28 21.732 21.732 28 14 28C6.26801 28 0 21.732 0 14Z" fill="#040506"/>
<path d="M10.8208 19.345L7.10664 12.9121C7.01405 12.7517 6.96533 12.5698 6.96533 12.3846C6.96533 12.1994 7.01405 12.0175 7.10664 11.8572L10.8208 5.42735C10.9133 5.26698 11.0465 5.13381 11.2069 5.04123C11.3672 4.94864 11.5491 4.8999 11.7343 4.8999H19.1594C19.3446 4.8999 19.5265 4.94864 19.6869 5.04123C19.8473 5.13381 19.9804 5.26698 20.073 5.42735L23.7997 11.8634L21.9724 12.9184L18.5629 7.01596H12.356L9.25098 12.3909L12.6606 18.2964L10.8208 19.345Z" fill="#9C6CFF"/>
<path d="M16.2653 22.8456H8.82455C8.63937 22.8456 8.45742 22.7968 8.29705 22.7042C8.13667 22.6117 8.00352 22.4785 7.91092 22.3181L4.19995 15.8915L6.02405 14.8366L9.4336 20.742H15.6374L18.7392 15.364L15.3328 9.46164L17.1569 8.40674L20.871 14.8366C20.9636 14.9969 21.0123 15.1788 21.0123 15.364C21.0123 15.5491 20.9636 15.7311 20.871 15.8915L17.1569 22.3244C17.0659 22.4808 16.9359 22.611 16.7797 22.7023C16.6235 22.7937 16.4462 22.843 16.2653 22.8456Z" fill="#05D2DD"/>
</svg>

