<svg width="900" height="900" viewBox="0 0 900 900" fill="none" xmlns="http://www.w3.org/2000/svg">
    <rect width="900" height="900" rx="135" fill="#EA3323" />
    <path
        d="M681.975 288.125C681.975 302.3 672.525 309.05 672.525 309.05L640.125 306.35C640.125 306.35 569.25 309.725 569.25 321.875C569.25 329.3 578.025 338.75 578.025 338.75L591.525 358.325V371.15C591.525 371.15 607.725 399.5 611.1 413C620.55 451.475 578.025 458.225 573.3 437.975C567.225 419.075 547.65 357.65 534.825 374.525L511.875 404.225L506.475 440C506.475 440 489.6 464.975 475.425 464.975C465.975 464.975 458.55 453.5 458.55 443.375C458.55 408.95 500.4 370.475 500.4 339.425C500.4 331.325 490.275 328.625 479.475 334.025L413.325 361.025C398.475 367.1 384.3 352.925 384.3 327.95C384.3 320.525 396.45 321.2 400.5 321.875C403.875 319.85 437.625 294.2 460.575 294.2C478.125 294.2 511.875 293.525 505.125 276.65L499.725 264.5L489.6 227.375L482.175 219.95L477.45 207.8C472.725 194.975 478.125 179.45 495 179.45C526.05 179.45 528.75 256.4 544.95 256.4C555.075 256.4 586.8 175.4 611.1 175.4C619.875 175.4 628.65 185.525 628.65 194.3C628.65 203.75 625.275 224 625.275 224L611.1 233.45L586.125 268.55L626.625 258.425L641.475 261.8C642.825 260.45 651.6 255.05 659.025 255.05C674.55 255.05 681.975 272.6 681.975 288.125Z"
        fill="white" />
</svg>