<svg width="28" height="28" viewBox="0 0 28 28" fill="none" xmlns="http://www.w3.org/2000/svg">
<path d="M0 14C0 6.26801 6.26801 0 14 0V0C21.732 0 28 6.26801 28 14V14C28 21.732 21.732 28 14 28V28C6.26801 28 0 21.732 0 14V14Z" fill="white"/>
<path d="M14.0001 27.7969C21.4576 27.7969 27.503 21.7514 27.503 14.2939C27.503 6.83636 21.4576 0.790863 14.0001 0.790863C6.54256 0.790863 0.49707 6.83636 0.49707 14.2939C0.49707 21.7514 6.54256 27.7969 14.0001 27.7969Z" fill="white"/>
<path d="M14.0001 27.503C21.4576 27.503 27.503 21.4575 27.503 14C27.503 6.54251 21.4576 0.497009 14.0001 0.497009C6.54256 0.497009 0.49707 6.54251 0.49707 14C0.49707 21.4575 6.54256 27.503 14.0001 27.503Z" fill="black"/>
<path fill-rule="evenodd" clip-rule="evenodd" d="M14 1.01797C6.80536 1.01797 0.994024 6.84199 0.994024 14C0.994024 21.158 6.80536 26.982 14 26.982C21.1946 26.982 27.006 21.158 27.006 14C27.006 6.84199 21.1946 1.01797 14 1.01797ZM0 14C0 6.25624 6.27965 0 14 0C21.7203 0 28 6.25624 28 14C28 21.7438 21.7203 28 14 28C6.27965 28 0 21.7438 0 14Z" fill="white"/>
<path fill-rule="evenodd" clip-rule="evenodd" d="M14.5104 9.05733C14.5104 8.80421 14.3163 8.599 14.0769 8.599C14.0769 8.599 14.0767 8.599 14.0764 8.599C13.8372 8.599 13.6432 8.80421 13.6432 9.05733C13.6432 10.9042 13.6432 17.7922 13.6432 19.6394C13.6432 19.8925 13.8372 20.0977 14.0764 20.0977C14.0767 20.0977 14.0769 20.0977 14.0769 20.0977C14.3163 20.0977 14.5104 19.8925 14.5104 19.6394C14.5104 17.7922 14.5104 10.9042 14.5104 9.05733V9.05733Z" fill="white"/>
<path fill-rule="evenodd" clip-rule="evenodd" d="M12.7593 17.7783C12.52 17.7781 12.3258 17.9831 12.3256 18.2363C12.3256 18.2363 12.3256 18.2365 12.3256 18.2368C12.3254 18.4897 12.5193 18.6951 12.7585 18.6953C13.4243 18.6959 14.6912 18.697 15.357 18.6975C15.5964 18.6978 15.7906 18.4927 15.7908 18.2399C15.7908 18.2396 15.7908 18.2393 15.7908 18.2393C15.791 17.9862 15.5971 17.7808 15.3577 17.7806C14.692 17.78 13.425 17.7789 12.7593 17.7783V17.7783Z" fill="white"/>
<path fill-rule="evenodd" clip-rule="evenodd" d="M10.617 11.7834C10.3775 11.7832 10.1834 11.9883 10.1832 12.2414C10.1832 12.2414 10.1832 12.2417 10.1832 12.2419C10.183 12.4948 10.3768 12.7002 10.6162 12.7004C11.9768 12.7016 16.1529 12.7053 17.5135 12.7065C17.7528 12.7067 17.947 12.5016 17.9472 12.2488C17.9472 12.2485 17.9472 12.2482 17.9472 12.2482C17.9474 11.9951 17.7535 11.7897 17.5142 11.7895C16.1536 11.7883 11.9775 11.7846 10.617 11.7834V11.7834Z" fill="white"/>
<path fill-rule="evenodd" clip-rule="evenodd" d="M12.046 9.46677C11.8766 9.28799 11.6022 9.28831 11.4331 9.46751C11.4331 9.46751 11.4329 9.4677 11.4327 9.46789C11.2638 9.64689 11.2641 9.93707 11.4335 10.1159C12.3668 11.1006 15.1649 14.0529 16.0982 15.0376C16.2677 15.2164 16.5421 15.2161 16.711 15.037C16.7112 15.0369 16.7114 15.0367 16.7114 15.0367C16.8805 14.8575 16.8802 14.5673 16.7108 14.3885C15.7775 13.4038 12.9793 10.4515 12.046 9.46677V9.46677Z" fill="white"/>
<path fill-rule="evenodd" clip-rule="evenodd" d="M11.4391 14.3964C11.2701 14.5757 11.2706 14.8658 11.4402 15.0445C11.4402 15.0445 11.4404 15.0447 11.4406 15.0449C11.61 15.2234 11.8844 15.2229 12.0534 15.0436C12.984 14.0562 15.7743 11.0955 16.7049 10.108C16.8739 9.9287 16.8734 9.63852 16.704 9.46002C16.7038 9.45983 16.7036 9.45964 16.7036 9.45964C16.5341 9.28095 16.2596 9.28145 16.0907 9.46073C15.16 10.4482 12.3698 13.4089 11.4391 14.3964V14.3964Z" fill="white"/>
<path fill-rule="evenodd" clip-rule="evenodd" d="M14.0052 2.45282C7.58544 2.45282 2.3933 7.65241 2.3933 14.0513C2.3933 20.4502 7.58544 25.6498 14.0052 25.6498C20.425 25.6498 25.6171 20.4502 25.6171 14.0513C25.6171 7.65241 20.425 2.45282 14.0052 2.45282ZM1.82227 14.0513C1.82227 7.3158 7.28344 1.86783 14.0052 1.86783C20.727 1.86783 26.1881 7.3158 26.1881 14.0513C26.1881 20.7869 20.727 26.2348 14.0052 26.2348C7.28344 26.2348 1.82227 20.7869 1.82227 14.0513Z" fill="#F0827D"/>
</svg>
