<svg width="28" height="28" viewBox="0 0 28 28" fill="none" xmlns="http://www.w3.org/2000/svg">
<path d="M23.3807 16.9425C23.3807 20.2776 19.3104 21.6329 14.2567 21.6329C9.20294 21.6329 5.07347 20.2776 5.07347 16.9425C5.07347 13.6074 9.17331 10.9087 14.227 10.9087C19.2807 10.9087 23.3807 13.6133 23.3807 16.9425Z" fill="#24A95A"/>
<path d="M22.4511 9.67305C22.4511 7.91713 21.0174 6.49117 19.2519 6.49117C18.3338 6.49117 17.5062 6.87722 16.9231 7.49209C16.8328 7.58732 16.7008 7.63372 16.5721 7.60775C15.8333 7.45859 15.0518 7.37503 14.2455 7.37503C13.4393 7.37503 12.6579 7.45366 11.9191 7.60643C11.7903 7.63307 11.6577 7.58741 11.5669 7.49232C10.979 6.87732 10.152 6.49117 9.23919 6.49117C7.47364 6.49117 6.03989 7.91713 6.03989 9.67305C6.03989 10.1852 6.16105 10.6649 6.37444 11.0916C6.42554 11.1938 6.43069 11.3134 6.38648 11.4188C6.17945 11.912 6.06951 12.4329 6.06951 12.9728C6.06951 16.0663 9.73093 18.5706 14.2455 18.5706C18.7602 18.5706 22.4216 16.0663 22.4216 12.9728C22.4216 12.4329 22.3116 11.912 22.1045 11.4188C22.0603 11.3134 22.0655 11.1938 22.1166 11.0916C22.33 10.6649 22.4511 10.1852 22.4511 9.67305Z" fill="#32DA6D"/>
<path d="M8.97806 11.4382C10.0579 11.4382 10.9332 10.5676 10.9332 9.49367C10.9332 8.41975 10.0579 7.54919 8.97806 7.54919C7.89828 7.54919 7.02294 8.41975 7.02294 9.49367C7.02294 10.5676 7.89828 11.4382 8.97806 11.4382Z" fill="white"/>
<path d="M19.4086 11.4382C20.4882 11.4382 21.3637 10.5676 21.3637 9.49367C21.3637 8.41975 20.4882 7.54919 19.4086 7.54919C18.3287 7.54919 17.4534 8.41975 17.4534 9.49367C17.4534 10.5676 18.3287 11.4382 19.4086 11.4382Z" fill="white"/>
<path d="M7.94051 21.3928C8.36117 21.3928 8.69295 21.0275 8.64556 20.6151C8.47375 19.1537 7.745 15.9895 4.53978 14.0863C1.02616 11.9993 2.6978 17.5479 3.39652 19.5695C3.53785 19.9783 3.37395 20.4324 2.99875 20.6478L2.76831 20.78C2.47208 20.9509 2.59649 21.3928 2.9342 21.3928H7.94051Z" fill="#32DA6D"/>
<path d="M20.6738 21.3928C20.2946 21.3928 19.9984 21.0275 20.0399 20.6151C20.188 19.1596 20.8516 15.9895 23.7428 14.0863C26.9443 11.9831 25.386 17.6346 24.764 19.6159C24.642 20.0045 24.7921 20.4277 25.1362 20.6456L25.3484 20.78C25.6149 20.9509 25.5024 21.3928 25.2003 21.3928H20.6738Z" fill="#32DA6D"/>
<path d="M8.98071 10.6567C9.62487 10.6567 10.1471 10.1345 10.1471 9.49033C10.1471 8.84618 9.62487 8.324 8.98071 8.324C8.33656 8.324 7.81436 8.84618 7.81436 9.49033C7.81436 10.1345 8.33656 10.6567 8.98071 10.6567Z" fill="#092511"/>
<path d="M19.4113 10.6567C20.0554 10.6567 20.5775 10.1345 20.5775 9.49033C20.5775 8.84618 20.0554 8.324 19.4113 8.324C18.7671 8.324 18.2449 8.84618 18.2449 9.49033C18.2449 10.1345 18.7671 10.6567 19.4113 10.6567Z" fill="#092511"/>
<path d="M16.8336 14.003C17.1228 14.0279 17.3414 14.2844 17.2686 14.5654C17.2097 14.7924 17.1254 15.0127 17.0169 15.2219C16.8275 15.5871 16.568 15.9113 16.2533 16.1762C15.9385 16.4411 15.5747 16.6414 15.1825 16.7656C14.7904 16.8899 14.3776 16.9358 13.9678 16.9005C13.5579 16.8652 13.159 16.7496 12.7939 16.5601C12.4287 16.3707 12.1045 16.1113 11.8396 15.7965C11.5747 15.4818 11.3744 15.1179 11.2501 14.7258C11.1612 14.4452 11.1125 14.1541 11.1049 13.861C11.0998 13.6676 11.2716 13.5245 11.4644 13.5411L14.2363 13.7795L16.8336 14.003Z" fill="#092511"/>
</svg>
