<svg width="128" height="72" viewBox="0 0 128 72" fill="none" xmlns="http://www.w3.org/2000/svg">
   <g clip-path="url(#clip0_367_13109)">
      <path d="M4 36C4 18.3269 18.3269 4 36 4C53.6731 4 68 18.3269 68 36C68 53.6731 53.6731 68 36 68C18.3269 68 4 53.6731 4 36Z" fill="#BDEFDB" />
      <rect x="10.4" y="10.3999" width="51.2" height="51.2" rx="25.6" fill="#BDEFDB" />
      <path d="M52.8 4H76L20.8 68H-2.40002L52.8 4Z" fill="white" fill-opacity="0.1" />
      <g clip-path="url(#clip1_367_13109)">
         <g clip-path="url(#clip2_367_13109)">
            <path d="M51.3933 40.7929C51.3933 46.3146 44.6905 48.5596 36.3616 48.5596C28.0327 48.5596 21.2324 46.3146 21.2324 40.7929C21.2324 35.2712 27.9839 30.7949 36.3128 30.7949C44.6417 30.7949 51.3933 35.2712 51.3933 40.7929Z" fill="#1F7F58" />
            <path d="M49.856 28.7454C49.8554 27.6601 49.5199 26.6014 48.8952 25.714C48.2704 24.8266 47.387 24.1536 46.3655 23.787C45.3441 23.4204 44.2343 23.3781 43.1879 23.6658C42.1414 23.9535 41.2093 24.5572 40.5188 25.3945C37.7659 24.7867 34.9135 24.7867 32.1606 25.3945C31.3218 24.3723 30.1293 23.7027 28.8199 23.5186C27.5104 23.3345 26.1796 23.6494 25.0914 24.4007C24.0033 25.1519 23.2372 26.2848 22.9453 27.5745C22.6534 28.8642 22.8569 30.2165 23.5155 31.3632C23.0922 32.2533 22.8709 33.2259 22.8673 34.2114C22.8673 39.3329 28.8985 43.4842 36.3373 43.4842C43.776 43.4842 49.8072 39.3329 49.8072 34.2114C49.8041 33.2258 49.5828 32.2531 49.1591 31.3632C49.617 30.5668 49.8574 29.664 49.856 28.7454Z" fill="#29A874" />
            <path d="M27.6745 31.6736C29.4534 31.6736 30.8956 30.2315 30.8956 28.4525C30.8956 26.6736 29.4534 25.2314 27.6745 25.2314C25.8956 25.2314 24.4534 26.6736 24.4534 28.4525C24.4534 30.2315 25.8956 31.6736 27.6745 31.6736Z" fill="white" />
            <path d="M44.8536 31.6736C46.6325 31.6736 48.0746 30.2315 48.0746 28.4525C48.0746 26.6736 46.6325 25.2314 44.8536 25.2314C43.0746 25.2314 41.6325 26.6736 41.6325 28.4525C41.6325 30.2315 43.0746 31.6736 44.8536 31.6736Z" fill="white" />
            <path d="M25.9517 48.1695C26.1152 48.1696 26.2769 48.1353 26.4262 48.0688C26.5755 48.0022 26.709 47.9049 26.8182 47.7832C26.9273 47.6616 27.0096 47.5182 27.0596 47.3626C27.1096 47.207 27.1262 47.0426 27.1084 46.8801C26.837 44.4604 25.6335 39.2188 20.3539 36.0661C13.3261 31.8689 18.8898 46.3149 18.8898 46.3149L17.4364 47.1524C17.3323 47.2121 17.2508 47.3046 17.2047 47.4154C17.1585 47.5263 17.1503 47.6492 17.1812 47.7652C17.2122 47.8812 17.2806 47.9837 17.3758 48.0568C17.471 48.13 17.5877 48.1695 17.7078 48.1695H25.9517Z" fill="#29A874" />
            <path d="M46.9287 48.1695C46.302 48.1695 45.8121 47.5682 45.8823 46.8801C46.1283 44.4604 47.2157 39.2188 51.9877 36.0661C58.3401 31.8689 53.3113 46.3149 53.3113 46.3149L54.6251 47.1524C55.0624 47.4306 54.8837 48.1695 54.3791 48.1695H46.9287Z" fill="#29A874" />
            <path d="M27.6745 29.038C27.998 29.038 28.2602 28.7758 28.2602 28.4523C28.2602 28.1289 27.998 27.8667 27.6745 27.8667C27.3511 27.8667 27.0889 28.1289 27.0889 28.4523C27.0889 28.7758 27.3511 29.038 27.6745 29.038Z" fill="black" />
            <path d="M44.8535 29.038C45.177 29.038 45.4392 28.7758 45.4392 28.4523C45.4392 28.1289 45.177 27.8667 44.8535 27.8667C44.5301 27.8667 44.2679 28.1289 44.2679 28.4523C44.2679 28.7758 44.5301 29.038 44.8535 29.038Z" fill="black" />
         </g>
      </g>
   </g>
   <path d="M36 64C20.536 64 8 51.464 8 36H0C0 55.8823 16.1177 72 36 72V64ZM64 36C64 51.464 51.464 64 36 64V72C55.8823 72 72 55.8823 72 36H64ZM36 8C51.464 8 64 20.536 64 36H72C72 16.1177 55.8823 0 36 0V8ZM36 0C16.1177 0 0 16.1177 0 36H8C8 20.536 20.536 8 36 8V0Z" fill="white" fill-opacity="0.4" />
   <path d="M60 36C60 18.3269 74.3269 4 92 4C109.673 4 124 18.3269 124 36C124 53.6731 109.673 68 92 68C74.3269 68 60 53.6731 60 36Z" fill="#171717" />
   <path fill-rule="evenodd" clip-rule="evenodd" d="M92 10.3999C106.138 10.3999 117.6 21.8614 117.6 35.9999C117.6 50.1383 106.138 61.5999 92 61.5999C77.8615 61.5999 66.4 50.1383 66.4 35.9999C66.4 21.8614 77.8615 10.3999 92 10.3999Z" fill="#171717" />
   <path fill-rule="evenodd" clip-rule="evenodd" d="M91.9505 21.2305C100.107 21.2305 106.72 27.8429 106.72 35.9996C106.72 44.1565 100.107 50.7689 91.9505 50.7689C83.7937 50.7689 77.1813 44.1565 77.1813 35.9996C77.1813 27.8429 83.7937 21.2305 91.9505 21.2305Z" fill="black" />
   <path opacity="0.67" fill-rule="evenodd" clip-rule="evenodd" d="M92.402 14.7786C92.1985 14.5914 92.0936 14.5879 92.076 14.5879C92.0583 14.5879 91.9533 14.5914 91.7501 14.7786C91.5412 14.9707 91.2918 15.3021 91.0229 15.8135C90.4862 16.8344 89.9726 18.3773 89.5299 20.3683C89.0321 22.6071 88.6386 25.3437 88.3905 28.4071C89.5891 28.987 90.8218 29.6175 92.0756 30.2946C93.3296 29.6174 94.5625 28.9868 95.7614 28.4067C95.5132 25.3435 95.1197 22.6071 94.6219 20.3683C94.1793 18.3773 93.6656 16.8344 93.1289 15.8135C92.8603 15.3021 92.6106 14.9707 92.402 14.7786ZM91.0266 30.8692C90.1057 30.38 89.1986 29.9171 88.3103 29.4823C88.243 30.4685 88.1906 31.485 88.1541 32.5267C88.6239 32.2454 89.1005 31.9649 89.5836 31.6863C90.0666 31.4076 90.548 31.1352 91.0266 30.8692ZM87.4235 27.9466C88.1427 19.5464 89.9546 13.5859 92.076 13.5859C94.1972 13.5859 96.0089 19.5463 96.7284 27.9463C104.367 24.3691 110.438 22.957 111.499 24.793C112.559 26.629 108.3 31.1772 101.381 35.9998C108.3 40.8225 112.559 45.3705 111.499 47.2065C110.438 49.0426 104.367 47.6306 96.7284 44.0532C96.0089 52.4533 94.1972 58.4135 92.076 58.4135C89.9546 58.4135 88.1427 52.4531 87.4235 44.053C79.7844 47.6304 73.7133 49.0426 72.6526 47.2065C71.592 45.3705 75.8511 40.8225 82.7705 35.9998C75.8511 31.1772 71.592 26.629 72.6526 24.793C73.7133 22.957 79.7844 24.3691 87.4235 27.9466ZM83.6534 35.3927C81.1227 33.6462 78.9478 31.9374 77.2564 30.3869C75.7525 29.0083 74.6722 27.7922 74.0559 26.8173C73.7471 26.3289 73.5847 25.9472 73.5226 25.6706C73.4622 25.4013 73.5116 25.3091 73.5202 25.2942V25.2942C73.5288 25.2792 73.5842 25.1901 73.8482 25.1077C74.1192 25.023 74.5314 24.9728 75.1091 24.9958C76.2622 25.0417 77.8562 25.3687 79.803 25.981C81.9921 26.6696 84.5602 27.6974 87.3389 29.0143C87.2422 30.3416 87.1723 31.7234 87.1321 33.1469C85.9183 33.8938 84.7555 34.6453 83.6534 35.3927ZM83.6534 36.6068C81.1227 38.3533 78.9478 40.0622 77.2564 41.6127C75.7525 42.9913 74.6722 44.2073 74.0559 45.1822C73.7471 45.6706 73.5847 46.0523 73.5226 46.3289C73.4622 46.5982 73.5116 46.6906 73.5202 46.7053C73.5288 46.7203 73.5842 46.8094 73.8482 46.8919C74.1192 46.9766 74.5314 47.0268 75.1091 47.0037C76.2622 46.9577 77.8562 46.6309 79.803 46.0186C81.9921 45.3299 84.5602 44.3022 87.3389 42.9853C87.2422 41.658 87.1723 40.2761 87.1321 38.8526C85.9183 38.1058 84.7555 37.3543 83.6534 36.6068ZM87.1055 37.6574C86.221 37.105 85.3661 36.5512 84.545 35.9998C85.3661 35.4483 86.221 34.8945 87.1055 34.3422C87.0966 34.8896 87.0921 35.4423 87.0921 35.9998C87.0921 36.5572 87.0966 37.1102 87.1055 37.6574ZM88.1199 38.2821C88.1028 37.5323 88.094 36.771 88.094 35.9998C88.094 35.2288 88.1028 34.4672 88.1199 33.7174C88.7611 33.3278 89.4164 32.9396 90.0844 32.554C90.7527 32.1684 91.4171 31.7952 92.0756 31.435C92.7341 31.7952 93.3985 32.1684 94.0668 32.554C94.7352 32.9396 95.3908 33.328 96.032 33.7178C96.0491 34.4674 96.0579 35.2288 96.0579 35.9998C96.0579 36.7707 96.0491 37.5321 96.032 38.2817C95.3908 38.6716 94.7352 39.0599 94.0668 39.4455C93.3985 39.8311 92.7341 40.2043 92.0756 40.5647C91.4171 40.2043 90.7527 39.8311 90.0844 39.4455C89.4164 39.0599 88.7611 38.6718 88.1199 38.2821ZM88.1541 39.4729C88.1906 40.5145 88.243 41.531 88.3103 42.5172C89.1986 42.0825 90.1057 41.6195 91.0266 41.1303C90.548 40.8644 90.0666 40.592 89.5836 40.3133C89.1005 40.0346 88.6239 39.7542 88.1541 39.4729ZM92.0756 41.705C90.8218 42.3819 89.5891 43.0125 88.3905 43.5926C88.6386 46.6559 89.0321 49.3925 89.5299 51.6312C89.9726 53.6223 90.4862 55.1653 91.0229 56.1861C91.2918 56.6974 91.5412 57.0289 91.7501 57.2211C91.9533 57.4081 92.0583 57.4117 92.076 57.4117C92.0936 57.4117 92.1985 57.4081 92.402 57.2211C92.6106 57.0289 92.8603 56.6974 93.1289 56.1861C93.6656 55.1653 94.1793 53.6223 94.6219 51.6312C95.1197 49.3925 95.5132 46.6559 95.7614 43.5928C94.5625 43.0127 93.3296 42.3821 92.0756 41.705ZM96.813 42.9855C99.5915 44.3022 102.159 45.3301 104.348 46.0186C106.295 46.6309 107.889 46.9577 109.042 47.0037C109.62 47.0268 110.032 46.9766 110.303 46.8919C110.567 46.8094 110.623 46.7203 110.631 46.7053C110.64 46.6906 110.689 46.5984 110.629 46.3289C110.567 46.0523 110.404 45.6706 110.095 45.1822C109.479 44.2073 108.399 42.9913 106.895 41.6127C105.204 40.0622 103.028 38.3533 100.498 36.6068C99.3959 37.354 98.2333 38.1056 97.0197 38.8522C96.9795 40.2759 96.9096 41.6582 96.813 42.9855ZM100.498 35.3927C103.028 33.6462 105.204 31.9374 106.895 30.3869C108.399 29.0083 109.479 27.7922 110.095 26.8173C110.404 26.3289 110.567 25.9472 110.629 25.6706C110.689 25.4012 110.64 25.309 110.631 25.2942C110.623 25.2793 110.567 25.1902 110.303 25.1077C110.032 25.023 109.62 24.9728 109.042 24.9958C107.889 25.0417 106.295 25.3687 104.348 25.981C102.159 26.6696 99.5915 27.6973 96.813 29.014C96.9096 30.3415 96.9795 31.7236 97.0197 33.1474C98.2333 33.894 99.3959 34.6455 100.498 35.3927ZM97.0464 34.3426C97.9307 34.8947 98.7852 35.4485 99.6062 35.9998C98.7852 36.551 97.9307 37.1048 97.0464 37.6569C97.0552 37.1097 97.0597 36.5572 97.0597 35.9998C97.0597 35.4423 97.0552 34.8898 97.0464 34.3426ZM95.9978 32.5271C95.9615 31.4852 95.9089 30.4684 95.8415 29.482C94.953 29.9169 94.0457 30.3799 93.1247 30.8692C93.6034 31.1352 94.0846 31.4076 94.5676 31.6863C95.0509 31.9651 95.5278 32.2456 95.9978 32.5271ZM95.8415 42.5177C94.953 42.0827 94.0457 41.6197 93.1247 41.1303C93.6034 40.8644 94.0846 40.592 94.5676 40.3133C95.0509 40.0344 95.5278 39.754 95.9978 39.4725C95.9615 40.5145 95.9089 41.5312 95.8415 42.5177Z" fill="white" />
   <path fill-rule="evenodd" clip-rule="evenodd" d="M77.7499 29.7231C78.6204 29.7231 79.3261 30.4292 79.3261 31.3001C79.3261 32.171 78.6204 32.877 77.7499 32.877C76.8794 32.877 76.1738 32.171 76.1738 31.3001C76.1738 30.4292 76.8794 29.7231 77.7499 29.7231Z" fill="white" />
   <path fill-rule="evenodd" clip-rule="evenodd" d="M102.8 24.3228C103.671 24.3228 104.377 25.0288 104.377 25.8997C104.377 26.7706 103.671 27.4766 102.8 27.4766C101.929 27.4766 101.223 26.7706 101.223 25.8997C101.223 25.0288 101.929 24.3228 102.8 24.3228Z" fill="white" />
   <path fill-rule="evenodd" clip-rule="evenodd" d="M88.9001 49.0737C89.7709 49.0737 90.4769 49.7793 90.4769 50.6499C90.4769 51.5202 89.7709 52.226 88.9001 52.226C88.0291 52.226 87.3231 51.5202 87.3231 50.6499C87.3231 49.7793 88.0291 49.0737 88.9001 49.0737Z" fill="white" />
   <path fill-rule="evenodd" clip-rule="evenodd" d="M91.9884 33.3184C93.4631 33.3184 94.6583 34.5136 94.6583 35.988C94.6583 37.4626 93.4631 38.6579 91.9884 38.6579C90.514 38.6579 89.3188 37.4626 89.3188 35.988C89.3188 34.5136 90.514 33.3184 91.9884 33.3184Z" fill="white" />
   <path d="M92 64C76.536 64 64 51.464 64 36H56C56 55.8823 72.1177 72 92 72V64ZM120 36C120 51.464 107.464 64 92 64V72C111.882 72 128 55.8823 128 36H120ZM92 8C107.464 8 120 20.536 120 36H128C128 16.1177 111.882 0 92 0V8ZM92 0C72.1177 0 56 16.1177 56 36H64C64 20.536 76.536 8 92 8V0Z" fill="white" fill-opacity="0.4" />
   <defs>
      <clipPath id="clip0_367_13109">
         <path d="M4 36C4 18.3269 18.3269 4 36 4C53.6731 4 68 18.3269 68 36C68 53.6731 53.6731 68 36 68C18.3269 68 4 53.6731 4 36Z" fill="white" />
      </clipPath>
      <clipPath id="clip1_367_13109">
         <rect width="38.4" height="38.4" fill="white" transform="translate(16.8 16.7998)" />
      </clipPath>
      <clipPath id="clip2_367_13109">
         <rect width="38.4" height="25.0853" fill="white" transform="translate(16.8 23.4746)" />
      </clipPath>
   </defs>
</svg>
   