<svg width="19" height="20" viewBox="0 0 19 20" fill="none" xmlns="http://www.w3.org/2000/svg">
<path d="M10.1872 9.56524L13.4619 6.27713L2.88478 0.308055C2.18378 -0.0722396 1.52707 -0.125614 0.951203 0.290264L10.1872 9.56524ZM14.02 13.4149L17.4243 11.4923C18.0887 11.1187 18.4531 10.5894 18.4531 10.0022C18.4531 9.41623 18.0887 8.88582 17.4254 8.5122L14.3434 6.77418L10.8738 10.2569L14.02 13.4149ZM0.381983 1.09867C0.311108 1.31773 0.27124 1.56236 0.27124 1.83035V18.1819C0.27124 18.6056 0.364265 18.9703 0.532594 19.2605L9.49947 10.2558L0.381983 1.09867ZM10.1872 10.9452L1.27014 19.8999C1.44069 19.9655 1.62452 20 1.81832 20C2.16384 20 2.52376 19.8977 2.89032 19.6931L13.1396 13.9142L10.1872 10.9452Z" fill="#3ACF92"/>
</svg>
