<svg width="41" height="40" viewBox="0 0 41 40" fill="none" xmlns="http://www.w3.org/2000/svg">
<path d="M0.25 20C0.25 8.95431 9.20431 0 20.25 0C31.2957 0 40.25 8.95431 40.25 20C40.25 31.0457 31.2957 40 20.25 40C9.20431 40 0.25 31.0457 0.25 20Z" fill="#040506"/>
<path d="M31.5642 8.68826C28.5407 5.66409 24.5243 4 20.2516 4C11.4277 4 4.25 11.178 4.25 20.0009C4.25 28.8237 11.4277 36.0017 20.2516 36.0017C24.5243 36.0017 28.5439 34.3377 31.5642 31.3135C34.5877 28.2893 36.25 24.2731 36.25 20.0009C36.25 15.7286 34.5877 11.7092 31.5642 8.68826ZM20.2516 34.8945C12.0394 34.8945 5.3582 28.2125 5.3582 20.0009C5.3582 11.7892 12.0394 5.10726 20.2516 5.10726C28.4638 5.10726 35.1451 11.7892 35.1451 20.0009C35.1451 28.2125 28.4638 34.8945 20.2516 34.8945Z" fill="white"/>
<path d="M25.5046 20.3789C24.4797 19.4636 23.1377 18.8524 21.8373 18.2604L21.8277 18.2572C19.5344 17.2107 17.5518 16.3051 17.6928 14.1641C17.7536 13.3481 18.3461 12.8552 18.833 12.5896C19.3807 12.2888 20.1077 12.1096 20.7804 12.1096C20.8604 12.1096 20.9405 12.1128 21.0173 12.116C22.9743 12.2472 24.5181 13.076 26.0267 14.7978L26.1163 14.9033L26.2221 14.8138L26.8114 14.3018L26.9171 14.2089L26.8242 14.1033C25.1427 12.1768 23.317 11.2072 21.0846 11.0567C20.9885 11.0471 20.886 11.0439 20.7739 11.0439C20.7066 11.0439 20.633 11.0439 20.5562 11.0471H20.4601C18.9963 11.0471 17.3917 11.5272 16.1714 12.3336C14.7141 13.2969 13.8973 14.6218 13.875 16.065C13.8173 19.5756 16.6903 20.7565 19.2237 21.803L19.2302 21.8061L19.2558 21.8158C21.4978 22.7438 23.4323 23.5439 23.3907 25.6879C23.3715 27.1025 21.3473 27.8832 19.9572 27.8832H19.8995H19.7618V27.8865C17.6896 27.8257 15.8383 26.9328 14.2593 25.2399L14.1632 25.1375L14.0607 25.2304L13.4874 25.7616L13.3849 25.8576L13.481 25.9599C15.2746 27.8897 17.4877 28.9265 19.8835 28.9553H19.9925C21.5394 28.9553 23.2209 28.5393 24.4893 27.8385C26.078 26.9712 27.0035 25.7072 27.0996 24.2799C27.2086 22.7118 26.6865 21.4349 25.5046 20.3789ZM18.0675 17.3258C18.9803 18.1067 20.2167 18.6668 21.4113 19.2076L21.4338 19.2172C22.6988 19.7996 23.8967 20.35 24.7648 21.1149C25.7256 21.9598 26.1324 22.939 26.0458 24.1966C25.9658 25.4415 25.0402 26.2736 24.1979 26.776C24.3612 26.4432 24.4508 26.0816 24.4604 25.6976C24.4797 24.4047 23.9832 23.3711 22.939 22.5325C22.0263 21.7998 20.8156 21.3037 19.6433 20.8205C17.2059 19.8188 14.903 18.8716 14.9447 16.0746C14.9575 14.9993 15.6045 13.9817 16.7671 13.2105C16.8056 13.1849 16.844 13.1592 16.8857 13.1337C16.7479 13.4345 16.6711 13.7481 16.6518 14.0777C16.559 15.3738 17.0234 16.4363 18.0675 17.3258Z" fill="white"/>
</svg>
