<svg xmlns="http://www.w3.org/2000/svg" width="40" viewBox="0 0 981.738 992.728">
  <rect width="797" height="841" rx="148" transform="translate(133.869 96.364)"/>
  <g fill="#4d00eb">
    <path d="M977.083 281.534A238.758 238.758 0 0 0 968 249.5q-3.86-10.421-8.628-20.275a242.689 242.689 0 0 0-14.872-26.043 229.173 229.173 0 0 0-18.05-23.7v-.114a114.34 114.34 0 0 0-7.674-8.174c-.749-.817-1.544-1.544-2.27-2.27L816.563 68.772l-.25.136A225.023 225.023 0 0 0 654.431 0H225.7C101.172.1.213 100.968 0 225.5v440.283a225.3 225.3 0 0 0 62.732 155.662l106.211 106.1a228.073 228.073 0 0 0 29.97 25.179 238.853 238.853 0 0 0 25.7 15.348 224.055 224.055 0 0 0 57.17 20.116 226.875 226.875 0 0 0 45.409 4.541h428.569a225.205 225.205 0 0 0 45.7-4.541c7.334-1.544 14.349-3.474 21.478-5.608a225.5 225.5 0 0 0 89.092-52.561q8.174-7.969 15.893-16.869a225.06 225.06 0 0 0 26.246-37.871 316.903 316.903 0 0 0 5.313-10.376c3.178-6.448 6.039-13.214 8.628-20.116 1.158-3.474 2.429-7.039 3.474-10.421a191.141 191.141 0 0 0 5.608-21.683 226.894 226.894 0 0 0 4.541-45.409V326.943a227.6 227.6 0 0 0-4.534-45.613M755.761 913.738H327.148a144.765 144.765 0 0 1-78.012-22.545 147.056 147.056 0 0 1-68.545-124.034V326.943A146.716 146.716 0 0 1 327.148 180.5h428.613a146.238 146.238 0 0 1 124.261 68.613 144.512 144.512 0 0 1 22.523 78.012v440.056a146.716 146.716 0 0 1-146.716 146.557"/>
    <path d="M651.706 580.256H420.122a32.672 32.672 0 1 0 0 65.343h113.045v64.685l.681-.545a32.649 32.649 0 0 0 56.761 19.8l85.3-94.655a32.649 32.649 0 0 0-24.271-54.491"/>
    <path d="M417.67 520.43h231.449a32.693 32.693 0 1 0 1.544-65.368H536.074v-64.751l-.681.545a32.558 32.558 0 0 0-56.761-19.707l-85.3 94.7a32.649 32.649 0 0 0 24.271 54.491"/>
  </g>
</svg>
